<?xml version="1.0"?>
<svg width="512" height="512" viewBox="0 0 510 510" xmlns="http://www.w3.org/2000/svg">
  <title>Tree-Branch</title>
  <!-- icon licensed by flaticon.com -->
  <g>
    <path fill="#ebeff2" d="m460.297 421.965c-19.255-19.255-47.907-24.833-72.991-14.208l-5.593 2.369-2.368 5.593c-10.627 25.085-5.05 53.736 14.206 72.993 19.261 19.258 47.909 24.828 72.992 14.207l5.593-2.369 2.369-5.593c10.625-25.086 5.048-53.736-14.208-72.992zm-11.457 55.289c-12.158 2.849-25.014-.695-34.076-9.756-9.06-9.062-12.603-21.914-9.756-34.076 12.161-2.849 25.016.695 34.076 9.756 9.061 9.061 12.603 21.914 9.756 34.076z"/>
    <path fill="#ebeff2" d="m126.524 365.817-5.593-2.369c-25.085-10.622-53.736-5.047-72.991 14.208-19.256 19.255-24.833 47.906-14.208 72.992l2.369 5.593 5.593 2.369c25.08 10.621 53.732 5.051 72.992-14.208 19.255-19.256 24.832-47.907 14.207-72.992zm-33.052 57.373c-9.062 9.061-21.914 12.602-34.077 9.756-2.848-12.163.696-25.015 9.757-34.076 9.062-9.061 21.917-12.603 34.076-9.756 2.848 12.161-.695 25.014-9.756 34.076z"/>
    <path fill="#ebeff2" d="m374.046 311.93c22.908 5.734 46.633-1.102 63.062-17.527 19.255-19.257 24.831-47.908 14.205-72.992l-2.368-5.593-5.593-2.369c-25.085-10.623-53.735-5.047-72.991 14.207-16.754 16.754-23.147 40.619-17.528 63.063l-84.099 84.099v-121.884l61.004-61.004c22.951 5.744 46.666-1.134 63.06-17.527 19.256-19.256 24.833-47.906 14.208-72.992l-2.369-5.593-5.593-2.369c-25.088-10.624-53.735-5.048-72.992 14.208-16.754 16.754-23.147 40.619-17.527 63.062l-39.79 39.79v-89.584c19.841-11.896 32.196-33.291 32.196-56.984 0-27.231-16.315-51.434-41.566-61.659l-5.632-2.282-5.63 2.28c-25.251 10.226-41.567 34.428-41.567 61.659 0 23.693 12.355 45.088 32.197 56.984v88.893l-39.099-39.1c5.618-22.441-.774-46.308-17.528-63.06-19.255-19.254-47.906-24.83-72.991-14.208l-5.593 2.369-2.369 5.593c-10.625 25.085-5.048 53.735 14.207 72.992 12.772 12.772 29.675 19.526 46.933 19.526 5.379 0 10.794-.663 16.127-1.999l60.312 60.313v121.883l-83.408-83.408c5.618-22.441-.774-46.308-17.528-63.061-19.255-19.256-47.907-24.833-72.991-14.208l-5.593 2.369-2.369 5.593c-10.625 25.085-5.048 53.736 14.208 72.992 16.403 16.402 40.119 23.27 63.06 17.527l104.622 104.621v91.633h30v-90.941zm17.527-63.061c9.061-9.061 21.915-12.602 34.076-9.756 2.848 12.162-.695 25.015-9.756 34.075-9.061 9.061-21.913 12.607-34.076 9.757-2.848-12.163.695-25.015 9.756-34.076zm-44.309-119.999c9.061-9.061 21.914-12.605 34.076-9.757 2.848 12.162-.695 25.015-9.756 34.076-9.061 9.063-21.912 12.605-34.076 9.756-2.848-12.162.694-25.014 9.756-34.075zm-176.615 34.075c-12.164 2.847-25.016-.696-34.076-9.756-9.062-9.062-12.604-21.914-9.757-34.076 12.161-2.848 25.015.696 34.076 9.756 9.062 9.062 12.605 21.914 9.757 34.076zm-44.309 120c-12.16 2.849-25.016-.695-34.076-9.756-9.061-9.062-12.604-21.914-9.756-34.076 12.161-2.849 25.015.695 34.076 9.756 9.061 9.062 12.604 21.914 9.756 34.076zm127.393-250c10.614 6.587 17.197 18.18 17.197 30.994s-6.583 24.407-17.197 30.994c-10.614-6.587-17.197-18.18-17.197-30.994s6.583-24.407 17.197-30.994z"/>
  </g>
</svg>
