<?xml version="1.0"?>
<svg xmlns="http://www.w3.org/2000/svg" viewBox="0 0 452 452" width="452" height="452">
  <title>WordPress</title>
  <defs>
    <clipPath id="a"><path d="m0 680h2e3v-680h-2e3z"/></clipPath>
  </defs>
  <g transform="matrix(1.3333 0 0 -1.3333 -12.084 901.71)">
    <g clip-path="url(#a)">
      <g transform="translate(178.55 676.28)">
        <path d="m0 0c-93.608 0-169.49-75.884-169.49-169.49 0-93.607 75.884-169.49 169.49-169.49s169.49 75.884 169.49 169.49c0 93.608-75.884 169.49-169.49 169.49m0-10.169c21.513 0 42.377-4.212 62.012-12.517 9.439-3.992 18.543-8.933 27.059-14.687 8.439-5.701 16.375-12.249 23.587-19.461s13.759-15.148 19.46-23.586c5.754-8.517 10.696-17.621 14.688-27.059 8.305-19.636 12.516-40.5 12.516-62.013 0-21.512-4.211-42.376-12.516-62.012-3.992-9.438-8.934-18.542-14.688-27.059-5.701-8.438-12.248-16.374-19.46-23.586s-15.148-13.76-23.587-19.461c-8.516-5.754-17.62-10.695-27.059-14.687-19.635-8.305-40.499-12.517-62.012-12.517s-42.377 4.212-62.012 12.517c-9.438 3.992-18.543 8.933-27.059 14.687-8.439 5.701-16.375 12.249-23.587 19.461s-13.759 15.148-19.46 23.586c-5.754 8.517-10.696 17.621-14.688 27.059-8.305 19.636-12.516 40.5-12.516 62.012 0 21.513 4.211 42.377 12.516 62.013 3.992 9.438 8.934 18.542 14.688 27.059 5.701 8.438 12.248 16.374 19.46 23.586s15.148 13.76 23.587 19.461c8.516 5.754 17.621 10.695 27.059 14.687 19.635 8.305 40.499 12.517 62.012 12.517" fill="#ebeff2"/>
      </g>
      <g transform="translate(302.5 574.56)">
        <path d="m0 0c0.606-4.498 0.95-9.324 0.95-14.523 0-14.327-2.685-30.439-10.744-50.588l-43.139-124.73c41.992 24.481 70.231 69.973 70.231 122.08 0 24.557-6.276 47.642-17.298 67.758m-121.46-80.112-42.384-123.14c12.658-3.724 26.039-5.755 39.903-5.755 16.448 0 32.226 2.839 46.906 8.008-0.378 0.604-0.726 1.246-1.014 1.946zm92.869 19.477c0 17.462-6.272 29.547-11.643 38.952-7.161 11.64-13.875 21.488-13.875 33.127 0 12.982 9.845 25.067 23.719 25.067 0.627 0 1.22-0.075 1.829-0.114-25.129 23.025-58.61 37.083-95.38 37.083-49.347 0-92.757-25.32-118.01-63.66 3.317-0.105 6.441-0.171 9.09-0.171 14.771 0 37.645 1.795 37.645 1.795 7.61 0.446 8.51-10.74 0.903-11.639 0 0-7.654-0.897-16.164-1.342l51.432-152.99 30.914 92.7-22.004 60.292c-7.61 0.445-14.814 1.342-14.814 1.342-7.614 0.449-6.722 12.085 0.896 11.639 0 0 23.32-1.795 37.198-1.795 14.77 0 37.649 1.795 37.649 1.795 7.613 0.446 8.509-10.74 0.899-11.639 0 0-7.661-0.897-16.164-1.342l51.044-151.83 14.571 46.17c6.473 20.178 10.268 34.474 10.268 46.559m-236.59-7.123c0-55.904 32.486-104.22 79.607-127.11l-67.377 184.59c-7.837-17.565-12.23-37.004-12.23-57.481" fill="#ebeff2"/>
      </g>
    </g>
  </g>
</svg>

