<?xml version="1.0" encoding="UTF-8"?>
<svg overflow="visible" viewBox="0 0 286.02 289.76" xml:space="preserve" xmlns="http://www.w3.org/2000/svg">
  <switch>
    <g fill="none">
      <path d="M0 0h286.016v289.761H0z"/>
      <path d="m67.265 203.3c4.001 17.025 13.368 32.77 24.919 43.293 12.779 11.641 27.907 5.285 41.089 9.52 9.405 3.021 17.901 6.807 28.714 3.371 16.238-5.16 38.154-46.172 42.324-61.123 2.029-7.266 45.414-39.908 56.35-47.131 16.418-10.84 8.15-28.834-9.289-19.791-11.855 6.148-51.602 40.602-57.951 34.059s36.33-73.709 43.051-83.852c10.572-15.958-10.541-26.846-19.885-13.199-5.885 8.592-44.021 77.211-50.424 74.564-6.403-2.646 8.253-81.105 10.439-94.6 3.707-22.875-20.402-27.361-24.219-4.039-2.169 13.25-13.406 91.547-19.883 92.725s-26.693-67.764-31.055-82.861c-5.918-20.477-27.516-13.882-22.154 6.934 3.877 15.059 23.036 81.072 16.934 103.57-3.52 12.971-6.746 11.518-16.583-0.264-26.474-31.703-55.667-34.346-63.162-17.869 17.558 10.337 45.353 33.576 50.785 56.693z" stroke="#ebeff2" stroke-linecap="round" stroke-linejoin="bevel" stroke-width="7"/>
      <path d="m199.34 172.9c-21.223-35.648-55.967-37.51-81.839-34.818" stroke="#ebeff2" stroke-linecap="round" stroke-linejoin="bevel" stroke-width="5"/>
    </g>
  </switch>
</svg>
