<svg xmlns="http://www.w3.org/2000/svg" width="300" height="109" fill="none" fill-rule="evenodd" xmlns:v="https://vecta.io/nano"><title>changemaker-at-reflecta</title><rect fill="#fffcf7" y="-.5" width="300" height="110" rx="8"/><g fill="#006d76"><rect width="97" height="110" rx="8"/><path d="M79 0h18v110H79z"/></g><g fill-rule="nonzero"><path d="M142.051 63.642V52.335c0-.978.216-1.795.649-2.451s1.058-.984 1.876-.984c.865 0 1.497.268 1.894.805s.596 1.175.596 1.914h0v.823h4.279l.088-.751.053-1.073c0-1.694-.438-3.053-1.315-4.079S148.048 45 146.435 45c-1.005 0-1.876.203-2.613.608s-1.298.847-1.684 1.324-.625.847-.719 1.109h0l-.631-2.684H137v18.284h5.051zm19.812.358c1.45 0 2.788-.256 4.016-.769s2.216-1.312 2.964-2.397 1.122-2.427 1.122-4.025h0-4.91c0 1.193-.31 2.093-.929 2.702s-1.467.912-2.543.912c-1.193 0-2.134-.4-2.824-1.199s-1.035-1.795-1.035-2.988h0v-.859H170v-2.719c0-1.574-.374-2.94-1.122-4.097a7.33 7.33 0 0 0-2.981-2.648c-1.239-.608-2.584-.912-4.034-.912h0-.561c-1.66 0-3.151.358-4.472 1.073s-2.368 1.753-3.139 3.113-1.157 2.958-1.157 4.795h0v1.038c0 1.861.38 3.465 1.14 4.813s1.806 2.379 3.139 3.095S159.641 64 161.301 64h0 .561zm2.946-11.486h-7.085c.094-1.145.462-2.087 1.105-2.827s1.479-1.109 2.508-1.109c1.216 0 2.099.352 2.648 1.056s.824 1.664.824 2.88h0zm31.452 12.134v-14.48h4.195v-3.523h-4.195v-2.043c0-.846.194-1.409.582-1.691s.864-.423 1.428-.423c.258 0 .611.041 1.057.123l1.128.264h0V39.74c-.47-.211-1.093-.388-1.868-.528S197.131 39 196.543 39c-3.619 0-5.428 1.762-5.428 5.285h0v2.36H189v3.523h2.115v14.48h5.146zm12.125 0V39.282h-5.146v25.366h5.146zm12.438.352c1.457 0 2.802-.252 4.036-.757s2.227-1.292 2.979-2.36 1.128-2.39 1.128-3.963h0-4.935c0 1.174-.311 2.061-.934 2.66s-1.475.898-2.556.898c-1.198 0-2.144-.393-2.838-1.18s-1.04-1.767-1.04-2.942h0v-.846h12.337v-2.678c0-1.55-.376-2.895-1.128-4.034a7.33 7.33 0 0 0-2.996-2.607c-1.245-.599-2.597-.898-4.054-.898h0-.564c-1.668 0-3.166.352-4.494 1.057s-2.379 1.726-3.155 3.065-1.163 2.912-1.163 4.721h0v1.022c0 1.832.382 3.411 1.146 4.738s1.815 2.343 3.155 3.047S218.592 65 220.26 65h0 .564zm2.961-11.309h-7.12c.094-1.127.464-2.055 1.11-2.783s1.486-1.092 2.52-1.092c1.222 0 2.109.346 2.661 1.039s.828 1.638.828 2.836h0zM240.382 65c1.41 0 2.702-.27 3.877-.81s2.121-1.374 2.838-2.501 1.075-2.525 1.075-4.192h0-4.864c0 1.315-.311 2.308-.934 2.977s-1.475 1.004-2.556 1.004c-1.034 0-1.856-.393-2.467-1.18s-.916-1.767-.916-2.942h0V54.22c0-1.268.305-2.319.916-3.153s1.445-1.251 2.503-1.251 1.856.364 2.397 1.092.811 1.703.811 2.924h0 5.111c0-1.55-.358-2.895-1.075-4.034s-1.668-2.008-2.855-2.607-2.473-.898-3.86-.898h0-.564c-1.668 0-3.149.352-4.441 1.057s-2.309 1.72-3.049 3.047-1.11 2.907-1.11 4.738h0v1.022c0 2.771.775 4.938 2.326 6.5S237.186 65 239.818 65h0 .564zm16.703 0c.587 0 1.263-.065 2.027-.194s1.381-.288 1.851-.476h0v-3.312c-.282.117-.646.223-1.093.317s-.811.141-1.093.141c-.611 0-1.099-.164-1.463-.493s-.546-.963-.546-1.902h0v-8.913h4.195v-3.523h-4.195v-5.743h-3.172l-1.798 5.743h-2.15v3.523h1.974v9.794c0 1.808.458 3.1 1.375 3.875S255.275 65 257.085 65zm21.814 0c1.198 0 2.232-.247 3.102-.74h0v-3.171a9.01 9.01 0 0 1-.67.247c-.282.094-.54.141-.775.141a.96.96 0 0 1-.723-.317c-.2-.211-.3-.528-.3-.951h0v-8.314c0-1.738-.658-3.106-1.974-4.104s-3.243-1.497-5.781-1.497h0-.74c-1.551 0-2.926.223-4.124.669s-2.133 1.069-2.802 1.867a4.11 4.11 0 0 0-1.005 2.713 4.22 4.22 0 0 0 .07.634h0 4.97v-.282c0-.282.123-.587.37-.916s.605-.605 1.075-.828 1.034-.335 1.692-.335c1.128 0 1.945.247 2.45.74s.758 1.139.758 1.938h0v1.198c-2.679 0-4.864.153-6.556.458s-3.014.898-3.965 1.779-1.428 2.155-1.428 3.822c0 2.043.576 3.429 1.727 4.157S266.89 65 268.676 65c2.397 0 4.418-1.01 6.063-3.03.117.963.517 1.709 1.198 2.237s1.668.793 2.961.793zm-8.389-3.523c-.893 0-1.557-.159-1.992-.476s-.652-.863-.652-1.638c0-.986.546-1.697 1.639-2.131s2.755-.652 4.988-.652h0v.951c0 .752-.206 1.433-.617 2.043s-.922 1.08-1.533 1.409-1.222.493-1.833.493z" fill="#1e1b2c"/><path d="M137.4 28c.884 0 1.6.728 1.6 1.625 0 .857-.653 1.559-1.481 1.621l-.119.004h-11.2v45.5h11.2c.843 0 1.535.663 1.596 1.504l.004.121c0 .857-.653 1.559-1.481 1.621L137.4 80h-12.8c-.843 0-1.535-.663-1.596-1.504l-.004-.121v-48.75c0-.857.653-1.559 1.481-1.621L124.6 28h12.8zm29.2 0c-.884 0-1.6.728-1.6 1.625 0 .857.653 1.559 1.481 1.621l.119.004h11.2v45.5h-11.2c-.843 0-1.535.663-1.596 1.504l-.004.121c0 .857.653 1.559 1.481 1.621l.119.004h12.8c.843 0 1.535-.663 1.596-1.504l.004-.121v-48.75c0-.857-.653-1.559-1.481-1.621L179.4 28h-12.8z" fill="#006d76"/><path d="M192.392 78.901v-3.986l.039-.03.091.152.096.161h0l.059.098.296.471h0l2.122 3.133h1.293v-6.802h-1.392v3.996l-.03.03c-.059-.086-.141-.221-.247-.407h0l-.296-.466-2.132-3.153H191v6.802h1.392zm11.047 0l-.168-1.22h-3.128v-1.656h2.892v-1.22h-2.892v-1.487h3.099l.168-1.22h-4.767v6.802h4.796zm4.721 0v-5.572h1.915v-1.229h-5.349v1.229h1.924v5.572h1.51zm6.468 0l1.125-4.085h.059l1.105 4.085h1.668l1.905-6.802h-1.441l-1.194 4.452h-.049l-1.194-4.452h-1.53l-1.204 4.452h-.049l-1.194-4.452h-1.589l1.895 6.802h1.688zm10.257.099c.559 0 1.068-.119 1.525-.357a2.69 2.69 0 0 0 1.091-1.041c.27-.456.405-.995.405-1.616h0v-.972c0-.621-.135-1.16-.405-1.616a2.69 2.69 0 0 0-1.091-1.041c-.457-.238-.966-.357-1.525-.357s-1.068.119-1.525.357a2.69 2.69 0 0 0-1.091 1.041c-.27.456-.405.995-.405 1.616h0v.972c0 .621.135 1.16.405 1.616a2.69 2.69 0 0 0 1.091 1.041c.457.238.966.357 1.525.357zm0-1.22c-.421 0-.763-.137-1.026-.411s-.395-.663-.395-1.165h0v-1.408c0-.502.132-.891.395-1.165s.605-.411 1.026-.411.763.137 1.026.411.395.663.395 1.165h0v1.408c0 .502-.132.891-.395 1.165s-.605.411-1.026.411zm9.862 1.19c.349 0 .632-.043.849-.129h0v-.337c-.336-.106-.503-.522-.503-1.249 0-.509-.109-.915-.326-1.22s-.47-.502-.76-.595h0v-.05c.224-.04.429-.142.617-.307a1.75 1.75 0 0 0 .439-.595c.105-.231.158-.466.158-.704 0-.595-.219-1.025-.656-1.289s-.979-.397-1.623-.397h0-3.03v6.802h1.5v-2.816h1.145c.408 0 .686.159.834.476s.222.76.222 1.329c0 .39.105.668.316.833s.484.248.819.248zm-1.855-4.085h-1.48v-1.567h1.48c.23 0 .419.071.567.213s.222.322.222.54h0v.069c0 .205-.077.38-.232.525s-.34.218-.558.218h0zm5.895 4.016v-1.775l.878-.982 1.609 2.756H243l-1.382-2.31-.967-1.626h0l2.28-2.865h-1.707l-2.438 3.113v-3.113h-1.49v6.802h1.49z" fill="#1e1b2c"/><path d="M38.372 82.176c0-.864-.187-1.637-.56-2.32s-.912-1.219-1.616-1.608-1.525-.584-2.464-.584h0v3.008h.528c.501 0 .893.152 1.176.456s.424.685.424 1.144h0v.224c0 .448-.155.827-.464 1.136s-.688.464-1.136.464h0-3.088c-.448 0-.827-.155-1.136-.464s-.464-.688-.464-1.136h0v-.08c0-.459.144-.84.432-1.144s.677-.456 1.168-.456h0 .56v-3.152c-1.013 0-1.869.203-2.568.608s-1.221.957-1.568 1.656-.52 1.491-.52 2.376h0v.448a5.14 5.14 0 0 0 .608 2.464c.405.757.973 1.363 1.704 1.816s1.56.68 2.488.68h0 1.696c.981 0 1.835-.224 2.56-.672a4.42 4.42 0 0 0 1.664-1.832c.384-.773.576-1.635.576-2.584h0v-.448zm-.16-10.784H33.94V68.8h4.272v-3.36H27.236v3.376h4.048v2.592h-4.048v3.36h10.976v-3.376zm0-11.616l-1.952-.64v-3.488l1.952-.656v-3.488l-10.976 3.664v4.176l10.976 3.664v-3.232zm-4.272-3.36v1.952l-3.328-.944v-.08l3.328-.928zm4.272-10.432h-4.864l.112-.048 4.752-3.296v-2.88H27.236v3.104h4.976l-.112.032-4.864 3.36v2.816h10.976v-3.088zm.16-13.968c0-.587-.125-1.171-.376-1.752s-.568-1.043-.952-1.384h0l1.168-.448V26.64l-.64.064c-.267.032-.821.048-1.664.048h-3.84v4.96h2.176v-1.856c.512 0 .909.12 1.192.36s.424.584.424 1.032h0v.288c0 .448-.155.827-.464 1.136s-.688.464-1.136.464h0-3.088c-.448 0-.827-.155-1.136-.464s-.464-.688-.464-1.136h0v-.08c0-.469.133-.853.4-1.152s.672-.448 1.216-.448h0v-3.104h-.112c-.768 0-1.456.203-2.064.608a4.15 4.15 0 0 0-1.424 1.632c-.341.683-.512 1.419-.512 2.208h0v.448c0 .981.213 1.861.64 2.64s1.005 1.384 1.736 1.816 1.539.648 2.424.648h0 1.696a5.03 5.03 0 0 0 2.416-.592 4.49 4.49 0 0 0 1.744-1.64c.427-.699.64-1.48.64-2.344h0v-.16zm-.16-16.704l-2.624.32v4.624h-1.776v-4.448h-2.448v4.448h-1.6v-4.624l-2.528-.32v8.24h10.976v-8.24zm18 64.896h-7.04v-.08l7.04-1.904v-3.856l-7.04-1.92v-.064h7.04v-3.36H45.236v5.536l5.856 1.552v.064l-5.856 1.584v5.504h10.976v-3.056zm0-16.848l-1.952-.64v-3.488l1.952-.656v-3.488l-10.976 3.664v4.176l10.976 3.664V63.36zM51.94 60v1.952l-3.328-.944v-.08L51.94 60zm4.272-10.608H53.78l-1.536-1.28 3.968-1.904v-3.76l-6.576 3.44-4.4-3.344v3.712l4.336 3.136h-4.336v3.264h10.976v-3.264zm0-17.536l-2.624.32V36.8h-1.776v-4.448h-2.448V36.8h-1.6v-4.624l-2.528-.32v8.24h10.976v-8.24zm.16-10.848c0-.789-.101-1.429-.304-1.92h0-.656a.9.9 0 0 1-.68.672c-.357.096-.787.144-1.288.144-.704 0-1.304.147-1.8.44s-.835.733-1.016 1.32h0-.08c-.064-.363-.229-.693-.496-.992a2.97 2.97 0 0 0-.96-.712 2.64 2.64 0 0 0-1.136-.264c-.533 0-1.005.144-1.416.432s-.731.664-.96 1.128-.344.957-.344 1.48h0v6.16h10.976v-3.28h-4.256v-.928c0-.597.216-.984.648-1.16s1-.264 1.704-.264c.747 0 1.277-.187 1.592-.56s.472-.939.472-1.696zm-6.864 2.912v1.696h-1.76V23.92a.77.77 0 0 1 .8-.8h0 .16a.77.77 0 0 1 .8.8h0z" fill="#fff"/></g><circle fill="#e7f1f2" cx="97" cy="55" r="15"/><path d="M96.258 62.754c.42 0 .93-.048 1.53-.144s1.08-.21 1.44-.342h0V61.08c-.312.156-.777.291-1.395.405s-1.143.171-1.575.171c-2.004 0-3.486-.525-4.446-1.575s-1.44-2.643-1.44-4.779c0-2.232.57-3.915 1.71-5.049s2.736-1.701 4.788-1.701c1.884 0 3.369.462 4.455 1.386s1.629 2.352 1.629 4.284c0 1.32-.138 2.205-.414 2.655s-.57.675-.882.675c-.144 0-.279-.057-.405-.171s-.189-.267-.189-.459h0v-3.564c0-.816-.345-1.476-1.035-1.98s-1.689-.756-2.997-.756h0-.558c-.816 0-1.53.114-2.142.342s-1.083.537-1.413.927a1.97 1.97 0 0 0-.495 1.305c0 .132.006.216.018.252h0 3.204v-.072c0-.228.114-.417.342-.567s.474-.225.738-.225c.324 0 .588.087.792.261s.306.423.306.747h0v.486c-1.26 0-2.295.081-3.105.243s-1.437.456-1.881.882-.666 1.029-.666 1.809c0 1.02.285 1.704.855 2.052s1.299.522 2.187.522c.624 0 1.155-.123 1.593-.369s.837-.579 1.197-.999c.204.432.48.771.828 1.017s.846.369 1.494.369c.672 0 1.305-.168 1.899-.504s1.083-.903 1.467-1.701.576-1.851.576-3.159c0-2.304-.669-4.011-2.007-5.121s-3.129-1.665-5.373-1.665c-1.488 0-2.817.267-3.987.801s-2.103 1.383-2.799 2.547-1.044 2.658-1.044 4.482c0 2.532.627 4.41 1.881 5.634s3.027 1.836 5.319 1.836zm.414-5.202c-.672 0-1.008-.27-1.008-.81 0-.348.177-.621.531-.819s.897-.297 1.629-.297h0v.738c0 .348-.111.633-.333.855s-.495.333-.819.333z" fill="#006d76" fill-rule="nonzero"/></svg>
