<svg xmlns="http://www.w3.org/2000/svg" version="1.1" width="96" height="96" viewBox="0 0 96 96"> <g fill="#ebeff2">
  <path d="M25.5 82.9 c-6.9 -1.6 -6.8 -1.3 -3.4 -8.1 l3.2 -6.3 1.8 6.4 c1 3.5 2.1 6.6 2.4 7 0.4 0.3 2.7 0.6 5.1 0.5 9.3 -0.2 15.9 -9.3 20.9 -28.9 1.7 -6.7 2.7 -12.5 2.1 -12.5 -0.2 0 -1.8 2.4 -3.5 5.3 -6.8 11.7 -15.5 17.5 -23.1 15.4 -10.5 -2.9 -13.2 -18.5 -5.7 -33.6 4.5 -9.1 14.1 -15.7 24.4 -16.7 5 -0.5 6.3 -0.2 9.2 1.9 l3.5 2.4 7 -2.3 c3.9 -1.2 7.2 -2.1 7.3 -2 0.2 0.2 -1.5 10.6 -5.7 34.1 -1.7 9.9 -2.3 12.1 -4.4 16.5 -7.4 16 -24.5 24.7 -41.1 20.9z m22.5 -30.5 c7.8 -7.1 15 -28.1 12.1 -35.2 -0.7 -1.6 -2.3 -3.5 -3.6 -4.2 -9.4 -5 -20.5 12.8 -20.5 32.9 0 10.4 4.8 13 12 6.5z"/>
</g></svg>
