<svg version="1.0" xmlns="http://www.w3.org/2000/svg" width="338" height="384">
  <g fill="none">
    <path
      d="M0 192V0h338v384H0V192zm169.05 180.1c14.45-25.2 19.2-33.4 19.65-33.7.3-.2 10.05-.4 21.65-.4h21.05l-1.9-3.35c-1.05-1.9-5.55-9.7-9.95-17.4-9.85-17.05-9.65-16.1-4.95-24.15 1.7-2.95 3.35-5.5 3.6-5.75.85-.6 16.95-.2 17.15.45.25.7 19.65 34.3 20.1 34.85.2.2 4.95-7.55 10.55-17.25 5.6-9.7 10.25-17.75 10.35-17.9.15-.15 9.75-.35 21.4-.5l21.15-.25-3.35-5.75c-14.3-24.4-16.55-28.55-16.55-30.6 0-2.15.65-3.35 15.4-28.9 2.5-4.25 4.4-7.95 4.25-8.15-.15-.25-9.55-.35-20.9-.3-16.1.1-20.85 0-21.45-.5-1.45-1.2-6.8-11.35-6.8-12.9 0-1 1.25-3.7 3.4-7.5l3.4-5.9 21.35-.25 21.35-.25-10-17.25c-8.95-15.5-10-17.5-10-19.5s1.1-4.1 10-19.5l10-17.25-21.35-.25-21.35-.25-8.65-15c-4.8-8.25-9.4-16.3-10.3-17.85l-1.6-2.9-10 17.35c-5.5 9.5-10.3 17.6-10.65 18-.5.5-2.6.65-8.5.65-4.3 0-8.1-.2-8.45-.4-.3-.2-1.9-2.65-3.6-5.5-4.75-8.1-5.1-6.75 6.85-27.35l9.9-17-21.3-.15-21.25-.1-2.95-5.15C178.6 44 172.25 33 170.35 29.65c-1.15-2-2.2-3.65-2.35-3.65-.15 0-2.8 4.35-5.85 9.65-3.05 5.25-7.65 13.25-10.2 17.7l-4.7 8.15-21.25.1-21.3.15 9.85 17c9.4 16.15 9.9 17.15 9.9 19.65.05 1.85-.25 3.1-.85 4-.5.75-1.75 2.85-2.75 4.7-2.85 5.15-2.3 4.9-11.25 4.9-4.3 0-8.1-.2-8.4-.4-.5-.35-3.9-6-16-26.9l-4.95-8.6-2.8 4.85c-1.55 2.65-5.9 10.2-9.7 16.8-3.75 6.6-7.2 12.5-7.55 13.15l-.7 1.1H38.25c-11.7 0-21.25.1-21.25.15 0 .25 16.85 29.4 19.05 33 .8 1.35 1.45 3 1.45 3.75s-2.25 5.2-5.35 10.6c-2.95 5.1-7.55 13.1-10.25 17.75l-4.9 8.5 21.3.25 21.35.25 3.4 5.9c2.25 3.85 3.45 6.45 3.45 7.45 0 1.6-5.4 11.75-6.9 13-.6.5-4.95.6-19.8.55-10.5-.1-19.85 0-20.85.25l-1.85.35 7.5 13C37.5 249.15 37 248.2 37 250.4c0 1.7-1.5 4.6-9.95 19.2l-9.95 17.15 21.15.25c11.65.15 21.25.35 21.4.5.1.15 4.65 8 10.1 17.5 5.45 9.5 10.05 17.45 10.25 17.65.2.25 4.8-7.3 10.25-16.75s10.2-17.55 10.65-18c.65-.8 1.7-.9 8.05-.9 4 0 7.75.15 8.3.3.6.15 2.2 2.35 4.15 5.8 4.05 7.2 4.1 8.45.65 14.4-1.3 2.35-5.8 10.15-9.95 17.4l-7.55 13.1h42.8l10.2 17.75c5.6 9.75 10.3 17.75 10.45 17.75.15 0 .6-.6 1.05-1.4z"/>
    <path
      d="m162.95 320.65-3.3-5.9-7.1-.15-7.05-.15V313c0-.85 1.2-3.55 3.05-6.7l3-5.3-3.2-5.6c-1.8-3.1-5.65-9.8-8.6-14.9-2.95-5.1-6.3-10.9-7.45-12.85l-2.05-3.65H88.7l-3.2 5.75-3.25 5.75-2-.1c-2-.15-2-.2-5.2-5.75l-3.2-5.65H58v-1.8c0-1.25.85-3.2 2.8-6.6 1.55-2.65 2.85-5.05 2.85-5.35 0-.25-1.3-2.65-2.85-5.3-2.95-5.05-3.65-7.85-1.9-8.05.45-.05 3.55-.15 6.85-.15h5.95l3.2-5.5c3-5.1 15.9-27.45 17.5-30.25.75-1.3.1-2.5-17.5-32.75l-3.2-5.5-6.85.05-6.85.1v-1.8c0-1.25.85-3.25 2.75-6.65 1.5-2.65 2.75-5.15 2.75-5.55 0-.35-1.25-2.75-2.75-5.35-2.05-3.5-2.75-5.15-2.75-6.6V135h13.9l3.35-5.75c3.2-5.5 3.4-5.75 5-5.75s1.8.25 5 5.75L88.6 135h41.8l4.4-7.6c2.4-4.2 7.15-12.45 10.55-18.3 3.4-5.85 6.15-10.7 6.15-10.8 0-.1-1.25-2.3-2.75-4.85-2.15-3.7-2.75-5.15-2.75-6.8V84.5l6.4.15c3.5.05 6.6-.05 6.95-.3.35-.2 2-2.85 3.7-5.85 3.1-5.4 3.2-5.5 4.95-5.5 1.7 0 1.8.1 4.95 5.7l3.25 5.7 3.6.3c2 .2 5.1.2 6.9 0l3.3-.35v2.1c0 1.65-.6 3.15-2.8 6.95-2.65 4.55-2.75 4.9-2.05 6.1.4.7 5.15 8.95 10.6 18.4l9.85 17.1 20.2.1c11.1 0 20.45.05 20.8.1.3.05 2.1-2.55 3.95-5.7 3.15-5.45 3.45-5.75 5.1-5.9 1.75-.15 1.75-.15 5 5.5l3.25 5.65 7.05.15 7.05.15v1.9c0 1.45-.7 3.15-2.75 6.6-1.5 2.6-2.75 5-2.75 5.35 0 .4 1.25 2.9 2.75 5.55 1.75 3.05 2.75 5.45 2.75 6.45v1.55l-6.85.15-6.85.15-2.05 3.5C261.1 168.2 258.3 173 256 177s-6.2 10.7-8.65 14.9c-2.45 4.2-4.35 7.95-4.2 8.25 1.15 2.85 20.95 36.15 21.7 36.4.5.2 3.65.4 7.05.4l6.1.05v1.6c0 1-1 3.25-2.8 6.35-1.55 2.65-2.85 5.05-2.85 5.3 0 .3 1.3 2.7 2.85 5.35 1.95 3.4 2.8 5.35 2.8 6.6v1.8h-13.75l-3.3 5.65c-3.2 5.55-3.25 5.6-5.2 5.75l-2 .1-3.25-5.75-3.25-5.75H205.7l-3.5 6.15c-1.95 3.35-6.75 11.65-10.65 18.5L184.4 301l3.05 5.25c1.9 3.25 3.05 5.8 3.05 6.7v1.5l-7.05.15-7.05.15-3.35 5.75c-3.2 5.45-3.45 5.75-5.1 5.9-1.7.1-1.7.05-5-5.75z"/>
  </g>
  <path
    d="M166.75 375.9c-.5-.9-5.4-9.4-10.85-18.9l-9.9-17.25-22.25-.25-22.25-.25 9.05-15.75c12.25-21.35 12.55-21.85 12.35-22.85-.1-.5-1.5-3.3-3.15-6.25-2.15-3.8-3.35-5.45-4.15-5.65-.65-.15-3.7-.25-6.85-.2-4.45.05-5.85.2-6.35.8-.35.45-5.4 9.05-11.25 19.1-5.8 10.05-10.7 18.3-10.9 18.3-.15 0-5.2-8.5-11.15-18.85l-10.85-18.85-2-.3c-1.1-.2-11.05-.25-22.15-.15-11.05.1-20.1 0-20.1-.2s4.85-8.7 10.75-18.9c5.9-10.25 10.75-18.85 10.75-19.1 0-.55-.7-1.8-12.9-23.05-4.75-8.2-8.6-15.15-8.6-15.35 0-.25 9.8-.45 21.8-.45 14.95 0 22-.15 22.45-.55.35-.3 2-3 3.7-5.95l3.1-5.45-3.45-5.95-3.45-5.9L36 187.6c-19-.1-22.05-.2-21.85-.85.2-.4 2.95-5.25 6.15-10.85 3.25-5.6 8.05-13.95 10.75-18.6l4.85-8.45-1.15-1.8c-1.8-2.85-20.15-34.75-20.55-35.7-.3-.8 1.35-.85 21.85-.95l22.15-.15 4.3-7.5c16.2-28.2 17.85-30.9 18.3-29.95.25.6 6.2 10.95 15.8 27.45 3.05 5.25 5.8 9.65 6.1 9.85.3.2 3.4.4 6.9.4 7.25 0 6.95.2 9.75-4.9 1-1.85 2.25-3.95 2.75-4.7.5-.7.9-1.75.9-2.35 0-.85-19.8-35.9-21.05-37.3-.25-.25-.45-.65-.45-.85 0-.2 9.95-.4 22.15-.4h22.1l7.7-13.4C165.65 25.5 167.7 22 168 22c.2 0 1.6 2.2 3.1 4.9 2.85 4.95 10.9 18.85 16.2 27.95l2.95 5.15h22.15c12.15 0 22.1.2 22.1.4s-.2.6-.45.85C232.8 62.6 213 97.55 213 98.4c0 1.1 5.7 11.1 6.65 11.7.35.2 3.4.4 6.85.4 3.45 0 6.5-.2 6.8-.4.55-.35 20.85-35.15 21.5-36.85.2-.45.55-.7.85-.6.3.1 5.4 8.6 11.35 18.9l10.8 18.7 22.1.15c12.15.05 22.1.25 22.1.45 0 .15-4.85 8.7-10.8 19-6.75 11.65-10.7 19.05-10.55 19.6.1.5 4.9 8.95 10.55 18.8 5.7 9.8 10.5 18.15 10.65 18.55.2.6-3.35.7-21.9.8l-22.15.15-3.4 5.95-3.4 5.95 3 5.35c1.7 3 3.35 5.65 3.7 5.95.5.4 7.25.6 22.5.6 12.4 0 21.8.2 21.8.45s-4.1 7.6-9.15 16.35c-12.3 21.35-12.35 21.45-12.35 22.05 0 .5 6 11.1 17.35 30.55 2.3 3.95 4.1 7.25 4 7.35-.1.15-9.5.25-20.9.25-11.4 0-21.25.1-21.95.25-1.05.25-3.1 3.5-12.2 19.25-6 10.45-11.1 18.8-11.35 18.6-.45-.5-21.35-36.6-21.6-37.35-.2-.65-13.3-1-14.15-.4-.9.6-6.7 10.95-6.7 11.95 0 .5 3.55 7.1 7.9 14.65 4.35 7.55 9.15 16 10.75 18.75l2.85 5-22.2.25c-12.25.15-22.3.35-22.45.5-.25.3-18.05 31.4-20 34.9-.8 1.4-1.6 2.6-1.8 2.6-.15 0-.75-.75-1.3-1.6zm4.95-57.2 3.2-5.45 7-.25 7-.25-3.45-5.85-3.45-5.8 7.3-12.7c4-6.95 9-15.65 11.1-19.25l3.8-6.65h44.55l3.25 5.75c1.8 3.15 3.45 5.65 3.75 5.55.25-.05 1.95-2.65 3.75-5.7l3.25-5.6h6.85c3.8 0 6.9-.1 6.9-.25s-1.45-2.85-3.25-5.95-3.25-5.85-3.25-6.1 1.45-2.9 3.25-5.95l3.2-5.5-6.7-.25c-3.7-.15-6.9-.45-7.15-.75-.45-.45-19.95-34.1-21.5-37.1-.5-.95 0-2.1 4.3-9.5 2.7-4.6 6.8-11.65 9.1-15.65s5.1-8.8 6.25-10.75l2.05-3.5 6.85-.25 6.85-.25-3.25-5.7c-1.8-3.1-3.25-5.85-3.25-6.1 0-.2 1.45-2.9 3.25-6 1.8-3.05 3.25-5.8 3.25-6.05 0-.3-2.65-.45-6.8-.3-7.85.2-6.7.9-11-6.75-1.55-2.7-2.95-4.8-3.1-4.6-.2.15-1.8 2.8-3.6 5.85l-3.25 5.55-22.25-.05-22.25-.05-10-17.2c-5.5-9.5-10.5-18.1-11.1-19.15l-1.1-1.95 3.25-5.6c1.75-3.1 3.2-5.8 3.2-6 0-.2-2.95-.35-6.55-.35-4.5.05-6.7-.1-7.1-.55-.35-.3-1.95-3-3.6-5.9-1.65-2.95-3.1-5.35-3.25-5.35-.15 0-1.7 2.45-3.4 5.45s-3.4 5.65-3.75 5.95c-.4.35-3.1.5-7 .45-3.75-.05-6.35.1-6.35.35 0 .25 1.4 2.85 3.1 5.75 1.7 2.9 3.05 5.55 3.05 5.8 0 .5-6.5 11.9-17.85 31.45l-4.05 6.9H109.5l-22.25-.05-3.25-5.5c-1.8-3.05-3.4-5.65-3.6-5.8-.15-.15-1.8 2.3-3.65 5.45-1.85 3.2-3.6 5.8-3.9 5.85-.35 0-3.45 0-7-.05-3.65-.05-6.35.15-6.35.4s1.45 3 3.25 6.05c1.8 3.1 3.25 5.8 3.25 6 0 .25-1.45 3-3.25 6.1-1.8 3.15-3.25 5.8-3.25 5.95 0 .15 3.1.25 6.85.25h6.9l8.35 14.5c4.6 8 9.6 16.6 11.15 19.2l2.75 4.7-1.15 2.05c-1.35 2.35-13.2 22.9-17.95 31.05l-3.2 5.5h-6.55c-3.65.05-6.7.15-6.85.3-.15.1 1.2 2.7 3 5.7 1.75 3.05 3.2 5.7 3.2 5.95s-1.45 3-3.25 6.1c-1.8 3.1-3.25 5.8-3.25 5.95 0 .15 3.1.25 6.9.25h6.95l3.2 5.6c1.75 3.05 3.45 5.65 3.7 5.75.3.05 1.95-2.45 3.75-5.6l3.2-5.75h44.55l1.8 3.15c.95 1.7 4.35 7.6 7.55 13.1s7.35 12.75 9.3 16.1l3.55 6.15-3.4 5.85-3.4 5.9 7 .25 7 .25 3.3 5.85c1.8 3.2 3.5 5.65 3.7 5.45.25-.25 1.85-2.85 3.55-5.85z"
    fill="#ebeff2"/>
</svg>
