<?xml version="1.0" encoding="utf-8"?>
<!doctype svg PUBLIC "-//W3C//DTD SVG 1.0//EN" "http://www.w3.org/TR/2001/REC-SVG-20010904/DTD/svg10.dtd">
<svg version="1.0" xmlns="http://www.w3.org/2000/svg" width="2500px" height="2500px" viewBox="0 0 2500 2500" preserveAspectRatio="xMidYMid meet">
 <g fill="#fefefe">
  <path d="M0 2451.5 l0 -48.5 86.3 -0.2 86.2 -0.3 0.3 -21.2 0.2 -21.3 22 0 22 0 0 -22 0 -22 47 0 47 0 0 22 0 22 18.5 0 18.5 0 0.2 -21.7 0.3 -21.8 22.3 -0.3 22.2 -0.2 0 -43.5 0 -43.5 47 0 47 0 0 21.5 0 21.5 18.5 0 18.5 0 0 -40.5 0 -40.5 -22 0 -22 0 0 -22 0 -22 -19 0 -19 0 0 22 0 22 -24.5 0 -24.5 0 0 -112.5 0 -112.5 21.5 0 21.5 0 0 -22 0 -22 22 0 22 0 0 -18.5 0 -18.5 -22 0 -22 0 0 -44 0 -44 -62.5 0 -62.5 0 0 22 0 22 -22 0 -22 0 -0.2 21.8 -0.3 21.7 -21.7 0.3 -21.8 0.2 0 40.5 0 40.5 18.5 0 18.5 0 0 -22 0 -22 22 0 22 0 0 -21.5 0 -21.5 25.5 0 25.5 0 0 24.5 0 24.5 -22 0 -22 0 0 19 0 19 22 0 22 0 0 47 0 47 -22 0 -22 0 0 21.5 0 21.5 -25.5 0 -25.5 0 0 -21.5 0 -21.5 -18.5 0 -18.5 0 0 21.5 0 21.5 -47.5 0 -47.5 0 0 -43.5 0 -43.5 -18 0 -18 0 0 22 0 22 -25.5 0 -25.5 0 0 -25 0 -25 22 0 22 0 0 -44 0 -44 43.8 -0.2 43.7 -0.3 0.3 -21.2 0.2 -21.3 22 0 22 0 0 -22 0 -22 21.5 0 21.5 0 0 -19 0 -19 -40.5 0 -40.5 0 0 22 0 22 -22 0 -22 0 0 22 0 22 -25 0 -25 0 0 -66 0 -66 -18.7 0.2 -18.8 0.3 -0.3 65.8 -0.2 65.7 -23.5 0 -23.5 0 0 -91 0 -91 20.5 0 20.5 0 0 -18.5 0 -18.5 -20.5 0 -20.5 0 0 -47 0 -47 20.5 0 20.5 0 0 -19 0 -19 -20.5 0 -20.5 0 0 -24.5 0 -24.5 42.5 0 42.5 0 0 -19 0 -19 -22 0 -22 0 0 -25 0 -25 109.5 0 109.5 0 0 -22 0 -22 47.5 0 47.5 0 0 47 0 47 -66 0 -66 0 0 19 0 19 66 0 66 0 0 24.5 0 24.5 -22 0 -22 0 0 19 0 19 44 0 44 0 0 44 0 44 21.5 0 21.5 0 0 43.5 0 43.5 19 0 19 0 0 -65.5 0 -65.5 47.5 0 47.5 0 0 22 0 22 40.5 0 40.5 0 0 -66 0 -66 44 0 44 0 0.2 -21.2 0.3 -21.3 22 -0.5 22 -0.5 0 -40.5 0 -40.5 -40.7 -0.3 -40.8 -0.2 0 44 0 44 -44.5 0 -44.5 0 0 21.5 0 21.5 -24.7 -0.2 -24.8 -0.3 -0.3 -21.2 -0.2 -21.3 -40.5 0 -40.5 0 -0.2 21.3 -0.3 21.2 -46.7 0.3 -46.8 0.2 0 -24.5 0 -24.5 21.5 0 21.5 0 0 -22 0 -22 22 0 22 0 0 -22 0 -22 22 0 22 0 0 -22 0 -22 25.5 0 25.5 0 0 25 0 25 -22 0 -22 0 0 19 0 19 22 0 22 0 0 22 0 22 18.5 0 18.5 0 0 -66 0 -66 22 0 22 0 0 -18.5 0 -18.5 -66 0 -66 0 0 -22 0 -22 -41 0 -41 0 0 19 0 19 22.5 0 22.5 0 -0.2 24.3 -0.3 24.2 -25.2 0.3 -25.3 0.2 0 -21.5 0 -21.5 -21.5 0 -21.5 0 0 -69 0 -69 21.5 0 21.5 0 0 -21.5 0 -21.5 22 0 22 0 0 -22 0 -22 44 0 44 0 0 -41 0 -41 -18.5 0 -18.5 0 0 22 0 22 -47.5 0 -47.5 0 0 -22 0 -22 -18.5 0 -18.5 0 0 22 0 22 -25.2 -0.2 -25.3 -0.3 -0.3 -21.7 -0.2 -21.8 -84.5 0 -84.5 0 0 22 0 22 -25.5 0 -25.5 0 0.2 -24.7 0.3 -24.8 22 -0.5 22 -0.5 0.3 -18.2 0.2 -18.3 -22.5 0 -22.5 0 0.2 -24.7 0.3 -24.8 22 -0.5 22 -0.5 0.3 -40.7 0.2 -40.8 -19 0 -19 0 0 22 0 22 -25 0 -25 0 0 -22 0 -22 -18.7 0.2 -18.8 0.3 0 40.5 0 40.5 22.3 0.3 22.2 0.2 0 25 0 25 -22.2 0.2 -22.3 0.3 0 18 0 18 22.3 0.3 22.2 0.2 0 25 0 25 -25.5 0 -25.5 0 0 -22 0 -22 -20.5 0 -20.5 0 0 -112 0 -112 20.5 0 20.5 0 0 -44 0 -44 22 0 22 0 0 -19 0 -19 -22 0 -22 0 0 -24.5 0 -24.5 22 0 22 0 0 -22 0 -22 21.5 0 21.5 0 0.2 -21.7 0.3 -21.8 22 -0.5 22 -0.5 0.3 -43.2 0.2 -43.3 22 0 22 0 0 -41 0 -41 -108.5 0 -108.5 0 0 -25 0 -25 152 0 152 0 0 -151.5 0 -151.5 47.5 0 47.5 0 0 108 0 108 18.5 0 18.5 0 0 -44 0 -44 25.5 0 25.5 0 0 44 0 44 44 0 44 0 0 21.5 0 21.5 18.5 0 18.5 0 0 -21.5 0 -21.5 44 0 44 0 0 -19 0 -19 -22 0 -22 0 0 -22 0 -22 -22 0 -22 0 0 -43.5 0 -43.5 -18.5 0 -18.5 0 0 43.5 0 43.5 -25.5 0 -25.5 0 0 -46.5 0 -46.5 22 0 22 0 0 -20.5 0 -20.5 25 0 25 0 0 20.5 0 20.5 19 0 19 0 0 -20.5 0 -20.5 135.5 0 135.5 0 0 20.5 0 20.5 40.3 -0.2 40.2 -0.3 0.3 -20.2 0.2 -20.3 135 0 135 0 0 45 0 45 -44 0 -44 0 0 19 0 19 88 0 88 0 0 22 0 22 18.5 0 18.5 0 0 -41 0 -41 -22 0 -22 0 0 -45 0 -45 47.5 0 47.5 0 0 23.5 0 23.5 -22 0 -22 0 0 18.5 0 18.5 22 0 22 0 0 44 0 44 22 0 22 0 0.2 21.8 0.3 21.7 18.3 0.3 18.2 0.2 0 -22 0 -22 25.5 0 25.5 0 0 22 0 22 18.8 -0.2 18.7 -0.3 0.3 -21.7 0.2 -21.8 22 0 22 0 0 -19 0 -19 -88 0 -88 0 0 -46.5 0 -46.5 21.5 0 21.5 0 0 -20.5 0 -20.5 25.5 0 25.5 0 0 42 0 42 44 0 44 0 0 22 0 22 18.5 0 18.5 0 0 -22 0 -22 25.5 0 25.5 0 0 25 0 25 -22 0 c-21.9 0 -22 0 -22.5 2.3 -0.3 1.2 -0.4 9.6 -0.3 18.7 l0.3 16.5 22.3 0.3 22.2 0.2 0 112.5 0 112.5 -21.9 0 c-19 0 -22 0.2 -22.5 1.6 -0.3 0.9 -0.6 10.8 -0.6 22 l0 20.4 -24.5 0 -24.5 0 0 -22 0 -22 -19 0 -19 0 0 40.5 0 40.5 43.4 0 c23.9 0 43.6 0.3 43.8 0.8 0.2 0.4 0.2 21.5 0 47 l-0.3 46.2 -21.5 0 -21.4 0 0 22 0 22 -25 0 -25 0 -0.2 -65.7 -0.3 -65.8 -18.7 -0.3 -18.8 -0.2 0 22 0 22 -69 0 -69 0 0 -43.5 0 -43.5 -19 0 -19 0 0 21.5 0 21.5 -22 0 -22 0 0 19 0 19 22 0 22 0 0 22 0 22 22 0 22 0 0 25 0 25 -44 0 -44 0 0 18.5 0 18.5 44 0 44 0 0 22 0 22 19 0 19 0 0 -22 0 -22 21.5 0 21.5 0 0 -18.5 0 -18.5 -21.5 0 -21.5 0 0 -25 0 -25 47 0 47 0 0 43.5 0 43.5 62.5 0 62.5 0 0 -21.5 0 -21.5 25.5 0 25.5 0 0 43.5 0 43.5 18.5 0 18.5 0 0.2 -21.7 0.3 -21.8 22.3 -0.3 22.2 -0.2 0 -18.5 0 -18.5 -22.5 0 -22.5 0 0.2 -24.8 0.3 -24.7 25.3 -0.3 25.2 -0.2 0 22 0 22 40.5 0 40.5 0 0 -19 0 -19 -22 0 -22 0 0 -22 0 -22 -66 0 -66 0 0 -46.5 0 -46.5 66 0 66 0 0 -19 0 -19 -21.5 0 -21.5 0 0 -22 0 -22 -22.5 0 -22.5 0 0.2 -46.7 0.3 -46.8 22 -0.5 22 -0.5 0.3 -21.2 0.2 -21.3 24.5 0 24.5 0 0 21.5 0 21.5 22.5 0 22.5 0 0 44 0 44 22 0 22 0 0 25 0 25 -22 0 -22 0 0 19 0 19 44 0 44 0 0 21.5 0 21.5 21.5 0 21.5 0 0 22 0 22 19 0 19 0 0 -65.5 0 -65.5 22 0 22 0 0 -63 0 -63 -19 0 -19 0 0 22 0 22 -25 0 -25 0 0 -43.5 0 -43.5 -18.5 0 -18.5 0 0 43.5 0 43.5 -25.5 0 -25.5 0 0 -43.5 0 -43.5 -22 0 -22 0 0 -25 0 -25 22 0 22 0 0 -22 0 -22 22 0 22 0 0 -19 0 -19 -40.5 0 -40.5 0 -0.2 21.8 -0.3 21.7 -22.2 0.3 -22.3 0.2 0 22 0 22 -47 0 -47 0 0.2 -46.7 0.3 -46.8 25.3 -0.3 25.2 -0.2 0 22 0 22 18.5 0 18.5 0 0 -22 0 -22 22 0 22 0 0 -21.5 0 -21.5 44 0 44 0 0 -20.5 0 -20.5 47 0 47 0 0 89 0 89 -22 0 -22 0 0 19 0 19 41 0 41 0 0 -108 0 -108 25.5 0 25.5 0 0 151.5 0 151.5 149 0 149 0 0 90.5 0 90.5 -17.5 0 -17.5 0 0 22 0 22 -47 0 -47 0 0 -25 0 -25 22 0 22 0 0 -18.5 0 -18.5 -40.7 0.2 -40.8 0.3 -0.3 21.2 -0.2 21.3 -22 0 -22 0 0 19 0 19 22 0 22 0 0 25 0 25 -25 0 -25 0 0 -22 0 -22 -62.5 0 -62.5 0 0 62.5 0 62.5 40.5 0 40.5 0 0.5 -2.3 c0.3 -1.2 0.4 -9.4 0.3 -18.2 l-0.3 -16 -22.2 -0.3 -22.3 -0.2 0 -25 0 -25 25.5 0 25.5 0 0 22 0 22 43.5 0 43.5 0 0.2 43.3 0.3 43.2 40.8 0.3 40.7 0.2 0 -19 0 -19 -22 0 -22 0 0 -24.5 0 -24.5 25.5 0 25.5 0 0 21.5 0 21.5 18.3 -0.2 18.2 -0.3 0.3 -21.2 0.2 -21.3 20.5 0 20.5 0 0 46.5 0 46.5 -39 0 -39 0 0 19 0 19 21.5 0 21.5 0 0 22 0 22 17.5 0 17.5 0 0 68.5 0 68.5 -17.5 0 -17.5 0 0 22 0 22 -21.5 0 -21.5 0 0 18.5 0 18.5 21.5 0 21.5 0 0 22 0 22 17.5 0 17.5 0 0 47 0 47 -17.5 0 -17.5 0 0 18.5 0 18.5 17.5 0 17.5 0 0 25 0 25 -64.5 0 -64.5 0 0 -25 0 -25 22 0 22 0 0 -18.5 0 -18.5 -66 0 -66 0 0 -22 0 -22 -18.5 0 -18.5 0 0 22 0 22 -25.5 0 -25.5 0 0 -22 0 -22 -18.5 0 -18.5 0 -0.2 21.8 -0.3 21.7 -22.2 0.3 -22.3 0.2 0 21.5 0 21.5 -22 0 -22 0 0 22 0 22 -43.5 0 -43.5 0 0 19 0 19 43.5 0 43.5 0 0 22 0 22 22 0 22 0 0.2 21.3 0.3 21.2 109.8 0.3 109.7 0.2 0 25 0 25 -22 0 -22 0 0 19 0 19 22 0 22 0 0.2 21.8 0.3 21.7 18.8 0.3 18.7 0.2 0 -44 0 -44 22 0 22 0 0.2 -65.2 0.3 -65.3 42.3 -0.3 42.2 -0.2 0 25 0 25 -17.5 0 -17.5 0 0 43.5 0 43.5 -21.5 0 -21.5 0 0 19 0 19 39 0 39 0 0 25 0 25 -17.5 0 -17.5 0 0 18.5 0 18.5 17.5 0 17.5 0 0 25 0 25 -20.5 0 -20.5 0 -0.2 -21.7 -0.3 -21.8 -40.2 -0.3 -40.3 -0.2 0 19 0 19 22 0 22 0 0 22 0 22 21.5 0 21.5 0 0 22 0 22 17.5 0 17.5 0 0 112.5 0 112.5 -17.5 0 -17.5 0 0 43.5 0 43.5 -21.5 0 -21.5 0 0 19 0 19 21.5 0 21.5 0 0 25 0 25 -25 0 -25 0 0 -22 0 -22 -18.5 0 -18.5 0 0 22 0 22 -44.5 0 -44.5 0 0 18.5 0 18.5 105.5 0 105.5 0 0 47 0 47 -149 0 -149 0 0 150 0 150 149 0 149 0 0 4.5 0 4.5 -1250 0 -1250 0 0 -48.5z m85 20.5 l0 -19 -18.7 0.2 -18.8 0.3 -0.3 17.5 c-0.1 9.6 0 18 0.2 18.7 0.4 1 4.9 1.3 19.1 1.3 l18.5 0 0 -19z m527 0 l0 -19 -18.5 0 -18.5 0 0 19 0 19 18.5 0 18.5 0 0 -19z m264 0 l0 -19 -19 0 -19 0 0 19 0 19 19 0 19 0 0 -19z m352 0 l0 -19 -40.5 0 -40.5 0 0 19 0 19 40.5 0 40.5 0 0 -19z m175 0 l0 -19 -22 0 -22 0 0 -25 0 -25 25.5 0 25.5 0 0 22 0 22 22 0 22 0 0 22 0 22 62.5 0 62.5 0 0.2 -21.7 0.3 -21.8 22 -0.5 22 -0.5 0 -84 0 -84 -18.7 -0.3 -18.8 -0.2 0 44 0 44 -43.7 0.2 -43.8 0.3 -0.3 21.3 -0.2 21.2 -25 0 -25 0 0 -24.5 0 -24.5 22 0 22 0 0 -19 0 -19 -41 0 -41 0 0 22 0 22 -25.5 0 -25.5 0 0 -25 0 -25 22 0 22 0 0 -19 0 -19 -22 0 -22 0 0 -24.5 0 -24.5 44.5 0 44.5 0 0 -19 0 -19 -44.5 0 -44.5 0 0 -25 0 -25 44.5 0 44.5 0 0 -22 0 -22 25 0 25 0 0.2 21.8 0.3 21.7 18.3 0.3 18.2 0.2 0 -40.5 0 -40.5 -43.5 0 -43.5 0 0 -22 0 -22 -22.2 -0.2 -22.3 -0.3 0 -46.5 0 -46.5 25.3 -0.3 25.2 -0.2 0 44 0 44 19 0 19 0 0 -44 0 -44 21.5 0 21.5 0 0 -18.5 0 -18.5 -21.5 0 -21.5 0 0 -44 0 -44 -19 0 -19 0 0 44 0 44 -47.5 0 -47.5 0 0 -44 0 -44 -18 0 -18 0 -0.2 21.8 -0.3 21.7 -22.2 0.3 -22.3 0.2 0 19 0 19 22.5 0 22.5 0 0 21.5 0 21.5 21.5 0 21.5 0 0 25 0 25 -21.5 0 -21.5 0 0 41 0 41 21.5 0 21.5 0 0 24.5 0 24.5 -25 0 -25 0 0 -21.5 0 -21.5 -41 0 -41 0 0 21.5 0 21.5 -25.2 -0.2 -25.3 -0.3 -0.3 -21.2 -0.2 -21.3 -18 0 -18 0 0 43.5 0 43.5 -25.5 0 -25.5 0 0 -90.5 0 -90.5 43.5 0 43.5 0 0 -19 0 -19 -21.5 0 -21.5 0 0 -43.5 0 -43.5 -41 0 -41 0 0 19 0 19 22.5 0 22.5 0 -0.2 24.3 -0.3 24.2 -25.2 0.3 -25.3 0.2 0 -21.5 0 -21.5 -19 0 -19 0 0 40.5 0 40.5 22 0 22 0 0 25 0 25 -25 0 -25 0 0 -22 0 -22 -40.5 0 -40.5 0 0 19 0 19 22 0 22 0 0 22 0 22 43.5 0 43.5 0 0 24.5 0 24.5 -43.5 0 -43.5 0 0 19 0 19 21.5 0 21.5 0 0 22 0 22 66.5 0 66.5 0 0 87.5 0 87.5 18 0 18 0 0.2 -21.7 0.3 -21.8 47.3 -0.3 47.2 -0.2 0 25 0 25 -44 0 -44 0 0 18.5 0 18.5 22 0 22 0 0 22 0 22 19 0 19 0 0 -22 0 -22 25.5 0 25.5 0 -0.2 24.8 -0.3 24.7 -22.2 0.3 -22.3 0.2 0 19 0 19 62.5 0 62.5 0 0 -19z m352 0 l0 -19 -18.4 0 c-15.8 0 -18.5 0.2 -19 1.6 -0.8 2.1 -0.8 34.9 0.1 35.7 0.3 0.4 8.9 0.7 19 0.7 l18.3 0 0 -19z m176 -3 l0 -22 25.5 0 25.5 0 0 22 0 22 40.5 0 40.5 0 0 -19 0 -19 -21.7 -0.2 -21.8 -0.3 0 -24.5 0 -24.5 24.8 -0.3 24.7 -0.2 0 22 0 22 41 0 41 0 0 -19 0 -19 -22 0 -22 0 0 -24.5 0 -24.5 22 0 22 0 0 -19 0 -19 -22 0 -22 0 0 -25 0 -25 22 0 22 0 0 -18.5 0 -18.5 -41 0 -41 0 0 43.5 0 43.5 -65.5 0 -65.5 0 0 19 0 19 22 0 22 0 0 24.5 0 24.5 -25.5 0 -25.5 0 0 -21.5 0 -21.5 -19 0 -19 0 0 43.5 0 43.5 -21.5 0 -21.5 0 0 19 0 19 40.5 0 40.5 0 0 -22z m-1583 -41 l0 -19 -22 0 -22 0 0 -21.5 0 -21.5 -18.5 0 -18.5 0 -0.2 21.3 -0.3 21.2 -43.7 0.3 -43.8 0.2 0 19 0 19 84.5 0 84.5 0 0 -19z m88 0 l0 -19 -18.5 0 -18.5 0 0 19 0 19 18.5 0 18.5 0 0 -19z m132 0 l0 -19 -18.5 0 -18.5 0 0 19 0 19 18.5 0 18.5 0 0 -19z m132 -21.5 l0 -40.5 -18.7 0.2 -18.8 0.3 -0.3 39 c-0.1 21.4 0 39.6 0.3 40.2 0.3 1 5 1.3 19 1.3 l18.5 0 0 -40.5z m132 18.5 l0 -22 22 0 22 0 0 -18.5 0 -18.5 -40.5 0 -40.5 0 0 21.5 0 21.5 -22 0 -22 0 0 19 0 19 40.5 0 40.5 0 0 -22z m175.8 -21.7 l0.2 -43.3 22 0 22 0 0 -19 0 -19 -22 0 -22 0 0 -65.5 0 -65.5 -40.5 0 -40.5 0 0 19 0 19 22 0 22 0 0 24.5 0 24.5 -25.5 0 -25.5 0 0 -21.5 0 -21.5 -22 0 -22 0 0 -22 0 -22 -40.5 0 -40.5 0 0 19 0 19 21.5 0 21.5 0 0 21.5 0 21.5 22.1 0.2 22.2 0.3 0.1 43.5 0.1 43.5 18.8 0.3 18.7 0.2 0 -22 0 -22 25.5 0 25.5 0 0 46.5 0 46.5 -43.9 0 c-39.1 0 -44 0.2 -44.5 1.6 -0.8 2.2 -0.8 34.9 0.1 35.7 0.3 0.4 28.6 0.6 62.7 0.5 l62.1 -0.3 0.3 -43.2z m132.2 24.7 l0 -19 -18.5 0 -18.5 0 0 19 0 19 18.5 0 18.5 0 0 -19z m571 -43.5 l0 -62.5 -18.5 0 -18.5 0 0 62.5 0 62.5 18.5 0 18.5 0 0 -62.5z m132.8 43.3 l0.2 -18.8 -22.5 0 -22.5 0 0.2 -24.2 0.3 -24.3 22.3 -0.3 22.2 -0.2 0 -19 0 -19 -22.5 0 -22.5 0 0 -22 0 -22 -18.5 0 -18.5 0 0 84.5 0 84.5 40.8 -0.2 40.7 -0.3 0.3 -18.7z m-1319.8 -43.3 l0 -18.5 -18.5 0 -18.5 0 0 18.5 0 18.5 18.5 0 18.5 0 0 -18.5z m88 -3 l0 -21.5 22 0 22 0 0 -19 0 -19 -43.7 -0.2 -43.8 -0.3 -0.3 -21.7 -0.2 -21.8 -18.5 0 -18.5 0 0 41 0 41 22 0 22 0 0 21.5 0 21.5 18.5 0 18.5 0 0 -21.5z m484 3 l0 -18.5 -19 0 -19 0 0 18.5 0 18.5 19 0 19 0 0 -18.5z m-616 -43.5 l0 -19 -19 0 -19 0 0 19 0 19 19 0 19 0 0 -19z m220 -44 l0 -19 -18.7 0.2 -18.8 0.3 -0.3 17.5 c-0.1 9.6 0 18 0.2 18.7 0.4 1 4.9 1.3 19.1 1.3 l18.5 0 0 -19z m396 0 l0 -19 -19 0 -19 0 0 19 0 19 19 0 19 0 0 -19z m439 0 l0 -19 -18.2 0.2 -18.3 0.3 -0.3 17.5 c-0.1 9.6 0 18 0.2 18.7 0.4 1 4.8 1.3 18.6 1.3 l18 0 0 -19z m396 0 l0 -19 -19 0 -19 0 0 19 0 19 19 0 19 0 0 -19z m-1187 -43.5 l0 -18.5 -18.5 0 -18.5 0 0 18.5 0 18.5 18.5 0 18.5 0 0 -18.5z m748 0 l0 -18.5 -19 0 -19 0 0 18.5 0 18.5 19 0 19 0 0 -18.5z m263 -3 l0 -21.5 22 0 22 0 0.2 -43.7 0.3 -43.8 25.3 -0.3 25.2 -0.2 0 22 0 22 18.5 0 18.5 0 0 -41 0 -41 -84.5 0 -84.5 0 -0.5 2.3 c-0.3 1.2 -0.4 9.6 -0.3 18.7 l0.3 16.5 22.3 0.3 22.2 0.2 0 25 0 25 -47 0 -47 0 0 -47 0 -47 21.5 0 21.5 0 0 -18.5 0 -18.5 -21.5 0 -21.5 0 0 -87.5 0 -87.5 -22 0 -22 0 -0.2 -21.7 -0.3 -21.8 -18.7 -0.3 -18.8 -0.2 0 62.5 0 62.5 22 0 22 0 0 47 0 47 -22 0 -22 0 0 43.5 0 43.5 -22 0 -22 0 0 19 0 19 44 0 44 0 0 22 0 22 43.8 0.2 43.7 0.3 -0.4 20.2 c-0.2 11.1 0 20.6 0.3 21.2 0.5 0.7 7 1.1 19.2 1.1 l18.4 0 0 -21.5z m89 3 l0 -18.5 -19 0 -19 0 0 18.5 0 18.5 19 0 19 0 0 -18.5z m175 0 l0 -18.5 -18.5 0 -18.5 0 0 18.5 0 18.5 18.5 0 18.5 0 0 -18.5z m-88 -43.5 l0 -19 -19 0 -19 0 0 19 0 19 19 0 19 0 0 -19z m-1362.8 -46.7 l0.3 -21.8 21.8 -0.3 21.7 -0.2 0 -22 0 -22 22 0 22 0 0 -21.5 0 -21.5 25.5 0 25.5 0 0 21.5 0 21.5 22 0 22 0 0 22 0 22 40.5 0 40.5 0 0 -19 0 -19 -21.5 0 -21.5 0 -0.2 -21.2 -0.3 -21.3 -22.3 -0.3 -22.2 -0.2 0.2 -24.8 0.3 -24.7 22 -0.5 22 -0.5 0.3 -43.7 0.2 -43.8 21.5 0 21.5 0 0 -21.5 0 -21.5 44 0 44 0 0 -22 0 -22 22 0 22 0 0 -19 0 -19 -22 0 -22 0 0 -22 0 -22 -18.4 0 c-15.8 0 -18.5 0.2 -19 1.6 -0.3 0.9 -0.6 20.7 -0.6 44 l0 42.4 -46.5 0 -46.5 0 -0.2 -43.7 -0.3 -43.8 -44.2 -0.3 -44.3 -0.2 0 -25 0 -25 22 0 22 0 0 -18.5 0 -18.5 -40.7 0.2 -40.8 0.3 0 84 0 84 18.8 0.3 18.7 0.2 0 -22 0 -22 25.5 0 25.5 0 0 47 0 47 -66.5 0 -66.5 0 0 18.5 0 18.5 22 0 22 0 0.2 21.8 0.3 21.7 18.8 0.3 18.7 0.2 0 -22 0 -22 25.5 0 25.5 0 0 25 0 25 -22 0 -22 0 0 22 0 22 -44.5 0 -44.5 0 0 22 0 22 -65.5 0 -65.5 0 0 18.5 0 18.5 22 0 22 0 0 44 0 44 18.5 0 18.5 0 0.2 -21.7z m351.8 2.7 l0 -19 -18.7 0.2 -18.8 0.3 -0.3 17.5 c-0.1 9.6 0 18 0.2 18.7 0.4 1 4.9 1.3 19.1 1.3 l18.5 0 0 -19z m572 0 l0 -19 -19 0 -19 0 0 19 0 19 19 0 19 0 0 -19z m483 0 l0 -19 -18.5 0 -18.5 0 0 19 0 19 18.5 0 18.5 0 0 -19z m176 0 l0 -19 -62.5 0 -62.5 0 0 19 0 19 62.5 0 62.5 0 0 -19z m-1451 -44 l0 -19 -18.7 0.2 -18.8 0.3 -0.3 17.5 c-0.1 9.6 0 18 0.2 18.7 0.4 1 4.9 1.3 19.1 1.3 l18.5 0 0 -19z m1319 0 l0 -19 -18.5 0 -18.5 0 0 19 0 19 18.5 0 18.5 0 0 -19z m220.5 0 l0 -18.5 -22.2 -0.3 -22.3 -0.2 0 -21.5 0 -21.5 -22 0 -22 0 0 -22 0 -22 -19 0 -19 0 0 40.5 0 40.5 22.5 0 22.5 0 0 22 0 22 40.8 -0.2 40.7 -0.3 0 -18.5z m-1363.5 -87.5 l0 -62.5 -19 0 -19 0 0 62.5 0 62.5 19 0 19 0 0 -62.5z m1187 22 l0 -40.5 -18.5 0 -18.5 0 0 40.5 0 40.5 18.5 0 18.5 0 0 -40.5z m-1759 -21.5 l0 -19 -18.5 0 -18.5 0 0 19 0 19 18.5 0 18.5 0 0 -19z m176 -3 l0 -22 22 0 22 0 0 -19 0 -19 -41 0 -41 0 0 41 0 41 19 0 19 0 0 -22z m1099 -19 l0 -41 -18.5 0 -18.5 0 0 41 0 41 18.5 0 18.5 0 0 -41z m176 19 l0 -22 22 0 22 0 0.2 -21.7 0.3 -21.8 22 -0.5 22 -0.5 0.3 -21.7 0.2 -21.8 43.5 0 43.5 0 0 -18.5 0 -18.5 -43.5 0 -43.5 0 0 -22 0 -22 -41 0 -41 0 0 19 0 19 22 0 22 0 0 24.5 0 24.5 -25.5 0 -25.5 0 0 -21.5 0 -21.5 -18.4 0 c-15.8 0 -18.5 0.2 -19 1.6 -0.8 2.1 -0.8 165.9 0.1 166.7 0.3 0.4 8.9 0.7 19 0.7 l18.3 0 0 -22z m132 -19 l0 -41 -18.5 0 -18.5 0 0 41 0 41 18.5 0 18.5 0 0 -41z m396 22 l0 -19 -40.5 0 -40.5 0 0 19 0 19 40.5 0 40.5 0 0 -19z m-2066 -44 l0 -19 -41 0 -41 0 0 19 0 19 41 0 41 0 0 -19z m1055 0 l0 -19 -19 0 -19 0 0 19 0 19 19 0 19 0 0 -19z m835 -25 l0 -44 25.5 0 25.5 0 0 22 0 22 40.8 -0.2 40.7 -0.3 0 -18.5 0 -18.5 -22.2 -0.3 -22.3 -0.2 0 -24.5 0 -24.5 25.5 0 25.5 0 0 21.5 0 21.5 18.5 0 18.5 0 0 -21.5 0 -21.5 25 0 25 0 0.2 65.3 0.3 65.2 18.8 0.3 18.7 0.2 0 -22 0 -22 22 0 22 0 0 -19 0 -19 -22 0 -22 0 0 -24.5 0 -24.5 22 0 22 0 0 -19 0 -19 -22 0 -22 0 0 -22 0 -22 -41 0 -41 0 0 22 0 22 -65.5 0 -65.5 0 -0.2 21.8 -0.3 21.7 -69 0 -69 0 -0.3 -21.7 -0.2 -21.8 -18.5 0 -18.5 0 0 40.5 0 40.5 43.5 0 43.5 0 0 44 0 44 19 0 19 0 0 -44z m-1495 -19 l0 -19 -18.5 0 -18.5 0 0 19 0 19 18.5 0 18.5 0 0 -19z m308 0 l0 -19 -18.7 0.2 -18.8 0.3 -0.3 17.5 c-0.1 9.6 0 18 0.2 18.7 0.4 1 4.9 1.3 19.1 1.3 l18.5 0 0 -19z m44 -43.5 l0 -18.5 -18.5 0 -18.5 0 0 18.5 0 18.5 18.5 0 18.5 0 0 -18.5z m264 -22 l0 -40.5 -19 0 -19 0 0 40.5 0 40.5 19 0 19 0 0 -40.5z m-616 -21.5 l0 -19 -18.5 0 -18.5 0 0 19 0 19 18.5 0 18.5 0 0 -19z m1099 -3 l0 -22 22 0 22 0 0 -22 0 -22 66 0 66 0 0 -44 0 -44 22 0 22 0 0 -62.5 0 -62.5 -19 0 -19 0 0 44 0 44 -21.5 0 -21.5 0 0 43.5 0 43.5 -25.5 0 -25.5 0 0 -22 0 -22 -18.5 0 -18.5 0 0 22 0 22 -21.9 0 c-19 0 -22 0.2 -22.5 1.6 -0.3 0.9 -0.6 10.8 -0.6 22 l0 20.4 -21.5 0 -21.5 0 0 41 0 41 18.5 0 18.5 0 0 -22z m-1187 -41 l0 -19 -18.5 0 -18.5 0 0 19 0 19 18.5 0 18.5 0 0 -19z m659 0 l0 -19 -18 0 -18 0 0 19 0 19 18 0 18 0 0 -19z m89 0 l0 -19 -19 0 -19 0 0 19 0 19 19 0 19 0 0 -19z m307 0 l0 -19 -18.5 0 -18.5 0 0 19 0 19 18.5 0 18.5 0 0 -19z m396 0 l0 -19 -18.5 0 -18.5 0 0 19 0 19 18.5 0 18.5 0 0 -19z m132 -22 l0 -41 -19 0 -19 0 0 41 0 41 19 0 19 0 0 -41z m351.5 22 l0 -18.5 -18.2 -0.3 -18.3 -0.2 0 19 0 19 18.3 -0.2 18.2 -0.3 0 -18.5z m-2285.7 -44.2 l0.2 -18.8 -19 0 -19 0 0 19 0 19 18.8 -0.2 18.7 -0.3 0.3 -18.7z m923.2 0.2 l0 -19 -19 0 -19 0 0 19 0 19 19 0 19 0 0 -19z m352 0 l0 -19 -22.2 -0.2 -22.3 -0.3 -0.3 -21.7 -0.2 -21.8 -62.5 0 -62.5 0 0 19 0 19 44 0 44 0 0 22 0 22 41 0 41 0 0 -19z m220 -3 l0 -22 21.5 0 21.5 0 0 -19 0 -19 -106.2 0.2 -106.3 0.3 0 18.5 0 18.5 43.8 0.3 43.7 0.2 0 22 0 22 41 0 41 0 0 -22z m571.5 3 l0 -18.5 -40.7 -0.3 -40.8 -0.2 0 19 0 19 40.8 -0.2 40.7 -0.3 0 -18.5z m175.5 -65.5 l0 -84.5 -22 0 -22 0 0 -22 0 -22 -22 0 -22 0 0 -43.5 0 -43.5 -22 0 -22 0 0 -22 0 -22 -18.5 0 -18.5 0 0 22 0 22 -22 0 -22 0 0 18.5 0 18.5 22 0 22 0 0 25 0 25 -22 0 -22 0 0 19 0 19 22 0 22 0 0 22 0 22 18.5 0 18.5 0 0 -22 0 -22 25 0 25 0 0.2 21.8 0.3 21.7 22.3 0.3 22.2 0.2 0 65.5 0 65.5 18.5 0 18.5 0 0 -84.5z m-2287 21.5 l0 -19 -18 0 -18 0 0 19 0 19 18 0 18 0 0 -19z m132 0 l0 -19 -40.5 0 -40.5 0 0 19 0 19 40.5 0 40.5 0 0 -19z m88 0 l0 -19 -18.5 0 -18.5 0 0 19 0 19 18.5 0 18.5 0 0 -19z m264 0 l0 -19 -40.5 0 -40.5 0 0 19 0 19 40.5 0 40.5 0 0 -19z m264 -46.5 l0 -65.5 88 0 88 0 0 -19 0 -19 -22 0 -22 0 0 -22 0 -22 -22 0 -22 0 0.2 -24.2 0.3 -24.3 21.5 -0.5 21.5 -0.5 0.3 -18.7 0.2 -18.8 -40.5 0 -40.5 0 0 65.5 0 65.5 -47.5 0 -47.5 0 0 -22 0 -22 -40.5 0 -40.5 0 0 19 0 19 22 0 22 0 0 25 0 25 -22 0 -22 0 0 19 0 19 22 0 22 0 0 43.5 0 43.5 40.5 0 40.5 0 0 -65.5z m176 46.5 l0 -19 -19 0 -19 0 0 19 0 19 19 0 19 0 0 -19z m88 0 l0 -19 -18.5 0 -18.5 0 0 19 0 19 18.5 0 18.5 0 0 -19z m879 0 l0 -19 -18.5 0 -18.5 0 0 19 0 19 18.5 0 18.5 0 0 -19z m132 -24.5 l0 -43.5 22 0 22 0 0 -19 0 -19 -63 0 -63 0 0 19 0 19 22 0 22 0 0 42.8 c0 23.6 0.3 43.2 0.7 43.5 0.3 0.4 8.9 0.7 19 0.7 l18.3 0 0 -43.5z m176 24.5 l0 -19 -19 0 -19 0 0 19 0 19 19 0 19 0 0 -19z m-1055 -68.5 l0 -43.5 25.5 0 25.5 0 0 22 0 22 40 0 40 0 0 -19 0 -19 -22 0 -22 0 0 -44 0 -44 -40.5 0 -40.5 0 0 22 0 22 -25 0 -25 0 0 -22 0 -22 -19 0 -19 0 0 22 0 22 -43.5 0 -43.5 0 -0.2 21.8 -0.3 21.7 -22.2 0.3 -22.3 0.2 0 19 0 19 44.5 0 44.5 0 0 21.5 0 21.5 62.5 0 62.5 0 0 -43.5z m176 25 l0 -18.5 -19 0 -19 0 0 18.5 0 18.5 19 0 19 0 0 -18.5z m307 0 l0 -18.5 -18.4 0 c-15.8 0 -18.5 0.2 -19 1.6 -0.8 2.1 -0.8 33.9 0.1 34.7 0.3 0.4 8.9 0.7 19 0.7 l18.3 0 0 -18.5z m484.5 0 l0 -18 -18.7 -0.3 -18.8 -0.2 0 18.5 0 18.5 18.8 -0.2 18.7 -0.3 0 -18z m-1891.5 -43.5 l0 -19 -22 0 -22 0 0 -22 0 -22 -40.5 0 -40.5 0 0 22 0 22 -25 0 -25 0 0 -22 0 -22 -22.5 0 -22.5 0 0.2 -24.7 0.3 -24.8 22 -0.5 22 -0.5 0.3 -40.2 0.2 -40.3 -19 0 -19 0 0 22 0 22 -21.5 0 -21.5 0 0 65.5 0 65.5 -22.2 0.2 -22.3 0.3 -0.3 17.5 c-0.1 9.6 0 18 0.2 18.7 0.4 1.1 29.3 1.3 150.6 1.3 l150 0 0 -19z m1363 -3 l0 -22 22 0 22 0 0 -19 0 -19 -22 0 -22 0 0 -22 0 -22 -18.5 0 -18.5 0 0 44 0 44 -25 0 -25 0 -0.2 -21.7 -0.3 -21.8 -22.2 -0.3 -22.3 -0.2 0 -43.5 0 -43.5 -22 0 -22 0 0 -22 0 -22 -18.2 0.2 -18.3 0.3 -0.3 43.3 -0.2 43.2 -25 0 -25 0 0 -43.5 0 -43.5 -19 0 -19 0 0 84.5 0 84.5 22 0 22 0 0 22 0 22 128.5 0 128.5 0 0 -22z m132.8 2.8 l0.2 -18.8 -41 0 -41 0 0 19 0 19 40.8 -0.2 40.7 -0.3 0.3 -18.7z m175.2 0.2 l0 -19 -18.5 0 -18.5 0 0 19 0 19 18.5 0 18.5 0 0 -19z m44 -44 l0 -19 -18.5 0 -18.5 0 0 19 0 19 18.5 0 18.5 0 0 -19z m-219 -44 l0 -19 -41 0 -41 0 0 19 0 19 41 0 41 0 0 -19z m175 0 l0 -19 -18.5 0 -18.5 0 0 19 0 19 18.5 0 18.5 0 0 -19z m132 -43.5 l0 -62.5 -19 0 -19 0 0 62.5 0 62.5 19 0 19 0 0 -62.5z m-1055 -3 l0 -21.5 43.5 0 43.5 0 0 -41 0 -41 -40 0 -40 0 -0.2 21.8 -0.3 21.7 -22.2 0.3 -22.3 0.2 0 22 0 22 -22 0 -22 0 0 18.5 0 18.5 41 0 41 0 0 -21.5z m-220 -40.5 l0 -19 -19 0 -19 0 0 19 0 19 19 0 19 0 0 -19z m792 -3 l0 -22 21.5 0 21.5 0 0 -22 0 -22 22 0 22 0 0 -19 0 -19 -22 0 -22 0 0 -21.5 0 -21.5 -18.5 0 -18.5 0 0 43.5 0 43.5 -22 0 -22 0 0 22 0 22 -22 0 -22 0 0 19 0 19 41 0 41 0 0 -22z m131 -19 l0 -41 -18.5 0 -18.5 0 0 41 0 41 18.5 0 18.5 0 0 -41z m176 -3 l0 -44 22 0 22 0 0 -19 0 -19 -44 0 -44 0 0 -21.5 0 -21.5 -19 0 -19 0 0 21.5 0 21.5 -24.5 0 -24.5 0 0 -21.5 0 -21.5 -19 0 -19 0 0 40.5 0 40.5 66 0 66 0 0 44 0 44 18.5 0 18.5 0 0 -44z m88 25 l0 -19 -18.5 0 -18.5 0 0 19 0 19 18.5 0 18.5 0 0 -19z m-1011 -44 l0 -19 -19 0 -19 0 0 19 0 19 19 0 19 0 0 -19z m220 0 l0 -19 -19 0 -19 0 0 19 0 19 19 0 19 0 0 -19z m131 0 l0 -19 -18.5 0 -18.5 0 0 19 0 19 18.5 0 18.5 0 0 -19z m836.5 16.8 c0.3 -1.3 0.4 -9.7 0.3 -18.8 l-0.3 -16.5 -40.7 -0.3 -40.8 -0.2 0 19 0 19 40.5 0 40.5 0 0.5 -2.2z m-1319.5 -82.3 l0 -40.5 -18.4 0 c-15.8 0 -18.5 0.2 -19 1.6 -0.3 0.9 -0.6 10.5 -0.6 21.5 l0 19.9 -43.5 0 -43.5 0 0 19 0 19 62.5 0 62.5 0 0 -40.5z m87.8 18.3 l0.2 -21.8 91 0 91 0 0 22 0 22 19 0 19 0 0 -22 0 -22 65.5 0 65.5 0 0 -21.5 0 -21.5 25.5 0 25.5 0 0 21.5 0 21.5 19 0 19 0 0 -21.5 0 -21.5 22 0 22 0 0 -19 0 -19 -44.2 -0.2 -44.3 -0.3 -0.3 -21.7 -0.2 -21.8 -22 0 -22 0 0 -65.5 0 -65.5 -18 0 -18 0 -0.2 21.8 -0.3 21.7 -87.7 0.3 -87.8 0.2 0 21.5 0 21.5 -44.5 0 -44.5 0 0 22 0 22 -25 0 -25 0 0 -22 0 -22 -18.5 0 -18.5 0 0 41 0 41 21.5 0 21.5 0 0 25 0 25 -21.5 0 -21.5 0 0 40.5 0 40.5 18.3 -0.2 18.2 -0.3 0.3 -21.7z m527.2 3.2 l0 -19 -18.2 0.2 -18.3 0.3 -0.3 17.5 c-0.1 9.6 0 18 0.2 18.7 0.4 1 4.8 1.3 18.6 1.3 l18 0 0 -19z m88.5 0 l0 -18.5 -18.7 -0.3 -18.8 -0.2 0 19 0 19 18.8 -0.2 18.7 -0.3 0 -18.5z m483.5 0 l0 -19 -19 0 -19 0 0 19 0 19 19 0 19 0 0 -19z m-528 -43.5 l0 -18.5 -18.5 0 -18.5 0 0 18.5 0 18.5 18.5 0 18.5 0 0 -18.5z m484 0 l0 -18.5 -18.5 0 -18.5 0 0 18.5 0 18.5 18.5 0 18.5 0 0 -18.5z m-1187 -46.5 l0 -22 22 0 22 0 0 -19 0 -19 -62.5 0 -62.5 0 0 19 0 19 21.5 0 21.5 0 0 22 0 22 19 0 19 0 0 -22z m88 3 l0 -19 -18.5 0 -18.5 0 0 19 0 19 18.5 0 18.5 0 0 -19z m835.2 -2.7 l0.3 -21.8 22 -0.5 22 -0.5 0.3 -18.7 0.2 -18.8 -22.5 0 -22.5 0 0.2 -24.7 0.3 -24.8 22.3 -0.3 22.2 -0.2 0 -21.5 0 -21.5 21.5 0 21.5 0 0 -41 0 -41 -44 0 -44 0 0.2 -24.7 0.3 -24.8 22.3 -0.3 22.2 -0.2 0 -40.5 0 -40.5 -22.5 0 -22.5 0 0.2 -24.7 0.3 -24.8 43.8 -0.3 43.7 -0.2 0 -22 0 -22 22 0 22 0 0 -18.5 0 -18.5 -22 0 -22 0 0 -22 0 -22 -18.5 0 -18.5 0 0 22 0 22 -22 0 -22 0 0 21.5 0 21.5 -22 0 -22 0 0 22 0 22 -25.5 0 -25.5 0 0 -22 0 -22 -18.5 0 -18.5 0 0 41 0 41 44 0 44 0 0 25 0 25 -22.2 0.2 -22.3 0.3 0 18 0 18 22.3 0.3 22.2 0.2 0 44 0 44 22 0 22 0 0 25 0 25 -22 0 -22 0 0 43.5 0 43.5 -22 0 c-21.9 0 -22 0 -22.5 2.3 -0.3 1.2 -0.4 9.6 -0.3 18.7 l0.3 16.5 22.3 0.3 22.2 0.2 0 22 0 22 18.5 0 18.5 0 0.2 -21.7z m87.8 2.7 l0 -19 -18.5 0 -18.5 0 0 19 0 19 18.5 0 18.5 0 0 -19z m-1275 -47 l0 -22 25 0 25 0 0.2 21.8 0.3 21.7 18.8 0.3 18.7 0.2 0 -22 0 -22 22 0 22 0 0.2 -21.7 0.3 -21.8 87.8 -0.3 87.7 -0.2 0 -18.5 0 -18.5 -44 0 -44 0 0 -22 0 -22 -84.7 0.2 -84.8 0.3 0 18.5 0 18.5 22.3 0.3 22.2 0.2 0 24.5 0 24.5 -25.5 0 -25.5 0 0 -21.5 0 -21.5 -19 0 -19 0 0 21.5 0 21.5 -24.7 -0.2 -24.8 -0.3 -0.3 -21.2 -0.2 -21.3 -40.5 0 -40.5 0 -0.2 21.3 -0.3 21.2 -22.2 0.3 -22.3 0.2 0 19 0 19 66.5 0 66.5 0 0 22 0 22 18.5 0 18.5 0 0 -22z m1056 3 l0 -19 -19 0 -19 0 0 19 0 19 19 0 19 0 0 -19z m263 -25 l0 -44 66 0 66 0 0 -18.5 0 -18.5 -21.7 -0.2 -21.8 -0.3 -0.3 -43.7 -0.2 -43.8 -18.5 0 -18.5 0 0 22 0 22 -22 0 -22 0 -0.2 21.8 -0.3 21.7 -22.2 0.3 -22.3 0.2 0 62.5 0 62.5 19 0 19 0 0 -44z m-483 -19 l0 -19 -19 0 -19 0 0 19 0 19 19 0 19 0 0 -19z m131.2 -2.7 l0.3 -21.8 22 -0.5 22 -0.5 0 -18 0 -18 -40.7 -0.3 -40.8 -0.2 0 21.5 0 21.5 -21.7 0.2 -21.8 0.3 -0.3 17.5 c-0.1 9.6 0 18 0.2 18.7 0.4 1 8.9 1.3 40.5 1.3 l40.1 0 0.2 -21.7z m131.8 -18.8 l0 -40.5 -18.5 0 -18.5 0 0 40.5 0 40.5 18.5 0 18.5 0 0 -40.5z m-571 -68.5 l0 -22 88 0 88 0 0 -22 0 -22 21.5 0 21.5 0 0 -22 0 -22 22 0 22 0 0.2 -21.2 0.3 -21.3 47.3 -0.3 47.2 -0.2 0 46.5 0 46.5 -66 0 -66 0 0 19 0 19 151 0 151 0 0 -41 0 -41 -41 0 -41 0 0 22 0 22 -25.5 0 -25.5 0 0 -25 0 -25 22 0 22 0 0.2 -21.2 0.3 -21.3 44.3 -0.3 44.2 -0.2 0 -19 0 -19 -44.5 0 -44.5 0 0 -44 0 -44 -18.5 0 -18.5 0 0 22 0 22 -25 0 -25 0 0 -22 0 -22 -41 0 -41 0 0 19 0 19 22 0 22 0 0 25 0 25 -44 0 -44 0 0 22 0 22 -25 0 -25 0 0 -22 0 -22 -19 0 -19 0 0 22 0 22 -22 0 -22 0 0 18.5 0 18.5 22 0 22 0 0 25 0 25 -91 0 -91 0 0 -22 0 -22 -41 0 -41 0 0 44 0 44 -25 0 -25 0 0 -44 0 -44 -18.5 0 -18.5 0 0 22 0 22 -22 0 c-21.9 0 -22 0 -22.5 2.3 -0.3 1.2 -0.4 9.6 -0.3 18.7 l0.3 16.5 22.3 0.3 22.2 0.2 0 22 0 22 106.5 0 106.5 0 0 -22z m615 3 l0 -19 -18.7 0.2 -18.8 0.3 -0.3 17.5 c-0.1 9.6 0 18 0.2 18.7 0.4 1 4.9 1.3 19.1 1.3 l18.5 0 0 -19z m352 0 l0 -19 -19 0 -19 0 0 19 0 19 19 0 19 0 0 -19z m-1451 -66 l0 -41 -19 0 -19 0 0 41 0 41 19 0 19 0 0 -41z m1583.5 38.8 c0.3 -1.3 0.4 -9.7 0.3 -18.8 l-0.3 -16.5 -18.7 -0.3 -18.8 -0.2 0 19 0 19 18.5 0 c18.3 0 18.5 0 19 -2.2z m175.5 -38.8 l0 -41 -18.5 0 -18.5 0 0 22 0 22 -22.2 0.2 -22.3 0.3 -0.3 17.5 c-0.1 9.6 0 18 0.2 18.7 0.4 1 9 1.3 41.1 1.3 l40.5 0 0 -41z m-1626.2 -25.2 l0.2 -21.8 21.5 0 21.5 0 0 -40.5 0 -40.5 -40.5 0 -40.5 0 0 22 0 22 -22 0 -22 0 0 18.5 0 18.5 22 0 22 0 0 22 0 22 18.8 -0.2 18.7 -0.3 0.3 -21.7z m87.2 3.2 l0 -19 -19 0 -19 0 0 19 0 19 19 0 19 0 0 -19z m1055 0 l0 -19 -19 0 -19 0 0 19 0 19 19 0 19 0 0 -19z m264 0 l0 -19 -63 0 -63 0 0 19 0 19 63 0 63 0 0 -19z m132 -21.5 l0 -40.5 -19 0 -19 0 0 40.5 0 40.5 19 0 19 0 0 -40.5z m-1934 -22 l0 -18.5 -19 0 -19 0 0 18.5 0 18.5 19 0 19 0 0 -18.5z m614.8 -22.2 l0.2 -40.3 -18.5 0 -18.5 0 0 40.5 0 40.5 18.3 -0.2 18.2 -0.3 0.3 -40.2z m132.2 0.2 l0 -40.5 -18.5 0 -18.5 0 0 40.5 0 40.5 18.5 0 18.5 0 0 -40.5z m1099.5 22 l0 -18 -18.7 -0.3 -18.8 -0.2 0 18.5 0 18.5 18.8 -0.2 18.7 -0.3 0 -18z m-2022.5 -43.5 l0 -19 -19 0 -19 0 0 19 0 19 19 0 19 0 0 -19z m263 0 l0 -19 -40.5 0 -40.5 0 0 19 0 19 40.5 0 40.5 0 0 -19z m88 0 l0 -19 -18.5 0 -18.5 0 0 19 0 19 18.5 0 18.5 0 0 -19z m132 0 l0 -19 -41 0 -41 0 0 19 0 19 41 0 41 0 0 -19z m220 0 l0 -19 -18.7 0.2 -18.8 0.3 -0.3 17.5 c-0.1 9.6 0 18 0.2 18.7 0.4 1 4.9 1.3 19.1 1.3 l18.5 0 0 -19z m308 0 l0 -19 -19 0 -19 0 0 19 0 19 19 0 19 0 0 -19z m747 -25 l0 -44 22 0 22 0 0 -19 0 -19 -40.5 0 -40.5 0 0 63 0 63 18.5 0 18.5 0 0 -44z m220 25 l0 -19 -66 0 -66 0 0 -22 0 -22 -18.5 0 -18.5 0 0 41 0 41 84.5 0 84.5 0 0 -19z m88 0 l0 -19 -18.5 0 -18.5 0 0 19 0 19 18.5 0 18.5 0 0 -19z m132 0 l0 -19 -40.7 0.2 -40.8 0.3 -0.3 17.5 c-0.1 9.6 0 18 0.2 18.7 0.4 1 9 1.3 41.1 1.3 l40.5 0 0 -19z m-2022 -44 l0 -19 -41 0 -41 0 0 19 0 19 41 0 41 0 0 -19z m703 0 l0 -19 -22 0 -22 0 0 -25 0 -25 25.5 0 25.5 0 0 22 0 22 40 0 40 0 0.2 -21.7 0.3 -21.8 69.8 -0.3 69.7 -0.2 0 44 0 44 18 0 18 0 0 -44 0 -44 22 0 22 0 0 -18.5 0 -18.5 -43.5 0 -43.5 0 0 -22 0 -22 -19 0 -19 0 0 22 0 22 -25 0 -25 0 0 -47 0 -47 22 0 22 0 0 -19 0 -19 -22 0 -22 0 0 -21.5 0 -21.5 -19 0 -19 0 0 65.5 0 65.5 -21.5 0 -21.5 0 0 22 0 22 -47.5 0 -47.5 0 0 -22 0 -22 -62.5 0 -62.5 0 0 43.5 0 43.5 -22.2 0.2 -22.3 0.3 0 18.5 0 18.5 40.7 0.3 40.8 0.2 0.2 -43.2 0.3 -43.3 24.8 -0.3 24.7 -0.2 0 65.5 0 65.5 41 0 41 0 0 -19z m176 0 l0 -19 -19 0 -19 0 0 19 0 19 19 0 19 0 0 -19z m967.5 16.8 c0.3 -1.3 0.4 -9.7 0.3 -18.8 l-0.3 -16.5 -18.7 -0.3 -18.8 -0.2 0 19 0 19 18.5 0 c18.3 0 18.5 0 19 -2.2z m-1759.5 -63.8 l0 -22 22 0 22 0 0 -18.5 0 -18.5 -22 0 -22 0 0 -22 0 -22 -22 0 -22 0 0 -44 0 -44 -18.5 0 -18.5 0 0 22 0 22 -22 0 -22 0 0 19 0 19 22 0 22 0 0 25 0 25 -22 0 -22 0 0 18.5 0 18.5 22 0 22 0 0 22 0 22 40.5 0 40.5 0 0 -22z m352 -21.5 l0 -43.5 22 0 22 0 0 -41 0 -41 -22 0 -22 0 0 -25 0 -25 22 0 22 0 0 -43.5 0 -43.5 22 0 22 0 0 -19 0 -19 -62.5 0 -62.5 0 0 19 0 19 21.5 0 21.5 0 0 25 0 25 -24.5 0 -24.5 0 -0.2 -21.7 -0.3 -21.8 -22.3 -0.3 -22.2 -0.2 0.2 -46.8 0.3 -46.7 43.8 -0.3 43.7 -0.2 0 -21.5 0 -21.5 44 0 44 0 0 -19 0 -19 -44 0 -44 0 0 -22 0 -22 -18.5 0 -18.5 0 0 22 0 22 -44 0 -44 0 0 87.5 0 87.5 -22.2 0.2 -22.3 0.3 0 18.5 0 18.5 22.3 0.3 22.2 0.2 0 24.5 0 24.5 -25.5 0 -25.5 0 0 -21.5 0 -21.5 -19 0 -19 0 0 21.5 0 21.5 -21.5 0 -21.5 0 0 19 0 19 21.5 0 21.5 0 0 44 0 44 22 0 22 0 0.2 21.3 0.3 21.2 18.8 0.3 18.7 0.2 0 -40.5 0 -40.5 -22 0 -22 0 0 -25 0 -25 44 0 44 0 0.2 -21.7 0.3 -21.8 25.3 -0.3 25.2 -0.2 0 25 0 25 -22 0 -22 0 0 19 0 19 22 0 22 0 0 65.5 0 65.5 18.5 0 18.5 0 0 -43.5z m1319 3 l0 -40.5 -19 0 -19 0 0 21.5 0 21.5 -22 0 -22 0 0 19 0 19 41 0 41 0 0 -40.5z m132 -25 l0 -65.5 22 0 22 0 0 -19 0 -19 -22 0 -22 0 0 -22 0 -22 -18.5 0 -18.5 0 0 22 0 22 -44 0 -44 0 0 41 0 41 18.5 0 18.5 0 0 -22 0 -22 25.5 0 25.5 0 0 25 0 25 -22 0 -22 0 0 18.5 0 18.5 22 0 22 0 0 22 0 22 18.5 0 18.5 0 0 -65.5z m132.2 43.8 l0.3 -21.8 21.5 -0.5 21.5 -0.5 0 -18 0 -18 -40.2 -0.3 -40.3 -0.2 0 21.5 0 21.5 -22.2 0.2 -22.3 0.3 -0.3 17.5 c-0.1 9.6 0 18 0.2 18.7 0.4 1 9 1.3 41 1.3 l40.6 0 0.2 -21.7z m-2287 -43.5 l0.3 -21.3 22 -0.5 22 -0.5 0.3 -18.7 0.2 -18.8 -40.5 0 -40.5 0 0 40.5 0 40.5 18 0 18 0 0.2 -21.2z m131.8 -0.3 l0 -21.5 22 0 22 0 0 -19 0 -19 -40.5 0 -40.5 0 0 40.5 0 40.5 18.5 0 18.5 0 0 -21.5z m1275 -19 l0 -40.5 -18.2 0.2 -18.3 0.3 -0.3 39 c-0.1 21.4 0 39.6 0.3 40.2 0.3 1 4.9 1.3 18.5 1.3 l18 0 0 -40.5z m133 0 l0 -40.5 -19 0 -19 0 0 40.5 0 40.5 19 0 19 0 0 -40.5z m87 22 l0 -18.5 -18.7 0.2 -18.8 0.3 -0.3 17 c-0.1 9.3 0 17.5 0.2 18.2 0.4 1 4.9 1.3 19.1 1.3 l18.5 0 0 -18.5z m-1187 -43.5 l0 -19 -18.5 0 -18.5 0 0 19 0 19 18.5 0 18.5 0 0 -19z m880 -22 l0 -41 -19 0 -19 0 0 41 0 41 19 0 19 0 0 -41z m527 -22 l0 -63 -41 0 -41 0 0 41 0 41 22.5 0 22.5 0 0 22 0 22 18.5 0 18.5 0 0 -63z m88 0 l0 -63 -18.5 0 -18.5 0 0 63 0 63 18.5 0 18.5 0 0 -63z m308 44 l0 -19 -18.7 0.2 -18.8 0.3 -0.3 17.5 c-0.1 9.6 0 18 0.2 18.7 0.4 1 4.9 1.3 19.1 1.3 l18.5 0 0 -19z m-1847 -44 l0 -19 -18.5 0 -18.5 0 0 19 0 19 18.5 0 18.5 0 0 -19z m-351.2 -47.2 l0.2 -21.8 43.5 0 43.5 0 0 -18.5 0 -18.5 -43.5 0 -43.5 0 0 -22 0 -22 -19 0 -19 0 0 22 0 22 -21.5 0 -21.5 0 0 18.5 0 18.5 21.5 0 21.5 0 0 22 0 22 18.8 -0.2 18.7 -0.3 0.3 -21.7z m175.2 -40.3 l0 -62.5 -18.5 0 -18.5 0 0 62.5 0 62.5 18.5 0 18.5 0 0 -62.5z m572 43.5 l0 -19 -18.4 0 c-15.8 0 -18.5 0.2 -19 1.6 -0.8 2.1 -0.8 34.9 0.1 35.7 0.3 0.4 8.9 0.7 19 0.7 l18.3 0 0 -19z m87.8 -3.2 l0.2 -21.8 44 0 44 0 0 -43.5 0 -43.5 69 0 69 0 0 22 0 22 19 0 19 0 0 -41 0 -41 -22 0 -22 0 0 -22 0 -22 -22.2 -0.2 -22.3 -0.3 -0.3 -21.2 -0.2 -21.3 -62.5 0 -62.5 0 0 21.5 0 21.5 -22 0 -22 0 0 22 0 22 -21.5 0 -21.5 0 0 19 0 19 21.5 0 21.5 0 0 25 0 25 -43.5 0 -43.5 0 0 18.5 0 18.5 22 0 22 0 0 22 0 22 18.3 -0.2 18.2 -0.3 0.3 -21.7z m132.2 3.2 l0 -19 -18.5 0 -18.5 0 0 19 0 19 18.5 0 18.5 0 0 -19z m219 0 l0 -19 -18 0 -18 0 0 19 0 19 18 0 18 0 0 -19z m220 0 l0 -19 -18.5 0 -18.5 0 0 19 0 19 18.5 0 18.5 0 0 -19z m-1010.8 -68.2 l0.3 -43.3 21.8 -0.3 21.7 -0.2 0 -19 0 -19 -21.7 -0.2 -21.8 -0.3 -0.3 -21.7 -0.2 -21.8 -22 0 -22 0 0 -21.5 0 -21.5 -18.5 0 -18.5 0 -0.2 21.3 -0.3 21.2 -25.2 0.3 -25.3 0.2 0 -24.5 0 -24.5 22 0 22 0 0 -19 0 -19 -40.5 0 -40.5 0 0 22 0 22 -22 0 -22 0 0 40.5 0 40.5 43.5 0 43.5 0 0 22 0 22 19 0 19 0 0 -22 0 -22 25.5 0 25.5 0 0 25 0 25 -22 0 -22 0 0 40.5 0 40.5 40.5 0 40.5 0 0.2 -43.2z m747.8 24.7 l0 -18.5 -19 0 -19 0 0 17.8 c0 9.8 0.3 18.2 0.7 18.5 0.3 0.4 8.9 0.7 19 0.7 l18.3 0 0 -18.5z m791 0 l0 -18.5 -19 0 -19 0 0 18.5 0 18.5 19 0 19 0 0 -18.5z m-88 -43.5 l0 -19 -18.5 0 -18.5 0 0 19 0 19 18.5 0 18.5 0 0 -19z m-1802 -44 l0 -19 -19 0 -19 0 0 19 0 19 19 0 19 0 0 -19z m1142 0 l0 -19 -18 0 -18 0 0 19 0 19 18 0 18 0 0 -19z m-1099 -44 l0 -19 -18.5 0 -18.5 0 0 19 0 19 18.5 0 18.5 0 0 -19z m396 0 l0 -19 -19 0 -19 0 0 19 0 19 19 0 19 0 0 -19z m308.2 -2.7 l0.3 -21.8 21.5 -0.5 21.5 -0.5 0.3 -127.8 0.2 -127.7 -62.7 0.2 -62.8 0.3 0 62 0 62 22.3 0.3 22.2 0.2 0 22 0 22 22 0 22 0 0 25 0 25 -22 0 -22 0 0 40.5 0 40.5 18.5 0 18.5 0 0.2 -21.7z m1010.8 2.7 l0 -19 -22 0 -22 0 0 -21.5 0 -21.5 -19 0 -19 0 0 40.5 0 40.5 41 0 41 0 0 -19z m-616 -43.5 l0 -18.5 -18 0 -18 0 0 18.5 0 18.5 18 0 18 0 0 -18.5z m220 0 l0 -18.5 -22 0 -22 0 0 -22 0 -22 -21.5 0 -21.5 0 0 -25 0 -25 21.5 0 21.5 0 0 -41 0 -41 -18.2 0.2 -18.3 0.3 -0.3 21.8 -0.2 21.7 -22 0 -22 0 0 63 0 63 22 0 22 0 0 20.8 c0 11.5 0.3 21.2 0.7 21.5 0.3 0.4 18.6 0.7 40.5 0.7 l39.8 0 0 -18.5z m704 -44 l0 -62.5 -40.5 0 -40.5 0 0 19 0 19 22 0 22 0 0 25 0 25 -25.5 0 -25.5 0 0 -22 0 -22 -18.5 0 -18.5 0 0 40.5 0 40.5 62.5 0 62.5 0 0 -62.5z m-1934.8 -2.2 l0.3 -21.8 22.3 -0.3 22.2 -0.2 0 -22 0 -22 43.5 0 43.5 0 0 -62.5 0 -62.5 -19 0 -19 0 0 43.5 0 43.5 -24.5 0 -24.5 0 0 -22 0 -22 -19 0 -19 0 0 44 0 44 -44 0 -44 0 0 19 0 19 22 0 22 0 0 22 0 22 18.5 0 18.5 0 0.2 -21.7z m307.8 2.7 l0 -19 -22 0 -22 0 0 -25 0 -25 22 0 22 0 0 -41 0 -41 -19 0 -19 0 0 22 0 22 -24.7 -0.2 -24.8 -0.3 -0.3 -21.7 -0.2 -21.8 -18.5 0 -18.5 0 0 44 0 44 -22 0 -22 0 0 19 0 19 44 0 44 0 0 22 0 22 40.5 0 40.5 0 0 -19z m572 -3 l0 -22 25 0 25 0 0 22 0 22 19 0 19 0 0 -22 0 -22 21.5 0 21.5 0 0 -106.5 0 -106.5 -87.7 -0.2 -87.8 -0.3 -0.3 -21.7 -0.2 -21.8 -18 0 -18 0 0 87.5 0 87.5 -25.5 0 -25.5 0 0 -65.5 0 -65.5 -19 0 -19 0 0 106.5 0 106.5 19 0 19 0 0 -22 0 -22 25.5 0 25.5 0 0 22 0 22 21.5 0 21.5 0 0 22 0 22 19 0 19 0 0 -22z m175 3 l0 -19 -18.5 0 -18.5 0 0 19 0 19 18.5 0 18.5 0 0 -19z m1055.5 -22 l0 -40.5 -18.2 -0.3 -18.3 -0.2 0 41 0 41 18.3 -0.2 18.2 -0.3 0 -40.5z m-1758.5 -22 l0 -19 -18.7 0.2 -18.8 0.3 -0.3 17.5 c-0.1 9.6 0 18 0.2 18.7 0.4 1 4.9 1.3 19.1 1.3 l18.5 0 0 -19z m923.5 0 l0 -18.5 -18.7 -0.3 -18.8 -0.2 0 19 0 19 18.8 -0.2 18.7 -0.3 0 -18.5z m87.5 -65.5 l0 -84.5 -40.5 0 -40.5 0 0 18.5 0 18.5 22 0 22 0 0 66 0 66 18.5 0 18.5 0 0 -84.5z m220 65.5 l0 -19 -19 0 -19 0 0 19 0 19 19 0 19 0 0 -19z m440 0 l0 -19 -18.7 0.2 -18.8 0.3 -0.3 17.5 c-0.1 9.6 0 18 0.2 18.7 0.4 1 4.9 1.3 19.1 1.3 l18.5 0 0 -19z m-1582.5 -44 l0 -18.5 -22.3 -0.3 -22.2 -0.2 0.2 -24.8 0.3 -24.7 22 -0.5 22 -0.5 0 -18 0 -18 -40.7 -0.3 -40.8 -0.2 0 62.5 0 62.5 40.8 -0.2 40.7 -0.3 0 -18.5z m1098.5 -22 l0 -41 -18.5 0 -18.5 0 0 41 0 41 18.5 0 18.5 0 0 -41z m-1055 -22 l0 -19 -18.5 0 -18.5 0 0 19 0 19 18.5 0 18.5 0 0 -19z m616 -3 l0 -22 22 0 22 0 0 -18.5 0 -18.5 -22 0 -22 0 0 -22 0 -22 -19 0 -19 0 0 62.5 0 62.5 19 0 19 0 0 -22z m175.5 3 l0 -18.5 -18.7 -0.3 -18.8 -0.2 0 19 0 19 18.8 -0.2 18.7 -0.3 0 -18.5z m-44.5 -43.5 l0 -18.5 -18.5 0 -18.5 0 0 18.5 0 18.5 18.5 0 18.5 0 0 -18.5z m-747 -68.5 l0 -44 47.5 0 47.5 0 0 22 0 22 40.3 -0.2 40.2 -0.3 0.3 -18.7 0.2 -18.8 -22 0 -22 0 0 -22 0 -22 -22 0 -22 0 0 -21.5 0 -21.5 -41 0 -41 0 0 21.5 0 21.5 -21.5 0 -21.5 0 0 22 0 22 -44 0 -44 0 0 19 0 19 44 0 44 0 0 22 0 22 18.5 0 18.5 0 0 -44z m1187 25 l0 -19 -18.5 0 -18.5 0 0 19 0 19 18.5 0 18.5 0 0 -19z m44 -44 l0 -19 -18.5 0 -18.5 0 0 19 0 19 18.5 0 18.5 0 0 -19z m-1363 -44 l0 -19 -18.7 0.2 -18.8 0.3 -0.3 17.5 c-0.1 9.6 0 18 0.2 18.7 0.4 1 4.9 1.3 19.1 1.3 l18.5 0 0 -19z m396 0 l0 -19 -19 0 -19 0 0 19 0 19 19 0 19 0 0 -19z m-307.5 -43.5 l0 -18 -18.7 -0.3 -18.8 -0.2 0 18.5 0 18.5 18.8 -0.2 18.7 -0.3 0 -18z m263.5 0 l0 -18.5 -19 0 -19 0 0 18.5 0 18.5 19 0 19 0 0 -18.5z m1011 0 l0 -18.5 -18.5 0 -18.5 0 0 18.5 0 18.5 18.5 0 18.5 0 0 -18.5z"/>
  <path d="M1183.5 2276.8 c-0.3 -0.7 -0.4 -31.4 -0.3 -68.3 l0.3 -67 69.8 -0.3 69.7 -0.2 -0.2 68.2 -0.3 68.3 -69.3 0.3 c-54.9 0.2 -69.4 0 -69.7 -1z m88.5 -66.8 l0 -19 -19 0 -19 0 0 19 0 19 19 0 19 0 0 -19z"/>
  <path d="M1183.4 1664.7 c-0.2 -0.7 -0.3 -11.8 -0.2 -24.7 l0.3 -23.5 25.3 -0.3 25.2 -0.2 0 25 0 25 -25 0 c-19.4 0 -25.2 -0.3 -25.6 -1.3z"/>
  <path d="M1183.5 1314.8 c-0.3 -0.7 -0.4 -31.7 -0.3 -68.8 l0.3 -67.5 69.8 -0.3 69.7 -0.2 -0.2 68.7 -0.3 68.8 -69.3 0.3 c-54.9 0.2 -69.4 0 -69.7 -1z m88.5 -67.8 l0 -19 -19 0 -19 0 0 19 0 19 19 0 19 0 0 -19z"/>
  <path d="M1096 1247 l0 -25 25.5 0 25.5 0 0 25 0 25 -25.5 0 -25.5 0 0 -25z"/>
  <path d="M1096 503 l0 -25 25.5 0 25.5 0 0 25 0 25 -25.5 0 -25.5 0 0 -25z"/>
  <path d="M920 284 l0 -25 25.5 0 25.5 0 0 25 0 25 -25.5 0 -25.5 0 0 -25z"/>
  <path d="M1183.5 351.8 c-0.3 -0.7 -0.4 -31.4 -0.3 -68.3 l0.3 -67 69.8 -0.3 69.7 -0.2 -0.2 68.2 -0.3 68.3 -69.3 0.3 c-54.9 0.2 -69.4 0 -69.7 -1z m88.5 -67.8 l0 -19 -19 0 -19 0 0 19 0 19 19 0 19 0 0 -19z"/>
  <path d="M2239.8 2452.3 c-0.2 -0.5 -0.2 -50.9 0 -112 l0.3 -111.3 112.4 0 112.5 0 0 112 0 112 -112.4 0 c-61.9 0 -112.6 -0.3 -112.8 -0.7z m175.2 -111.8 l0 -62.5 -63 0 -63 0 0 62.5 0 62.5 63 0 63 0 0 -62.5z"/>
  <path d="M85 2234.5 l0 -43.5 -22 0 -22 0 0 -47 0 -47 25.5 0 25.5 0 0 44 0 44 43.5 0 43.5 0 0 46.5 0 46.5 -47 0 -47 0 0 -43.5z"/>
  <path d="M217 2209.5 l0 -68.5 69 0 69 0 0 68.5 0 68.5 -69 0 -69 0 0 -68.5z m87 0.5 l0 -19 -18.5 0 -18.5 0 0 19 0 19 18.5 0 18.5 0 0 -19z"/>
  <path d="M41 1334.5 l0 -24.5 22 0 22 0 0 -19 0 -19 -42.5 0 -42.5 0 0 -47 0 -47 20.5 0 20.5 0 0 -18.5 0 -18.5 -20.5 0 -20.5 0 0 -25 0 -25 23.5 0 23.5 0 0.2 21.8 0.3 21.7 18.8 0.3 18.7 0.2 0 -22 0 -22 25 0 25 0 0 22 0 22 18.8 -0.2 18.7 -0.3 0.3 -21.7 0.2 -21.8 43.5 0 43.5 0 0 -22 0 -22 25.5 0 25.5 0 0 22 0 22 22 0 22 0 0 25 0 25 -88 0 -88 0 0 109 0 109 -69 0 -69 0 0 -24.5z m87 -131 l0 -62.5 -18 0 -18 0 0 21.5 0 21.5 -22.2 0.2 -22.3 0.3 0 18.5 0 18.5 22.3 0.3 22.2 0.2 0 22 0 22 18 0 18 0 0 -62.5z"/>
  <path d="M217 1247 l0 -69 69 0 69 0 0 69 0 69 -69 0 -69 0 0 -69z m87 0 l0 -19 -18.5 0 -18.5 0 0 19 0 19 18.5 0 18.5 0 0 -19z"/>
  <path d="M2151 1247 l0 -69 69 0 69 0 0 69 0 69 -69 0 -69 0 0 -69z m88.5 0 l0 -18.5 -18.7 -0.3 -18.8 -0.2 0 19 0 19 18.8 -0.2 18.7 -0.3 0 -18.5z"/>
  <path d="M0 459.5 l0 -68.5 46 0 46 0 0 25 0 25 -22.2 0.2 -22.3 0.3 -0.3 43.3 -0.2 43.2 -23.5 0 -23.5 0 0 -68.5z"/>
  <path d="M41 153 l0 -112 113 0 113 0 -0.2 111.8 -0.3 111.7 -112.7 0.3 -112.8 0.2 0 -112z m176 0 l0 -63 -62.5 0 -62.5 0 0 63 0 63 62.5 0 62.5 0 0 -63z"/>
  <path d="M2239.8 264.3 c-0.2 -0.5 -0.2 -50.9 0 -112 l0.3 -111.3 112.4 0 112.5 0 0 112 0 112 -112.4 0 c-61.9 0 -112.6 -0.3 -112.8 -0.7z m175.2 -111.3 l0 -63 -63 0 -63 0 0 63 0 63 63 0 63 0 0 -63z"/>
  <path d="M436 65.5 l0 -24.5 25.5 0 25.5 0 -0.2 24.3 -0.3 24.2 -25.2 0.3 -25.3 0.2 0 -24.5z"/>
  <path d="M1668 23.5 l0 -23.5 24.5 0 24.5 0 0 23.5 0 23.5 -24.5 0 -24.5 0 0 -23.5z"/>
 </g>
 <g fill="#083346">
  <path d="M44.4 2492.7 c-0.2 -0.7 -0.3 -10.5 -0.2 -21.7 l0.3 -20.5 21.8 -0.3 21.7 -0.2 0 22 0 22 -21.5 0 c-16.6 0 -21.7 -0.3 -22.1 -1.3z"/>
  <path d="M572 2472 l0 -22 21.5 0 21.5 0 0 22 0 22 -21.5 0 -21.5 0 0 -22z"/>
  <path d="M835 2472 l0 -22 -43.5 0 -43.5 0 0 -22 0 -22 22 0 22 0 0 -21.5 0 -21.5 43.5 0 43.5 0 0 21.5 0 21.5 -22 0 -22 0 0 22 0 22 22 0 22 0 0 22 0 22 -22 0 -22 0 0 -22z"/>
  <path d="M1144 2472 l0 -22 43.5 0 43.5 0 0 -22 0 -22 -22 0 -22 0 0 -21.5 0 -21.5 44 0 44 0 0 -22 0 -22 -44.2 0.2 -44.3 0.3 -0.3 21.8 -0.2 21.7 -21 0 -21 0 0 -87.5 0 -87.5 -66.5 0 -66.5 0 0 65.5 0 65.5 22 0 22 0 0 -22 0 -22 22 0 22 0 0 22 0 22 -22 0 -22 0 0 22 0 22 22 0 22 0 0 21.5 0 21.5 -22 0 -22 0 0 -21.5 0 -21.5 -22 0 -22 0 -0.2 43.3 -0.3 43.2 -65.5 0 -65.5 0 -0.3 -19.5 c-0.1 -10.7 0 -20.5 0.3 -21.7 l0.5 -2.3 44 0 44 0 0 -43.5 0 -43.5 -22.5 0 -22.5 0 0 22 0 22 -21.7 -0.2 -21.8 -0.3 -0.2 -43.5 -0.2 -43.5 -22.1 -0.3 -22 -0.2 0 -21.5 0 -21.5 -21.5 0 -21.5 0 0 -22 0 -22 43.5 0 43.5 0 0 22 0 22 22 0 22 0 0 21.5 0 21.5 22.5 0 22.5 0 0 -21.5 0 -21.5 -22 0 -22 0 0 -22 0 -22 43.5 0 43.5 0 0 -22 0 -22 -21.5 0 -21.5 0 0 -22 0 -22 43.5 0 43.5 0 0 -21.5 0 -21.5 -43.5 0 -43.5 0 0 -22 0 -22 -22 0 -22 0 0 -22 0 -22 43.5 0 43.5 0 0 -43.5 0 -43.5 22 0 22 0 0 -22 0 -22 44 0 44 0 0 43.5 0 43.5 21.5 0 21.5 0 0 22 0 22 -43.5 0 -43.5 0 0 87.5 0 87.5 22.5 0 22.5 0 0 -43.5 0 -43.5 21 0 21 0 0.2 21.3 0.3 21.2 22.3 0.3 22.2 0.2 0 -21.5 0 -21.5 44 0 44 0 0 21.5 0 21.5 22 0 22 0 0 -21.5 0 -21.5 -21.5 0 -21.5 0 0 -44 0 -44 21.5 0 21.5 0 0 -22 0 -22 -21.5 0 -21.5 0 0 -21.5 0 -21.5 -22.5 0 -22.5 0 0 -22 0 -22 -22 0 -22 0 0 43.5 0 43.5 -22 0 -22 0 0 -43.5 0 -43.5 22 0 22 0 0 -22 0 -22 22 0 22 0 0 22 0 22 22.3 -0.2 22.2 -0.3 0.3 -21.7 0.2 -21.8 21 0 21 0 0 44 0 44 44.5 0 44.5 0 0 -44 0 -44 -44 0 -44 0 0 -22 0 -22 -44 0 -44 0 0 -22 0 -22 -65.5 0 -65.5 0 0 -21.5 0 -21.5 -44.5 0 -44.5 0 0 -22 0 -22 -88 0 -88 0 0 65.5 0 65.5 -43.5 0 -43.5 0 0 -43.5 0 -43.5 -22 0 -22 0 0 -22 0 -22 22 0 22 0 0 -22 0 -22 -22 0 -22 0 0 -22 0 -22 43.5 0 43.5 0 0 22 0 22 44.5 0 44.5 0 0 -65.5 0 -65.5 43.5 0 43.5 0 0 -22 0 -22 22 0 22 0 0 22 0 22 22.3 -0.2 22.2 -0.3 0.3 -21.7 0.2 -21.8 43 0 43 0 0 44 0 44 -43.5 0 -43.5 0 0 21.5 0 21.5 -44 0 -44 0 0 22 0 22 22 0 22 0 0 22 0 22 22.3 -0.2 22.2 -0.3 0.3 -21.7 0.2 -21.8 43.5 0 43.5 0 0 -22 0 -22 22 0 22 0 0 22 0 22 22 0 22 0 0 -22 0 -22 43.5 0 43.5 0 0 44 0 44 22 0 22 0 0 22 0 22 -43 0 -43 0 0 -22 0 -22 -22.5 0 -22.5 0 0 43.5 0 43.5 65.5 0 65.5 0 0.2 21.8 0.3 21.7 22.3 0.3 22.2 0.2 0 22 0 22 22 0 22 0 0 44 0 44 21.5 0 21.5 0 0 21.5 0 21.5 -21.5 0 -21.5 0 0 44 0 44 -22 0 -22 0 0 22 0 22 43.5 0 43.5 0 0 43.5 0 43.5 -21.2 -0.2 -21.3 -0.3 -0.3 -21.7 -0.2 -21.8 -22 0 -22 0 0 22 0 22 22 0 22 0 0 22 0 22 -22 0 -22 0 0 22 0 22 22 0 22 0 0 21.5 0 21.5 -22 0 -22 0 0 -21.5 0 -21.5 -44.5 0 -44.5 0 0 21.5 0 21.5 22 0 22 0 0 22 0 22 -22 0 -22 0 0 22 0 22 22.5 0 22.5 0 0 -22 0 -22 44 0 44 0 0 22 0 22 -22 0 -22 0 0 21.5 0 21.5 22 0 22 0 0.2 -21.2 0.3 -21.3 43.8 -0.3 43.7 -0.2 0 -44 0 -44 21.8 0.2 21.7 0.3 0 87 0 87 -22 0.5 -22 0.5 -0.3 21.8 -0.2 21.7 -65.5 0 -65.5 0 0 -22 0 -22 -22 0 -22 0 0 -22 0 -22 -22.5 0 -22.5 0 0 22 0 22 22 0 22 0 0 22 0 22 -65.5 0 -65.5 0 0 -22 0 -22 -22 0 -22 0 0 22 0 22 -43.5 0 -43.5 0 0 -22z m175.8 -44.2 l0.2 -21.8 -22.5 0 -22.5 0 0 22 0 22 22.3 -0.2 22.2 -0.3 0.3 -21.7z m0 -218.6 l0.2 -65.2 -66.7 0.2 -66.8 0.3 -0.3 64 c-0.1 35.2 0 64.6 0.3 65.3 0.3 1 14.2 1.2 66.7 1 l66.3 -0.3 0.3 -65.3z m131.2 -43.2 l0 -22 -44.5 0 -44.5 0 0 22 0 22 44.5 0 44.5 0 0 -22z m-396 -175 l0 -22 -22 0 -22 0 0 22 0 22 22 0 22 0 0 -22z m396 -22 l0 -44 -22.2 0.2 -22.3 0.3 -0.3 42.5 c-0.1 23.4 0 43.1 0.3 43.8 0.3 0.9 5.8 1.2 22.5 1.2 l22 0 0 -44z m-351.2 -65.7 l0.2 -21.3 -22.5 0 -22.5 0 0 21.5 0 21.5 22.3 -0.2 22.2 -0.3 0.3 -21.2z m131.2 -262.3 l0 -22 -22.2 0.2 -22.3 0.3 -0.3 20.5 c-0.1 11.2 0 21 0.2 21.7 0.4 1 5.6 1.3 22.6 1.3 l22 0 0 -22z m-220 -131.5 l0 -21.5 22 0 22 0 0 -22 0 -22 -22 0 -22 0 -0.2 21.8 -0.3 21.7 -21.5 0.5 -21.5 0.5 -0.3 21.3 -0.2 21.2 22 0 22 0 0 -21.5z"/>
  <path d="M1231 2210 l0 -22 22 0 22 0 0 22 0 22 -22 0 -22 0 0 -22z"/>
  <path d="M1714.7 2493.3 c-0.9 -0.8 -0.9 -39.6 -0.1 -41.7 0.5 -1.4 3.4 -1.6 22 -1.6 l21.4 0 0 22 0 22 -21.3 0 c-11.8 0 -21.7 -0.3 -22 -0.7z"/>
  <path d="M1847 2472 l0 -22 21.5 0 21.5 0 0 -43.5 0 -43.5 22 0 22 0 0 21.5 0 21.5 22.5 0 22.5 0 0 -21.5 0 -21.5 -22 0 -22 0 0 -22 0 -22 65.5 0 65.5 0 0 -43.5 0 -43.5 44 0 44 0 0 21.5 0 21.5 -22 0 -22 0 0 22 0 22 22 0 22 0 0 22 0 22 -22 0 -22 0 0 21.5 0 21.5 22 0 22 0 0 22 0 22 -44 0 -44 0 0 22 0 22 -43.5 0 -43.5 0 0 -22 0 -22 -22.5 0 -22.5 0 0 22 0 22 -43.5 0 -43.5 0 0 -22z m219 -44 l0 -22 -21.7 0.2 -21.8 0.3 -0.3 20.5 c-0.1 11.2 0 21 0.2 21.7 0.4 1 5.5 1.3 22.1 1.3 l21.5 0 0 -22z"/>
  <path d="M2199 2341 l0 -153 150.5 0 150.5 0 0 153 0 153 -150.5 0 -150.5 0 0 -153z m263 0 l0 -109 -109.5 0 -109.5 0 -0.2 108.6 c-0.2 59.7 -0.1 108.8 0.1 109 0.2 0.2 49.6 0.4 109.8 0.4 l109.3 0 0 -109z"/>
  <path d="M2286 2340.5 l0 -65.5 66 0 66 0 0 65.5 0 65.5 -66 0 -66 0 0 -65.5z"/>
  <path d="M176 2428 l0 -22 43.8 -0.2 43.7 -0.3 0.3 -21.2 0.2 -21.3 21.5 0 21.5 0 0 21.5 0 21.5 22 0 22 0 0 22 0 22 -87.5 0 -87.5 0 0 -22z"/>
  <path d="M396 2428 l0 -22 21.5 0 21.5 0 0 22 0 22 -21.5 0 -21.5 0 0 -22z"/>
  <path d="M528 2428 l0 -22 21.5 0 21.5 0 0 22 0 22 -21.5 0 -21.5 0 0 -22z"/>
  <path d="M659.5 2448.7 c-0.3 -0.6 -0.4 -20.1 -0.3 -43.2 l0.3 -42 21.8 -0.3 21.7 -0.2 0 43.5 0 43.5 -21.5 0 c-16.3 0 -21.7 -0.3 -22 -1.3z"/>
  <path d="M1100 2428 l0 -22 21.5 0 21.5 0 0 22 0 22 -21.5 0 -21.5 0 0 -22z"/>
  <path d="M1671 2384.5 l0 -65.5 21.5 0 21.5 0 0 65.5 0 65.5 -21.5 0 -21.5 0 0 -65.5z"/>
  <path d="M1759 2362.5 l0 -87.5 21.5 0 21.5 0 0 22 0 22 22.5 0 22.5 0 0 22 0 22 -22.2 0.2 -22.3 0.3 -0.3 21.3 -0.2 21.2 22.5 0 22.5 0 -0.2 21.8 -0.3 21.7 -43.7 0.3 -43.8 0.2 0 -87.5z"/>
  <path d="M0 2144 l0 -262 22 0 22 0 0.2 -65.7 0.3 -65.8 21.8 -0.3 21.7 -0.2 0 66 0 66 22 0 22 0 0 -22 0 -22 22 0 22 0 0 -22 0 -22 43.5 0 43.5 0 0 22 0 22 -21.5 0 -21.5 0 0 22 0 22 21.8 -0.2 21.7 -0.3 0.3 -21.7 0.2 -21.8 22 0 22 0 0 -22 0 -22 65.5 0 65.5 0 0 44 0 44 22 0 22 0 0 21.5 0 21.5 -22 0 -22 0 0 22 0 22 44 0 44 0 0 22 0 22 -22 0 -22 0 0 22 0 22 -22 0 -22 0 0 -44 0 -44 -21.5 0 -21.5 0 0 109.5 0 109.5 21.5 0 21.5 0 0 -22 0 -22 22 0 22 0 0 22 0 22 22 0 22 0 0 43.5 0 43.5 -21.5 0 -21.5 0 0 -21.5 0 -21.5 -44 0 -44 0 0 43.5 0 43.5 -22.2 0.2 -22.3 0.3 -0.3 21.8 -0.2 21.7 -21.5 0 -21.5 0 0 -22 0 -22 -44 0 -44 0 0 22 0 22 -22 0 -22 0 -0.2 21.3 -0.3 21.2 -87.7 0.3 -87.8 0.2 0 -262z m176 87.5 l0 -43.5 -43.5 0 -43.5 0 0 -44 0 -44 -22.5 0 -22.5 0 0 44 0 44 22 0 22 0 0 43.5 0 43.5 44 0 44 0 0 -43.5z m176 -22 l0 -65.5 -66 0 -66 0 0 65.5 0 65.5 66 0 66 0 0 -65.5z m-132 -131 l0 -21.5 21.5 0 21.5 0 0 21.5 0 21.5 22.5 0 22.5 0 0 -21.5 0 -21.5 22 0 22 0 0 -44 0 -44 -22 0 -22 0 0 -22 0 -22 22 0 22 0 0 -21.5 0 -21.5 -22.5 0 -22.5 0 0 21.5 0 21.5 -22 0 -22 0 0 22 0 22 -21.5 0 -21.5 0 0 -43.5 0 -43.5 -22 0 -22 0 -0.2 21.3 -0.3 21.2 -43.7 0.3 -43.8 0.2 0 44 0 44 -22 0 -22 0 0 22 0 22 22.5 0 22.5 0 0 -22 0 -22 21 0 21 0 0 43.5 0 43.5 44.5 0 44.5 0 0 -21.5z"/>
  <path d="M264 2210 l0 -22 21.5 0 21.5 0 0 22 0 22 -21.5 0 -21.5 0 0 -22z"/>
  <path d="M264 2035 l0 -22 21.5 0 21.5 0 0 22 0 22 -21.5 0 -21.5 0 0 -22z"/>
  <path d="M132 1991 l0 -22 44 0 44 0 0 22 0 22 -44 0 -44 0 0 -22z"/>
  <path d="M484 2384.5 l0 -21.5 21.5 0 21.5 0 0 21.5 0 21.5 -21.5 0 -21.5 0 0 -21.5z"/>
  <path d="M572 2384.5 l0 -21.5 -22 0 -22 0 0 -44 0 -44 21.5 0 21.5 0 0.2 21.8 0.3 21.7 43.8 0.3 43.7 0.2 0 22 0 22 -22 0 -22 0 0 21.5 0 21.5 -21.5 0 -21.5 0 0 -21.5z"/>
  <path d="M439 2341 l0 -22 22 0 22 0 0 22 0 22 -22 0 -22 0 0 -22z"/>
  <path d="M659.4 2317.7 c-0.2 -0.7 -0.3 -10.5 -0.2 -21.7 l0.3 -20.5 21.8 -0.3 21.7 -0.2 0 22 0 22 -21.5 0 c-16.6 0 -21.7 -0.3 -22.1 -1.3z"/>
  <path d="M1495.4 2317.7 c-0.2 -0.7 -0.3 -10.5 -0.2 -21.7 l0.3 -20.5 21.3 -0.3 21.2 -0.2 0 22 0 22 -21 0 c-16.2 0 -21.2 -0.3 -21.6 -1.3z"/>
  <path d="M1890 2297 l0 -22 22 0 22 0 0 22 0 22 -22 0 -22 0 0 -22z"/>
  <path d="M704 2253.5 l0 -21.5 21.5 0 21.5 0 0 21.5 0 21.5 -21.5 0 -21.5 0 0 -21.5z"/>
  <path d="M1714.6 2274.3 c-0.4 -0.4 -0.6 -10 -0.6 -21.3 l0.2 -20.5 -43.6 -0.3 -43.6 -0.2 0 -22 0 -22 -44 0 -44 0 0 -22 0 -22 22 0 22 0 0 -43.5 0 -43.5 22 0 22 0 0 -44 0 -44 -22 0 -22 0 0 -65.5 0 -65.5 21.8 0.2 21.7 0.3 0.3 21.8 0.2 21.7 22 0 22 0 0 -44 0 -44 -44 0 -44 0 0 -22 0 -22 -43.7 -0.2 -43.8 -0.3 0 -21.5 0 -21.5 109.3 -0.3 109.2 -0.2 0 22 0 22 -21.5 0 -21.5 0 0 22 0 22 21.5 0 21.5 0 0 -20.4 c0 -11.2 0.3 -21.1 0.6 -22 0.5 -1.4 3.5 -1.6 22.5 -1.6 l21.9 0 0 -22 0 -22 21.5 0 21.5 0 0 22 0 22 22.5 0 22.5 0 0 -43.5 0 -43.5 21.5 0 21.5 0 0 -44 0 -44 22 0 22 0 0 65.5 0 65.5 -22 0 -22 0 0 44 0 44 -66 0 -66 0 0 22 0 22 -22 0 -22 0 0 22 0 22 -21.5 0 -21.5 0 0 87.5 0 87.5 21.5 0 21.5 0 0 21.5 0 21.5 -21.5 0 -21.5 0 0 44 0 44 44 0 44 0 0 -22 0 -22 -22.2 -0.2 -22.3 -0.3 -0.3 -19.5 c-0.1 -10.7 0 -20.5 0.3 -21.7 l0.5 -2.3 87.5 0 87.5 0 0 44 0 44 22 0 22 0 0 22 0 22 -22 0 -22 0 0 -22 0 -22 -21.5 0 -21.5 0 0 -22 0 -22 -22.2 0.2 -22.3 0.3 -0.3 43.8 -0.2 43.7 -22 0 -22 0 0 21.5 0 21.5 -21.3 0 c-11.8 0 -21.7 -0.3 -22.1 -0.7z"/>
  <path d="M1803 2253.5 l0 -21.5 22 0 22 0 0 21.5 0 21.5 -22 0 -22 0 0 -21.5z"/>
  <path d="M1979 2253.5 l0 -21.5 21.5 0 21.5 0 0 21.5 0 21.5 -21.5 0 -21.5 0 0 -21.5z"/>
  <path d="M528 2144 l0 -44 -22 0 -22 0 0 -21.5 0 -21.5 65.5 0 65.5 0 0 -22 0 -22 44.5 0 44.5 0 0 -22 0 -22 22 0 22 0 0 -22 0 -22 -22.5 0 -22.5 0 0 22 0 22 -21.7 -0.2 -21.8 -0.3 -0.3 -21.7 -0.2 -21.8 -22 0 -22 0 0 22 0 22 -21.5 0 -21.5 0 0 -22 0 -22 21.5 0 21.5 0 0 -21.5 0 -21.5 -21.5 0 -21.5 0 0 -22 0 -22 21.5 0 21.5 0 0 22 0 22 66.5 0 66.5 0 0 -44 0 -44 -22.5 0 -22.5 0 0 22 0 22 -21.7 -0.2 -21.8 -0.3 0 -87 0 -87 43.8 -0.3 43.7 -0.2 0 21.5 0 21.5 -22 0 -22 0 0 22 0 22 44.3 0.2 44.2 0.3 0.3 43.8 0.2 43.7 43.5 0 43.5 0 0 -42.4 c0 -23.3 0.3 -43.1 0.6 -44 0.5 -1.4 3.4 -1.6 22 -1.6 l21.4 0 0 22 0 22 22 0 22 0 0 22 0 22 -22 0 -22 0 0 22 0 22 -44 0 -44 0 0 21.5 0 21.5 -21.5 0 -21.5 0 -0.2 43.8 -0.3 43.7 -22 0.5 -22 0.5 -0.3 21.7 -0.2 21.8 22.2 0.2 22.3 0.3 0.3 21.3 0.2 21.2 21.5 0 21.5 0 0 -65.5 0 -65.5 22 0 22 0 0 65.5 0 65.5 -22 0 -22 0 0 22 0 22 -43.5 0 -43.5 0 0 -22 0 -22 -22 0 -22 0 0 -21.5 0 -21.5 -22.5 0 -22.5 0 0 21.5 0 21.5 -22 0 -22 0 0 22 0 22 -21.7 0.2 -21.8 0.3 -0.3 21.8 -0.2 21.7 -21.5 0 -21.5 0 0 -44z"/>
  <path d="M879.4 2186.7 c-0.2 -0.7 -0.3 -10.5 -0.2 -21.7 l0.3 -20.5 21.8 -0.3 21.7 -0.2 0 22 0 22 -21.5 0 c-16.6 0 -21.7 -0.3 -22.1 -1.3z"/>
  <path d="M1935 2166 l0 -22 21.5 0 21.5 0 0 22 0 22 -21.5 0 -21.5 0 0 -22z"/>
  <path d="M2023 2166 l0 -22 65.5 0 65.5 0 0 22 0 22 -65.5 0 -65.5 0 0 -22z"/>
  <path d="M659.4 2142.7 c-0.2 -0.7 -0.3 -10.5 -0.2 -21.7 l0.3 -20.5 21.8 -0.3 21.7 -0.2 0 22 0 22 -21.5 0 c-16.6 0 -21.7 -0.3 -22.1 -1.3z"/>
  <path d="M1979 2122 l0 -22 21.5 0 21.5 0 0 22 0 22 -21.5 0 -21.5 0 0 -22z"/>
  <path d="M2155 2122 l0 -22 -22.5 0 -22.5 0 0 -43.5 0 -43.5 -22 0 -22 0 0 43.5 0 43.5 -21.5 0 -21.5 0 0 -43.5 0 -43.5 21.5 0 21.5 0 0 -44 0 -44 -43.5 0 -43.5 0 0 -43.5 0 -43.5 21.5 0 21.5 0 0.2 21.8 0.3 21.7 66 0 66 0 0.3 -21.7 0.2 -21.8 65.5 0 65.5 0 0 -22 0 -22 44 0 44 0 0 22 0 22 22 0 22 0 0 22 0 22 -22 0 -22 0 0 21.5 0 21.5 22 0 22 0 0 22 0 22 -22 0 -22 0 0 22 0 22 -21.7 -0.2 -21.8 -0.3 -0.3 -65.2 -0.2 -65.3 -22 0 -22 0 0 21.5 0 21.5 -21.5 0 -21.5 0 0 -21.5 0 -21.5 -22.5 0 -22.5 0 0 21.5 0 21.5 22.3 0.2 22.2 0.3 0 21.5 0 21.5 -43.7 0.3 -43.8 0.2 0 -22 0 -22 -22.5 0 -22.5 0 0 44 0 44 22 0 22 0 0 22 0 22 22 0 22 0 0 21.5 0 21.5 22.3 0.2 22.2 0.3 0 21.5 0 21.5 -43.7 0.3 -43.8 0.2 0 -22z"/>
  <path d="M2286 2078.5 l0 -21.5 -43.5 0 -43.5 0 0 -22 0 -22 43.5 0 43.5 0 0 22 0 22 44.5 0 44.5 0 0 -22 0 -22 21.5 0 21.5 0 0 22 0 22 22 0 22 0 0 -22 0 -22 -21.5 0 -21.5 0 0 -22 0 -22 21.5 0 21.5 0 0 -43.5 0 -43.5 19 0 19 0 0 109 0 109 -107 0 -107 0 0 -21.5z"/>
  <path d="M1539 2013 l0 -44 21.5 0 21.5 0 0 44 0 44 -21.5 0 -21.5 0 0 -44z"/>
  <path d="M1714.7 2056.3 c-0.9 -0.8 -0.9 -170.6 -0.1 -172.7 0.5 -1.4 3.4 -1.6 22 -1.6 l21.4 0 0 21.5 0 21.5 22.5 0 22.5 0 0 -21.5 0 -21.5 -22 0 -22 0 0 -22 0 -22 44 0 44 0 0 22 0 22 43.5 0 43.5 0 0 21.5 0 21.5 -43.5 0 -43.5 0 -0.2 21.8 -0.3 21.7 -22 0.5 -22 0.5 -0.3 21.8 -0.2 21.7 -22 0 -22 0 0 22 0 22 -21.3 0 c-11.8 0 -21.7 -0.3 -22 -0.7z"/>
  <path d="M1847 2013 l0 -44 21.5 0 21.5 0 0 44 0 44 -21.5 0 -21.5 0 0 -44z"/>
  <path d="M1231 1991 l0 -22 22 0 22 0 0 22 0 22 -22 0 -22 0 0 -22z"/>
  <path d="M879.4 1967.7 c-0.2 -0.7 -0.3 -10.5 -0.2 -21.7 l0.3 -20.5 21.8 -0.3 21.7 -0.2 0 22 0 22 -21.5 0 c-16.6 0 -21.7 -0.3 -22.1 -1.3z"/>
  <path d="M924 1903.5 l0 -21.5 21.5 0 21.5 0 0 21.5 0 21.5 -21.5 0 -21.5 0 0 -21.5z"/>
  <path d="M484 1816 l0 -22 21.5 0 21.5 0 0 22 0 22 -21.5 0 -21.5 0 0 -22z"/>
  <path d="M1144 1816 l0 -22 21 0 21 0 0 22 0 22 -21 0 -21 0 0 -22z"/>
  <path d="M1539 1816 l0 -22 21.5 0 21.5 0 0 22 0 22 -21.5 0 -21.5 0 0 -22z"/>
  <path d="M1935 1816 l0 -22 21.5 0 21.5 0 0 22 0 22 -21.5 0 -21.5 0 0 -22z"/>
  <path d="M2066 1794 l0 -44 22 0 22 0 0 44 0 44 -22 0 -22 0 0 -44z"/>
  <path d="M2419 1816 l0 -22 21.3 0.2 21.2 0.3 0 21.5 0 21.5 -21.2 0.3 -21.3 0.2 0 -22z"/>
  <path d="M132 1772 l0 -22 22 0 22 0 0 -22 0 -22 43.5 0 43.5 0 0 22 0 22 -43.5 0 -43.5 0 -0.2 21.8 -0.3 21.7 -21.7 0.3 -21.8 0.2 0 -22z"/>
  <path d="M1055 1772 l0 -22 -22 0 -22 0 0 -22 0 -22 22 0 22 0 0 22 0 22 22 0 22 0 0 22 0 22 -22 0 -22 0 0 -22z"/>
  <path d="M2155 1772 l0 -22 43.8 0.2 43.7 0.3 0 21.5 0 21.5 -43.7 0.3 -43.8 0.2 0 -22z"/>
  <path d="M2375 1728.5 l0 -65.5 -22.2 -0.2 -22.3 -0.3 -0.3 -21.7 -0.2 -21.8 -22 0 -22 0 0 22 0 22 -21.5 0 -21.5 0 0 -22 0 -22 -22 0 -22 0 0 -22 0 -22 22 0 22 0 0 -22 0 -22 -22 0 -22 0 0 -21.5 0 -21.5 22 0 22 0 0 -22 0 -22 21.5 0 21.5 0 0 -22 0 -22 22 0 22 0 0 -22 0 -22 -109.7 -0.2 -109.8 -0.3 -0.3 -21.2 -0.2 -21.3 -22 0 -22 0 0 21.5 0 21.5 22 0 22 0 0 22 0 22 -22 0 -22 0 0 -22 0 -22 -21.5 0 -21.5 0 0 -21.5 0 -21.5 21.5 0 21.5 0 0 -22 0 -22 -43.5 0 -43.5 0 0 -22 0 -22 43.5 0 43.5 0 0 -22 0 -22 -66 0 -66 0 0 44 0 44 -22 0 -22 0 0 22 0 22 22 0 22 0 0 21.5 0 21.5 44 0 44 0 0 22 0 22 -22 0 -22 0 0 44 0 44 -21.5 0 -21.5 0 0 -44 0 -44 -66 0 -66 0 0 -43.5 0 -43.5 22 0 22 0 0 -22 0 -22 21.5 0 21.5 0 0 -65.5 0 -65.5 -21.5 0 -21.5 0 0 21.5 0 21.5 -22.2 0.2 -22.3 0.3 -0.3 21.8 -0.2 21.7 22.5 0 22.5 0 -0.2 21.8 -0.3 21.7 -22 0.5 -22 0.5 -0.3 21.8 -0.2 21.7 -21.5 0 -21.5 0 0 -22 0 -22 -22.2 -0.2 -22.3 -0.3 -0.3 -19.5 c-0.1 -10.7 0 -20.5 0.3 -21.7 0.5 -2.3 0.6 -2.3 22.5 -2.3 l22 0 0 -43.5 0 -43.5 22 0 22 0 0 -22 0 -22 -22 0 -22 0 0 -44 0 -44 -22.2 -0.2 -22.3 -0.3 0 -21 0 -21 22.3 -0.3 22.2 -0.2 0 -22 0 -22 -44 0 -44 0 0 22 0 22 -44.2 0.2 -44.3 0.3 -0.3 21.3 -0.2 21.2 -22 0 -22 0 0 22 0 22 22.5 0 22.5 0 0 -22 0 -22 44 0 44 0 0 44 0 44 -154 0 -154 0 0 -22 0 -22 66 0 66 0 0 -43.5 0 -43.5 -44.2 0.2 -44.3 0.3 -0.3 21.3 -0.2 21.2 -22 0 -22 0 0 22 0 22 -21.5 0 -21.5 0 0 22 0 22 -88 0 -88 0 0 22 0 22 -109.5 0 -109.5 0 0 -22 0 -22 -22.3 -0.2 -22.2 -0.3 -0.3 -19.5 c-0.1 -10.7 0 -20.5 0.3 -21.7 0.5 -2.3 0.6 -2.3 22.5 -2.3 l22 0 0 -22 0 -22 21.5 0 21.5 0 0 44 0 44 22 0 22 0 0 -44 0 -44 44 0 44 0 0 22 0 22 88 0 88 0 0 -22 0 -22 -22 0 -22 0 0 -21.5 0 -21.5 -22 0 -22 0 0 -22 0 -22 22 0 22 0 0 -22 0 -22 22 0 22 0 0 22 0 22 22 0 22 0 0 22 0 22 22 0 22 0 0 -22 0 -22 44 0 44 0 0 -22 0 -22 -22 0 -22 0 0 -22 0 -22 44 0 44 0 0 22 0 22 22 0 22 0 0 -22 0 -22 21.5 0 21.5 0 0 44 0 44 44.5 0 44.5 0 0 -44 0 -44 -22 0 -22 0 0 -43.5 0 -43.5 22 0 22 0 0 43.5 0 43.5 21.5 0 21.5 0 0 22 0 22 22.5 0 22.5 0 0 -22 0 -22 22 0 22 0 0 -21.5 0 -21.5 22 0 22 0 0 -22 0 -22 21.5 0 21.5 0 0 -44 0 -44 44 0 44 0 0 66 0 66 -21.5 0 -21.5 0 0 -22 0 -22 -22.5 0 -22.5 0 0 22 0 22 22 0 22 0 0 21.5 0 21.5 -22 0 -22 0 0 22 0 22 -43.7 0.2 -43.8 0.3 -0.3 21.8 -0.2 21.7 22.5 0 22.5 0 0 43.5 0 43.5 -22.2 0.2 -22.3 0.3 -0.3 21.8 -0.2 21.7 44 0 44 0 0 -22 0 -22 22 0 22 0 0 22 0 22 -22 0 -22 0 0 44 0 44 22.3 -0.2 22.2 -0.3 0.3 -21.7 0.2 -21.8 22 0 22 0 0 -22 0 -22 21.5 0 21.5 0 0.2 43.8 0.3 43.7 21.8 0.3 21.7 0.2 0 -22 0 -22 22 0 22 0 0 22 0 22 22.3 -0.2 22.2 -0.3 0.3 -21.7 0.2 -21.8 21.5 0 21.5 0 0 22 0 22 22.5 0 22.5 0 0 -22 0 -22 21.5 0 21.5 0 0 22 0 22 66 0 66 0 0 21.5 0 21.5 -22 0 -22 0 0 22 0 22 63 0 63 0 0 22 0 22 -40.7 0.2 -40.8 0.3 -0.3 65.3 -0.2 65.2 -22 0 -22 0 0 44 0 44 -21.7 -0.2 -21.8 -0.3 -0.3 -21.7 -0.2 -21.8 -22 0 -22 0 0 22 0 22 22 0 22 0 0 43.5 0 43.5 22 0 22 0 0 22 0 22 22 0 22 0 0 87.5 0 87.5 -21.5 0 -21.5 0 0 -65.5z m-485 -394 l0 -21.5 -21.5 0 -21.5 0 0 21.5 0 21.5 21.5 0 21.5 0 0 -21.5z m396 -87.5 l0 -66 -66 0 -66 0 0 66 0 66 66 0 66 0 0 -66z m-176 -87.5 l0 -21.5 -22 0 -22 0 0 21.5 0 21.5 22 0 22 0 0 -21.5z m-835 -218.5 l0 -22 -22 0 -22 0 0 22 0 22 22 0 22 0 0 -22z"/>
  <path d="M2199 1247 l0 -22 21.8 0.2 21.7 0.3 0 21.5 0 21.5 -21.7 0.3 -21.8 0.2 0 -22z"/>
  <path d="M89 1728 l0 -22 21 0 21 0 0 22 0 22 -21 0 -21 0 0 -22z"/>
  <path d="M308 1728 l0 -22 21.5 0 21.5 0 0 22 0 22 -21.5 0 -21.5 0 0 -22z"/>
  <path d="M439 1706.5 l0 -43.5 -21.5 0 -21.5 0 0 -44 0 -44 -44 0 -44 0 0 -22 0 -22 22 0 22 0 0 -21.5 0 -21.5 -66 0 -66 0 0 -22 0 -22 66 0 66 0 0 -44 0 -44 -44.5 0 -44.5 0 0 22 0 22 -109.5 0 -109.5 0 0 22 0 22 22 0 22 0 0 22 0 22 -44 0 -44 0 0 -109.5 0 -109.5 44 0 44 0 0 22 0 22 -22 0 -22 0 0 21.5 0 21.5 66 0 66 0 0 -109 0 -109 88 0 88 0 0 -22 0 -22 -22 0 -22 0 0 -22 0 -22 -22.5 0 -22.5 0 0 22 0 22 -43.5 0 -43.5 0 -0.2 21.8 -0.3 21.7 -21.7 0.3 -21.8 0.2 0 -22 0 -22 -22 0 -22 0 0 22 0 22 -21.7 -0.2 -21.8 -0.3 -0.3 -21.7 -0.2 -21.8 -22 0 -22 0 0 -44 0 -44 22 0 22 0 0 22 0 22 22.5 0 22.5 0 0 -22 0 -22 -22.3 -0.2 -22.2 -0.3 0 -21 0 -21 22.3 -0.3 22.2 -0.2 0 -22 0 -22 -22.2 -0.2 -22.3 -0.3 0 -43.5 0 -43.5 21.8 -0.3 21.7 -0.2 0 22 0 22 22 0 22 0 0 -22 0 -22 22 0 22 0 -0.2 43.8 -0.3 43.7 -22 0.5 -22 0.5 -0.3 21.8 -0.2 21.7 22.5 0 22.5 0 0 -22 0 -22 22 0 22 0 0 22 0 22 -22 0 -22 0 -0.2 21.3 -0.3 21.2 -22 0.5 -22 0.5 -0.3 21.8 -0.2 21.7 22.5 0 22.5 0 0 -22 0 -22 87.5 0 87.5 0 0.2 21.8 0.3 21.7 22.3 0.3 22.2 0.2 0 -22 0 -22 -22 0 -22 0 0 -21.5 0 -21.5 22 0 22 0 0 -22 0 -22 -44 0 -44 0 0 -22 0 -22 44 0 44 0 0 -22 0 -22 -22 0 -22 0 0 -21.5 0 -21.5 22 0 22 0 0 -22 0 -22 -22 0 -22 0 0 -22 0 -22 22 0 22 0 0 -22 0 -22 21.5 0 21.5 0 0 44 0 44 22 0 22 0 0 22 0 22 22 0 22 0 0 21.5 0 21.5 -22 0 -22 0 0 22 0 22 -43.5 0 -43.5 0 0 22 0 22 43.5 0 43.5 0 0 22 0 22 -43.5 0 -43.5 0 0 21.5 0 21.5 21.5 0 21.5 0 0 22 0 22 44.5 0 44.5 0 0 -22 0 -22 21.5 0 21.5 0 0 44 0 44 -44 0 -44 0 0 22 0 22 -22 0 -22 0 0 21.5 0 21.5 22.3 -0.2 22.2 -0.3 0.3 -21.2 0.2 -21.3 43.5 0 43.5 0 0.2 21.3 0.3 21.2 21.8 0.3 21.7 0.2 0 -21.5 0 -21.5 22 0 22 0 0 21.5 0 21.5 22.5 0 22.5 0 0 -21.5 0 -21.5 -22.2 -0.2 -22.3 -0.3 0 -21.5 0 -21.5 87.8 -0.3 87.7 -0.2 0 22 0 22 44 0 44 0 0 21.5 0 21.5 -87.7 0.2 -87.8 0.3 -0.3 21.8 -0.2 21.7 -22 0 -22 0 0 22 0 22 -21.7 -0.2 -21.8 -0.3 -0.3 -21.7 -0.2 -21.8 -22 0 -22 0 0 22 0 22 -21.5 0 -21.5 0 0 -22 0 -22 -66.5 0 -66.5 0 0 -22 0 -22 -21.5 0 -21.5 0 0 66 0 66 21.5 0 21.5 0 0 -22 0 -22 44 0 44 0 0 22 0 22 66 0 66 0 0 21.5 0 21.5 -22 0 -22 0 0 66 0 66 44.5 0 44.5 0 0 -44 0 -44 43.8 0.2 43.7 0.3 0 43.5 0 43.5 -22 0.5 -22 0.5 -0.3 21.3 -0.2 21.2 -44 0 -44 0 0 66 0 66 -43.5 0 -43.5 0 0 -22 0 -22 -44.5 0 -44.5 0 0 65.5 0 65.5 -22 0 -22 0 0 -43.5z m44.8 -197.2 l0.2 -21.3 43.5 0 43.5 0 0.2 21.3 0.3 21.2 21.8 0.3 21.7 0.2 0 -21.5 0 -21.5 -21.5 0 -21.5 0 0 -22 0 -22 -22 0 -22 0 0 -22 0 -22 22 0 22 0 0 -22 0 -22 -22.5 0 -22.5 0 0 22 0 22 -22 0 -22 0 0 22 0 22 -22 0 -22 0 0 22 0 22 -21.5 0 -21.5 0 0 21.5 0 21.5 43.8 -0.2 43.7 -0.3 0.3 -21.2z m0 -175 l0.2 -21.3 -22.5 0 -22.5 0 0 21.5 0 21.5 22.3 -0.2 22.2 -0.3 0.3 -21.2z m-131.8 -87.3 l0 -66 -66 0 -66 0 0 66 0 66 66 0 66 0 0 -66z"/>
  <path d="M264 1247 l0 -22 21.5 0 21.5 0 0 22 0 22 -21.5 0 -21.5 0 0 -22z"/>
  <path d="M528 1728 l0 -22 43.5 0 43.5 0 0 22 0 22 -43.5 0 -43.5 0 0 -22z"/>
  <path d="M1100 1728 l0 -22 21.5 0 21.5 0 0 22 0 22 -21.5 0 -21.5 0 0 -22z"/>
  <path d="M1979 1728 l0 -22 21.5 0 21.5 0 0 22 0 22 -21.5 0 -21.5 0 0 -22z"/>
  <path d="M2110.7 1749.3 c-0.4 -0.3 -0.7 -19.9 -0.7 -43.5 l0 -42.8 -22 0 -22 0 0 -22 0 -22 -21.5 0 -21.5 0 0 -22 0 -22 21.5 0 21.5 0 0 22 0 22 66 0 66 0 0 22 0 22 -22 0 -22 0 0 43.5 0 43.5 -21.3 0 c-11.8 0 -21.7 -0.3 -22 -0.7z"/>
  <path d="M2286 1728 l0 -22 22 0 22 0 0 22 0 22 -22 0 -22 0 0 -22z"/>
  <path d="M0 1684.5 l0 -21.5 22 0 22 0 0 21.5 0 21.5 -22 0 -22 0 0 -21.5z"/>
  <path d="M1407 1684.5 l0 -21.5 22 0 22 0 0 -22 0 -22 -22 0 -22 0 0 -87.5 0 -87.5 22 0 22 0 0 43.5 0 43.5 22 0 22 0 0.2 -43.2 0.3 -43.3 21.3 -0.3 21.2 -0.2 0 22 0 22 22 0 22 0 0 43.5 0 43.5 22.3 0.2 22.2 0.3 0.3 21.8 0.2 21.7 22 0 22 0 0 -44 0 -44 21.5 0 21.5 0 0 22 0 22 22 0 22 0 0 22 0 22 -22 0 -22 0 0 22 0 22 -131.5 0 -131.5 0 0 21.5 0 21.5 -22 0 -22 0 0 -21.5z"/>
  <path d="M1714.7 1705.3 c-0.9 -0.8 -0.9 -38.6 -0.1 -40.7 0.5 -1.4 3.4 -1.6 22 -1.6 l21.4 0 0 21.5 0 21.5 -21.3 0 c-11.8 0 -21.7 -0.3 -22 -0.7z"/>
  <path d="M2199 1684.5 l0 -21.5 21.8 0.2 21.7 0.3 0 21 0 21 -21.7 0.3 -21.8 0.2 0 -21.5z"/>
  <path d="M44.4 1661.7 c-0.2 -0.7 -0.3 -10.5 -0.2 -21.7 l0.3 -20.5 22.3 -0.3 22.2 -0.2 0 -65.5 0 -65.5 21.5 0 21.5 0 0 -22 0 -22 22 0 22 0 -0.2 43.3 -0.3 43.2 -22 0.5 -22 0.5 -0.3 21.8 -0.2 21.7 22.5 0 22.5 0 0 22 0 22 22 0 22 0 0 -22 0 -22 43.5 0 43.5 0 0 22 0 22 22 0 22 0 0 22 0 22 -153 0 c-123.3 0 -153.2 -0.2 -153.6 -1.3z"/>
  <path d="M1759 1641 l0 -22 44 0 44 0 -0.2 21.8 -0.3 21.7 -43.7 0.3 -43.8 0.2 0 -22z"/>
  <path d="M1979 1641 l0 -22 21.5 0 21.5 0 0 22 0 22 -21.5 0 -21.5 0 0 -22z"/>
  <path d="M2462 1641 l0 -22 -21.5 0 -21.5 0 0 -22 0 -22 -22 0 -22 0 0 -22 0 -22 43.3 0.2 43.2 0.3 0.3 21.8 0.2 21.7 19 0 19 0 0 44 0 44 -19 0 -19 0 0 -22z"/>
  <path d="M0 1553 l0 -22 22 0 22 0 0 22 0 22 -22 0 -22 0 0 -22z"/>
  <path d="M1759 1553 l0 -22 44 0 44 0 0 22 0 22 -44 0 -44 0 0 -22z"/>
  <path d="M1979 1553 l0 -22 21.5 0 21.5 0 0 22 0 22 -21.5 0 -21.5 0 0 -22z"/>
  <path d="M2110 1509.5 l0 -65.5 22 0 22 0 0 65.5 0 65.5 -22 0 -22 0 0 -65.5z"/>
  <path d="M2462 1509.5 l0 -21.5 19 0 19 0 0 21.5 0 21.5 -19 0 -19 0 0 -21.5z"/>
  <path d="M835 1466 l0 -22 22 0 22 0 0 22 0 22 -22 0 -22 0 0 -22z"/>
  <path d="M1583 1466 l0 -22 22 0 22 0 0 -22 0 -22 22 0 22 0 0 -43.5 0 -43.5 21.5 0 21.5 0 0 21.5 0 21.5 22 0 22 0 0 22 0 22 -22 0 -22 0 0 22 0 22 -21.5 0 -21.5 0 0 22 0 22 -44 0 -44 0 0 -22z"/>
  <path d="M1759 1444 l0 -44 21.5 0 21.5 0 0 44 0 44 -21.5 0 -21.5 0 0 -44z"/>
  <path d="M2023 1466 l0 -22 21.5 0 21.5 0 0 22 0 22 -21.5 0 -21.5 0 0 -22z"/>
  <path d="M1231 1422 l0 -22 -22 0 -22 0 0 -22 0 -22 -88 0 -88 0 -0.2 21.8 -0.3 21.7 -21.2 0.3 -21.3 0.2 0 -43.5 0 -43.5 21.5 0 21.5 0 0 -22 0 -22 -21.5 0 -21.5 0 0 -44 0 -44 21.5 0 21.5 0 0 22 0 22 22 0 22 0 0 -22 0 -22 44.5 0 44.5 0 0 -21.5 0 -21.5 87.8 -0.2 87.7 -0.3 0.3 -21.7 0.2 -21.8 21 0 21 0 0 65.5 0 65.5 22 0 22 0 0.2 21.8 0.3 21.7 44.3 0.3 44.2 0.2 0 22 0 22 -22 0 -22 0 0 21.5 0 21.5 -22 0 -22 0 0 -21.5 0 -21.5 -22.5 0 -22.5 0 0 21.5 0 21.5 -65.5 0 -65.5 0 0 22 0 22 22 0 22 0 0 22 0 22 -22 0 -22 0 0 -22z m88.8 -175.3 l0.2 -65.7 -66.7 0.2 -66.8 0.3 -0.3 64.5 c-0.1 35.5 0 65.1 0.3 65.8 0.3 1 14.2 1.2 66.7 1 l66.3 -0.3 0.3 -65.8z m-175.8 0.3 l0 -22 -22.5 0 -22.5 0 0 22 0 22 22.5 0 22.5 0 0 -22z"/>
  <path d="M1231 1247 l0 -22 22 0 22 0 0 22 0 22 -22 0 -22 0 0 -22z"/>
  <path d="M1363 1422 l0 -22 21.5 0 21.5 0 0 22 0 22 -21.5 0 -21.5 0 0 -22z"/>
  <path d="M2155 1422 l0 -22 43.8 0.2 43.7 0.3 0.3 19.5 c0.1 10.7 0 20.5 -0.3 21.8 l-0.5 2.2 -43.5 0 -43.5 0 0 -22z"/>
  <path d="M2419 1422 l0 -22 21.5 0 21.5 0 0 -43.5 0 -43.5 19 0 19 0 0 65.5 0 65.5 -40.5 0 -40.5 0 0 -22z"/>
  <path d="M792 1378 l0 -22 43.5 0 43.5 0 0 -19.9 c0 -11 0.3 -20.6 0.6 -21.5 0.5 -1.4 3.4 -1.6 22 -1.6 l21.4 0 0 43.5 0 43.5 -65.5 0 -65.5 0 0 -22z"/>
  <path d="M1495.4 1398.7 c-0.2 -0.7 -0.3 -10.5 -0.2 -21.7 l0.3 -20.5 21.3 -0.3 21.2 -0.2 0 22 0 22 -21 0 c-16.2 0 -21.2 -0.3 -21.6 -1.3z"/>
  <path d="M1583 1378 l0 -22 21.8 0.2 21.7 0.3 0 21.5 0 21.5 -21.7 0.3 -21.8 0.2 0 -22z"/>
  <path d="M1539 1334.5 l0 -21.5 21.5 0 21.5 0 0 21.5 0 21.5 -21.5 0 -21.5 0 0 -21.5z"/>
  <path d="M835 1291 l0 -22 -21.5 0 -21.5 0 0 -22 0 -22 65.5 0 65.5 0 0 22 0 22 -22 0 -22 0 0 22 0 22 -22 0 -22 0 0 -22z"/>
  <path d="M924 1291 l0 -22 21.5 0 21.5 0 0 22 0 22 -21.5 0 -21.5 0 0 -22z"/>
  <path d="M89 1247 l0 -22 -22.2 -0.2 -22.3 -0.3 0 -21.5 0 -21.5 22.3 -0.3 22.2 -0.2 0 -21.5 0 -21.5 21 0 21 0 0 65.5 0 65.5 -21 0 -21 0 0 -22z"/>
  <path d="M1627 1247 l0 -22 22 0 22 0 0 -43.5 0 -43.5 21.5 0 21.5 0 0 43.5 0 43.5 -21.5 0 -21.5 0 0 22 0 22 -22 0 -22 0 0 -22z"/>
  <path d="M1407 1203 l0 -22 22 0 22 0 0 22 0 22 -22 0 -22 0 0 -22z"/>
  <path d="M1495.4 1223.7 c-0.2 -0.7 -0.3 -10.5 -0.2 -21.7 l0.3 -20.5 21.8 -0.3 21.7 -0.2 0 -21.5 0 -21.5 43.8 0.2 43.7 0.3 0 21 0 21 -22 0.5 -22 0.5 -0.3 21.8 -0.2 21.7 -43.1 0 c-33.9 0 -43.1 -0.3 -43.5 -1.3z"/>
  <path d="M0 1159.5 l0 -21.5 22 0 22 0 0 21.5 0 21.5 -22 0 -22 0 0 -21.5z"/>
  <path d="M2462 1159.5 l0 -21.5 19 0 19 0 0 21.5 0 21.5 -19 0 -19 0 0 -21.5z"/>
  <path d="M1714.4 1136.7 c-0.2 -0.7 -0.3 -10.5 -0.2 -21.7 l0.3 -20.5 21.8 -0.3 21.7 -0.2 0 22 0 22 -21.5 0 c-16.6 0 -21.7 -0.3 -22.1 -1.3z"/>
  <path d="M615 1050 l0 -44 22 0 22 0 0 44 0 44 -22 0 -22 0 0 -44z"/>
  <path d="M2199 1072 l0 -22 21.8 0.2 21.7 0.3 0.3 19.5 c0.1 10.7 0 20.5 -0.3 21.8 -0.5 2.2 -0.6 2.2 -22 2.2 l-21.5 0 0 -22z"/>
  <path d="M2330.4 1092.7 c-0.2 -0.7 -0.3 -10.5 -0.2 -21.7 l0.3 -20.5 22.3 -0.3 22.2 -0.2 0 -22 0 -22 21.5 0 21.5 0 0 44 0 44 -43.5 0 c-34.4 0 -43.7 -0.3 -44.1 -1.3z"/>
  <path d="M748 1028 l0 -22 -22 0 -22 0 0 -21.5 0 -21.5 22 0 22 0 0 -22 0 -22 43.5 0 43.5 0 0 43.5 0 43.5 22 0 22 0 0 22 0 22 -22 0 -22 0 0 -22 0 -22 -21.5 0 -21.5 0 -0.2 21.8 -0.3 21.7 -21.7 0.3 -21.8 0.2 0 -22z"/>
  <path d="M2066 1028 l0 -22 66 0 66 0 0 22 0 22 -66 0 -66 0 0 -22z"/>
  <path d="M2286 1006.5 l0 -43.5 -21.5 0 -21.5 0 0 -22 0 -22 21.5 0 21.5 0 0 22 0 22 22 0 22 0 0 43.5 0 43.5 -22 0 -22 0 0 -43.5z"/>
  <path d="M2462 1028 l0 -22 -21.5 0 -21.5 0 0 -21.5 0 -21.5 21.5 0 21.5 0 0 -22 0 -22 19 0 19 0 0 65.5 0 65.5 -19 0 -19 0 0 -22z"/>
  <path d="M968 962.5 l0 -43.5 21.5 0 21.5 0 0 -65.5 0 -65.5 -21.7 0.2 -21.8 0.3 -0.3 43.3 -0.2 43.2 -43.8 -0.2 -43.7 -0.3 0 -21.5 0 -21.5 22.3 -0.3 22.2 -0.2 0 -43.5 0 -43.5 65.5 0 65.5 0 0 22 0 22 44.5 0 44.5 0 0 -22 0 -22 21.5 0 21.5 0 0 -65.5 0 -65.5 22 0 22 0 0 -22 0 -22 -66 0 -66 0 0 43.5 0 43.5 -44 0 -44 0 -0.2 21.8 -0.3 21.7 -21.2 0.3 -21.3 0.2 0 -22 0 -22 -22 0 -22 0 0 -21.5 0 -21.5 43.5 0 43.5 0 0 -22 0 -22 -21.5 0 -21.5 0 0 -22 0 -22 21.5 0 21.5 0 0 -22 0 -22 22 0 22 0 0 -21.5 0 -21.5 65.5 0 65.5 0 0.2 21.3 0.3 21.2 22.3 0.3 22.2 0.2 0 22 0 22 22 0 22 0 0 44 0 44 22 0 22 0 0 21.5 0 21.5 -21.7 -0.2 -21.8 -0.3 -0.3 -21.2 -0.2 -21.3 -22 0 -22 0 0 21.5 0 21.5 22 0 22 0 0 22 0 22 -22 0 -22 0 0 44 0 44 22 0 22 0 0 -22 0 -22 22 0 22 0 0 22 0 22 43.5 0 43.5 0 0 21.5 0 21.5 -22 0 -22 0 0 44 0 44 -21 0 -21 0 0 -44 0 -44 -66.7 0.2 -66.8 0.3 -0.3 21.8 -0.2 21.7 -43 0 -43 0 0 -22 0 -22 -22.5 0 -22.5 0 0 22 0 22 22 0 22 0 0 22 0 22 -44 0 -44 0 -0.2 43.3 -0.3 43.2 -21.2 0.3 -21.3 0.2 0 -43.5z m176 -459.5 l0 -22 -22.5 0 -22.5 0 0 22 0 22 22.5 0 22.5 0 0 -22z"/>
  <path d="M1100 962.5 l0 -43.5 21.5 0 21.5 0 0 43.5 0 43.5 -21.5 0 -21.5 0 0 -43.5z"/>
  <path d="M2199 984.5 l0 -21.5 21.8 0.2 21.7 0.3 0 21 0 21 -21.7 0.3 -21.8 0.2 0 -21.5z"/>
  <path d="M528 941 l0 -22 21.5 0 21.5 0 0 22 0 22 -21.5 0 -21.5 0 0 -22z"/>
  <path d="M615 941 l0 -22 44 0 44 0 0 22 0 22 -44 0 -44 0 0 -22z"/>
  <path d="M879.4 961.7 c-0.2 -0.7 -0.3 -10.5 -0.2 -21.7 l0.3 -20.5 21.8 -0.3 21.7 -0.2 0 22 0 22 -21.5 0 c-16.6 0 -21.7 -0.3 -22.1 -1.3z"/>
  <path d="M1935 897 l0 -66 43.5 0 43.5 0 0 22 0 22 -22 0 -22 0 0 44 0 44 -21.5 0 -21.5 0 0 -66z"/>
  <path d="M2023 919 l0 -44 21.5 0 21.5 0 0 -22 0 -22 22 0 22 0 0 -21.5 0 -21.5 22 0 22 0 0 43.5 0 43.5 -44 0 -44 0 0 22 0 22 66 0 66 0 0 22 0 22 -87.5 0 -87.5 0 0 -44z"/>
  <path d="M2330.4 961.7 c-0.2 -0.7 -0.3 -10.5 -0.2 -21.7 l0.3 -20.5 43.8 -0.3 43.7 -0.2 0 22 0 22 -43.5 0 c-34.4 0 -43.7 -0.3 -44.1 -1.3z"/>
  <path d="M2199 897 l0 -22 21.8 0.2 21.7 0.3 0.3 19.5 c0.1 10.7 0 20.5 -0.3 21.8 -0.5 2.2 -0.6 2.2 -22 2.2 l-21.5 0 0 -22z"/>
  <path d="M792 809.5 l0 -65.5 -22 0 -22 0 0 -22 0 -22 22 0 22 0 0 -22 0 -22 -22.2 0.2 -22.3 0.3 -0.3 21.8 -0.2 21.7 -44 0 -44 0 0 22 0 22 22 0 22 0 0 43.5 0 43.5 -21.7 -0.2 -21.8 -0.3 -0.3 -21.2 -0.2 -21.3 -22 0 -22 0 0 -44 0 -44 -21.5 0 -21.5 0 0 -22 0 -22 21.5 0 21.5 0 0 -21.5 0 -21.5 22 0 22 0 0 21.5 0 21.5 22.5 0 22.5 0 0 -21.5 0 -21.5 -22.2 -0.2 -22.3 -0.3 0 -21.5 0 -21.5 22.3 -0.3 22.2 -0.2 0 -87.5 0 -87.5 44 0 44 0 0 -22 0 -22 21.5 0 21.5 0 0 22 0 22 44 0 44 0 0 22 0 22 -44 0 -44 0 0 21.5 0 21.5 -43.7 0.2 -43.8 0.3 -0.3 43.7 -0.2 43.8 22.2 0.2 22.3 0.3 0.3 21.8 0.2 21.7 21.5 0 21.5 0 0 -22 0 -22 -21.5 0 -21.5 0 0 -22 0 -22 65.5 0 65.5 0 0 22 0 22 -22 0 -22 0 0 43.5 0 43.5 -22 0 -22 0 0 22 0 22 22 0 22 0 0 44 0 44 -22 0 -22 0 0 43.5 0 43.5 -21.5 0 -21.5 0 0 -65.5z"/>
  <path d="M2243 853 l0 -22 -22 0 -22 0 0 -21.5 0 -21.5 22 0 22 0 0 -22 0 -22 -22.5 0 -22.5 0 0 22 0 22 -21.5 0 -21.5 0 0 -44 0 -44 44 0 44 0 0 -22 0 -22 21.5 0 21.5 0 0 22 0 22 22 0 22 0 0 22 0 22 -22 0 -22 0 0 65.5 0 65.5 -21.5 0 -21.5 0 0 -22z"/>
  <path d="M2330.4 873.7 c-0.2 -0.7 -0.3 -10.5 -0.2 -21.7 l0.3 -20.5 22.3 -0.3 22.2 -0.2 0 -21.5 0 -21.5 43.3 0.2 43.2 0.3 0 21 0 21 -21.5 0.5 -21.5 0.5 -0.3 21.8 -0.2 21.7 -43.6 0 c-34.3 0 -43.6 -0.3 -44 -1.3z"/>
  <path d="M89 787.5 l0 -43.5 43.5 0 43.5 0 -0.2 21.8 -0.3 21.7 -22 0.5 -22 0.5 -0.3 21.3 -0.2 21.2 -21 0 -21 0 0 -43.5z"/>
  <path d="M220 787.5 l0 -43.5 43.5 0 43.5 0 0 22 0 22 -22 0 -22 0 0 21.5 0 21.5 -21.5 0 -21.5 0 0 -43.5z"/>
  <path d="M1495.5 829.7 c-0.3 -0.6 -0.4 -20.1 -0.3 -43.2 l0.3 -42 21.3 -0.3 21.2 -0.2 0 43.5 0 43.5 -21 0 c-15.9 0 -21.2 -0.3 -21.5 -1.3z"/>
  <path d="M1714.4 829.7 c-0.2 -0.7 -0.3 -10.2 -0.2 -21.2 l0.3 -20 21.8 -0.3 21.7 -0.2 0 21.5 0 21.5 -21.5 0 c-16.6 0 -21.7 -0.3 -22.1 -1.3z"/>
  <path d="M0 656.5 l0 -131.5 22 0 22 0 0.2 -43.2 0.3 -43.3 22.3 -0.3 22.2 -0.2 0 -22 0 -22 -44.5 0 -44.5 0 0 -22 0 -22 110 0 110 0 0 44 0 44 -22 0 -22 0 -0.2 43.3 -0.3 43.2 -22 0.5 -22 0.5 -0.3 21.8 -0.2 21.7 -21.5 0 -21.5 0 0 22 0 22 -22 0 -22 0 0 21.5 0 21.5 22 0 22 0 0 22 0 22 -22 0 -22 0 0 44 0 44 -22 0 -22 0 0 -131.5z"/>
  <path d="M528 766 l0 -22 21.5 0 21.5 0 0 22 0 22 -21.5 0 -21.5 0 0 -22z"/>
  <path d="M1407 744 l0 -44 22 0 22 0 0 -22 0 -22 -44 0 -44 0 0 -21.5 0 -21.5 44 0 44 0 0 -22 0 -22 -22 0 -22 0 0 -22 0 -22 -22 0 -22 0 0 -22 0 -22 22 0 22 0 0 -21.5 0 -21.5 22 0 22 0 0 -66 0 -66 -22 0 -22 0 0 -65.5 0 -65.5 22 0 22 0 0 -44 0 -44 -22 0 -22 0 0 -21.5 0 -21.5 22 0 22 0 0 -22 0 -22 43.5 0 43.5 0 0 22 0 22 -21.5 0 -21.5 0 0 43.5 0 43.5 88 0 88 0 0 -22 0 -22 -44 0 -44 0 0 -43.5 0 -43.5 44 0 44 0 0 22 0 22 21.5 0 21.5 0 0 -22 0 -22 154 0 154 0 0 22 0 22 -44 0 -44 0 0 21.5 0 21.5 -22 0 -22 0 0 22 0 22 22.3 -0.2 22.2 -0.3 0.3 -21.7 0.2 -21.8 43.5 0 43.5 0 0 22 0 22 -22 0 -22 0 0 22 0 22 -22 0 -22 0 0 22 0 22 22 0 22 0 0 43.5 0 43.5 22.5 0 22.5 0 0 -43.5 0 -43.5 21.5 0 21.5 0 0 -22 0 -22 -21.5 0 -21.5 0 0 -22 0 -22 21.5 0 21.5 0 0 22 0 22 22 0 22 0 0 -87.5 0 -87.5 22 0 22 0 0 109.5 0 109.5 -44 0 -44 0 0 43.5 0 43.5 22 0 22 0 0 -22 0 -22 22 0 22 0 0 66 0 66 -22 0 -22 0 0 65.5 0 65.5 -22 0 -22 0 0 -22 0 -22 -21.5 0 -21.5 0 0 -21.5 0 -21.5 -44 0 -44 0 0 -22 0 -22 22 0 22 0 0 -22 0 -22 -22 0 -22 0 0 -44 0 -44 -22.5 0 -22.5 0 0 44 0 44 22 0 22 0 0 22 0 22 -22 0 -22 0 0 22 0 22 22 0 22 0 0 21.5 0 21.5 22 0 22 0 0 22 0 22 -44 0 -44 0 0 22 0 22 22 0 22 0 0 22 0 22 -43.5 0 -43.5 0 0 21.5 0 21.5 -22.2 0.2 -22.3 0.3 -0.3 21.8 -0.2 21.7 -21.5 0 -21.5 0 0 -43.5 0 -43.5 -22.5 0 -22.5 0 0 21.5 0 21.5 -65.5 0 -65.5 0 0 -43.5 0 -43.5 -44 0 -44 0 0 22 0 22 21.5 0 21.5 0 0 21.5 0 21.5 -21.5 0 -21.5 0 0 22 0 22 -22 0 -22 0 0 44 0 44 -22 0 -22 0 0 -44z m264 -153 l0 -22 21.5 0 21.5 0 0.2 -43.6 c0.2 -24 0.1 -43.8 -0.1 -44 -0.2 -0.2 -19.9 -0.4 -43.8 -0.4 l-43.3 0 0 -43.5 0 -43.5 22 0 22 0 0 22 0 22 21.5 0 21.5 0 0 -20.4 c0 -11.2 0.3 -21.1 0.6 -22 0.5 -1.4 3.5 -1.6 22.5 -1.6 l21.9 0 0 -109.5 0 -109.5 -22.2 -0.2 -22.3 -0.3 -0.3 -19.5 c-0.1 -10.7 0 -20.5 0.3 -21.8 0.5 -2.2 0.6 -2.2 22.5 -2.2 l22 0 0 -22 0 -22 -22.5 0 -22.5 0 0 22 0 22 -21.5 0 -21.5 0 0 22 0 22 -22 0 -22 0 -0.2 21.8 -0.3 21.7 -21.7 0.3 -21.8 0.2 0 -22 0 -22 -22.5 0 -22.5 0 0 22 0 22 -21.2 -0.2 -21.3 -0.3 -0.3 -21.8 -0.2 -21.7 -22 0 -22 0 0 22 0 22 22 0 22 0 0 21.5 0 21.5 -22 0 -22 0 0 22 0 22 22 0 22 0 0.2 -21.7 0.3 -21.8 21.3 -0.3 21.2 -0.2 0 44 0 44 -21.5 0 -21.5 0 0 22 0 22 21.5 0 21.5 0 0 22 0 22 22 0 22 0 0 21.5 0 21.5 -43.2 -0.2 -43.3 -0.3 -0.3 -21.2 -0.2 -21.3 -22 0 -22 0 0 43.5 0 43.5 66 0 66 0 0 -22 0 -22 21.8 0.2 21.7 0.3 0.3 65.8 0.2 65.7 22 0 22 0 0 -22z m176 0 l0 -22 -22.2 0.2 -22.3 0.3 -0.3 21.8 -0.2 21.7 22.5 0 22.5 0 0 -22z m43 -109.5 l0 -43.5 -66 0 -66 0 0 43.5 0 43.5 66 0 66 0 0 -43.5z m0 -109.5 l0 -22 -21.5 0 -21.5 0 0 -44 0 -44 21.5 0 21.5 0 0 -21.5 0 -21.5 -21.5 0 -21.5 0 -0.2 21.3 -0.3 21.2 -22 0.5 -22 0.5 -0.3 43.8 -0.2 43.7 22.5 0 22.5 0 0 22 0 22 21.5 0 21.5 0 0 -22z m0 -219 l0 -22 -21.5 0 -21.5 0 0 -22 0 -22 -22.2 0.2 -22.3 0.3 -0.3 43.8 -0.2 43.7 44 0 44 0 0 -22z"/>
  <path d="M1583 372 l0 -22 21.8 0.2 21.7 0.3 0 21.5 0 21.5 -21.7 0.3 -21.8 0.2 0 -22z"/>
  <path d="M1671 328 l0 -66 -22 0 -22 0 0 -21.5 0 -21.5 43.5 0 43.5 0 0 87.5 0 87.5 -21.5 0 -21.5 0 0 -66z"/>
  <path d="M1583 284 l0 -22 21.8 0.2 21.7 0.3 0 21.5 0 21.5 -21.7 0.3 -21.8 0.2 0 -22z"/>
  <path d="M1539 240.5 l0 -21.5 21.5 0 21.5 0 0 21.5 0 21.5 -21.5 0 -21.5 0 0 -21.5z"/>
  <path d="M2023 722 l0 -66 21.5 0 21.5 0 0 -21.5 0 -21.5 22 0 22 0 0 21.5 0 21.5 -22 0 -22 0 0 66 0 66 -21.5 0 -21.5 0 0 -66z"/>
  <path d="M2330.4 786.7 c-0.2 -0.7 -0.3 -10.5 -0.2 -21.7 l0.3 -20.5 21.8 -0.3 21.7 -0.2 0 22 0 22 -21.5 0 c-16.6 0 -21.7 -0.3 -22.1 -1.3z"/>
  <path d="M2462 766 l0 -22 -21.5 0 -21.5 0 0 -22 0 -22 40.5 0 40.5 0 0 44 0 44 -19 0 -19 0 0 -22z"/>
  <path d="M484 722 l0 -22 21.5 0 21.5 0 0 22 0 22 -21.5 0 -21.5 0 0 -22z"/>
  <path d="M132 678 l0 -22 -21.5 0 -21.5 0 0 -21.5 0 -21.5 21.5 0 21.5 0 0 -22 0 -22 22 0 22 0 0 -22 0 -22 22 0 22 0 0 -22 0 -22 21.5 0 21.5 0 0 22 0 22 -21.5 0 -21.5 0 0 22 0 22 -22 0 -22 0 0 22 0 22 43.5 0 43.5 0 0 21.5 0 21.5 -43.5 0 -43.5 0 -0.2 21.8 -0.3 21.7 -21.7 0.3 -21.8 0.2 0 -22z"/>
  <path d="M308 634.5 l0 -65.5 21.5 0 21.5 0 0 65.5 0 65.5 -21.5 0 -21.5 0 0 -65.5z"/>
  <path d="M879.7 699.3 c-0.9 -0.8 -0.9 -39.6 -0.1 -41.7 0.5 -1.4 3.4 -1.6 22 -1.6 l21.4 0 0 22 0 22 -21.3 0 c-11.8 0 -21.7 -0.3 -22 -0.7z"/>
  <path d="M1100 678 l0 -22 21.5 0 21.5 0 0 22 0 22 -21.5 0 -21.5 0 0 -22z"/>
  <path d="M1320 678 l0 -22 21 0 21 0 0 22 0 22 -21 0 -21 0 0 -22z"/>
  <path d="M1539 678 l0 -22 21.5 0 21.5 0 0 22 0 22 -21.5 0 -21.5 0 0 -22z"/>
  <path d="M2330.7 699.3 c-0.4 -0.3 -0.7 -19.9 -0.7 -43.5 l0 -42.8 -43.5 0 -43.5 0 0 -22 0 -22 -22.5 0 -22.5 0 0 22 0 22 22.3 0.2 22.2 0.3 0.3 19 c0.1 10.5 0 20 -0.3 21.3 l-0.5 2.2 -43.5 0 -43.5 0 0 -65.5 0 -65.5 65.5 0 65.5 0 0 -22 0 -22 -65.5 0 -65.5 0 0 -43.5 0 -43.5 21.5 0 21.5 0 0 22 0 22 22.5 0 22.5 0 0 -22 0 -22 -22 0 -22 0 0 -22 0 -22 43.5 0 43.5 0 0 65.5 0 65.5 22 0 22 0 0.2 -21.2 0.3 -21.3 43.8 -0.3 43.7 -0.2 0 21.5 0 21.5 -22 0 -22 0 0 22 0 22 44 0 44 0 0 -22 0 -22 19 0 19 0 0 66 0 66 -19 0 -19 0 -0.2 21.3 -0.3 21.2 -21.2 0.3 -21.3 0.2 0 -21.5 0 -21.5 -22.5 0 -22.5 0 0 21.5 0 21.5 22 0 22 0 0 22 0 22 -43.3 0 c-23.9 0 -43.7 -0.3 -44 -0.7z m-0.7 -152.3 l0 -22 -22 0 -22 0 0 22 0 22 22 0 22 0 0 -22z"/>
  <path d="M484 612.5 l0 -43.5 22 0 22 0 0 -22 0 -22 -22.5 0 -22.5 0 0 22 0 22 -22 0 -22 0 0 -22 0 -22 -43.5 0 -43.5 0 0 -43.5 0 -43.5 22 0 22 0 0 -22 0 -22 -22.2 0.2 -22.3 0.3 -0.3 21.8 -0.2 21.7 -21.5 0 -21.5 0 0 -22 0 -22 -22 0 -22 0 0 -22 0 -22 44 0 44 0 0 -44 0 -44 22 0 22 0 0 22 0 22 21.5 0 21.5 0 0 -43.5 0 -43.5 -21.5 0 -21.5 0 0 -109.5 0 -109.5 87.5 0 87.5 0 0 22 0 22 -22 0 -22 0 0 43.5 0 43.5 22.5 0 22.5 0 0 -43.5 0 -43.5 21.5 0 21.5 0 0 -22 0 -22 22 0 22 0 0 22 0 22 -22 0 -22 0 0 43.5 0 43.5 22 0 22 0 0 22 0 22 22 0 22 0 0 22 0 22 -44 0 -44 0 0 21.5 0 21.5 22 0 22 0 0 44 0 44 -22 0 -22 0 0 22 0 22 22 0 22 0 0 22 0 22 -43.5 0 -43.5 0 0 -22 0 -22 -44 0 -44 0 0 -22 0 -22 22 0 22 0 0 -44 0 -44 21.5 0 21.5 0 0.2 21.8 0.3 21.7 21.8 0.3 21.7 0.2 0 -22 0 -22 -21.5 0 -21.5 0 0 -21.5 0 -21.5 -44 0 -44 0 0 -44 0 -44 -22.5 0 -22.5 0 0 44 0 44 22 0 22 0 0 65.5 0 65.5 -43.5 0 -43.5 0 0 22 0 22 43.5 0 43.5 0 0 22 0 22 -22 0 -22 0 0 21.5 0 21.5 22.3 -0.2 22.2 -0.3 0.3 -21.2 0.2 -21.3 21.5 0 21.5 0 0 21.5 0 21.5 22 0 22 0 0.2 21.8 0.3 21.7 21.8 0.3 21.7 0.2 0 -22 0 -22 22 0 22 0 0 22 0 22 -22 0 -22 0 0 22 0 22 -21.7 0.2 -21.8 0.3 -0.3 43.3 -0.2 43.2 -43.5 0 -43.5 0 0 -43.5z m-0.2 -547.2 l0.2 -21.3 -22.5 0 -22.5 0 0 21.5 0 21.5 22.3 -0.2 22.2 -0.3 0.3 -21.2z"/>
  <path d="M1979 591 l0 -22 21.5 0 21.5 0 0 22 0 22 -21.5 0 -21.5 0 0 -22z"/>
  <path d="M1320 547 l0 -22 21 0 21 0 0 22 0 22 -21 0 -21 0 0 -22z"/>
  <path d="M924 481.5 l0 -43.5 22 0 22 0 0 -22 0 -22 -22 0 -22 0 0 -22 0 -22 -22.2 -0.2 -22.3 -0.3 0 -65 0 -65 65.8 -0.3 65.7 -0.2 -0.2 130.7 -0.3 130.8 -21.5 0.5 -21.5 0.5 -0.3 21.8 -0.2 21.7 -21.5 0 -21.5 0 0 -43.5z m44 -197.5 l0 -22 -22.5 0 -22.5 0 0 22 0 22 22.5 0 22.5 0 0 -22z"/>
  <path d="M1320 459.5 l0 -21.5 21 0 21 0 0 21.5 0 21.5 -21 0 -21 0 0 -21.5z"/>
  <path d="M1187 416 l0 -22 -21.5 0 -21.5 0 0 -22 0 -22 -22.5 0 -22.5 0 0 22 0 22 -22 0 -22 0 0 -109.5 0 -109.5 22 0 22 0 0 65.5 0 65.5 22.5 0 22.5 0 0 -87.5 0 -87.5 21 0 21 0 0.2 21.8 0.3 21.7 87.8 0.3 87.7 0.2 0 109.5 0 109.5 -21.5 0 -21.5 0 0 22 0 22 -22 0 -22 0 0 -22 0 -22 -22 0 -22 0 0 22 0 22 -22 0 -22 0 0 -22z m132.8 -131.8 l0.2 -65.2 -66.7 0.2 -66.8 0.3 -0.3 64 c-0.1 35.2 0 64.6 0.3 65.3 0.3 1 14.2 1.2 66.7 1 l66.3 -0.3 0.3 -65.3z"/>
  <path d="M1231 284 l0 -22 22 0 22 0 0 22 0 22 -22 0 -22 0 0 -22z"/>
  <path d="M1363 416 l0 -22 21.5 0 21.5 0 0 22 0 22 -21.5 0 -21.5 0 0 -22z"/>
  <path d="M2419 394 l0 -44 21.3 0.2 21.2 0.3 0 43.5 0 43.5 -21.2 0.3 -21.3 0.2 0 -44z"/>
  <path d="M659.4 392.7 c-0.2 -0.7 -0.3 -10.5 -0.2 -21.7 l0.3 -20.5 21.8 -0.3 21.7 -0.2 0 22 0 22 -21.5 0 c-16.6 0 -21.7 -0.3 -22.1 -1.3z"/>
  <path d="M2330.4 392.7 c-0.2 -0.7 -0.3 -10.5 -0.2 -21.7 l0.3 -20.5 21.8 -0.3 21.7 -0.2 0 22 0 22 -21.5 0 c-16.6 0 -21.7 -0.3 -22.1 -1.3z"/>
  <path d="M704 284.5 l0 -65.5 43.8 0.2 43.7 0.3 0 21 0 21 -22 0.5 -22 0.5 -0.3 21.7 -0.2 21.8 22.2 0.2 22.3 0.3 0 21.5 0 21.5 -43.7 0.3 -43.8 0.2 0 -65.5z"/>
  <path d="M0 153 l0 -153 153.5 0 153.5 0 0 153 0 153 -153.5 0 -153.5 0 0 -153z m263.8 -0.2 l0.2 -108.8 -110 0 -110 0 0 109 0 109 109.8 -0.2 109.7 -0.3 0.3 -108.7z"/>
  <path d="M89 153 l0 -66 65.5 0 65.5 0 0 66 0 66 -65.5 0 -65.5 0 0 -66z"/>
  <path d="M792 284 l0 -22 21.5 0 21.5 0 0 22 0 22 -21.5 0 -21.5 0 0 -22z"/>
  <path d="M2199 153 l0 -153 150.5 0 150.5 0 0 153 0 153 -150.5 0 -150.5 0 0 -153z m263 0 l0 -109 -109.5 0 -109.5 0 -0.2 108.6 c-0.2 59.7 -0.1 108.8 0.1 109 0.2 0.2 49.6 0.4 109.8 0.4 l109.3 0 0 -109z"/>
  <path d="M2286 153 l0 -66 66 0 66 0 0 66 0 66 -66 0 -66 0 0 -66z"/>
  <path d="M792 197 l0 -22 -44 0 -44 0 0 -22 0 -22 44 0 44 0 0 -22 0 -22 21.5 0 21.5 0 0 -21.5 0 -21.5 44 0 44 0 0 21.5 0 21.5 22 0 22 0 0 22 0 22 22 0 22 0 -0.2 21.8 -0.3 21.7 -43.2 0.3 -43.3 0.2 0 -22 0 -22 -44.5 0 -44.5 0 0 44 0 44 -21.5 0 -21.5 0 0 -22z"/>
  <path d="M1979 197 l0 -22 21.5 0 21.5 0 0 22 0 22 -21.5 0 -21.5 0 0 -22z"/>
  <path d="M1363 153 l0 -22 -88 0 -88 0 0 -22 0 -22 44 0 44 0 0 -43.5 0 -43.5 43.5 0 43.5 0 0 43.5 0 43.5 22 0 22 0 0 44 0 44 -21.5 0 -21.5 0 0 -22z"/>
  <path d="M659.4 129.7 c-0.2 -0.7 -0.3 -10.5 -0.2 -21.7 l0.3 -20.5 21.8 -0.3 21.7 -0.2 0 22 0 22 -21.5 0 c-16.6 0 -21.7 -0.3 -22.1 -1.3z"/>
  <path d="M1055 109 l0 -22 -22 0 -22 0 0 -21.5 0 -21.5 22 0 22 0 0 21.5 0 21.5 22 0 22 0 0 22 0 22 -22 0 -22 0 0 -22z"/>
  <path d="M748 65.5 l0 -21.5 21.8 0.2 21.7 0.3 0 21 0 21 -21.7 0.3 -21.8 0.2 0 -21.5z"/>
  <path d="M2023 65.5 l0 -21.5 21.5 0 21.5 0 0 21.5 0 21.5 -21.5 0 -21.5 0 0 -21.5z"/>
  <path d="M924 22 l0 -22 43.5 0 43.5 0 -0.2 21.8 -0.3 21.7 -43.2 0.3 -43.3 0.2 0 -22z"/>
 </g>
</svg>
