<?xml version="1.0" encoding="utf-8"?>
<!doctype svg PUBLIC "-//W3C//DTD SVG 1.0//EN" "http://www.w3.org/TR/2001/REC-SVG-20010904/DTD/svg10.dtd">
<svg version="1.0" xmlns="http://www.w3.org/2000/svg" width="2500px" height="2500px" viewBox="0 0 2500 2500" preserveAspectRatio="xMidYMid meet">
 <g fill="#f8f8f8">
  <path d="M0 1250 l0 -1250 1250 0 1250 0 0 2.5 0 2.5 -162 0 -162 0 0.2 161.2 0.3 161.3 161.8 0.3 161.7 0.2 0 27 0 27 -91 0 -91 0 -0.2 47.3 -0.3 47.2 -27 0 -27 0 -0.3 -47.3 -0.2 -47.2 -43.3 0.2 -43.2 0.3 -0.3 18.9 c-0.2 13 0.1 19.3 0.9 20.2 0.9 1.1 5.6 1.4 23 1.4 l21.9 0 -0.2 27.3 -0.3 27.2 -22.5 0.5 -22.5 0.5 -0.3 19.3 -0.2 19.2 23 0 23 0 0 23.5 0 23.5 23.8 0.2 23.7 0.3 0.3 23.8 0.2 23.7 20.3 -0.2 20.2 -0.3 0.3 -23.7 0.2 -23.8 23.5 0 23.5 0 0.2 -46.7 0.3 -46.8 26.1 -0.3 c20.5 -0.2 26.3 0 26.5 1 0.2 0.7 0.3 23.5 0.1 50.6 l-0.3 49.2 -23 0 -22.9 0 0 67 0 67 46.8 0.2 46.7 0.3 0 27 0 27 -23.8 0.3 -23.7 0.2 0.2 43.8 0.3 43.7 23.8 0.3 23.7 0.2 -0.2 50.3 -0.3 50.2 -23.8 0.3 -23.7 0.2 0.2 19.8 0.3 19.7 44.3 0.3 44.2 0.2 0 50.5 0 50.5 -20.5 0 -20.5 0 0 20.5 0 20.5 20.5 0 20.5 0 0 50.5 0 50.5 -44.2 0.2 -44.3 0.3 -0.3 23.3 -0.2 23.2 -23 0 -23 0 0 23.5 0 23.5 -27 0 -27 0 0 -27 0 -27 23.5 0 23.5 0 0.2 -46.7 0.3 -46.8 22.8 -0.3 22.7 -0.2 0 -20.5 0 -20.5 -141 0 -141 0 0 -23.5 0 -23.5 -44 0 -44 0 0 20.5 0 20.5 23.5 0 23.5 0 0 50.5 0 50.5 -23.5 0 -23.5 0 -0.2 23.3 -0.3 23.2 -46.7 0.3 -46.8 0.2 0 20 0 20 23.5 0 23.5 0 0 24 0 24 23.5 0 23.5 0 0 70.5 0 70.5 20 0 20 0 0.2 -23.2 0.3 -23.3 23.5 -0.5 23.5 -0.5 0.3 -46.7 0.2 -46.8 50 0 50 0 0 27 0 27 -23 0 -23 0 0 18.4 c0 10.1 0.3 19.1 0.6 20 0.5 1.4 3.5 1.6 23 1.6 l22.4 0 0 23.5 0 23.5 20.5 0 20.5 0 0 -70.5 0 -70.5 70.5 0 70.5 0 0.2 -23.7 0.3 -23.8 23.8 -0.3 23.7 -0.2 0 -23.5 0 -23.5 24 0 24 0 0 27 0 27 -20.5 0 -20.5 0 -0.2 47.3 -0.3 47.2 -46.7 0.3 -46.8 0.2 0 20 0 20 23 0 23 0 0 27 0 27 -70.5 0 -70.5 0 0 23.5 c0 18.1 -0.3 23.5 -1.2 23.6 -0.7 0.1 -11.4 0.2 -23.8 0.3 l-22.5 0.1 0 20 0 20 23.8 0.3 23.7 0.2 0 27 0 27 -23.7 0.2 -23.8 0.3 0 19.5 0 19.5 23.8 0.3 23.7 0.2 0 23.5 0 23.5 23.8 0.2 23.7 0.3 0.3 23.8 0.2 23.7 43 0 43 0 0 -20.5 0 -20.5 -23 0 -23 0 0 -23.5 0 -23.5 -23.2 -0.2 -23.3 -0.3 -0.3 -26.2 -0.2 -26.3 23.5 0 23.5 0 0 -20.5 0 -20.5 -23.2 -0.2 -23.3 -0.3 0 -27 0 -27 70.3 -0.3 70.2 -0.2 0 -47 0 -47 24 0 24 0 0 50.5 0 50.5 -20.2 0.2 -20.3 0.3 -0.3 20.3 -0.2 20.2 20.5 0 20.5 0 0 27 0 27 -24 0 -24 0 0 -23.5 0 -23.5 -20.5 0 -20.5 0 0 67 0 67 44.5 0 44.5 0 0 27.5 0 27.5 -44.5 0 -44.5 0 0.2 43.3 0.3 43.2 44.3 0.3 44.2 0.2 0 50.5 0 50.5 -24 0 -24 0 0 -23.5 0 -23.5 -20.2 0.2 -20.3 0.3 -0.3 46.8 -0.2 46.7 -23 0 -23 0 0 20 0 20 43.5 0 43.5 0 0 -23.5 0 -23.5 24 0 24 0 0 74.5 0 74.5 -160.8 0 c-123.7 0 -161.1 0.3 -162 1.2 -0.9 0.9 -1.2 38.3 -1.2 162 l0 160.8 -27 0 -27 0 0 -91 0 -91 -20.5 0 -20.5 0 0 23.5 0 23.5 -23.5 0 -23.5 0 0 19.5 0 19.5 23.3 0.2 23.2 0.3 0.3 27.3 0.2 27.2 -23.5 0 -23.5 0 0 20.5 0 20.5 -26.5 0 -26.5 0 0 -20.5 0 -20.5 -23.7 -0.2 -23.8 -0.3 -0.5 -23.5 -0.5 -23.5 -47.3 -0.3 -47.2 -0.2 0.2 -26.3 0.3 -26.2 23.8 -0.3 23.7 -0.2 -0.2 -90.8 -0.3 -90.7 -23.7 -0.3 -23.8 -0.2 0 -23.5 0 -23.5 -19.5 0 -19.5 0 -0.2 23.3 -0.3 23.2 -50.7 0.3 -50.8 0.2 0 -27 0 -27 23.5 0 23.5 0 0 -22.4 c0 -12.3 0.3 -23.1 0.6 -24 0.5 -1.4 5.6 -1.6 47 -1.6 l46.4 0 0 -20 0 -20 -70.5 0 -70.5 0 0 -47 0 -47 -23.7 -0.2 -23.8 -0.3 -0.3 -23.7 -0.2 -23.8 -19.5 0 -19.5 0 0 44.5 0 44.5 23 0 23 0 0 97.5 0 97.5 -23 0 -23 0 0 20 0 20 23 0 23 0 0 23.5 0 23.5 23.8 0.2 23.7 0.3 0.3 23.8 0.2 23.7 23.5 0 23.5 0 0 46.5 0 46.5 23.8 0.2 23.7 0.3 0 27 0 27 -47.2 0.3 -47.3 0.2 0 20.5 0 20.5 -27.5 0 -27.5 0 -0.2 -44.2 -0.3 -44.3 -19 0 -19 0 -0.5 23.5 -0.5 23.5 -23.5 0.5 -23.5 0.5 -0.3 20.3 -0.2 20.2 -27 0 -27 0 0 -20.5 0 -20.5 -23.5 0 -23.5 0 -0.2 -23.7 -0.3 -23.8 -23.3 -0.3 -23.2 -0.2 0.2 -26.3 0.3 -26.2 50 0 50 0 0.3 46.8 0.2 46.7 20 0 20 0 0 -67 0 -67 -23.2 -0.2 -23.3 -0.3 0 -27 0 -27 23.3 -0.3 23.2 -0.2 0 -20.5 0 -20.5 -23.5 0 -23.5 0 0.2 -26.2 0.3 -26.3 23.3 -0.3 23.2 -0.2 0 -20 0 -20 -44 0 -44 0 0 23.5 0 23.5 -23 0 -23 0 -0.2 70.8 -0.3 70.7 -23.7 0.3 -23.8 0.2 0 23.5 0 23.5 -47 0 -47 0 0 19.5 0 19.5 23.3 0.2 23.2 0.3 0.3 23.8 0.2 23.7 23.5 0 23.5 0 0 24 0 24 -74 0 -74 0 0 -20.5 0 -20.5 -20 0 -20 0 0 20.5 0 20.5 -27 0 -27 0 0 -24 0 -24 23.5 0 23.5 0 -0.2 -20.2 -0.3 -20.3 -118 -0.5 -118 -0.5 0.4 -22.7 0.3 -22.8 -20.6 0 -20.6 0 0 43.5 0 43.5 47.5 0 47.5 0 0 24 0 24 -98 0 -98 0 0 -44.5 0 -44.5 -23.5 0 -23.5 0 0 -23 0 -23 -20.5 0 -20.5 0 -0.2 23.3 -0.3 23.2 -23.2 -0.4 -23.3 -0.3 -0.2 23.8 -0.3 23.9 -23.2 0.3 -23.3 0.2 0 20.5 0 20.5 -74 0 -74 0 0 -20.5 0 -20.5 -20 0 -20 0 0 20.5 0 20.5 -51 0 -51 0 0 -24 0 -24 47.5 0 47.5 0 0 -18.9 c0 -10.4 -0.3 -19.6 -0.6 -20.5 -0.5 -1.4 -3.6 -1.6 -24 -1.6 l-23.4 0 0.2 -26.2 0.3 -26.3 27 0 27 0 0.3 22.8 0.2 22.7 20 0 20 0 0 -67 0 -67 -23.5 0 -23.5 0 0.2 -50.2 0.3 -50.3 70.3 -0.3 70.2 -0.2 0 -94 0 -94 50.5 0 50.5 0 0 23 0 23 20 0 20 0 0 -43.5 0 -43.5 -23.2 -0.2 -23.3 -0.3 -0.5 -23.5 -0.5 -23.5 -19.5 0 -19.5 0 -0.3 23.8 -0.2 23.7 -26.8 -0.2 -26.7 -0.3 -0.5 -23.5 -0.5 -23.5 -23.2 -0.3 -23.3 -0.2 0 -23 0 -23 -43.5 0 -43.5 0 0 23 0 23 -23.7 0.2 -23.8 0.3 -0.3 67.3 -0.2 67.2 44 0 44 0 0 -20 0 -20 -23.5 0 -23.5 0 0 -27 0 -27 27 0 27 0 0.2 23.8 0.3 23.7 22.8 0.3 22.7 0.2 0 26.5 0 26.5 -22.5 0 -22.5 0 0 20 0 20 22.5 0 22.5 0 0 27.5 0 27.5 -26.2 -0.2 -26.3 -0.3 -0.3 -23.7 -0.2 -23.8 -47.5 0 -47.5 0 0 -23.5 0 -23.5 -43.5 0 -43.5 0 0 23.5 0 23.5 -27 0 -27 0 0 -27 0 -27 23.8 -0.2 23.7 -0.3 0 -67 0 -67 -20.2 -0.3 -20.3 -0.2 0 47.5 0 47.5 -27.2 -0.2 -27.3 -0.3 0 -23 0 -23 -23.5 -0.5 -23.5 -0.5 -0.3 -26.7 -0.2 -26.8 47.5 0 47.5 0 0.2 -23.2 0.3 -23.3 23.8 -0.3 23.7 -0.2 0 -20 0 -20 -91 0 -91 0 0 91 0 91 23 0 23 0 0 23 0 23 23.5 0 23.5 0 0 51 0 51 -26.7 -0.2 -26.8 -0.3 -0.3 -23.7 -0.2 -23.8 -19.5 0 -19.5 0 0 44 0 44 46.4 0 c36.3 0 46.5 0.3 46.7 1.3 0.2 0.6 0.3 23.4 0.1 50.5 l-0.3 49.2 -23.4 0 -23.5 0 -0.2 23.8 -0.3 23.7 -22.7 0.3 -22.8 0.2 0 20 0 20 46.5 0 46.5 0 0.2 46.8 0.3 46.7 23.5 0.5 23.5 0.5 0.3 23.8 0.2 23.7 -51 0 -51 0 -0.2 -44.2 -0.3 -44.3 -23 -0.5 -23 -0.5 0.4 -22.7 0.3 -22.8 -23.8 -0.2 -23.9 -0.3 0 -26.5 0 -26.5 23.5 -0.5 23.5 -0.5 0.3 -20.2 0.2 -20.3 -44 0 -44 0 0 67 0 67 23.3 0.2 23.2 0.3 0.3 23.7 0.2 23.8 23.8 0.2 23.7 0.3 0.3 23.8 0.2 23.7 -50 0 -50 0 0 -1250z m564.2 1178.3 l0.3 -23.8 23.8 -0.3 23.7 -0.2 0 -43 0 -43 -44.5 0 -44.5 0 -0.2 46.8 -0.3 46.7 -22.2 -0.4 -22.3 -0.3 0 20.6 0 20.6 43 0 43 0 0.2 -23.7z m1132.6 -43.5 l-0.3 -19.3 -20 0 -20 0 -0.3 19.3 -0.2 19.2 20.5 0 20.5 0 -0.2 -19.2z m-992 -94.5 l-0.3 -67.8 -23.3 -0.3 -23.2 -0.2 0.2 -26.3 0.3 -26.2 23.3 -0.3 23.2 -0.2 0 -44 0 -44 -20 0 -20 0 -0.2 23.8 -0.3 23.7 -23.2 0.3 -23.3 0.2 0 46.5 0 46.5 -23.5 0 -23.5 0 0 20.5 0 20.5 46.8 0.2 46.7 0.3 0.3 47.3 0.2 47.2 20 0 20 0 -0.2 -67.7z m189.2 47.7 l0 -20 -20.2 0.2 -20.3 0.3 -0.3 18.5 c-0.1 10.1 0 19 0.2 19.7 0.4 1 5.2 1.3 20.6 1.3 l20 0 0 -20z m189 0 l0 -20 -19.7 0.2 -19.8 0.3 -0.3 18.5 c-0.1 10.1 0 19 0.2 19.7 0.4 1 5.1 1.3 20.1 1.3 l19.5 0 0 -20z m94.8 -3.7 l0.2 -23.3 27 0 27 0 0 23.5 0 23.5 20 0 20 0 0 -23.5 0 -23.5 47.3 -0.2 47.2 -0.3 0.3 -70.7 0.2 -70.8 23.5 0 23.5 0 0.2 -70.7 0.3 -70.8 23 -0.5 23 -0.5 0 -67 0 -67 -43.5 0 -43.5 0 0 20 0 20 23.8 0.3 23.7 0.2 0 27 0 27 -23.7 0.2 -23.8 0.3 -0.3 46.8 -0.2 46.7 -27 0 -27 0 0 -47 0 -47 -43.2 0.2 -43.3 0.3 -0.3 46.8 -0.2 46.7 -27 0 -27 0 -0.2 -94.2 -0.3 -94.3 -20 0 -20 0 -0.3 70.8 -0.2 70.7 -23.5 0 -23.5 0 0 20 0 20 23.5 0 23.5 0 0 27.5 0 27.5 -23.5 0 -23.5 0 -0.2 23.3 -0.3 23.2 -26.5 0 -26.5 0 0.4 -23.2 0.3 -23.3 -20.6 0 -20.6 0 0 46.5 0 46.5 -23.5 0 -23.5 0 0 20.5 0 20.5 23.3 0.2 23.2 0.3 0.5 23.5 0.5 23.5 20 0 20 0 0.3 -23.7 0.2 -23.8 23 0 23 0 0 -23.5 0 -23.5 27 0 27 0 0 27 0 27 -23.5 0 -23.5 0 0 20.5 0 20.5 23.5 0 23.5 0 0 23.5 0 23.5 20.3 -0.2 20.2 -0.3 0.3 -23.2z m471.2 3.7 l0 -20 -19.5 0 -19.5 0 0 20 0 20 19.5 0 19.5 0 0 -20z m377.8 -0.2 l0.2 -19.8 -20 0 -20 0 0 20 0 20 19.8 -0.2 19.7 -0.3 0.3 -19.7z m-1180.3 -47.3 l0 -20 -43.2 -0.3 -43.3 -0.2 0 20.5 0 20.5 43.3 -0.2 43.2 -0.3 0 -20z m1227.5 0 l0 -20.5 -20 0 -20 0 0 20.5 0 20.5 20 0 20 0 0 -20.5z m-47.2 -47.7 l-0.3 -20.3 -22.7 -0.3 -22.8 -0.2 0 -23 0 -23 -20.5 0 -20.5 0 0 43.5 0 43.5 43.5 0 43.5 0 -0.2 -20.2z m94.7 -0.3 l0 -20 -20 0 -20 0 -0.3 20.3 -0.2 20.2 20.2 -0.2 20.3 -0.3 0 -20z m-2076.7 -46.2 l-0.3 -19.8 -19.7 -0.3 -19.8 -0.2 0 19.3 c0 10.7 0.3 19.7 0.7 20 0.3 0.4 9.3 0.7 20 0.7 l19.3 0 -0.2 -19.7z m708.2 -0.3 l0 -20 -18.9 0 c-10.4 0 -19.6 0.3 -20.5 0.6 -1.4 0.5 -1.6 3.2 -1.6 19.3 0 10.3 0.3 19.1 0.7 19.4 0.3 0.4 9.6 0.7 20.5 0.7 l19.8 0 0 -20z m141.2 -3.2 l0.3 -23.3 23.8 -0.3 23.7 -0.2 0 -20 0 -20 -67 0 -67 0 0 43.5 0 43.5 43 0 43 0 0.2 -23.2z m1038.8 -47.3 l0 -23.5 24 0 24 0 0 -24 0 -24 26.3 0.2 26.2 0.3 0 27 0 27 -23.2 0.3 -23.3 0.2 0 20 0 20 43.5 0 43.5 0 0.2 -23.2 0.3 -23.3 70.8 -0.3 70.7 -0.2 0 -20.5 0 -20.5 -23.5 0 -23.5 0 0.2 -26.7 0.3 -26.8 94 -0.5 94 -0.5 0.3 -19.7 0.2 -19.8 -47.5 0 -47.5 0 -0.2 -47.2 -0.3 -47.3 -66.7 -0.3 -66.8 -0.2 -0.2 70.7 -0.3 70.8 -27 0 -27 0 -0.3 -46.8 -0.2 -46.7 -90.8 0.2 -90.7 0.3 -0.3 114.3 -0.2 114.2 20.5 0 20.5 0 0 -23.5z m-1888.2 -44.2 l0.2 -20.3 -20 0 -20 0 0 20.5 0 20.5 19.8 -0.2 19.7 -0.3 0.3 -20.2z m755.4 -26.5 l0.3 -47.3 23.3 -0.3 23.2 -0.2 0 -23 0 -23 27 0 27 0 0 26.5 0 26.5 -24 0 -24 0 0 18.4 c0 10.1 0.3 19.1 0.6 20 0.5 1.4 5.4 1.6 44.5 1.6 l43.9 0 0 -46.5 0 -46.5 27 0 27 0 0 46.5 0 46.5 20.5 0 20.5 0 0 -23.5 0 -23.5 22.8 -0.2 22.7 -0.3 0.3 -19.7 0.2 -19.8 -23 0 -23 0 0 -74 0 -74 23 0 23 0 0 -20 0 -20 -46.7 -0.2 -46.8 -0.3 0 -27 0 -27 50 0 50 0 0.3 23.8 0.2 23.7 20.3 -0.2 20.2 -0.3 0.3 -43.7 0.2 -43.8 -23.7 -0.2 -23.8 -0.3 -0.3 -23.2 -0.2 -23.3 -23.3 -0.2 -23.2 -0.3 0.4 -23.2 0.3 -23.3 -20.6 0 -20.6 0 -0.2 46.8 -0.3 46.7 -23.2 0.3 -23.3 0.2 -0.2 23.3 -0.3 23.2 -27.2 0.3 -27.3 0.2 0 -23.5 0 -23.5 -23.2 -0.2 -23.3 -0.3 -0.3 -23.2 -0.2 -23.3 -43.5 0 -43.5 0 0 20 0 20 23.5 0 23.5 0 0 23.5 0 23.5 22.9 0 c17.5 0 23 0.3 23.2 1.3 0.2 0.6 0.3 44.7 0.1 98 l-0.3 96.7 -26.2 -0.2 -26.2 -0.3 -0.3 -23.7 -0.2 -23.8 -20 0 -20 0 -0.2 70.8 -0.3 70.7 -23.5 0.5 -23.5 0.5 -0.3 19.7 -0.2 19.8 23.7 0.2 23.8 0.3 0.3 22.5 c0.1 12.4 0.4 23.1 0.7 23.8 0.3 0.9 5.3 1.2 20 1.2 l19.5 0 0.2 -47.2z m282.8 26.7 l0 -20.5 -19.4 0 c-16.8 0 -19.5 0.2 -20 1.6 -0.8 2.1 -0.8 37.9 0.1 38.7 0.3 0.4 9.3 0.7 20 0.7 l19.3 0 0 -20.5z m1274.5 0 l0 -20 -19.7 -0.3 -19.8 -0.2 0 20.5 0 20.5 19.8 -0.2 19.7 -0.3 0 -20z m-2264.7 -47.7 l0.2 -19.8 -20.5 0 -20.5 0 0 20 0 20 20.3 -0.2 20.2 -0.3 0.3 -19.7z m1415.2 0.2 l0 -20 -20.5 0 -20.5 0 0 20 0 20 20.5 0 20.5 0 0 -20z m-1463 -47 l0 -20 -20 0 -20 0 0 19.3 c0 10.7 0.3 19.7 0.7 20 0.3 0.4 9.3 0.7 20 0.7 l19.3 0 0 -20z m1510 -23.5 l0 -43.5 -20 0 -20 0 0 43.5 0 43.5 20 0 20 0 0 -43.5z m-1510 -71 l0 -20.5 -20 0 -20 0 0 20.5 0 20.5 20 0 20 0 0 -20.5z m1226 0 l0 -20.5 -19.2 0.2 -19.3 0.3 -0.3 20.3 -0.2 20.2 19.5 0 19.5 0 0 -20.5z m566.8 0.3 l-0.3 -20.3 -19.2 -0.3 -19.3 -0.2 0 20.5 0 20.5 19.5 0 19.5 0 -0.2 -20.2z m566 0 l-0.3 -20.3 -42.7 -0.3 -42.8 -0.2 0 20.5 0 20.5 43 0 43 0 -0.2 -20.2z m-2028.8 -46.8 l0 -20 -43.5 0 -43.5 0 0 19.3 c0 10.7 0.3 19.7 0.7 20 0.3 0.4 19.9 0.7 43.5 0.7 l42.8 0 0 -20z m236.8 -0.2 l0.2 -19.8 -20.5 0 -20.5 0 0 20 0 20 20.3 -0.2 20.2 -0.3 0.3 -19.7z m141.2 0.2 l0 -20 -20.2 0.2 -20.3 0.3 -0.3 18.5 c-0.1 10.1 0 19 0.2 19.7 0.4 1 5.2 1.3 20.6 1.3 l20 0 0 -20z m377.8 -0.2 l0.2 -19.8 -20.5 0 -20.5 0 0 20 0 20 20.3 -0.2 20.2 -0.3 0.3 -19.7z m236 -3.5 l0.2 -23.3 47 0 47 0 0 -20 0 -20 -23.2 -0.2 -23.3 -0.3 -0.3 -23.8 -0.2 -23.7 -20.3 0.2 -20.2 0.3 -0.3 23.8 -0.2 23.7 -26.8 -0.2 -26.7 -0.3 0 -27 0 -27 23.5 -0.5 23.5 -0.5 0.3 -70.2 0.2 -70.3 47 0 47 0 0 -19.9 c0 -17.2 -0.2 -20 -1.6 -20.5 -0.9 -0.3 -22 -0.6 -47 -0.6 l-45.4 0 0 -23.5 0 -23.5 -23.7 -0.2 -23.8 -0.3 -0.3 -26.7 -0.2 -26.8 47.5 0 47.5 0 0 -20 0 -20 -23.5 0 -23.5 0 0 -51 0 -51 23.5 0 23.5 0 0.2 -23.2 0.3 -23.3 26.3 -0.3 26.2 -0.2 0 23.5 0 23.5 20.5 0 20.5 0 -0.2 -43.2 -0.3 -43.3 -23.5 -0.5 -23.5 -0.5 0.1 -3.7 c0 -2.1 0.1 -24.7 0.2 -50.3 l0.2 -46.5 23.5 0 23.5 0 0 -20.5 0 -20.5 -23.5 0 -23.5 0 0 -47 0 -47 -20 0 -20 0 0 23.5 0 23.5 -23.7 0.2 -23.8 0.3 0 19.5 0 19.5 23.8 0.3 23.7 0.2 0 51 0 51 -27 0 -27 0 0 -24 0 -24 -24 0 -24 0 0 -23.5 0 -23.5 -20 0 -20 0 0 23.5 0 23.5 -50.5 0 -50.5 0 0 -23.5 0 -23.5 -20.5 0 -20.5 0 0 23.5 0 23.5 -27 0 -27 0 0 -23.5 0 -23.5 -43.2 0.2 -43.3 0.3 -0.3 20.2 -0.2 20.3 23.7 0.2 23.8 0.3 0 3.8 c-0.1 2 -0.2 24.6 -0.3 50.2 l-0.2 46.5 -47 0 -47 0 0 19.5 0 19.5 23.3 0.2 23.2 0.3 0.3 23.8 0.2 23.7 23.5 0 c18.1 0 23.5 0.3 23.6 1.3 0.1 0.6 0.2 11.3 0.3 23.7 l0.1 22.5 46.8 0.3 46.7 0.2 0 70.5 0 70.5 44 0 44 0 0 -43.5 0 -43.5 -23.5 0 -23.5 0 0 -27 0 -27 50.5 0 50.5 0 -0.2 73.8 -0.3 73.7 -23.2 0.3 -23.3 0.2 0 44 0 44 47 0 47 0 -0.2 50.3 -0.3 50.2 -23.2 0.3 -23.3 0.2 -0.2 23.3 -0.3 23.2 -23.2 0.3 -23.3 0.2 0 24 0 24 -47 0 -47 0 0 20 0 20 70.3 0.2 70.2 0.3 0.3 23.3 0.2 23.2 43.8 -0.2 43.7 -0.3 0.3 -23.2z m614 -20 l0.2 -43.3 -47.5 0 -47.5 0 0 -51 0 -51 23.3 -0.2 23.2 -0.3 0.3 -19.7 0.2 -19.8 -23.5 0 -23.5 0 0 -23.5 0 -23.5 -20.2 0.2 -20.3 0.3 -0.5 46.5 -0.5 46.5 -50 0 -50 0 -0.3 -46.7 -0.2 -46.8 -20 0 -20 0 -0.2 23.3 -0.3 23.2 -46.8 0.3 -46.7 0.2 0.2 19.8 0.3 19.7 46.5 0.5 46.5 0.5 0 26.5 0 26.5 -23.7 0.3 -23.8 0.2 0 24 0 24 -23 0 -23 0 0 20 0 20 43.5 0 43.5 0 0 -23.5 0 -23.5 50.8 0.2 50.7 0.3 0.3 23.2 0.2 23.3 70.3 0.2 70.2 0.3 0.3 23.3 0.2 23.2 20.3 -0.2 20.2 -0.3 0.3 -43.2z m141 -3.5 l0.2 -46.8 23.5 0 23.5 0 0.2 -23.7 0.3 -23.8 23 -0.5 23 -0.5 0.3 -19.7 0.2 -19.8 -21.9 0 c-12.1 0 -22.6 -0.3 -23.5 -0.6 -1.4 -0.5 -1.6 -3.5 -1.6 -23 l0 -22.4 -44 0 -44 0 0 23 0 23 -23.5 0 -23.5 0 0 20 0 20 23.3 0.2 23.2 0.3 0.3 27.3 0.2 27.2 -23.5 0 -23.5 0 0 43.5 0 43.5 43.8 -0.2 43.7 -0.3 0.3 -46.7z m189 3.5 l0.2 -43.3 -23.7 -0.2 -23.8 -0.3 -0.3 -23.8 -0.2 -23.7 -20.3 0.2 -20.2 0.3 -0.3 23.8 -0.2 23.7 -23 0 -23 0 0.2 19.8 0.3 19.7 46.5 0.5 46.5 0.5 0.3 23.3 0.2 23.2 20.3 -0.2 20.2 -0.3 0.3 -43.2z m-2265.8 -23.3 l0 -20 -20 0 -20 0 0 20 0 20 20 0 20 0 0 -20z m377.5 0 l0 -19.5 -20.2 -0.3 -20.3 -0.2 0 20 0 20 20.3 -0.2 20.2 -0.3 0 -19.5z m141.5 0 l0 -20 -20.5 0 -20.5 0 0 20 0 20 20.5 0 20.5 0 0 -20z m94 0 l0 -20 -20 0 -20 0 0 20 0 20 20 0 20 0 0 -20z m142 0 l0 -20 -20 0 -20 0 0 20 0 20 20 0 20 0 0 -20z m755 -24 l0 -44 -20 0 -20 0 0 44 0 44 20 0 20 0 0 -44z m-1227.2 -23.7 l0.2 -20.3 -20 0 -20 0 0 18.9 c0 10.4 0.3 19.7 0.6 20.5 0.6 1.4 3 1.6 19.8 1.4 l19.1 -0.3 0.3 -20.2z m284 -3.6 l0.2 -23.7 26.3 0.2 26.2 0.3 0.3 23.8 0.2 23.7 20 0 20 0 0.2 -23.7 0.3 -23.8 23.8 -0.3 23.7 -0.2 0 -20 0 -20 -47.2 -0.2 -47.3 -0.3 -0.3 -22.7 c-0.2 -22.6 -0.3 -22.8 -2.5 -23.3 -1.2 -0.3 -31.4 -0.4 -67.2 -0.3 l-65 0.3 0 19.5 0 19.5 23.8 0.3 23.7 0.2 0 47.5 0 47.5 20.3 -0.2 20.2 -0.3 0.3 -23.8z m-472.8 -43.7 l0 -20 -19.5 0 -19.5 0 0 20 0 20 19.5 0 19.5 0 0 -20z m143 -3.5 l0 -23.5 26.3 0.2 26.2 0.3 0.3 23.3 0.2 23.2 20 0 20 0 0.2 -23.2 0.3 -23.3 47.3 -0.3 47.2 -0.2 -0.2 -19.8 -0.3 -19.7 -47.2 -0.3 -47.3 -0.2 0 -23.5 0 -23.5 -20 0 -20 0 0 23.5 0 23.5 -50.5 0 -50.5 0 0 -23.5 0 -23.5 -20.2 0.2 -20.3 0.3 -0.3 66.8 -0.2 66.7 44.5 0 44.5 0 0 -23.5z m943 3.5 l0 -20 -20 0 -20 0 0 20 0 20 20 0 20 0 0 -20z m283 0 l0 -20 -43.5 0 -43.5 0 0 20 0 20 43.5 0 43.5 0 0 -20z m95 0 l0 -20 -20.5 0 -20.5 0 0 20 0 20 20.5 0 20.5 0 0 -20z m-1510.2 -46.4 c0.2 -14.5 -0.1 -19.1 -1 -19.8 -0.7 -0.4 -20.5 -0.8 -44 -0.8 l-42.8 0 0 19.3 c0 10.7 0.3 19.7 0.7 20 0.3 0.4 20 0.6 43.7 0.5 l43.1 -0.3 0.3 -18.9z m849 0 c0.2 -14.5 -0.1 -19.1 -1 -19.8 -0.7 -0.4 -10 -0.8 -20.5 -0.8 l-19.3 0 0 19.3 c0 10.7 0.3 19.7 0.7 20.1 0.4 0.3 9.5 0.5 20.2 0.4 l19.6 -0.3 0.3 -18.9z m329.2 -0.1 l0 -19.5 -19.5 0 -19.5 0 0 19.5 0 19.5 19.5 0 19.5 0 0 -19.5z m-1131.8 -50.2 l0.3 -23.8 23.5 -0.5 23.5 -0.5 0.3 -19.4 c0.2 -14.9 -0.1 -19.6 -1 -20.3 -0.7 -0.4 -11.5 -0.8 -24.1 -0.8 l-22.7 0 0.2 -26.7 0.3 -26.8 26.8 -0.3 26.7 -0.2 0 23.5 0 23.5 23.8 0.2 23.7 0.3 0.3 23.8 0.2 23.7 20.5 0 20.5 0 0 -47.5 0 -47.5 23 0 23 0 0 -43.5 0 -43.5 -20 0 -20 0 0 22.9 c0 12.7 -0.3 23.1 -0.7 23.3 -0.5 0.2 -23.3 0.1 -50.8 -0.2 l-50 -0.5 0 -22.5 0 -22.5 -23.5 -0.5 -23.5 -0.5 -0.5 -23.5 -0.5 -23.5 -19.2 -0.3 -19.3 -0.2 -0.2 23.7 -0.3 23.8 -47.2 0.3 -47.3 0.2 0 43.5 0 43.5 23.5 0 23.5 0 0 23.5 0 23.5 23.8 0.2 23.7 0.3 0.3 47.8 0.2 47.7 19.5 0 19.5 0 0.2 -23.7z m377.6 -44.5 l0.2 -67.8 -20 0 -20 0 0 67.3 c0 37.1 0.3 67.7 0.7 68.1 0.4 0.3 9.3 0.5 19.7 0.4 l19.1 -0.3 0.3 -67.7z m236 47.5 l0.2 -20.3 -44 0 -44 0 0 20.5 0 20.5 43.8 -0.2 43.7 -0.3 0.3 -20.2z m141 -23.5 l-0.3 -44.3 -66.5 0 -66.5 0 -0.3 20.3 -0.2 20.2 46.5 0 c36.5 0 46.5 0.3 46.6 1.3 0.1 0.6 0.1 11 -0.1 22.9 -0.1 11.9 0.1 22.1 0.5 22.7 0.4 0.7 7.4 1.1 20.6 1.1 l19.9 0 -0.2 -44.2z m237 23.5 l0.2 -20.3 -20.5 0 -20.5 0 0 19.8 c0 10.9 0.3 20.2 0.7 20.6 0.4 0.3 9.5 0.5 20.2 0.4 l19.6 -0.3 0.3 -20.2z m94.2 0.2 l0 -20.5 -20 0 -20 0 0 20.5 0 20.5 20 0 20 0 0 -20.5z m282.8 -0.2 l0.2 -20.3 -20.5 0 -20.5 0 0 19.8 c0 10.9 0.3 20.2 0.7 20.6 0.4 0.3 9.5 0.5 20.2 0.4 l19.6 -0.3 0.3 -20.2z m708 0 l0.2 -20.3 -20 0 -20 0 0 19.8 c0 10.9 0.3 20.2 0.7 20.6 0.4 0.3 9.3 0.5 19.7 0.4 l19.1 -0.3 0.3 -20.2z m-1792.8 -46.5 c0 -10.6 -0.4 -19.9 -0.8 -20.6 -0.7 -0.9 -5.4 -1.2 -20.3 -1 l-19.4 0.3 -0.3 19 c-0.1 10.4 0 19.5 0.2 20.2 0.4 1 5.2 1.3 20.6 1.3 l20 0 0 -19.2z m189 -24.8 l0 -44 -20.5 0 -20.5 0 0 44 0 44 20.5 0 20.5 0 0 -44z m377 0 l0 -44 -20 0 -20 0 0 44 0 44 20 0 20 0 0 -44z m188.8 23.8 l-0.3 -20.3 -19.7 -0.3 -19.8 -0.2 0 20.5 0 20.5 20 0 20 0 -0.2 -20.2z m519.4 -3.5 l0.3 -23.8 23.3 -0.3 23.2 -0.2 0 -20 0 -20 -43.7 0.2 -43.8 0.3 -0.5 23.5 -0.5 23.5 -3.7 0 c-2.1 -0.1 -13.9 -0.2 -26.3 -0.3 l-22.5 -0.2 0 -23.5 0 -23.5 -20.5 0 -20.5 0 -0.2 23.8 -0.3 23.7 -23.2 -0.4 -23.3 -0.3 0 20.6 0 20.6 91 0 91 0 0.2 -23.7z m471.6 3.5 l-0.3 -20.3 -23.2 -0.3 -23.3 -0.2 0 -23.5 0 -23.5 -20.5 0 -20.5 0 -0.2 23.6 -0.3 23.7 -46.5 0.1 -46.5 0.1 -0.3 20.3 -0.2 20.2 91 0 91 0 -0.2 -20.2z m-1793.8 -47.8 l0 -20 -20 0 -20 0 0 20 0 20 20 0 20 0 0 -20z m378 0 l0 -20 -23.7 -0.2 -23.8 -0.3 -0.3 -46.7 -0.2 -46.8 -20 0 -20 0 0 67 0 67 44 0 44 0 0 -20z m378 0 l0 -20 -20.5 0 -20.5 0 0 20 0 20 20.5 0 20.5 0 0 -20z m377 0 l0 -20 -20.5 0 -20.5 0 0 20 0 20 20.5 0 20.5 0 0 -20z m378 0 l0 -20 -20.5 0 -20.5 0 0 20 0 20 20.5 0 20.5 0 0 -20z m94.8 -23.7 l-0.3 -43.8 -23.7 -0.3 -23.8 -0.2 0 -23 0 -23 -20.2 0.2 -20.3 0.3 0 43 0 43 23.5 0.5 23.5 0.5 0.3 23.3 0.2 23.2 20.5 0 20.5 0 -0.2 -43.7z m235.2 23.7 l0 -20 -20 0 -20 0 0 19.3 c0 10.7 0.3 19.7 0.7 20 0.3 0.4 9.3 0.7 20 0.7 l19.3 0 0 -20z m-1369 -70.5 l0 -43.5 -23.2 -0.2 -23.3 -0.3 -0.5 -23.5 -0.5 -23.5 -19.7 -0.3 -19.8 -0.2 0 44 0 44 23.5 0 23.5 0 0 23.5 0 23.5 20 0 20 0 0 -43.5z m613.8 23.3 l-0.3 -20.3 -19.7 -0.3 -19.8 -0.2 0 20.5 0 20.5 20 0 20 0 -0.2 -20.2z m94.4 -3 l0.3 -23.3 94.3 -0.3 94.2 -0.2 0 -20 0 -20 -70.5 0 -70.5 0 0 -27 0 -27 47 0 47 0 0 -20.5 0 -20.5 -23.7 -0.2 -23.8 -0.3 -0.3 -23.2 -0.2 -23.3 -19.5 0 -19.5 0 -0.2 23.3 -0.3 23.2 -23.5 0.5 -23.5 0.5 -0.5 23.5 -0.5 23.5 -23.2 -0.4 -23.3 -0.3 0 67.6 0 67.6 20 0 20 0 0.2 -23.2z m282.8 -20.3 l0 -43.5 -19.5 0 -19.5 0 0 23 0 23 -24 0 -24 0 0 19.8 c0 10.9 0.3 20.2 0.7 20.5 0.3 0.4 19.9 0.7 43.5 0.7 l42.8 0 0 -43.5z m330.8 23.3 l-0.3 -20.3 -19.7 -0.3 -19.8 -0.2 0 20.5 0 20.5 20 0 20 0 -0.2 -20.2z m-1746.4 -28.4 c0.3 -0.9 0.6 -9.9 0.6 -20 l0 -18.4 -20.5 0 -20.5 0 0 19.3 c0 10.7 0.3 19.7 0.7 20 0.3 0.4 9.3 0.7 19.9 0.7 16.6 0 19.3 -0.2 19.8 -1.6z m189.4 -18.6 l0.2 -19.8 -24 0 -24 0 -0.2 -23.7 -0.3 -23.8 -43 0 -43 0 -0.3 20.3 -0.2 20.2 23 0 23 0 0 22.8 c0 12.6 0.3 23.2 0.7 23.5 0.3 0.4 20.3 0.6 44.2 0.5 l43.6 -0.3 0.3 -19.7z m377 -23.5 l-0.3 -43.8 -23.2 -0.3 -23.3 -0.2 -0.2 -23.3 -0.3 -23.2 -20.2 -0.3 -20.3 -0.2 0 67.5 0 67.5 44 0 44 0 -0.2 -43.7z m94.2 23.7 l0 -20 -19.7 0.2 -19.8 0.3 -0.3 18.5 c-0.1 10.1 0 19 0.2 19.7 0.4 1 5.1 1.3 20.1 1.3 l19.5 0 0 -20z m378 -70.4 c0 -38.6 -0.2 -43.5 -1.6 -44 -0.9 -0.3 -9.9 -0.6 -20 -0.6 l-18.4 0 0 44 0 44 20 0 20 0 0 -43.4z m-991 -51.1 l0 -47.5 23.5 0 23.5 0 0 -20 0 -20 -47 0 -47 0 0 -71 0 -71 -20.5 0 -20.5 0 0 23.5 0 23.5 -27 0 -27 0 0 -23.5 0 -23.5 -43.5 0 -43.5 0 0 23.5 0 23.5 -51 0 -51 0 -0.2 -46.7 -0.3 -46.8 -43 0 -43 0 -0.3 19.7 -0.2 19.8 23.7 0.2 23.8 0.3 0.3 26.8 0.2 26.7 -47.5 0 -47.5 0 0.2 20.3 0.3 20.2 23.3 0.3 23.2 0.2 0 23.5 0 23.5 20.5 0 20.5 0 0 -23.5 0 -23.5 50 0 50 0 0 27 0 27 -46.5 0 -46.5 0 0 19.5 0 19.5 22.8 0.2 22.7 0.3 0.3 23.8 0.2 23.7 23.5 0 c18.1 0 23.5 0.3 23.6 1.3 0.1 0.6 0.1 11 -0.1 22.9 -0.1 11.9 0.1 22.1 0.5 22.7 0.4 0.8 40.8 1.1 138.6 1.1 l137.9 0 0 -47.5z m188.2 23.8 l0.3 -23.8 23.3 -0.3 23.2 -0.2 0 -43.5 0 -43.5 -23.5 0 -23.5 0 0 -46.9 c0 -41.8 -0.2 -47 -1.6 -47.5 -0.9 -0.3 -11.2 -0.6 -23 -0.6 l-21.4 0 0 -23.5 0 -23.5 -20.5 0 -20.5 0 0 44 0 44 23.5 0 23.5 0 0 27 0 27 -23.5 0 -23.5 0 0 20 0 20 23.5 0 23.5 0 0 46.8 c0 25.8 0.3 47.2 0.7 47.5 0.3 0.4 9.3 0.7 19.9 0.7 l19.4 0 0.2 -23.7z m94.8 3.7 l0 -20 -20.5 0 -20.5 0 0 19.3 c0 10.7 0.3 19.7 0.7 20 0.3 0.4 9.6 0.7 20.5 0.7 l19.8 0 0 -20z m94 -71 l0 -91 -23.2 -0.2 -23.3 -0.3 -0.3 -26.8 -0.2 -26.7 26.7 0.2 26.8 0.3 -0.4 22.7 -0.3 22.7 2.3 0.6 c1.3 0.3 10.5 0.4 20.4 0.3 l18 -0.3 0.3 -23.2 0.2 -23.3 23.8 -0.2 23.7 -0.3 0 -20 0 -20 -90.7 -0.3 -90.8 -0.2 0 67.5 0 67.5 23.3 0.2 23.2 0.3 0.3 70.8 0.2 70.7 20 0 20 0 0 -91z m1085.8 70.3 l0.2 -20.3 -23.5 0 -23.5 0 0 -23.5 0 -23.5 -20.5 0 -20.5 0 0 23.5 0 23.5 -23 0 -23 0 0 20.5 0 20.5 66.8 -0.2 66.7 -0.3 0.3 -20.2z m-1368.8 -47.3 l0 -20 -20.5 0 -20.5 0 0 20 0 20 20.5 0 20.5 0 0 -20z m-519 -47 l0 -20 -20 0 -20 0 0 20 0 20 20 0 20 0 0 -20z m1792.8 -0.2 l0.2 -19.8 -23.2 -0.2 -23.3 -0.3 0.4 -23.2 0.3 -23.3 -20.6 0 -20.6 0 0 23.5 0 23.5 -23.5 0 -23.5 0 0 20 0 20 66.8 -0.2 66.7 -0.3 0.3 -19.7z m-1273.8 -46.8 l0 -20 -20.5 0 -20.5 0 0 20 0 20 20.5 0 20.5 0 0 -20z m378 0 l0 -20 -20.5 0 -20.5 0 0 20 0 20 20.5 0 20.5 0 0 -20z m755 -27 l0 -47 23.5 0 23.5 0 0.2 -46.7 0.3 -46.8 23.5 -0.5 23.5 -0.5 0 -20 0 -20 -23.5 -0.5 -23.5 -0.5 -0.3 -23.2 -0.2 -23.3 -23.3 -0.2 -23.2 -0.3 -0.3 -27.2 -0.2 -27.3 23.5 0 23.5 0 0 -19.5 0 -19.5 -23.2 -0.2 -23.3 -0.3 -0.5 -118 -0.5 -118 -20 0 -20 0 -0.3 23.8 -0.2 23.7 -23 0 -23 0 0 43.5 0 43.5 23 0 23 0 0 51 0 51 -48.9 0 c-26.9 0 -49.6 -0.3 -50.5 -0.6 -1.4 -0.5 -1.6 -3.6 -1.6 -23.5 l0 -22.9 -20 0 -20 0 -0.2 23.3 -0.3 23.2 -50 0 -50 0 -0.3 -23.2 -0.2 -23.3 -43.5 0 -43.5 0 0 20 0 20 23 0 23 0 0.2 22.8 0.3 22.7 23.5 0.5 23.5 0.5 0.5 23.5 0.5 23.5 19.5 0 19.5 0 0.3 -23.8 0.2 -23.7 74.3 0.2 74.2 0.3 0.5 23.5 0.5 23.5 22.8 0.3 22.7 0.2 0 23.5 0 23.5 23.8 0.2 23.7 0.3 0 50 0 50 -46.7 0.3 -46.8 0.2 0 20.5 0 20.5 23 0 23 0 0 27 0 27 -26.5 0 -26.5 0 0 -24 0 -24 -20.2 0.2 -20.3 0.3 -0.3 23.8 -0.2 23.7 -23.5 0 -23.5 0 0 20 0 20 91 0 91 0 0 -47z m330 27 l0 -20 -46.7 -0.2 -46.8 -0.3 -0.3 -26.7 -0.2 -26.8 23.7 -0.2 23.8 -0.3 0.3 -20.3 0.2 -20.2 -44.2 0.2 -44.3 0.3 -0.3 23.3 -0.2 23.2 -27 0 -27 0 0 -23.5 0 -23.5 -19.5 0 -19.5 0 0 44 0 44 22.8 0.2 22.7 0.3 0.3 23.3 0.2 23.2 91 0 91 0 0 -20z m-1510 -93.3 c0 -50.2 -0.3 -66.6 -1.2 -67.5 -0.9 -0.9 -7.5 -1.2 -23.5 -1.2 l-22.3 0 0.2 -26.7 0.3 -26.8 23.3 -0.3 23.2 -0.2 -0.2 -19.8 -0.3 -19.7 -23 -0.5 -23 -0.5 -0.3 -23.7 -0.2 -23.8 -20 0 -20 0 -0.2 47.3 -0.3 47.2 -23.8 0.3 -23.7 0.2 0.2 20.3 0.3 20.2 23.8 0.3 23.7 0.2 0 23 0 23 23.5 0 23.5 0 0 45.9 c0 25.3 0.3 46.6 0.6 47.5 0.5 1.4 3.2 1.6 20 1.6 l19.4 0 0 -66.3z m472 46.3 l0 -20 -20 0 -20 0 0 20 0 20 20 0 20 0 0 -20z m-755 -98 l0 -23 23.8 -0.2 23.7 -0.3 0.3 -67.7 0.2 -67.8 -20.5 0 -20.5 0 -0.2 23.8 -0.3 23.7 -26.1 0.3 c-20.2 0.2 -26.3 -0.1 -27.1 -1 -0.5 -0.8 -0.7 -12.2 -0.5 -27.5 l0.4 -26.3 23.4 0 23.4 0 0 -19.5 0 -19.5 -22.9 0 c-15.1 0 -23.2 -0.4 -23.6 -1.1 -0.4 -0.5 -0.8 -32.6 -0.8 -71.2 l-0.2 -70.2 -23.7 -0.3 -23.8 -0.2 0 -23 0 -23 -46.7 -0.2 -46.8 -0.3 -0.3 -23.7 -0.2 -23.8 -20 0 -20 0 0 91 0 91 20 0 20 0 0 -46.2 c0 -25.5 0.4 -46.9 0.8 -47.6 0.7 -0.9 6.8 -1.2 27.3 -1 l26.4 0.3 0.3 23.8 0.2 23.7 23 0 23 0 0 27 0 27 -47 0 -47 0 0.2 20.3 0.3 20.2 46.8 0.3 46.7 0.2 0 26.5 0 26.5 -23 0 -23 0 0 20.5 0 20.5 23 0 23 0 0 23.5 0 23.5 23.5 0 c18.1 0 23.5 0.3 23.6 1.3 0 0.6 0 21.3 -0.1 45.9 -0.1 24.6 0.1 45.2 0.5 45.8 0.4 0.6 8.1 1 20.6 1 l19.9 0 0 -23z m471.2 0.3 l0.3 -22.8 94.3 -0.3 94.2 -0.2 0 -20.5 0 -20.5 -46.7 -0.2 -46.8 -0.3 -0.3 -23.2 -0.2 -23.3 -47.3 -0.2 -47.2 -0.3 -0.3 -46.7 -0.2 -46.8 -23.3 -0.2 -23.2 -0.3 -0.3 -23 c-0.2 -16.8 -0.6 -23.1 -1.5 -23.7 -0.6 -0.4 -20.2 -0.8 -43.5 -0.8 l-42.2 0 0.2 20.3 0.3 20.2 23.3 0.3 23.2 0.2 0 23 0 23 23.3 0.2 23.2 0.3 0 27 0 27 -26.2 0.3 -26.3 0.2 0 -24 0 -24 -20.5 0 -20.5 0 0 44 0 44 46.8 0.2 46.7 0.3 0.3 26.8 c0.2 21 0 26.7 -1 26.8 -0.7 0.1 -11.2 0.2 -23.3 0.3 l-22 0.1 -0.3 19.8 -0.2 19.7 43.5 0 43.5 0 0.2 -22.7z m283.8 -0.3 l0 -23 23.8 -0.2 23.7 -0.3 0 -20 0 -20 -23.5 -0.5 -23.5 -0.5 -0.3 -23.2 -0.2 -23.3 -22.9 0 c-17.1 0 -23.1 -0.3 -23.8 -1.2 -0.5 -0.8 -0.7 -12.5 -0.5 -27.5 l0.4 -26.3 23.4 0 23.4 0 0 -19.5 0 -19.5 -23.2 -0.2 -23.3 -0.3 -0.5 -118 -0.5 -118 -23.8 -0.3 -23.7 -0.2 0.2 -26.8 0.3 -26.7 71.3 -0.3 71.2 -0.2 0 -67 0 -67 -20.5 0 -20.5 0 0 46.5 0 46.5 -51 0 -51 0 0 -23 0 -23 -46.7 -0.2 -46.8 -0.3 0 -26.5 0 -26.5 46.8 -0.3 46.7 -0.2 0 -20.5 0 -20.5 -23.5 0 -23.5 0 0 -23.5 0 -23.5 -20 0 -20 0 0 23.5 0 23.5 -23.5 0 -23.5 0 -0.2 23.8 -0.3 23.7 -47.2 0.3 -47.3 0.2 0 23.5 0 23.5 -50.2 -0.2 -50.3 -0.3 -0.3 -23.2 -0.2 -23.3 -46.8 -0.2 -46.7 -0.3 -0.3 -47.2 -0.2 -47.3 -23.3 -0.2 -23.2 -0.3 -0.3 -22.5 c-0.2 -16.4 -0.6 -22.6 -1.5 -23.2 -0.6 -0.4 -9.9 -0.8 -20.4 -0.8 l-19.3 0 0 43.5 0 43.5 23.8 0.2 23.7 0.3 0 27 0 27 -23.7 0.3 -23.8 0.2 0 20 0 20 23.8 0.2 23.7 0.3 0.5 23 0.5 23 23.3 0.3 23.2 0.2 0.2 46.5 c0.1 25.6 0.2 48.2 0.3 50.3 l0 3.7 -23.7 0.3 -23.8 0.2 -0.2 23.8 -0.3 23.7 -50.7 0.3 -50.8 0.2 0 -27 0 -27 47 0 47 0 0.5 -2.2 c0.3 -1.3 0.4 -21.2 0.3 -44.3 l-0.3 -42 -23.7 -0.3 -23.8 -0.2 -0.2 -22.8 -0.3 -22.7 -23.2 -0.3 -23.3 -0.2 0 -23.5 0 -23.5 -20 0 -20 0 0 23.5 0 23.5 -71 0 -71 0 0 20 0 20 47.5 0 47.5 0 0 23.5 0 23.5 20.5 0 20.5 0 0 -23.5 0 -23.5 26.5 0 26.5 0 -0.2 26.8 -0.3 26.7 -23.3 0.3 -23.2 0.2 0.2 66.8 0.3 66.7 70.5 0.5 70.5 0.5 0.3 71.3 0.2 71.2 20 0 20 0 0.2 -23.7 0.3 -23.8 23.3 -0.3 23.2 -0.2 0 -20 0 -20 -23.2 -0.2 -23.3 -0.3 0 -50 0 -50 23.3 -0.3 23.2 -0.2 0 -23.5 0 -23.5 23.5 0 23.5 0 0 -20.5 0 -20.5 -23.5 0 -23.5 0 0 -27 0 -27 93.8 -0.2 93.7 -0.3 0.5 -23 0.5 -23 27 0 27 0 0.3 23.3 0.2 23.2 23.5 0 23.5 0 0 27 0 27 -27 0 -27 0 -0.2 -23.7 -0.3 -23.8 -20 0 -20 0 -0.3 23.8 -0.2 23.7 -23.5 0 -23.5 0 0 20.5 0 20.5 47.5 0 47.5 0 -0.2 26.8 -0.3 26.7 -23.5 0.5 -23.5 0.5 0 43 0 43 20.2 0.3 20.3 0.2 0.2 -23.7 0.3 -23.8 23.2 -0.3 23.3 -0.2 0.2 -46.3 0.3 -46.2 26.3 0 26.4 0 0.1 70 0.2 70 23.8 0.3 23.7 0.2 0 74 0 74 -23.7 0.2 -23.8 0.3 -0.3 17 c-0.2 9.4 0 18.5 0.3 20.3 l0.6 3.2 23.4 0 23.5 0 0 23.5 0 23.5 23.8 0.2 23.7 0.3 0.3 46.8 0.2 46.7 20 0 20 0 0 -23z m236 3 l0 -20 -20 0 -20 0 0 20 0 20 20 0 20 0 0 -20z m661 -27 l0 -47 50.5 0 50.5 0 0.2 23.8 0.3 23.7 43.3 0.3 43.2 0.2 0 -20.5 0 -20.5 -23.2 -0.2 -23.3 -0.3 -0.3 -23.2 -0.2 -23.3 -23 0 -23 0 0 -24 0 -24 -24 0 -24 0 0 -26.5 0 -26.5 27 0 27 0 0 23 0 23 43.5 0 43.5 0 0 -19.5 0 -19.5 -23.2 -0.2 -23.3 -0.3 -0.5 -47 -0.5 -47 -22.7 -0.3 -22.8 -0.2 0 -27.5 0 -27.5 49.8 0.2 49.7 0.3 0.3 23.7 0.2 23.8 23.8 0.2 23.7 0.3 0.3 25.9 c0.2 18.2 -0.1 26.3 -0.9 27.2 -0.9 1.1 -5.8 1.4 -24 1.4 l-22.9 0 0 20 0 20 23.8 0.2 23.7 0.3 0 26 0 26 -23.7 0.3 -23.8 0.2 0 44 0 44 20.5 0 20.5 0 0 -23.5 0 -23.5 23.5 0 23.5 0 0.2 -23.7 0.3 -23.8 23.3 -0.3 23.2 -0.2 -0.2 -19.3 -0.3 -19.2 -23 -0.5 -23 -0.5 0 -27 0 -27 23.3 -0.3 23.2 -0.2 -0.2 -19.8 -0.3 -19.7 -23 -0.5 -23 -0.5 -0.5 -23.5 -0.5 -23.5 -23.2 -0.3 -23.3 -0.2 0 -26.5 0 -26.5 23.5 0 23.5 0 0 -23.5 0 -23.5 23.3 -0.2 23.2 -0.3 0.3 -20.2 0.2 -20.3 -23.2 -0.2 -23.3 -0.3 -0.5 -23.5 -0.5 -23.5 -23.2 -0.3 -23.3 -0.2 0 -23 0 -23 -23.7 -0.2 -23.8 -0.3 -0.3 -70.8 -0.2 -70.7 -20 0 -20 0 -0.2 47.3 -0.3 47.2 -23.2 0.3 -23.3 0.2 0 23.5 0 23.5 -27 0 -27 0 -0.2 -47.2 -0.3 -47.3 -23.5 -0.5 -23.5 -0.5 0.4 -23.2 0.3 -23.3 -20.6 0 -20.6 0 0 44 0 44 23.5 0 23.5 0 0 70.5 0 70.5 44.5 0 44.5 0 0 -23.5 0 -23.5 26.5 0 26.5 0 0 23.5 0 23.5 47.3 0.2 47.2 0.3 0.3 26.7 0.2 26.8 -23.7 0.2 -23.8 0.3 -0.3 23.8 -0.2 23.7 -27 0 -27 0 0 -47.5 0 -47.5 -20 0 -20 0 0 47.5 0 47.5 -23.5 0 -23.5 0 -0.2 70.8 -0.3 70.7 -23.7 0.3 -23.8 0.2 0 23.5 0 23.5 -23.5 0 -23.5 0 0 19.5 0 19.5 23.5 0 23.5 0 0 27.5 0 27.5 -23.5 0 -23.5 0 0 67 0 67 20.5 0 20.5 0 0 -47z m329.5 27 l0 -19.5 -43.2 -0.3 -43.3 -0.2 0 20 0 20 43.3 -0.2 43.2 -0.3 0 -19.5z m142.5 -71 l0 -91 -23.7 -0.2 -23.8 -0.3 0.4 -22.7 0.3 -22.8 -20.6 0 -20.6 0 0 47 0 47 -46.7 0.2 -46.8 0.3 -0.3 19.7 -0.2 19.8 46.7 0.2 46.8 0.3 0.3 46.8 0.2 46.7 44 0 44 0 0 -91z m93.8 71.3 l-0.3 -19.8 -20 0 -20 0 -0.3 19.8 -0.2 19.7 20.5 0 20.5 0 -0.2 -19.7z m-2406.8 -117.3 l0 -91 -20 0 -20 0 0 91 0 91 20 0 20 0 0 -91z m519 70.5 l0 -20.5 -20.5 0 -20.5 0 0 19.8 c0 10.9 0.3 20.2 0.7 20.5 0.3 0.4 9.6 0.7 20.5 0.7 l19.8 0 0 -20.5z m755 0 l0 -20.5 -20 0 -20 0 0 20.5 0 20.5 20 0 20 0 0 -20.5z m330 0 l0 -20.5 -19.5 0 -19.5 0 0 20.5 0 20.5 19.5 0 19.5 0 0 -20.5z m-1274 -71.5 l0 -44 -20 0 -20 0 0 44 0 44 20 0 20 0 0 -44z m896 24 l0 -20 -22.7 -0.2 -22.8 -0.3 -0.3 -23.7 -0.2 -23.8 -20 0 -20 0 -0.2 23.8 -0.3 23.7 -47.2 0.3 -47.3 0.2 0 20 0 20 90.5 0 90.5 0 0 -20z m143 0 l0 -20 -23.2 -0.2 -23.3 -0.3 -0.3 -23.7 -0.2 -23.8 -20.5 0 -20.5 0 0 43.3 c0 23.9 0.3 43.7 0.7 44 0.3 0.4 20.1 0.7 44 0.7 l43.3 0 0 -20z m141 0 l0 -20 -44 0 -44 0 0 20 0 20 44 0 44 0 0 -20z m-518.2 -47.7 l0.2 -20.3 -20.5 0 -20.5 0 0 19.8 c0 10.9 0.3 20.2 0.7 20.6 0.4 0.3 9.5 0.5 20.2 0.4 l19.6 -0.3 0.3 -20.2z m-614.4 -28.9 c0.3 -0.9 0.6 -9.6 0.6 -19.5 l0 -17.9 -20.2 0.2 -20.3 0.3 -0.3 19.3 -0.2 19.2 19.9 0 c17.2 0 20 -0.2 20.5 -1.6z m141.6 -17.9 l0 -19.5 -43 0 -43 0 0 19.5 0 19.5 43 0 43 0 0 -19.5z m236 0 l0 -19.5 -20 0 -20 0 0 19.5 0 19.5 20 0 20 0 0 -19.5z m377.8 -23.4 c0.2 -33.3 0 -42.6 -1 -43.3 -0.7 -0.4 -10 -0.8 -20.5 -0.8 l-19.3 0 0 24 0 24 -23.5 0 -23.5 0 0 19.5 0 19.5 43.8 -0.2 43.7 -0.3 0.3 -42.4z m141.2 23.4 l0 -19.5 -43.5 0 -43.5 0 0 19.5 0 19.5 43.5 0 43.5 0 0 -19.5z m-990.8 -50.2 l0.3 -23.8 23.3 -0.3 23.2 -0.2 0 -20 0 -20 -43.5 0 -43.5 0 0 44 0 44 20 0 20 0 0.2 -23.7z m754.8 3.7 l0 -20 -19.7 0.2 -19.8 0.3 -0.3 18.5 c-0.1 10.1 0 19 0.2 19.7 0.4 1 5.1 1.3 20.1 1.3 l19.5 0 0 -20z m755 0 l0 -20 -19.5 0 -19.5 0 0 20 0 20 19.5 0 19.5 0 0 -20z m424.8 -0.2 l0.2 -19.8 -2.2 -0.5 c-1.3 -0.3 -10.4 -0.4 -20.3 -0.3 l-18 0.3 -0.3 19 c-0.1 10.4 0 19.5 0.3 20.2 0.3 1.1 4.7 1.3 20.2 1.1 l19.8 -0.3 0.3 -19.7z m-1462.8 -47.8 l0 -20 -20 0 -20 0 0 20 0 20 20 0 20 0 0 -20z m237 0 l0 -20 -20.5 0 -20.5 0 0 20 0 20 20.5 0 20.5 0 0 -20z m93.8 -23.7 l-0.3 -43.8 -23.8 -0.3 -23.7 -0.2 0.2 -26.3 0.3 -26.2 47.3 -0.3 47.2 -0.2 -0.2 -20.3 -0.3 -20.2 -23.2 -0.3 -23.3 -0.2 0 -27 0 -27 23.5 0 23.5 0 0 -23.5 0 -23.5 27 0 27 0 0 27 0 27 -23.5 0 -23.5 0 0 20.5 0 20.5 42.9 0 c38.2 0 43 -0.2 43.5 -1.6 0.3 -0.9 0.6 -11.7 0.6 -24 l0 -22.4 71 0 71 0 0 -20.5 0 -20.5 -23.5 0 -23.5 0 0 -26.5 0 -26.5 47 0 47 0 -0.2 -43.7 -0.3 -43.8 -19.7 -0.3 -19.8 -0.2 -0.2 23.7 -0.3 23.8 -26.7 0.3 -26.8 0.2 0 -74 0 -74 27 0 27 0 0 23 0 23 19.8 -0.2 19.7 -0.3 0 -67 0 -67 -23.2 -0.3 -23.3 -0.2 0 -23.5 0 -23.5 -20.5 0 -20.5 0 -0.2 23.8 -0.3 23.7 -3.7 0 c-2.1 -0.1 -35.3 -0.2 -73.8 -0.3 l-70 -0.2 0 -70.5 0 -70.5 -67.5 0 -67.5 0 0 20.5 0 20.5 47.5 0 47.5 0 -0.2 26.3 -0.3 26.2 -23.7 0.3 -23.8 0.2 0 47.5 0 47.5 -26.7 -0.2 -26.8 -0.3 -0.3 -47.2 -0.2 -47.3 -46.8 -0.2 -46.7 -0.3 -0.3 -70.2 -0.2 -70.3 -44 0 -44 0 0 20 0 20 23.8 0.2 23.7 0.3 0 27 0 27 -23.7 0.3 -23.8 0.2 0 23 0 23 -23.7 0.2 -23.8 0.3 -0.3 19.4 c-0.2 14.9 0.1 19.6 1 20.3 0.7 0.4 11.5 0.8 24.1 0.8 l22.7 0 0 23.5 0 23.5 20.5 0 20.5 0 0 -23.5 0 -23.5 27 0 27 0 -0.2 26.8 -0.3 26.7 -23.2 0.3 -23.3 0.2 -0.2 46.8 -0.3 46.7 -23.7 0.3 -23.8 0.2 0 20 0 20 118 0 118 0 0 27.5 0 27.5 -23.5 0 -23.5 0 0 20 0 20 23.5 0 23.5 0 0 26.5 0 26.5 -23.5 0 -23.5 0 -0.2 23.8 -0.3 23.7 -23 0.5 -23 0.5 -0.3 47.3 -0.2 47.2 -23.5 0 -23.5 0 0 19.5 0 19.5 23.5 0 c18.1 0 23.5 0.3 23.6 1.3 0.1 0.6 0.2 11.3 0.3 23.7 l0.1 22.5 23 0.5 23 0.5 0.3 23.3 0.2 23.2 20.5 0 20.5 0 -0.2 -43.7z m141.2 23.7 l0 -20 -23.2 -0.2 -23.3 -0.3 -0.3 -25 c-0.1 -13.7 0 -26 0.3 -27.3 l0.5 -2.2 49.8 0.2 49.7 0.3 0.3 23.8 0.2 23.7 67.5 0 67.5 0 -0.2 -20.2 -0.3 -20.3 -46.7 -0.3 -46.8 -0.2 0 -26.5 0 -26.5 23.5 0 23.5 0 0 -20.5 0 -20.5 -43.5 0 -43.5 0 -0.2 23.8 -0.3 23.7 -70.7 0.3 -70.8 0.2 0 67 0 67 43.5 0 43.5 0 0 -20z m236 0 l0 -20 -20.5 0 -20.5 0 0 20 0 20 20.5 0 20.5 0 0 -20z m378 0 l0 -20 -20.5 0 -20.5 0 0 20 0 20 20.5 0 20.5 0 0 -20z m471.8 -23.7 l-0.3 -43.8 -19.7 -0.3 -19.8 -0.2 0 44 0 44 20 0 20 0 -0.2 -43.7z m-1700.3 -23.8 l0 -20 -22.7 -0.3 -22.8 -0.2 0 -26.5 0 -26.5 23 0 23 0 -0.2 -20.2 -0.3 -20.3 -43.2 -0.3 -43.3 -0.2 0 24 0 24 -24 0 -24 0 0 19.5 0 19.5 23.8 0.2 23.7 0.3 0.3 23.8 0.2 23.7 43.3 -0.2 43.2 -0.3 0 -20z m1180.3 -46.7 l-0.3 -67.3 -19.2 -0.3 -19.3 -0.2 -0.2 23.7 -0.3 23.8 -23.7 0.3 -23.8 0.2 0 42.9 c0 23.5 0.3 43.1 0.7 43.4 0.3 0.4 19.9 0.7 43.5 0.7 l42.8 0 -0.2 -67.2z m425.4 43.5 l0.3 -23.8 23.8 -0.3 23.7 -0.2 0 -19.5 0 -19.5 -23.7 -0.2 -23.8 -0.3 -0.5 -23.5 -0.5 -23.5 -20 0 -20 0 -0.3 23.8 -0.2 23.7 -23 0 -23 0 0 19.5 0 19.5 23 0 23 0 0 23.3 c0 12.9 0.3 23.7 0.7 24 0.3 0.4 9.6 0.7 20.4 0.7 l19.9 0 0.2 -23.7z m-2076.7 -90.8 l0 -20 -20.2 -0.3 -20.3 -0.2 0 20.5 0 20.5 20.3 -0.2 20.2 -0.3 0 -20z m1321.5 -27 l0.5 -47 26.8 -0.3 c21 -0.2 26.7 0 26.8 1 0 0.7 0.1 22 0.2 47.3 l0.2 46 20.3 0.3 20.2 0.2 0 -118 0 -118 23 0 23 0 0 -22.4 c0 -12.3 0.3 -23.1 0.6 -24 0.5 -1.4 3.6 -1.6 24 -1.6 l23.4 0 0 -20 0 -20 -23.7 -0.2 -23.8 -0.3 -0.3 -23.2 -0.2 -23.3 -19.5 0 -19.5 0 -0.2 23.3 -0.3 23.2 -27 0 -27 0 -0.3 -26.2 -0.2 -26.3 24 0 24 0 0 -68 0 -68 -23.7 -0.2 -23.8 -0.3 0 -50 0 -50 74 0 74 0 0.3 23.7 0.2 23.8 20 0 20 0 0.2 -23.7 0.3 -23.8 23.8 -0.3 23.7 -0.2 0 -20 0 -20 -162.5 0 -162.5 0 0 20 0 20 23.8 0.2 23.7 0.3 0 144.5 0 144.5 -23.7 0.3 -23.8 0.2 0 20 0 20 23.8 0.2 23.7 0.3 0.3 47.3 0.2 47.2 23.4 0 c17.8 0 23.5 0.3 23.8 1.3 0.2 0.6 0.2 12.7 -0.1 26.7 l-0.6 25.5 -3.7 0 c-2.1 -0.1 -14.1 -0.2 -26.8 -0.3 l-23 -0.2 0 -23 0 -23 -20.2 0.2 -20.3 0.3 -0.3 89.5 c-0.1 49.2 0 90.1 0.3 90.8 0.3 1 5 1.2 20.2 1 l19.8 -0.3 0.5 -47z m424.8 27.3 l-0.3 -20.3 -20 0 -20 0 -0.3 19 c-0.1 10.4 0 19.5 0.2 20.2 0.4 1 5.2 1.3 20.6 1.3 l20 0 -0.2 -20.2z m-1793.8 -71.3 l0 -44.5 -23 0 -23 0 -0.2 -70.2 -0.3 -70.3 -43.5 0 -43.5 0 -0.3 67.3 -0.2 67.2 23.5 0 23.5 0 0 23.5 0 23.5 23.8 0.2 23.7 0.3 0.3 23.8 0.2 23.7 19.5 0 19.5 0 0 -44.5z m1652.8 23.8 l0.2 -20.3 -23.7 -0.2 -23.8 -0.3 -0.3 -23.7 -0.2 -23.8 -23.5 0 -23.5 0 0 -22.5 0 -22.5 -20.5 0 -20.5 0 0 43 0 43 23.8 0.2 23.7 0.3 0.3 23.8 0.2 23.7 43.8 -0.2 43.7 -0.3 0.3 -20.2z m46 -47.5 l-0.3 -20.3 -19.2 -0.3 -19.3 -0.2 0 20.5 0 20.5 19.5 0 19.5 0 -0.2 -20.2z m-93.8 -93.8 l0 -20 -20 0 -20 0 0 20 0 20 20 0 20 0 0 -20z m94 0 l0 -20 -19.5 0 -19.5 0 0 20 0 20 19.5 0 19.5 0 0 -20z m-1556.5 -47.5 l0 -20 -44 0 -44 0 -0.3 19.4 c-0.2 14.9 0.1 19.6 1 20.3 0.7 0.4 20.7 0.7 44.3 0.5 l43 -0.2 0 -20z m93.5 0 l0 -20.5 -20 0 -20 0 0 20.5 0 20.5 20 0 20 0 0 -20.5z m283 -47.5 l0 -20 -23 0 -23 0 -0.2 -23.2 -0.3 -23.3 -20.2 -0.3 -20.3 -0.2 -0.2 23.2 -0.3 23.3 -23.7 0.3 -23.8 0.2 0 20 0 20 67.5 0 67.5 0 0 -20z m-330.2 -188.2 l-0.3 -161.3 -161.2 -0.3 -161.3 -0.2 0 160.8 c0 88.5 0.3 161.2 0.7 161.5 0.3 0.4 73 0.7 161.5 0.7 l160.8 0 -0.2 -161.2z m189.2 138.2 l0 -23 23.5 0 23.5 0 0.2 -23.7 0.3 -23.8 23.8 -0.3 23.7 -0.2 0 -19.9 c0 -17.2 -0.2 -20 -1.6 -20.5 -0.9 -0.3 -22.2 -0.6 -47.5 -0.6 l-45.9 0 0 -23.5 0 -23.5 -20 0 -20 0 0 91 0 91 20 0 20 0 0 -23z m187.8 3.3 l-0.3 -19.8 -19.7 -0.3 -19.8 -0.2 0 20 0 20 20 0 20 0 -0.2 -19.7z m95.2 -0.3 l0 -20 -20 0 -20 0 0 19.3 c0 10.7 0.3 19.7 0.7 20 0.3 0.4 9.3 0.7 20 0.7 l19.3 0 0 -20z m94 -23.5 l0 -43.5 -20.2 0.2 -20.3 0.3 -0.3 42.4 c-0.2 33.3 0 42.6 1 43.3 0.7 0.4 10 0.8 20.6 0.8 l19.2 0 0 -43.5z m849.8 23.3 l0.2 -19.8 -20 0 -20 0 0 19.3 c0 10.7 0.3 19.7 0.7 20.1 0.4 0.3 9.3 0.5 19.7 0.4 l19.1 -0.3 0.3 -19.7z m94.2 -23.3 l0 -43.5 -22.7 -0.2 -22.8 -0.3 -0.3 -26.7 -0.2 -26.8 46.7 -0.2 46.8 -0.3 0.3 -67.3 0.2 -67.2 -20.2 0.2 -20.3 0.3 -0.5 23.5 -0.5 23.5 -22.7 0.3 -22.8 0.2 -0.2 22.8 -0.3 22.7 -23.7 0.3 -23.8 0.2 -0.2 23.8 -0.3 23.7 -23.2 -0.4 -23.3 -0.3 0 20.6 0 20.6 23.5 0 23.5 0 0 24 0 24 24 0 24 0 0 23 0 23 19.5 0 19.5 0 0 -43.5z m94.8 -23.7 l-0.3 -67.3 -20 0 -20 0 -0.3 66 c-0.1 36.3 0 66.6 0.3 67.3 0.3 0.9 5.4 1.2 20.5 1.2 l20 0 -0.2 -67.2z m94.2 44.2 l0 -23 27 0 27 0 0.2 22.8 0.3 22.7 20.3 0.3 20.2 0.2 -0.2 -67.2 -0.3 -67.3 -23.7 -0.3 -23.8 -0.2 0 -46.5 0 -46.5 -46.5 0 -46.5 0 0 -47.5 0 -47.5 -20.5 0 -20.5 0 0 67 0 67 23.5 0 23.5 0 0.2 23.8 0.3 23.7 23.3 0.3 23.2 0.2 -0.2 26.8 -0.3 26.7 -23.2 0.3 -23.3 0.2 0 42.9 c0 23.5 0.3 43.1 0.7 43.4 0.3 0.4 9.3 0.7 20 0.7 l19.3 0 0 -23z m-1274 -114 l0 -91 -20.2 0.2 -20.3 0.3 -0.3 89.5 c-0.1 49.2 0 90.1 0.3 90.8 0.3 0.9 5.4 1.2 20.5 1.2 l20 0 0 -91z m-330.2 -24.7 l0.2 -20.3 -20.5 0 -20.5 0 0 19.8 c0 10.9 0.3 20.2 0.7 20.6 0.4 0.3 9.5 0.5 20.2 0.4 l19.6 -0.3 0.3 -20.2z m235 -26.5 l0.2 -46.8 23.5 0 23.5 0 0 -20.5 0 -20.5 -23.5 0 -23.5 0 0 -23.5 0 -23.5 -43.5 0 -43.5 0 0 44 0 44 23.5 0 23.5 0 0 46.3 c0 25.5 0.3 46.7 0.7 47.1 0.4 0.3 9.3 0.5 19.7 0.4 l19.1 -0.3 0.3 -46.7z m-187.8 -23.8 l0 -23 22.9 0 c19.9 0 23 -0.2 23.5 -1.6 0.3 -0.9 0.6 -20.7 0.6 -44 l0 -42.4 -20 0 -20 0 0 23.5 0 23.5 -23.5 0 -23.5 0 0 43.5 0 43.5 20 0 20 0 0 -23z m94 3.5 l0 -19.5 -20.5 0 -20.5 0 0 19.5 0 19.5 20.5 0 20.5 0 0 -19.5z m282.8 -0.2 l0.2 -19.3 -19.5 0 -19.5 0 0 19.5 0 19.5 19.3 -0.2 19.2 -0.3 0.3 -19.2z m520 -3.5 l0.2 -22.8 23.5 0 23.5 0 0 -44 0 -44 -91 0 -91 0 0 20 0 20 46.8 0.2 46.7 0.3 0.3 46.8 0.2 46.7 20.3 -0.2 20.2 -0.3 0.3 -22.7z m-566.6 -46.5 l0.3 -23.8 23 -0.5 23 -0.5 0.3 -19.8 0.2 -19.7 -67.5 0 -67.5 0 0 20 0 20 23.8 0.2 23.7 0.3 0.3 23.8 0.2 23.7 20 0 20 0 0.2 -23.7z m1321.6 -20.5 l0.2 -43.8 -44 0 -44 0 0 20 0 20 23.5 0 23.5 0 0 23.3 c0 12.9 0.3 23.7 0.7 24.1 0.4 0.3 9.5 0.5 20.2 0.4 l19.6 -0.3 0.3 -43.7z"/>
  <path d="M1178 2196 l0 -74 73.9 0 73.9 0 0.7 49.3 c0.3 27 0.5 60.2 0.3 73.7 l-0.3 24.5 -74.2 0.3 -74.3 0.2 0 -74z m92.8 0.3 l-0.3 -19.8 -19 0 -19 0 -0.3 19.8 -0.2 19.7 19.5 0 19.5 0 -0.2 -19.7z"/>
  <path d="M1933.7 2033.3 c-0.4 -0.3 -0.7 -12.3 -0.7 -26.5 l0 -25.8 50.5 0 50.5 0 -0.2 26.3 -0.3 26.2 -49.6 0.3 c-27.2 0.1 -49.9 -0.1 -50.2 -0.5z"/>
  <path d="M2169.2 1960.3 l0.3 -26.8 26.3 -0.3 26.2 -0.2 0 27 0 27 -26.5 0 -26.5 0 0.2 -26.7z"/>
  <path d="M942 1913 l0 -27 27 0 27 0 -0.2 26.8 -0.3 26.7 -26.7 0.3 -26.8 0.2 0 -27z"/>
  <path d="M1083 1252 l0 -74 27 0 27 0 0 74 0 74 -27 0 -27 0 0 -74z"/>
  <path d="M1178.2 1252.3 l0.3 -73.8 73.6 -0.3 73.6 -0.2 0.6 36.7 c0.9 46.1 0.9 107.6 0.1 109.7 -0.6 1.4 -8 1.6 -74.5 1.6 l-73.9 0 0.2 -73.7z m92.8 -0.8 l0 -19.5 -19.2 0.2 -19.3 0.3 -0.3 19.3 -0.2 19.2 19.5 0 19.5 0 0 -19.5z"/>
  <path d="M234 1252 l0 -74 74 0 74 0 0 74 0 74 -74 0 -74 0 0 -74z m93.8 0.3 l-0.3 -19.8 -19.5 0 -19.5 0 -0.3 17.5 c-0.1 9.6 0 18.5 0.3 19.8 0.5 2.2 0.6 2.2 20 2.2 l19.5 0 -0.2 -19.7z"/>
  <path d="M1272 501.2 c0 -15.6 -0.3 -22.1 -1.2 -23 -0.9 -0.9 -12.7 -1.2 -47 -1.2 l-45.8 0 0 -27 0 -27 74 0 74 0 0 50 0 50 -27 0 -27 0 0 -21.8z"/>
  <path d="M1178 308 l0 -74 74 0 74 0 0 74 0 74 -74 0 -74 0 0 -74z m93.4 18.4 c0.3 -0.9 0.6 -9.6 0.6 -19.4 0 -15.3 -0.2 -17.9 -1.6 -18.4 -2 -0.8 -34.8 -0.8 -36.8 0 -1.4 0.5 -1.6 3.2 -1.6 19.3 0 10.3 0.3 19.1 0.7 19.4 0.3 0.4 9.1 0.7 19.4 0.7 16.1 0 18.8 -0.2 19.3 -1.6z"/>
  <path d="M989.7 334.3 c-0.4 -0.3 -0.7 -12.3 -0.7 -26.5 l0 -25.8 26.9 0 c14.9 0 27.1 0.3 27.3 0.8 0.2 0.4 0.2 12.3 0 26.5 l-0.4 25.7 -26.2 0 c-14.5 0 -26.6 -0.3 -26.9 -0.7z"/>
  <path d="M1083.7 334.3 c-0.4 -0.3 -0.7 -12.3 -0.7 -26.5 l0 -25.8 27 0 27 0 0 26.5 0 26.5 -26.3 0 c-14.5 0 -26.7 -0.3 -27 -0.7z"/>
  <path d="M45.2 166.8 l0.3 -121.3 121.3 -0.3 121.2 -0.2 0 121.5 0 121.5 -121.5 0 -121.5 0 0.2 -121.2z m188.8 0.2 l0 -67 -67 0 -67 0 0 67 0 67 67 0 67 0 0 -67z"/>
  <path d="M705.2 2476.3 l0.3 -23.8 27 0 27 0 0.3 23.8 0.2 23.7 -27.5 0 -27.5 0 0.2 -23.7z"/>
  <path d="M1838.2 2476.3 l0.3 -23.8 26.8 -0.3 26.7 -0.2 0 24 0 24 -27 0 -27 0 0.2 -23.7z"/>
  <path d="M2216 2337.5 l0 -121.5 121.5 0 121.5 0 -0.2 121.3 -0.3 121.2 -121.2 0.3 -121.3 0.2 0 -121.5z m188 -0.5 l0 -67 -67 0 -67 0 0 67 0 67 67 0 67 0 0 -67z"/>
  <path d="M304.3 2411.3 l-22.3 -0.3 0 -23 0 -23 -24 0 -24 0 0 -27 0 -27 50.5 0 50.5 0 0 49.9 c0 54.7 0.4 51.4 -5.8 50.9 -1.5 -0.2 -12.7 -0.4 -24.9 -0.5z"/>
  <path d="M1792.7 2317.3 c-0.4 -0.3 -0.7 -12.7 -0.7 -27.5 l0 -26.8 26.3 0.2 26.2 0.3 0 27 0 27 -25.6 0.3 c-14 0.1 -25.8 -0.1 -26.2 -0.5z"/>
  <path d="M234 2196 l0 -74 74 0 74 0 0 74 0 74 -74 0 -74 0 0 -74z m93.8 0.3 l-0.3 -19.8 -19.5 0 -19.5 0 -0.3 19.8 -0.2 19.7 20 0 20 0 -0.2 -19.7z"/>
  <path d="M2122 1252 l0 -74 74 0 74 0 0 74 0 74 -74 0 -74 0 0 -74z m94 -0.5 l0 -19.5 -19.7 0.2 -19.8 0.3 -0.3 18 c-0.1 9.8 0 18.5 0.2 19.2 0.4 1 5.1 1.3 20.1 1.3 l19.5 0 0 -19.5z"/>
  <path d="M2452 497 l0 -74 24 0 24 0 0 74 0 74 -24 0 -24 0 0 -74z"/>
  <path d="M2216 166.5 l0 -121.5 121.3 0.2 121.2 0.3 0.3 121.3 0.2 121.2 -121.5 0 -121.5 0 0 -121.5z m188 0.5 l0 -67 -67 0 -67 0 0 67 0 67 67 0 67 0 0 -67z"/>
 </g>
 <g fill="#083345">
  <path d="M96.8 2477.8 l-0.3 -22.3 -23.7 -0.3 -23.8 -0.2 -0.2 -23.8 -0.3 -23.7 -23.9 -0.3 -23.8 -0.2 0.6 -2.3 c0.3 -1.2 0.6 -32.7 0.6 -69.9 l0 -67.8 47 0 47 0 -0.2 23.3 -0.3 23.2 -23.5 0.5 -23.5 0.5 0 23.5 0 23.5 23.8 0.3 23.8 0.2 -0.1 22.8 -0.1 22.7 22.8 0.5 22.8 0.5 0.3 45.8 0.2 45.7 -22.5 0 -22.5 0 -0.2 -22.2z"/>
  <path d="M237.8 2477.8 l-0.3 -22.3 -23.5 -0.5 -23.5 -0.5 -0.3 -46.7 -0.2 -46.8 -46.5 0 -46.5 0 0 -23 0 -23 22.8 -0.2 22.7 -0.3 0.3 -23.7 0.2 -23.8 23.5 0 23.5 0 0.2 -46.5 c0.2 -25.6 0.2 -47 0 -47.5 -0.2 -0.6 -16.8 -1 -46.8 -1 l-46.4 0 0 -47 0 -47 22.5 0 22.5 0 0.2 23.8 0.3 23.7 23.8 0.3 23.7 0.2 0 -48 0 -48 -23.5 0 -23.5 0 0 -23 0 -23 -23 0 -23 0 0 -94 0 -94 94 0 94 0 0 23 0 23 -23.7 0.2 -23.8 0.3 -0.3 23.3 -0.2 23.2 -47.5 0 -47.5 0 0.2 23.8 0.3 23.7 23.5 0.5 23.5 0.5 0.2 23 0.2 23 24 0.3 24.1 0.2 0 -47.5 0 -47.5 23.3 0.2 23.2 0.3 0 70 0 70 -23.7 0.3 -23.8 0.2 0 24 0 24 24 0 24 0 0 -23.5 0 -23.5 46.5 0 46.5 0 0 23.5 0 23.5 47.5 0 47.5 0 0.2 23.8 0.3 23.7 23.3 0.3 23.2 0.2 0 -24.5 0 -24.5 -23.1 0 c-20.7 0 -23 -0.2 -22.5 -1.6 0.3 -0.9 0.6 -11.2 0.6 -23 l0 -21.4 22.5 0 22.5 0 0 -23.5 0 -23.5 -22.7 -0.2 -22.8 -0.3 -0.3 -23.7 -0.2 -23.8 -24 0 -24 0 0 24 0 24 23.5 0 23.5 0 0 23 0 23 -47 0 -47 0 0.2 -70.2 0.3 -70.3 23.8 -0.3 23.7 -0.2 0 -23 0 -23 46.5 0 46.5 0 0 23 0 23 23.3 0.2 23.2 0.3 0.5 23.5 0.5 23.5 23.7 0.3 23.8 0.2 0.2 -23.7 0.3 -23.8 22.5 0 22.5 0 0.5 23.5 0.5 23.5 23.3 0.3 23.2 0.2 0 46.5 0 46.5 -23 0 -23 0 0 -23 0 -23 -47.5 0 -47.5 0 0 94 0 94 -70.2 0.2 -70.3 0.3 -0.3 47.3 -0.2 47.2 23.5 0 23.5 0 0 70 0 70 -23 0 -23 0 -0.2 -22.7 -0.3 -22.8 -24 0 -24 0 -0.3 23.3 -0.2 23.2 23.4 0 c20.4 0 23.5 0.2 24 1.6 0.3 0.9 0.6 11.4 0.6 23.5 l0 21.9 -47.5 0 -47.5 0 0 22.5 0 22.5 -46.5 0 -46.5 0 -0.2 -22.2z m94.2 -116.9 l0 -46.9 -47.5 0 -47.5 0 0 24 0 24 24 0 24 0 0 23 0 23 22.3 0.2 c12.2 0.2 22.8 0.1 23.5 -0.1 0.9 -0.2 1.2 -10.5 1.2 -47.2z m47 -164.9 l0 -71 -71 0 -71 0 0 71 0 71 71 0 71 0 0 -71z"/>
  <path d="M285.2 2196.3 l0.3 -22.8 22.5 0 22.5 0 0.3 22.8 0.2 22.7 -23 0 -23 0 0.2 -22.7z"/>
  <path d="M427 2478 l0 -22 23 0 23 0 0 22 0 22 -23 0 -23 0 0 -22z"/>
  <path d="M615 2478 l0 -22 23.3 -0.2 23.2 -0.3 0.3 -23.8 0.2 -23.8 23.3 0.1 23.2 0.1 0.3 -23 0.2 -23.1 23.5 0 23.5 0 0 23 0 23 23.5 0 23.5 0 0 46 0 46 -23 0 -23 0 -0.2 -22.2 -0.3 -22.3 -24 0 -24 0 -0.3 22.3 -0.2 22.2 -46.5 0 -46.5 0 0 -22z"/>
  <path d="M993 2477.5 l0 -22.5 -47.5 0 -47.5 0 0 -46.5 0 -46.5 23.5 0 23.6 0 -0.1 22.8 -0.1 22.7 117.8 0.5 117.8 0.5 0.3 23.3 0.2 23.2 -23.5 0 -23.5 0 0 22.5 0 22.5 -70.5 0 -70.5 0 0 -22.5z"/>
  <path d="M1182 2478 l0 -22 23 0 23 0 0 22 0 22 -23 0 -23 0 0 -22z"/>
  <path d="M1370 2477.5 l0 -22.5 -23.5 0 -23.5 0 -0.2 -23.7 -0.3 -23.8 -23.2 -0.3 -23.3 -0.2 0 -22.5 0 -22.5 47 0 47 0 0.2 -23.6 0.3 -23.5 23.5 -0.2 23.5 -0.2 0.3 -70.7 0.2 -70.8 23 0 23 0 0 -23.5 0 -23.5 47 0 47 0 0 23 0 23 -23.2 0.2 -23.3 0.3 -0.3 23.3 -0.2 23.2 23.5 0 23.5 0 0 23.5 0 23.5 -23.2 0.2 -23.3 0.3 0 24 0 24 23.3 0 23.2 0 0 70.3 0 70.2 -23 0 -23 0 -0.2 -46.7 -0.3 -46.8 -47 0 -47 0 -0.3 23.2 -0.2 23.3 23.2 0.2 23.3 0.3 0.3 23.8 0.2 23.7 23.5 0 23.5 0 0 22 0 22 -70.5 0 -70.5 0 0 -22.5z"/>
  <path d="M1559.2 2478.3 l0.3 -21.8 23.5 -0.5 23.5 -0.5 0.5 -23.5 0.5 -23.5 22 0 22 0 0.3 45.8 0.2 45.7 -46.5 0 -46.5 0 0.2 -21.7z"/>
  <path d="M1701 2478 l0 -22 47.3 -0.2 47.2 -0.3 0 -24 0 -24 -23.7 -0.3 -23.8 -0.2 0 -46.5 0 -46.5 -23.5 0 -23.5 0 -0.2 -23.7 -0.3 -23.8 -23.7 -0.3 -23.8 -0.2 0 -23.5 0 -23.5 -23 0 -23 0 0 -23 0 -23 23 0 23 0 0 -94.5 0 -94.5 -23 0 -23 0 0 -47.5 0 -47.5 22.5 0 22.5 0 0.2 23.8 0.3 23.7 23.8 0.3 23.7 0.2 0 47 0 47 70.5 0 70.5 0 0 23 0 23 -46.4 0 c-41.4 0 -46.5 0.2 -47 1.6 -0.3 0.9 -0.6 11.7 -0.6 24 l0 22.4 -23.5 0 -23.5 0 0 24 0 24 47.8 -0.2 47.7 -0.3 0.3 -23.2 0.2 -23.3 22.5 0 22.5 0 0 23.5 0 23.5 23.8 0.2 23.7 0.3 0.3 93.7 0.2 93.8 -23.7 0.2 -23.8 0.3 -0.3 23.2 -0.2 23.3 47.2 0.2 47.3 0.3 0.5 23.5 0.5 23.5 23.8 0.3 23.7 0.2 0 22 0 22 -47.5 0 -47.5 0 0 -22.5 0 -22.5 -23.7 0.2 -23.8 0.3 -0.3 22.3 -0.2 22.2 -70 0 -70 0 0 -22z m140.5 -187.5 l0 -24 -23.2 -0.3 -23.3 -0.2 0 23.8 c0 13.1 0.3 24.2 0.7 24.6 0.4 0.3 10.8 0.5 23.2 0.4 l22.6 -0.3 0 -24z"/>
  <path d="M2031 2478 l0 -22 23.5 0 23.5 0 -0.2 -24.2 -0.3 -24.3 -23.2 -0.3 -23.3 -0.2 0 -22.5 0 -22.5 23.5 0 23.5 0 0 -23.5 0 -23.5 23.5 0 23.5 0 0 92.5 0 92.5 -47 0 -47 0 0 -22z"/>
  <path d="M2173 2337.7 c0 -124.9 0.3 -162.6 1.2 -163.5 0.9 -0.9 38.6 -1.2 163.5 -1.2 l162.3 0 0 163.5 0 163.5 -163.5 0 -163.5 0 0 -162.3z m282.8 -0.4 l0.2 -118.3 -118.5 0 -118.5 0 0 118.5 0 118.5 118.3 -0.2 118.2 -0.3 0.3 -118.2z"/>
  <path d="M2267 2337 l0 -70 70 0 70 0 0 70 0 70 -70 0 -70 0 0 -70z"/>
  <path d="M474.4 2452.8 c0.3 -1.3 0.6 -11.9 0.6 -23.6 l0 -21.3 22.3 0.1 22.2 0.1 0.3 -46.5 0.2 -46.6 47.5 0 47.5 0 0 46 0 46 -23.7 0.2 -23.8 0.3 -0.3 23.8 -0.2 23.7 -46.6 0 -46.6 0 0.6 -2.2z"/>
  <path d="M1653.2 2384.8 l0.3 -22.3 23 0 23 0 0.3 22.3 0.2 22.2 -23.5 0 -23.5 0 0.2 -22.2z"/>
  <path d="M661.8 2313.8 l-0.3 -47.3 -46.7 -0.3 -46.8 -0.2 0 -23.5 0 -23.5 23.5 0 23.5 0 0 -46.5 0 -46.5 23.3 -0.2 23.2 -0.3 0.3 -23.7 0.2 -23.8 23 0 23 0 0 47 0 47 -23.2 0.2 -23.3 0.3 -0.3 23.2 -0.2 23.3 23.2 0.2 23.3 0.3 0.3 70.8 0.2 70.7 -23 0 -23 0 -0.2 -47.2z"/>
  <path d="M850.7 2360.3 c-0.8 -0.7 -1 -42.5 -0.2 -44.5 0.4 -1 5.1 -1.2 23.5 -1 l23 0.3 0 22.9 0 23 -22.8 0 c-12.6 0 -23.2 -0.3 -23.5 -0.7z"/>
  <path d="M1040.4 2359.7 c-0.2 -0.7 -0.3 -10.9 -0.2 -22.7 l0.3 -21.5 22.8 -0.3 22.7 -0.2 0 23 0 23 -22.5 0 c-17.4 0 -22.7 -0.3 -23.1 -1.3z"/>
  <path d="M1134 2337.5 l0 -23.5 -23.5 0 -23.5 0 0 -23.5 0 -23.5 23.5 0 23.5 0 0 -24 0 -24 -24 0 -24 0 0 23.5 0 23.5 -23 0 -23 0 -0.2 23.8 -0.3 23.7 -23 0 -23 0 -0.5 -23.5 -0.5 -23.5 -23.2 -0.3 -23.3 -0.2 0 -23.5 0 -23.5 23.5 0 23.5 0 0 -46.5 0 -46.5 23.5 0 23.6 0 -0.1 23.3 -0.1 23.2 23.3 0 23.3 0 0.3 -23.2 0.2 -23.3 23.5 0 23.5 0 0 -24.5 0 -24.5 -23.5 0 -23.5 0 0 -23 0 -23 23.5 0 23.5 0 0.2 -70.7 0.3 -70.8 23 0 23 0 0.3 94.3 0.2 94.2 24 0 24 0 0.2 -46.7 0.3 -46.8 46.3 -0.3 46.2 -0.2 0 47 0 47 24 0 24 0 0.2 -46.7 0.3 -46.8 23.8 -0.3 23.7 -0.2 0 -24 0 -24 -23.7 -0.2 -23.8 -0.3 0 -23 0 -23 46.5 0 46.5 0 0 70 0 70 -23 0.5 -23 0.5 -0.3 70.8 -0.2 70.7 -23.5 0 -23.5 0 -0.2 70.8 -0.3 70.7 -47.2 0.3 -47.3 0.2 0 23.5 0 23.5 -23 0 -23 0 0 -23.5 0 -23.5 -24 0 -24 0 -0.2 23.3 -0.3 23.2 -23.2 0.3 -23.3 0.2 0 -23.5z m189.8 -92.5 c0.2 -11.8 0 -43.7 -0.3 -70.7 l-0.7 -49.3 -70.9 0 -70.9 0 0 71 0 71 71.3 -0.2 71.2 -0.3 0.3 -21.5z"/>
  <path d="M1229.2 2196.3 l0.3 -22.8 21.8 -0.3 c16.9 -0.2 21.8 0 22.2 1 0.2 0.7 0.6 11.1 0.7 23.1 l0.3 21.7 -22.8 0 -22.7 0 0.2 -22.7z"/>
  <path d="M1607 2338 l0 -22.9 22.5 -0.3 22.5 -0.3 0 23.3 0 23.2 -22.5 0 -22.5 0 0 -23z"/>
  <path d="M1984 2338 l0 -23 23 0 23 0 -0.2 22.8 -0.3 22.7 -22.7 0.3 -22.8 0.2 0 -23z"/>
  <path d="M757 2290.5 l0 -23.5 46.3 0.2 46.2 0.3 0 23 0 23 -46.2 0.3 -46.3 0.2 0 -23.5z"/>
  <path d="M2031 2290.5 l0 -23.5 23 0 23 0 0 23.5 0 23.5 -23 0 -23 0 0 -23.5z"/>
  <path d="M1937 2219.5 l0 -46.5 23.5 0 23.5 0 0 23 0 23 22.8 0.2 22.7 0.3 0.3 23.3 0.2 23.2 -46.5 0 -46.5 0 0 -46.5z"/>
  <path d="M2078.2 2242.8 l0.3 -23.3 23 0 23 0 0 23 0 23 -23.3 0.3 -23.2 0.2 0.2 -23.2z"/>
  <path d="M2.5 2218.2 c-0.6 -0.4 -0.9 -8.9 -0.7 -23 l0.3 -22.2 22.7 0.2 22.7 0.3 0.3 22.8 0.2 22.7 -22.2 0 c-12.3 0 -22.7 -0.4 -23.3 -0.8z"/>
  <path d="M709.7 2218.3 c-0.4 -0.3 -0.7 -10.4 -0.7 -22.4 0 -18.8 0.2 -21.8 1.6 -22.3 0.9 -0.3 11.4 -0.6 23.5 -0.6 l21.9 0 0 23 0 23 -22.8 0 c-12.6 0 -23.2 -0.3 -23.5 -0.7z"/>
  <path d="M804.8 2172.5 l0.2 -46.5 70 0 70 0 0 23 0 23 -23.7 0.2 -23.8 0.3 -0.3 23.3 -0.2 23.2 -46.3 0 -46.2 0 0.3 -46.5z"/>
  <path d="M1889.2 2054.8 l0.3 -117.3 93.7 -0.3 93.8 -0.2 0.2 46.7 0.3 46.8 24 0 24 0 0.3 -70.8 0.2 -70.7 69.8 0.2 69.7 0.3 0.3 47.3 0.2 47.2 47.5 0 47.5 0 -0.2 22.8 -0.3 22.7 -94 0.5 -94 0.5 -0.3 23.8 -0.2 23.7 23.5 0 23.5 0 0 23.5 0 23.5 -70.7 0.2 -70.8 0.3 -0.3 23.3 -0.2 23.2 -46.5 0 -46.5 0 0 -23 0 -23 23.3 -0.2 23.2 -0.3 0 -24 0 -24 -23.2 -0.3 -23.3 -0.2 0 24 0 24 -24 0 -24 0 0 23.5 0 23.5 -23.5 0 -23.5 0 0.2 -117.2z m141.6 -47.5 l0.2 -23.3 -47.5 0 -47.5 0 0 22.8 c0 12.6 0.3 23.2 0.7 23.5 0.3 0.4 21.6 0.6 47.2 0.5 l46.6 -0.3 0.3 -23.2z m188.2 -47.3 l0 -24 -23.2 0.2 -23.3 0.3 -0.3 23.8 -0.2 23.7 23.5 0 23.5 0 0 -24z"/>
  <path d="M1.9 2124.6 c-0.2 -0.2 -0.3 -10.8 -0.1 -23.5 l0.3 -23.1 23 0 22.9 0 -0.2 23.3 -0.3 23.2 -22.6 0.3 c-12.4 0.1 -22.7 0 -23 -0.2z"/>
  <path d="M757.5 2123.8 c-0.3 -0.7 -0.6 -11.4 -0.7 -23.8 l-0.3 -22.5 -23.8 -0.3 -23.7 -0.2 0.2 -22.8 0.3 -22.7 23.5 -0.5 23.5 -0.5 0.3 -70.7 0.2 -70.8 23 0 23 0 0.2 23.8 0.3 23.7 23.2 0.3 23.3 0.2 0.2 -94 c0.2 -51.7 0.2 -94.5 0 -95 -0.2 -0.6 -8.9 -1 -23.3 -1 l-22.9 0 0 -23.5 0 -23.5 -23.5 0 -23.5 0 0 -23 0 -23 46.5 0 46.5 0 0.2 23.3 0.3 23.2 23.3 0.3 23.2 0.2 0 23.5 0 23.5 24.3 -0.2 24.2 -0.3 0.3 -23.2 0.2 -23.3 23.3 -0.2 23.2 -0.3 0.3 -46.7 0.2 -46.8 23.5 0 23.6 0 -0.1 23.3 -0.1 23.2 23 0.3 23.1 0.2 0.2 23.3 0.3 23.2 23.8 0.3 23.7 0.2 -0.2 46.8 -0.3 46.7 -23.2 0.3 -23.3 0.2 -0.2 -23.7 -0.3 -23.8 -47 0 -47 0 0 24 0 24 46.8 0.3 46.7 0.2 0 23 0 23 -23 0 -23 0 0 71 0 71 23 0 23 0 -0.2 22.8 -0.3 22.7 -22.7 0.3 -22.8 0.2 0 23.5 0 23.5 -23.5 0 -23.5 0 0 -46.5 0 -46.5 -24 0 -24 0 0 46.5 0 46.5 -47.4 0 -47.5 0 -0.1 -23 -0.1 -23 24.1 0 24 0 0 -23.5 0 -23.5 -24 0 -24 0 0 23 0 23 -23.2 0.2 -23.3 0.3 -0.3 47.3 -0.2 47.2 -22.5 0 c-17.1 0 -22.7 -0.3 -23 -1.2z m235.3 -211 l0.2 -23.8 -24 0 -24 0 0 24 0 24 23.8 -0.2 23.7 -0.3 0.3 -23.7z"/>
  <path d="M1040.7 2124.3 c-0.9 -0.8 -0.9 -42.6 -0.1 -44.7 0.5 -1.4 3.5 -1.6 23 -1.6 l22.4 0 0 23.5 0 23.5 -22.3 0 c-12.3 0 -22.7 -0.3 -23 -0.7z"/>
  <path d="M2315 2102.5 c0 -12.4 0 -22.8 0 -23.2 0 -0.5 10.2 -0.8 22.8 -0.8 l22.7 0 0 23 0 23 -22.7 0.3 -22.8 0.2 0 -22.5z"/>
  <path d="M49 2054 l0 -23 23.5 0 23.5 0 -0.2 22.8 -0.3 22.7 -23.2 0.3 -23.3 0.2 0 -23z"/>
  <path d="M1464 2054 l0 -23 23.5 0 23.5 0 0 23 0 23 -23.5 0 -23.5 0 0 -23z"/>
  <path d="M2362 2054 l0 -23 23 0 23 0 0.2 -46.7 0.3 -46.8 23.3 -0.3 23.2 -0.2 0 23.5 0 23.5 22.5 0 22.5 0 0 23 0 23 -22.5 0 -22.5 0 0 23.5 0 23.5 -46.5 0 -46.5 0 0 -23z"/>
  <path d="M2.5 2029.4 c-0.6 -0.2 -0.9 -8.6 -0.7 -22.9 l0.3 -22.5 22.9 0 23 0 0 23 0 23 -22.2 -0.1 c-12.3 0 -22.7 -0.2 -23.3 -0.5z"/>
  <path d="M1512 1983.5 l0 -46.5 23 0 23 0 0 46.5 0 46.5 -23 0 -23 0 0 -46.5z"/>
  <path d="M2 1912.5 l0 -23.5 23 0 23 0 0 23.5 0 23.5 -23 0 -23 0 0 -23.5z"/>
  <path d="M1229.2 1912.8 l0.3 -23.3 22.2 -0.3 22.2 -0.2 0.3 23.5 0.3 23.5 -22.8 0 -22.7 0 0.2 -23.2z"/>
  <path d="M1796 1912.5 l0 -23.5 22.3 0.2 22.2 0.3 0.3 23.3 0.2 23.2 -22.5 0 -22.5 0 0 -23.5z"/>
  <path d="M2315 1912.5 l0 -23.5 45.8 0.2 45.7 0.3 0.3 23.3 0.2 23.2 -46 0 -46 0 0 -23.5z"/>
  <path d="M285.7 1888.3 c-0.4 -0.3 -0.7 -10.7 -0.7 -23 l0 -22.3 46.5 0 46.5 0 0 23 0 23 -45.8 0 c-25.2 0 -46.2 -0.3 -46.5 -0.7z"/>
  <path d="M568 1866 l0 -23 23.5 0 23.5 0 -0.2 22.8 -0.3 22.7 -23.2 0.3 -23.3 0.2 0 -23z"/>
  <path d="M709.4 1887.7 c-0.2 -0.7 -0.3 -10.9 -0.2 -22.7 l0.3 -21.5 23.3 -0.3 23.2 -0.2 0 23 0 23 -23 0 c-17.8 0 -23.2 -0.3 -23.6 -1.3z"/>
  <path d="M1087 1866 l0 -23 23.5 0 23.5 0 -0.2 22.8 -0.3 22.7 -23.2 0.3 -23.3 0.2 0 -23z"/>
  <path d="M1275.8 1865.8 l-0.3 -23.3 -70.2 -0.3 -70.3 -0.2 0 -23 0 -23 47 0 47 0 0 -24 0 -24 23.3 -0.2 23.2 -0.3 0.3 -23.2 0.2 -23.3 23.3 -0.2 23.2 -0.3 0.3 -47.2 0.2 -47.3 -47 0 -47 0 0 -47 0 -47 23.3 -0.2 23.2 -0.3 0.3 -70.7 0.2 -70.8 -47.5 0 -47.5 0 0 24 0 24 23.5 0 23.5 0 0 46.5 0 46.5 -47 0 -47 0 0 -70.5 0 -70.5 -46.7 -0.2 -46.8 -0.3 -0.2 -22.5 c-0.1 -12.4 -0.3 -23.1 -0.3 -23.7 0 -1 -5.4 -1.3 -23.5 -1.3 l-23.5 0 -0.2 -23.7 -0.3 -23.8 -23.2 -0.3 -23.3 -0.2 0 -22.5 0 -22.5 47 0 47 0 0 -46.5 c0 -25.6 0.1 -46.8 0.3 -47.2 0.1 -0.5 -10.5 -0.9 -23.6 -1.1 l-23.7 -0.2 0.2 -23.3 0.3 -23.2 46.3 -0.3 46.2 -0.2 0 23.5 0 23.5 24 0 24 0 0 -23.5 0 -23.5 23.5 0 23.5 0 0 23.5 0 23.5 47.5 0 47.5 0 0 -23.5 0 -23.5 23 0 23 0 0 23.5 0 23.5 24 0 24 0 0 24 0 24 24 0 24 0 0 -48 0 -48 -23.7 -0.2 -23.8 -0.3 0 -22.5 0 -22.5 23.8 -0.3 23.7 -0.2 0 -23.5 0 -23.5 23 0 23 0 0 47 0 47 23.5 0 23.5 0 0 23.5 0 23.5 -23.5 0 -23.5 0 0 46.5 c0 25.6 -0.1 46.8 -0.2 47.3 -0.2 0.4 10.3 0.9 23.2 1.2 l23.5 0.5 0.3 46.3 0.2 46.2 -23.5 0 -23.5 0 0 -23.5 0 -23.5 -23.2 0.2 -23.3 0.3 -0.3 23.3 -0.2 23.2 -23.5 0 -23.5 0 0 48 0 48 23.5 0 23.5 0 0 23 0 23 -47.5 0 -47.5 0 0.2 23.8 0.3 23.7 23.8 0.3 23.7 0.2 0 23.5 0 23.5 45.4 0 c25 0 46.1 0.3 47 0.6 1.4 0.5 1.6 3.6 1.6 23.5 l0 22.9 -47 0 -47 0 -0.2 70.3 -0.3 70.2 -23.5 0.5 -23.5 0.5 0 24 0 24 23.7 0.3 23.8 0.2 0.2 -23.7 0.3 -23.8 23.2 -0.3 23.3 -0.2 0.2 23.7 0.3 23.8 23.3 0.3 23.2 0.2 0 23 0 23 -47 0 -47 0 -0.2 23.3 -0.3 23.2 -46.7 0.3 -46.8 0.2 -0.2 -23.2z m-141.8 -613.8 l0 -71 -24 0 -24 0 0 71 0 71 24 0 24 0 0 -71z m189.4 69.4 c0.8 -2.1 0.8 -57.6 -0.1 -103.7 l-0.6 -36.7 -70.6 0.2 -70.6 0.3 -0.3 70.8 -0.2 70.7 70.9 0 c63.7 0 70.9 -0.2 71.5 -1.6z"/>
  <path d="M1229.2 1251.8 l0.3 -22.3 22.3 -0.3 22.2 -0.2 0 22.5 0 22.5 -22.5 0 -22.5 0 0.2 -22.2z"/>
  <path d="M1936.8 1865.8 l-0.3 -23.3 -70.2 -0.3 -70.3 -0.2 -0.2 -23.3 -0.3 -23.2 -47.7 -0.3 -47.8 -0.2 0 23.5 0 23.5 -46.5 0 -46.5 0 0 -23 0 -23 23 0 23 0 0 -24 0 -24 23.8 -0.2 23.7 -0.3 0 -23.5 0 -23.5 -46.5 -0.5 -46.5 -0.5 -0.3 -22.7 -0.2 -22.8 46.7 -0.2 46.8 -0.3 0.3 -23.2 0.2 -23.3 23 0 23 0 0.2 46.8 0.3 46.7 47 0 47 0 0.5 -46.5 0.5 -46.5 23.3 -0.3 23.2 -0.2 0 23.5 0 23.5 23.5 0 23.5 0 -0.2 22.8 -0.3 22.7 -23.2 0.3 -23.3 0.2 0 48 0 48 47.5 0 47.5 0 -0.2 46.3 -0.3 46.2 -23.2 0.3 -23.3 0.2 -0.2 -23.2z"/>
  <path d="M2031 1842.5 l0 -46.5 23.5 0 23.5 0 -0.2 -24.2 -0.3 -24.3 -23.2 -0.3 -23.3 -0.2 0 -23 0 -23 23.5 0 23.5 0 0 -23 0 -23 47 0 47 0 0 22.4 c0 19.5 0.2 22.5 1.6 23 0.9 0.3 11.4 0.6 23.5 0.6 l21.9 0 -0.2 22.8 -0.3 22.7 -23 0.5 -23 0.5 -0.3 23.8 -0.2 23.7 -23.5 0 -23.5 0 -0.2 46.8 -0.3 46.7 -46.7 0.3 -46.8 0.2 0 -46.5z"/>
  <path d="M2266.8 1865.8 l-0.3 -23.3 -46.5 -0.5 -46.5 -0.5 -0.3 -22.7 -0.2 -22.8 23 0 23 0 0.2 -23.7 0.3 -23.8 23.2 -0.3 23.3 -0.2 0.2 23.7 0.3 23.8 23.8 0.3 23.7 0.2 -0.2 46.3 -0.3 46.2 -23.2 0.3 -23.3 0.2 -0.2 -23.2z"/>
  <path d="M2408.7 1888.3 c-0.4 -0.3 -0.7 -21.3 -0.7 -46.5 l0 -45.8 46 0 46 0 0 46.5 0 46.5 -45.3 0 c-25 0 -45.7 -0.3 -46 -0.7z"/>
  <path d="M1.5 1819 l0 -23 23.3 0 23.2 0 0 23 0 23 -23.2 0 -23.3 0 0 -23z"/>
  <path d="M379 1819 l0 -23 23.3 0.2 23.2 0.3 0 22.5 0 22.5 -23.2 0.3 -23.3 0.2 0 -23z"/>
  <path d="M520 1819 l0 -23 23.5 0 23.5 0 0 23 0 23 -23.5 0 -23.5 0 0 -23z"/>
  <path d="M615 1819 l0 -23 23 0 23 0 0 23 0 23 -23 0 -23 0 0 -23z"/>
  <path d="M757 1819 l0 -23 23 0 23 0 0 23 0 23 -23 0 -23 0 0 -23z"/>
  <path d="M1512 1795 l0 -47 23 0 23 0 0 47 0 47 -23 0 -23 0 0 -47z"/>
  <path d="M285.6 1793.4 c-0.3 -0.8 -0.6 -11.4 -0.6 -23.5 l0 -21.9 23 0 23 0 -0.2 23.3 -0.3 23.2 -22.1 0.3 c-19.6 0.2 -22.2 0 -22.8 -1.4z"/>
  <path d="M568 1747.5 l0 -47.5 -23.7 -0.2 -23.8 -0.3 0 -22.5 0 -22.5 68 -0.3 c37.4 -0.1 69 0 70.2 0.3 2.2 0.5 2.3 0.7 2.5 23.3 l0.3 22.7 47.3 0.3 47.2 0.2 0 23 0 23 -23.7 0.2 -23.8 0.3 -0.3 23.8 -0.2 23.7 -23 0 -23 0 -0.2 -23.7 -0.3 -23.8 -23.2 -0.3 -23.3 -0.2 -0.2 23.7 -0.3 23.8 -23.2 0.3 -23.3 0.2 0 -47.5z"/>
  <path d="M2314.8 1771.3 l-0.3 -23.8 -23.7 -0.3 -23.8 -0.2 0 -23.5 0 -23.5 -23.7 -0.2 -23.8 -0.3 0 -22.5 0 -22.5 23.8 -0.3 23.7 -0.2 0 -24 0 -24 -23.7 -0.2 -23.8 -0.3 0 -23 0 -23 22.5 -0.2 c12.4 -0.1 23.1 -0.3 23.8 -0.3 0.9 0 1.2 -5.4 1.2 -23.5 l0 -23.5 70.5 0 70.5 0 0 -24 0 -24 -23 0 -23 0 0 -23 0 -23 46.8 -0.2 46.7 -0.3 0.3 -47.2 0.2 -47.3 22 0 22 0 0 70.5 0 70.5 -22.5 0 -22.5 0 0 47 0 47 -70.2 0.2 -70.3 0.3 0 24 0 24 23.3 0.3 23.2 0.2 0 23.5 0 23.5 -23.5 0 -23.5 0 0.2 23.3 0.3 23.2 23.3 0.3 23.2 0.2 0 23.5 0 23.5 23 0 23 0 0 23.5 0 23.5 -46 0 -46 0 -0.2 -23.7z"/>
  <path d="M118.8 1747.2 l-21.8 -0.2 0 -23 0 -23 22.5 0 22.5 0 0 22.9 c0 12.7 -0.3 23.1 -0.7 23.3 -0.5 0.2 -10.6 0.2 -22.5 0z"/>
  <path d="M190.2 1677.3 l0.3 -69.8 23.3 -0.3 23.2 -0.2 0 23.5 0 23.5 47.5 0 47.5 0 0 -23.5 0 -23.5 23 0 23 0 0 23.5 0 23.5 47.3 0.2 47.2 0.3 0.3 22.7 0.2 22.8 -47.2 0.2 -47.3 0.3 -0.3 23.3 -0.2 23.2 -23 0 -23 0 -0.2 -23.2 -0.3 -23.3 -23.2 -0.3 -23.3 -0.2 0 23.5 0 23.5 -47.5 0 -47.5 0 0.2 -69.7z"/>
  <path d="M1182 1724 l0 -23 23 0 23 0 0 23 0 23 -23 0 -23 0 0 -23z"/>
  <path d="M1418 1724 l0 -23 46.5 0 46.5 0 0 23 0 23 -46.5 0 -46.5 0 0 -23z"/>
  <path d="M1559 1724 l0 -23 23.5 0 23.5 0 0 23 0 23 -23.5 0 -23.5 0 0 -23z"/>
  <path d="M2408 1677 l0 -70 23.5 0 23.5 0 0 23.5 0 23.5 22.5 0 22.5 0 0 46.5 0 46.5 -46 0 -46 0 0 -70z"/>
  <path d="M2.7 1699.3 c-0.4 -0.3 -0.7 -10.7 -0.7 -23 l0 -22.3 45.8 0 c25.1 0 46.3 0.4 47 0.8 0.9 0.7 1.2 5.9 1 22.8 l-0.3 21.9 -46.1 0.3 c-25.3 0.1 -46.4 -0.1 -46.7 -0.5z"/>
  <path d="M898.7 1699.4 c-0.4 -0.4 -0.7 -10.8 -0.7 -23.1 l0 -22.3 22.3 0 c12.2 0 22.8 0.4 23.5 0.8 0.9 0.7 1.2 5.9 1 22.8 l-0.3 21.9 -22.6 0.3 c-12.4 0.1 -22.8 -0.1 -23.2 -0.4z"/>
  <path d="M1229 1677.5 l0 -22.5 22.5 0 22.4 0 0.3 22.5 0.3 22.5 -22.7 0 -22.8 0 0 -22.5z"/>
  <path d="M96.8 1606.3 l-0.3 -47.8 -23.7 -0.3 -23.8 -0.2 0 -23.5 0 -23.5 -23.5 0 -23.5 0 0 -46.5 0 -46.5 47.3 -0.2 47.2 -0.3 0.3 -23.8 0.2 -23.7 22.3 0.2 22.2 0.3 0.5 23.5 0.5 23.5 23.5 0.5 23.5 0.5 0.2 22.4 c0.1 12.3 0.4 22.5 0.6 22.7 0.2 0.2 21.4 0.4 47.3 0.4 l46.9 0.1 0.3 -23.1 0.2 -23 23 0 23 0 0 46.5 0 46.5 -23 0 -23 0 0 47.5 0 47.5 -23.5 0 -23.5 0 -0.2 -23.7 -0.3 -23.8 -23.7 -0.3 -23.8 -0.2 0 -23.5 0 -23.5 -23.7 0.2 -23.8 0.3 -0.3 23.8 -0.2 23.7 22.7 0 c12.6 0 23.4 0.4 24.1 0.8 0.9 0.7 1.2 6 1 23.3 l-0.3 22.4 -23.5 0.5 -23.5 0.5 -0.3 23.8 -0.2 23.7 -22.5 0 -22.5 0 -0.2 -47.7z"/>
  <path d="M474.7 1653.4 c-0.4 -0.4 -0.7 -32.4 -0.7 -71.1 l0 -70.3 23 0 23 0 -0.2 70.8 -0.3 70.7 -22.1 0.3 c-12.1 0.1 -22.3 -0.1 -22.7 -0.4z"/>
  <path d="M662 1630.5 l0 -23.5 47 0 47 0 -0.2 23.3 -0.3 23.2 -46.7 0.3 -46.8 0.2 0 -23.5z"/>
  <path d="M850.6 1653.3 c-0.4 -0.4 -0.6 -10.6 -0.6 -22.7 0 -12.2 0.1 -22.7 0 -23.3 0 -1 -10 -1.3 -46.5 -1.3 l-46.5 0 0.2 -23.2 0.3 -23.3 69.5 0 69.5 0 0.3 47.3 0.2 47.2 -22.8 0 c-12.6 0 -23.2 -0.3 -23.6 -0.7z"/>
  <path d="M1087.7 1653.4 c-0.4 -0.4 -0.7 -11 -0.7 -23.6 l0 -22.8 23.5 0 23.5 0 -0.2 23.3 -0.3 23.2 -22.6 0.3 c-12.4 0.1 -22.8 -0.1 -23.2 -0.4z"/>
  <path d="M1182 1630.5 l0 -23.5 23 0 23 0 0 23.5 0 23.5 -23 0 -23 0 0 -23.5z"/>
  <path d="M1464.7 1653.4 c-0.4 -0.4 -0.7 -11 -0.7 -23.6 l0 -22.8 23.5 0 23.5 0 -0.2 23.3 -0.3 23.2 -22.6 0.3 c-12.4 0.1 -22.8 -0.1 -23.2 -0.4z"/>
  <path d="M2173.7 1653.4 c-0.4 -0.4 -0.7 -11 -0.7 -23.6 l0 -22.8 23 0 23 0 -0.2 23.3 -0.3 23.2 -22.1 0.3 c-12.1 0.1 -22.3 -0.1 -22.7 -0.4z"/>
  <path d="M379.4 1604.7 c-0.2 -0.7 -0.3 -11.1 -0.2 -23.2 l0.3 -22 22.4 -0.3 c17.3 -0.2 22.6 0.1 23.3 1 0.4 0.7 0.8 11.3 0.8 23.6 l0 22.2 -23 0 c-17.8 0 -23.2 -0.3 -23.6 -1.3z"/>
  <path d="M568 1559 l0 -47 23.5 0 23.5 0 0 47 0 47 -23.5 0 -23.5 0 0 -47z"/>
  <path d="M946 1559 l0 -47 23 0 23 0 0 47 0 47 -23 0 -23 0 0 -47z"/>
  <path d="M1134.4 1602.9 c0.3 -1.7 0.6 -12.3 0.6 -23.5 l0 -20.4 22.8 0.2 22.7 0.3 0.3 23.3 0.2 23.2 -23.6 0 -23.6 0 0.6 -3.1z"/>
  <path d="M1512 1582.5 l0 -23.6 23.3 0.1 23.2 0.1 0.3 -23.5 0.2 -23.6 23.5 0 23.5 0 0 23.5 0 23.5 22.5 0 c12.4 0 22.8 0.1 23.3 0.3 0.4 0.1 0.9 -10.4 1.2 -23.3 l0.5 -23.5 46.8 -0.3 46.7 -0.2 0 23 0 23 -23.2 0.2 -23.3 0.3 -0.3 23.8 -0.2 23.7 -94 0 -94 0 0 -23.5z"/>
  <path d="M1984.2 1582.8 l0.3 -23.3 46.5 -0.2 46.5 -0.2 0.3 -23.6 0.2 -23.5 23.5 0 23.5 0 0 23.5 0 23.5 23.3 0.2 23.2 0.3 0.3 23.3 0.2 23.2 -94 0 -94 0 0.2 -23.2z"/>
  <path d="M2456.2 1582.8 l0.3 -23.3 21.8 -0.3 21.7 -0.2 0 23.5 0 23.5 -22 0 -22 0 0.2 -23.2z"/>
  <path d="M332 1535 l0 -23 23 0 23 0 0 23 0 23 -23 0 -23 0 0 -23z"/>
  <path d="M662 1488 l0 -70 23 0 23 0 0.2 46.8 0.3 46.7 23.8 0.3 23.7 0.2 0 23 0 23 -47 0 -47 0 0 -70z"/>
  <path d="M1087 1535 l0 -23 23.5 0 23.5 0 0 23 0 23 -23.5 0 -23.5 0 0 -23z"/>
  <path d="M1464 1535 l0 -23 23.5 0 23.5 0 0 23 0 23 -23.5 0 -23.5 0 0 -23z"/>
  <path d="M1842 1535 l0 -23 23.5 0 23.5 0 0 23 0 23 -23.5 0 -23.5 0 0 -23z"/>
  <path d="M1936.8 1534.8 l-0.3 -23.3 -23.5 -0.5 -23.5 -0.5 0 -46 0 -46 23.3 -0.3 23.2 -0.2 0 23 0 23 23.8 0.2 23.7 0.3 0.3 46.8 0.2 46.7 -23.5 0 -23.5 0 -0.2 -23.2z"/>
  <path d="M2173.7 1557.3 c-0.4 -0.3 -0.7 -10.7 -0.7 -23 l0 -22.3 23 0 23 0 0 23 0 23 -22.3 0 c-12.3 0 -22.7 -0.3 -23 -0.7z"/>
  <path d="M804 1487.5 l0 -23.5 -23.5 0 -23.5 0 0 -47 0 -47 22.8 0.2 22.7 0.3 0.5 23.5 0.5 23.5 23.3 0.3 23.2 0.2 0 46.5 0 46.5 -23 0 -23 0 0 -23.5z"/>
  <path d="M1418 1487.5 l0 -23.5 22.8 0.2 22.7 0.3 0.3 23.3 0.2 23.2 -23 0 -23 0 0 -23.5z"/>
  <path d="M1512 1440.5 l0 -70.6 23.3 0.1 23.2 0.1 0.5 -23.3 0.5 -23.3 23.5 -0.5 23.5 -0.5 0.3 -23.2 0.2 -23.3 22.5 0 22.5 0 0.2 23.3 0.3 23.2 23.8 0.3 23.7 0.2 0 23.5 0 23.5 -47 0 -47 0 0 24 0 24 70.5 0 70.5 0 0 23 0 23 -94.2 0.2 -94.3 0.3 -0.3 23.3 -0.2 23.2 -23 0 -23 0 0 -70.5z"/>
  <path d="M1748.7 1510.3 c-0.4 -0.3 -0.7 -10.9 -0.7 -23.5 l0 -22.8 24 0 24 0 0 -23 0 -23 22.5 0 22.5 0 0 46.5 0 46.5 -45.8 0 c-25.2 0 -46.2 -0.3 -46.5 -0.7z"/>
  <path d="M2031 1440.5 l0 -70.5 -23.5 0 -23.5 0 0 -24 0 -24 -23.5 0 -23.5 0 0 -23 0 -23 46.8 -0.2 46.7 -0.3 0.3 -23.2 0.2 -23.3 23.5 0 23.5 0 0 -47.5 0 -47.5 -23.5 0 -23.5 0 0 -23.5 0 -23.5 47 0 47 0 0 23.5 0 23.5 141 0 141 0 0 23.5 0 23.5 -22.7 0.2 -22.8 0.3 -0.3 46.8 -0.2 46.7 -23.5 0 -23.5 0 0 24 0 24 24 0 24 0 0 -23.5 0 -23.5 23 0 23 0 0.2 -23.2 0.3 -23.3 45.8 -0.3 45.7 -0.2 0 23 0 23 -22.5 0 -22.5 0 0 23.5 0 23.5 -23.7 0.2 -23.8 0.3 -0.3 23.8 -0.2 23.7 -70.5 0 -70.5 0 0 70.5 0 70.5 -23.5 0 -23.5 0 0 -23.5 0 -23.5 -22.4 0 c-19.5 0 -22.5 -0.2 -23 -1.6 -0.3 -0.9 -0.6 -11.2 -0.6 -23 l0 -21.4 23 0 23 0 0 -24 0 -24 -47 0 -47 0 -0.2 46.8 -0.3 46.7 -23.5 0.5 -23.5 0.5 -0.3 23.3 -0.2 23.2 -23 0 -23 0 0 -70.5z m236 -188.5 l0 -71 -71 0 -71 0 0 71 0 71 71 0 71 0 0 -71z"/>
  <path d="M2195.5 1274 l-22 -0.5 0 -22 0 -22 22.8 -0.3 22.7 -0.2 0 23 c0 12.6 -0.3 22.9 -0.7 22.8 -0.5 -0.1 -10.7 -0.5 -22.8 -0.8z"/>
  <path d="M2126 1487.5 l0 -23.5 22.8 0.2 22.7 0.3 0.3 23.3 0.2 23.2 -23 0 -23 0 0 -23.5z"/>
  <path d="M379.7 1463.3 c-0.4 -0.3 -0.7 -10.7 -0.7 -23 l0 -22.3 23.5 0 23.5 0 0 21.4 c0 11.8 -0.3 22.1 -0.6 23 -0.5 1.4 -3.5 1.6 -22.8 1.6 -12.3 0 -22.6 -0.3 -22.9 -0.7z"/>
  <path d="M520.7 1463.3 c-0.4 -0.3 -0.7 -10.9 -0.7 -23.5 l0 -22.8 -23 0 -23 0 0.2 -23.2 0.3 -23.3 46 0 46 0 0.3 23.8 0.2 23.7 24 0 24 0 -0.2 22.8 -0.3 22.7 -46.6 0.3 c-25.6 0.1 -46.9 -0.1 -47.2 -0.5z"/>
  <path d="M898 1393.5 l0 -70.5 23.3 0.2 23.2 0.3 0.3 23.2 0.2 23.3 23.3 0.2 23.2 0.3 0.3 46.8 0.2 46.7 -47 0 -47 0 0 -70.5z"/>
  <path d="M1040.4 1462.7 c-0.2 -0.7 -0.3 -10.9 -0.2 -22.7 l0.3 -21.5 22.8 -0.3 22.7 -0.2 0 23 0 23 -22.5 0 c-17.4 0 -22.7 -0.3 -23.1 -1.3z"/>
  <path d="M1418 1370 l0 -47 21.4 0 c11.8 0 22.1 0.3 23 0.6 1.4 0.5 1.6 5.6 1.6 47 l0 46.4 -23 0 -23 0 0 -47z"/>
  <path d="M190.6 1369.3 c-0.4 -0.4 -0.6 -10.6 -0.6 -22.7 0 -12.2 0.1 -22.7 0 -23.3 0 -1 -5.4 -1.3 -23.5 -1.3 l-23.5 0 -0.2 -23.7 -0.3 -23.8 -22.7 -0.3 -22.8 -0.2 0 -22.5 0 -22.5 46.5 0 46.5 0 0 -24 0 -24 -47 0 -47 0 0 23.5 0 23.5 -23.5 0 -23.5 0 0 -23.5 0 -23.5 -22.4 0 c-12.3 0 -23 -0.2 -23.8 -0.5 -1 -0.4 -1.2 -5.1 -1 -23.5 l0.3 -23 47.5 0 47.4 0 -0.2 -23.7 -0.3 -23.8 -23.8 -0.3 -23.7 -0.2 0.2 -22.8 0.3 -22.7 46 0 46 0 0.3 46.8 0.2 46.7 48 0 48 0 0 -23.5 0 -23.5 46.5 0 46.5 0 0 23.5 0 23.5 24 0 24 0 0 -23.5 0 -23.5 23.5 0 23.5 0 0 71 0 71 47 0 47 0 0 23 0 23 -23.5 0 -23.5 0 0 47.5 0 47.5 -140.8 0 c-77.5 0 -141.2 -0.3 -141.6 -0.7z m188.4 -117.3 l0 -71 -71 0 -71 0 0 71 0 71 71 0 71 0 0 -71z"/>
  <path d="M285.5 1272.8 c-0.3 -1.3 -0.4 -11.5 -0.3 -22.8 l0.3 -20.5 22.5 0 22.5 0 0.3 22.8 0.2 22.7 -22.5 0 -22.5 0 -0.5 -2.2z"/>
  <path d="M615.7 1369.3 c-0.4 -0.3 -0.7 -21.7 -0.7 -47.5 l0 -46.8 -23.5 0 -23.5 0 0 -23 0 -23 23.5 0 23.5 0 0 -24 0 -24 -23.5 0 -23.5 0 0 -47 0 -47 23.5 0 23.5 0 0 23.5 0 23.5 21.4 0 c11.8 0 22.1 0.3 23 0.6 1.4 0.5 1.6 5.7 1.6 47.5 l0 46.9 23.5 0 23.5 0 0 46.5 0 46.5 -23.2 0.2 -23.3 0.3 -0.3 23.8 -0.2 23.7 -22.4 0 c-12.2 0 -22.6 -0.3 -22.9 -0.7z"/>
  <path d="M709.7 1369.3 c-0.4 -0.3 -0.7 -10.7 -0.7 -22.9 l0 -22.3 23.5 -0.3 23.5 -0.3 0 23.3 0 23.2 -22.8 0 c-12.6 0 -23.2 -0.3 -23.5 -0.7z"/>
  <path d="M803.8 1299.3 l-0.3 -70.8 -23.2 -0.3 -23.3 -0.2 0 -70.5 0 -70.5 93.8 0.2 93.7 0.3 0 23 0 23 -23.7 0.3 -23.8 0.2 -0.2 23.3 -0.3 23.2 -21 0.3 c-11.5 0.1 -22 0 -23.3 -0.3 l-2.3 -0.6 0.1 -22.7 0.1 -22.7 -23.5 -0.3 -23.6 -0.2 0.2 23.7 0.3 23.8 23.3 0.3 23.2 0.2 0 94 0 94 -23 0 -23 0 -0.2 -70.7z"/>
  <path d="M1796 1346.5 l0 -23.5 23 0 23 0 0 -23.5 0 -23.5 23.5 0 23.5 0 0 23.5 0 23.5 23.5 0 23.5 0 -0.2 23.3 -0.3 23.2 -69.7 0.3 -69.8 0.2 0 -23.5z"/>
  <path d="M520 1299 l0 -23 23.5 0 23.5 0 0 23 0 23 -23.5 0 -23.5 0 0 -23z"/>
  <path d="M1.9 1274.6 c-0.2 -0.2 -0.3 -10.6 -0.1 -23 l0.3 -22.6 22.9 0 23 0 0 23 0 23 -22.8 0 c-12.6 0 -23.1 -0.2 -23.3 -0.4z"/>
  <path d="M1701 1252 l0 -23 23.5 0 23.5 0 0 -23.5 0 -23.5 23.5 0 23.6 0 -0.1 23.3 -0.1 23.2 23 0.3 23.1 0.2 -0.2 22.8 -0.3 22.7 -69.7 0.3 -69.8 0.2 0 -23z"/>
  <path d="M520 1205 l0 -23 23.5 0 23.5 0 0 23 0 23 -23.5 0 -23.5 0 0 -23z"/>
  <path d="M898 1205 l0 -23 23.5 0 23.5 0 0 23 0 23 -23.5 0 -23.5 0 0 -23z"/>
  <path d="M1512 1205 l0 -23 23.5 0 23.5 0 0.2 -23.7 0.3 -23.8 23.3 -0.3 23.2 -0.2 0 24 0 24 23.5 0 23.5 0 0 -24 0 -24 -23 0 -23 0 0 -23.5 0 -23.5 46.8 -0.2 46.7 -0.3 0 -47 0 -47 -23.7 -0.3 -23.8 -0.2 0 -23.5 0 -23.5 -22.7 -0.2 -22.8 -0.3 -0.5 -23.5 -0.5 -23.5 -71.2 -0.3 -71.3 -0.2 -0.2 23.7 -0.3 23.8 -22.5 0 -22.5 0 -0.5 -23.5 -0.5 -23.5 -23.5 -0.5 -23.5 -0.5 -0.3 -22.7 -0.2 -22.8 -23.3 0 -23.2 0 0.3 -23 0.3 -23 46.4 0 46.5 0 0.2 23.3 0.3 23.2 47 0 47 0 0.3 -23.5 0.2 -23.5 23 0.3 23 0.3 0 22.8 c0 19.9 0.2 23 1.6 23.5 0.9 0.3 22.2 0.6 47.5 0.6 l45.9 0 0 -48 0 -48 -23 0 -23 0 0 -46.5 0 -46.5 23 0 23 0 0.2 -23.7 0.3 -23.8 23 0 23 0 0.5 118 0.5 118 23.3 0.3 23.2 0.2 0 22.5 0 22.5 -23.5 0 -23.5 0 0.2 24.3 0.3 24.2 23.2 0.3 23.3 0.2 0.2 23.3 0.3 23.2 23.5 0.5 23.5 0.5 0 23 0 23 -23.5 0.5 -23.5 0.5 -0.3 46.8 -0.2 46.7 -23.5 0 -23.5 0 0 47 0 47 -94 0 -94 0 0 -23z"/>
  <path d="M1841.8 1204.8 l-0.3 -23.3 -22.7 -0.3 -22.8 -0.2 0 -47 0 -47 22.5 0 22.5 0 0 23.5 0 23.5 24 0 24 0 0.2 -23.2 0.3 -23.3 47.3 -0.3 47.2 -0.2 -0.2 23.2 -0.3 23.3 -23.8 0.3 -23.7 0.2 0.2 23.8 0.3 23.7 46.8 0.3 46.7 0.2 0 23 0 23 -94 0 -94 0 -0.2 -23.2z"/>
  <path d="M474.6 1179.4 c-0.3 -0.9 -0.6 -22.2 -0.6 -47.5 l0 -45.9 -23.5 0 -23.5 0 0 -23 0 -23 -23.7 -0.2 -23.8 -0.3 -0.3 -23.2 -0.2 -23.3 23.7 -0.2 23.8 -0.3 0.3 -47.2 0.2 -47.3 23 0 23 0 0.2 23.8 0.3 23.7 23 0.5 23 0.5 0.3 22.7 0.2 22.8 -23.2 0.2 -23.3 0.3 -0.3 23.8 -0.2 23.7 22.3 0 c16 0 22.6 0.3 23.5 1.2 0.9 0.9 1.2 17.9 1.2 70.5 l0 69.3 -22.4 0 c-19.5 0 -22.5 -0.2 -23 -1.6z"/>
  <path d="M946 1158 l0 -22.9 23 -0.3 23 -0.3 0 23.3 0 23.2 -23 0 -23 0 0 -23z"/>
  <path d="M2456 1110.5 l0 -23.5 22 0 22 0 0 23.5 0 23.5 -22 0 -22 0 0 -23.5z"/>
  <path d="M190.6 1085.3 c-0.3 -0.4 -0.6 -21 -0.6 -45.7 0 -24.8 0 -45.7 0 -46.3 0 -1 -5.4 -1.3 -23.5 -1.3 l-23.5 0 0 -23.5 0 -23.5 -23 0 -23 0 0 -23.5 0 -23.5 23 0 23 0 0 -23.5 0 -23.5 -46.7 -0.2 -46.8 -0.3 -0.3 -23.2 -0.2 -23.3 47 0 47 0 0 -24 0 -24 -23 0 -23 0 -0.2 -23.7 -0.3 -23.8 -23.4 -0.3 c-18.1 -0.2 -23.6 0.1 -24.3 1 -0.4 0.7 -0.8 22.1 -0.8 47.6 l0 46.2 -23.2 0 -23.3 0 0.2 -93.7 0.3 -93.8 23 -0.3 23 -0.2 0.2 23.7 0.3 23.8 46.8 0.3 46.7 0.2 0 23 0 23 23.8 0.2 23.7 0.3 0.2 70.3 c0.2 38.7 0.5 70.7 0.8 71.3 0.4 0.5 10.4 0.9 23.6 0.9 l22.9 0 0 22.5 0 22.5 -23.5 0 -23.4 0 -0.3 23.6 c-0.2 16.6 0 23.9 0.8 24.5 0.7 0.5 10.9 0.8 24 0.7 l22.9 -0.3 0.3 -23.7 0.2 -23.8 23.5 0 23.5 0 -0.2 70.8 -0.3 70.7 -23.7 0.3 -23.8 0.2 0 23 0 23 -22.8 0 c-12.6 0 -23.2 -0.3 -23.6 -0.7z"/>
  <path d="M615.2 1063.3 l0.3 -22.8 22 -0.2 c12.1 -0.1 22.6 -0.3 23.3 -0.3 1 0 1.2 -5.1 1 -23.7 l-0.3 -23.8 -46.7 -0.3 -46.8 -0.2 0 -47 0 -47 23.5 0 23.5 0 0 24 0 24 23.3 -0.2 23.2 -0.3 0 -24 0 -24 -23.2 -0.3 -23.3 -0.2 0 -23 0 -23 -23.2 -0.2 -23.3 -0.3 -0.3 -23.2 -0.2 -23.3 45.2 0 c24.9 0 45.9 0.4 46.5 0.8 0.9 0.6 1.3 6.9 1.5 23.7 l0.3 23 23.2 0.3 23.3 0.2 0.2 46.8 0.3 46.7 47.2 0.3 47.3 0.2 0.2 23.3 0.3 23.2 46.8 0.3 46.7 0.2 0 23.5 0 23.5 -94.2 0.2 -94.3 0.3 -0.3 22.8 -0.2 22.7 -46.5 0 -46.5 0 0.2 -22.7z"/>
  <path d="M945.8 1039.3 l-0.3 -46.8 -23.7 -0.3 -23.8 -0.2 0 -23.5 0 -23.5 -23.7 -0.2 -23.8 -0.3 0 -23 0 -23 23.8 -0.3 23.7 -0.2 0 -71 0 -71 -23.7 -0.2 -23.8 -0.3 -0.2 -70 -0.3 -70 -23.2 0 -23.3 0 -0.3 46.2 -0.2 46.3 -23.3 0.2 -23.2 0.3 -0.3 23.8 -0.2 23.7 -23.3 -0.2 -23.2 -0.3 0 -46 0 -46 23.5 -0.5 23.5 -0.5 0.3 -23.7 0.2 -23.8 -47.5 0 -47.5 0 0 -23.5 0 -23.5 23.5 0 23.5 0 0.2 -23.7 0.3 -23.8 23 0 23 0 0.3 23.8 0.2 23.7 24 0 24 0 0 -24 0 -24 -23.5 0 -23.5 0 -0.2 -23.2 -0.3 -23.3 -24 0 -24 0 -0.5 23 -0.5 23 -93.7 0.3 -93.8 0.2 0 24 0 24 23.5 0 23.5 0 0 23.5 0 23.5 -23.5 0 -23.5 0 0 23.5 0 23.5 -23.2 0.2 -23.3 0.3 0 47 0 47 23.3 0.3 23.2 0.2 0 23 0 23 -23.2 0.2 -23.3 0.3 -0.3 23.8 -0.2 23.7 -23 0 -23 0 -0.2 -71.2 -0.3 -71.3 -70.5 -0.5 -70.5 -0.5 -0.3 -69.7 -0.2 -69.8 23.2 -0.2 23.3 -0.3 0.3 -23.7 0.2 -23.8 -23.5 0 -23.5 0 0 23.5 0 23.5 -23.5 0 -23.5 0 0 -23.5 0 -23.5 -47.5 0 -47.5 0 0 -23 0 -23 71 0 71 0 0 -23.5 0 -23.5 23 0 23 0 0 23.5 0 23.5 23.3 0.2 23.2 0.3 0.3 22.7 0.2 22.8 23.8 0.2 23.7 0.3 0.3 45 c0.1 24.8 0 46 -0.3 47.3 l-0.5 2.2 -47 0 -47 0 0 24 0 24 47.8 -0.2 47.7 -0.3 0.3 -23.7 0.2 -23.8 23.8 -0.2 c13 -0.2 23.6 -0.6 23.5 -1 -0.2 -0.5 -0.3 -21.7 -0.3 -47.3 l0 -46.5 -23.2 -0.2 -23.3 -0.3 -0.5 -23 -0.5 -23 -23.7 -0.3 -23.8 -0.2 0 -23 0 -23 23.8 -0.2 23.7 -0.3 0 -24 0 -24 -23.7 -0.3 -23.8 -0.2 0 -46.5 0 -46.5 22.3 0 c12.2 0 22.8 0.4 23.4 0.8 0.9 0.6 1.3 6.8 1.5 23.2 l0.3 22.5 23.2 0.3 23.3 0.2 0.2 47.3 0.3 47.2 46.7 0.3 46.8 0.2 0.2 23.3 0.3 23.2 47.3 0.3 47.2 0.2 0 -23.5 0 -23.5 47.3 -0.2 47.2 -0.3 0.3 -23.7 0.2 -23.8 23.5 0 23.5 0 0 -23.5 0 -23.5 23 0 23 0 0 23.5 0 23.5 23.5 0 23.5 0 0 23.5 0 23.5 -46.7 0.2 -46.8 0.3 0 23.5 0 23.5 46.8 0.3 46.7 0.2 0 23 0 23 48 0 48 0 0 -46.5 0 -46.5 23.5 0 23.5 0 0 70 0 70 -71.2 0.2 -71.3 0.3 -0.3 23.7 -0.2 23.8 23.7 0.2 23.8 0.3 0.5 118 0.5 118 23.3 0.3 23.2 0.2 0 22.5 0 22.5 -23.5 0 -23.4 0 -0.3 23.6 c-0.2 13.9 0.1 23.9 0.6 24.5 0.6 0.5 10.8 0.9 23.8 0.9 l22.8 0 0.2 23.3 0.3 23.2 23.5 0.5 23.5 0.5 0 23 0 23 -23.7 0.3 -23.8 0.2 0 23 0 23 -23 0 -23 0 -0.2 -46.7z"/>
  <path d="M1182 1063 l0 -23 23 0 23 0 0 23 0 23 -23 0 -23 0 0 -23z"/>
  <path d="M1842 1016 l0 -70 23.5 0 23.5 0 0 -24.5 0 -24.5 -23.5 0 -23.5 0 0 -22.5 0 -22.5 23.5 0 23.5 0 0 -23.5 0 -23.5 23.8 -0.2 23.7 -0.3 0.3 -70.7 0.2 -70.8 23.5 0 23.5 0 0 -47.5 0 -47.5 23 0 23 0 0 47.5 0 47.5 24 0 24 0 0.2 -23.7 0.3 -23.8 23.8 -0.3 23.7 -0.2 -0.2 -23.8 -0.3 -23.7 -47.2 -0.3 -47.3 -0.2 0 -23.5 0 -23.5 -23.5 0 -23.5 0 0 23.5 0 23.5 -47.5 0 -47.5 0 0 -70.5 0 -70.5 -23.5 0 -23.5 0 0 -47 0 -47 23.5 0 23.6 0 -0.1 23.3 -0.1 23.2 23.3 0.5 23.3 0.5 0.3 47.3 0.2 47.2 24 0 24 0 0 -23.5 0 -23.5 23.3 -0.2 23.2 -0.3 0.3 -47.3 0.2 -47.2 23 0 23 0 0.2 70.8 0.3 70.7 23.8 0.3 23.7 0.2 0 23 0 23 23.3 0.2 23.2 0.3 0.5 23.5 0.5 23.5 23.3 0.3 23.2 0.2 -0.2 23.3 -0.3 23.2 -23.2 0.3 -23.3 0.2 0 23.5 0 23.5 -23.5 0 -23.5 0 0 23.5 0 23.5 23.3 0.2 23.2 0.3 0.5 23.5 0.5 23.5 23 0.5 23 0.5 0.3 22.7 0.2 22.8 -23.2 0.2 -23.3 0.3 0 24 0 24 23 0.5 23 0.5 0.3 22.2 0.2 22.3 -23.2 0.2 -23.3 0.3 -0.3 23.8 -0.2 23.7 -23.5 0 -23.5 0 0 23.5 0 23.5 -23.5 0 -23.5 0 0 -47 0 -47 23.8 -0.2 23.7 -0.3 0 -23 0 -23 -23.7 -0.3 -23.8 -0.2 0 -23 0 -23 22.9 0 c18.2 0 23.1 -0.3 24 -1.4 0.8 -0.9 1.1 -8.2 0.9 -24.2 l-0.3 -22.9 -23.7 -0.3 -23.8 -0.2 -0.2 -23.8 -0.3 -23.7 -46.7 -0.3 -46.8 -0.2 0 24.5 0 24.5 22.8 0.2 22.7 0.3 0.5 47 0.5 47 23.3 0.3 23.2 0.2 0 22.5 0 22.5 -46.5 0 -46.5 0 0 -23 0 -23 -24 0 -24 0 0 23.5 0 23.5 24 0 24 0 0 24 0 24 23 0 23 0 0.2 23.3 0.3 23.2 23.3 0.3 23.2 0.2 0 23.5 0 23.5 -46.2 -0.2 -46.3 -0.3 -0.3 -23.7 -0.2 -23.8 -47.5 0 -47.5 0 0 47 0 47 -23.5 0 -23.5 0 0 -70z"/>
  <path d="M2126 1063 l0 -23 46.3 0.2 46.2 0.3 0 22.5 0 22.5 -46.2 0.3 -46.3 0.2 0 -23z"/>
  <path d="M2266.8 1039.3 l-0.3 -46.8 -46.8 -0.3 -46.7 -0.2 0.2 -22.8 0.3 -22.7 46.8 -0.3 46.7 -0.2 0 -47 0 -47 23.5 0 23.6 0 -0.1 22.8 -0.1 22.7 23.5 0.3 23.6 0.2 0 94 0 94 -47 0 -47 0 -0.2 -46.7z"/>
  <path d="M2408.2 1063.3 l0.3 -22.8 23 0 23 0 0.3 22.8 0.2 22.7 -23.5 0 -23.5 0 0.2 -22.7z"/>
  <path d="M1.8 1039.3 c-0.2 -0.5 -0.2 -42.8 0 -94 l0.2 -93.3 23 0 23 0 0 94 0 94 -22.9 0 c-12.7 0 -23.1 -0.3 -23.3 -0.7z"/>
  <path d="M520.7 1039.3 c-0.4 -0.3 -0.7 -10.9 -0.7 -23.5 l0 -22.8 23.5 0 23.5 0 0 23.5 0 23.5 -22.8 0 c-12.6 0 -23.2 -0.3 -23.5 -0.7z"/>
  <path d="M1276 1016.5 l0 -23.5 23 0 23 0 0 23.5 0 23.5 -23 0 -23 0 0 -23.5z"/>
  <path d="M1607 1016.5 l0 -23.5 22.5 0 22.4 0 0.3 23.1 c0.2 12.7 0.1 23.3 -0.1 23.5 -0.2 0.2 -10.5 0.4 -22.8 0.4 l-22.3 0 0 -23.5z"/>
  <path d="M332 945 l0 -47 23 0 23 0 0 47 0 47 -23 0 -23 0 0 -47z"/>
  <path d="M1087 969 l0 -23 47.3 -0.2 47.2 -0.3 0.3 -23.7 0.2 -23.8 23 0 23 0 0.2 23.8 0.3 23.7 22.7 0.3 22.7 0.2 0.3 23 0.3 23 -93.7 0 -93.8 0 0 -23z"/>
  <path d="M1323.7 991.3 c-0.4 -0.3 -0.7 -21.5 -0.7 -47 l0 -46.3 23.5 0 23.5 0 0.2 23.8 0.3 23.7 23.3 0.3 23.2 0.2 0 23 0 23 -46.3 0 c-25.5 0 -46.7 -0.3 -47 -0.7z"/>
  <path d="M1464 969 l0 -23 47 0 47 0 0 23 0 23 -47 0 -47 0 0 -23z"/>
  <path d="M2408.7 991.3 c-0.4 -0.3 -0.7 -10.7 -0.7 -22.9 l0 -22.4 23.8 -0.2 23.7 -0.3 0.3 -47.2 0.2 -47.3 -23.7 -0.2 -23.8 -0.3 -0.3 -46.7 -0.2 -46.8 23.7 -0.2 23.8 -0.3 0 -24 0 -24 -46.7 -0.3 -46.8 -0.2 0 -70 0 -70 23 0 23 0 0.2 -46.6 c0.2 -25.6 0 -47 -0.3 -47.5 -0.3 -0.5 -10.2 -0.8 -23.5 -0.7 l-22.9 0.3 -0.3 46.8 -0.2 46.7 -23.5 0 -23.5 0 -0.2 23.8 -0.3 23.7 -23.2 0.3 -23.3 0.2 -0.2 -23.7 -0.3 -23.8 -23.7 -0.3 -23.8 -0.2 0 -23.5 0 -23.5 -23 0 -23 0 0.2 -22.2 0.3 -22.3 22.5 -0.5 22.5 -0.5 0.3 -24.2 0.2 -24.3 -21.9 0 c-17.3 0 -22.1 -0.3 -23 -1.4 -0.8 -0.9 -1.1 -7.9 -0.9 -23.2 l0.3 -21.9 46.2 -0.3 46.3 -0.2 0.2 47.2 0.3 47.3 24 0 24 0 0.3 -47.2 0.2 -47.3 92.5 0 92.5 0 0 23.5 0 23.5 -22.5 0 -22.5 0 0 71 0 71 22.5 0 22.5 0 0 212 0 212 -45.3 0 c-25 0 -45.7 -0.3 -46 -0.7z"/>
  <path d="M993.7 944.4 c-0.4 -0.4 -0.7 -11 -0.7 -23.6 l0 -22.8 23.5 0 23.5 0 -0.2 23.3 -0.3 23.2 -22.6 0.3 c-12.4 0.1 -22.8 -0.1 -23.2 -0.4z"/>
  <path d="M379.2 874.8 l0.3 -22.3 23.3 -0.3 23.2 -0.2 0 20.9 c0 11.5 -0.3 21.6 -0.6 22.5 -0.5 1.4 -3.6 1.6 -23.5 1.6 l-22.9 0 0.2 -22.2z"/>
  <path d="M474.8 874.5 l0.3 -22.5 45.9 0 46 0 0 22.5 0 22.5 -46.2 0 -46.3 0 0.3 -22.5z"/>
  <path d="M757 874.5 l0 -22.5 23 0 23 0 0 22.5 0 22.5 -23 0 -23 0 0 -22.5z"/>
  <path d="M1087 874.5 l0 -22.5 23.5 0 23.5 0 0 -24 0 -24 22.3 0 c12.2 0 22.8 0.4 23.5 0.8 1 0.7 1.2 10.6 1 46.3 l-0.3 45.4 -46.7 0.3 -46.8 0.2 0 -22.5z"/>
  <path d="M1229 874.5 l0 -22.5 46.5 0 46.5 0 0 22.5 0 22.5 -46.5 0 -46.5 0 0 -22.5z"/>
  <path d="M285 804 l0 -47 46.5 0 46.5 0 0 23 0 23 -23.2 0.2 -23.3 0.3 -0.3 23.8 -0.2 23.7 -23 0 -23 0 0 -47z"/>
  <path d="M1040.4 849.7 c-0.2 -0.7 -0.3 -10.9 -0.2 -22.7 l0.3 -21.5 22.8 -0.5 22.7 -0.5 0 23.3 0 23.2 -22.5 0 c-17.4 0 -22.7 -0.3 -23.1 -1.3z"/>
  <path d="M1796 828 l0 -23 22.5 0 22.5 0 0 23 0 23 -22.5 0 -22.5 0 0 -23z"/>
  <path d="M2219.5 849.7 c-0.3 -0.7 -0.4 -11.1 -0.3 -23.2 l0.3 -22 21 -0.3 c11.6 -0.1 22 0 23.3 0.3 l2.2 0.5 -0.2 22.8 -0.3 22.7 -22.8 0.3 c-17.9 0.2 -22.9 0 -23.2 -1.1z"/>
  <path d="M757 780 l0 -23 23 0 23 0 0 23 0 23 -23 0 -23 0 0 -23z"/>
  <path d="M993 780 l0 -23 23.5 0 23.5 0 0 23 0 23 -23.5 0 -23.5 0 0 -23z"/>
  <path d="M1086.8 779.8 l-0.3 -23.3 -23 -0.5 -23 -0.5 -0.2 -22.5 c-0.1 -12.4 -0.3 -23.1 -0.3 -23.7 0 -1 -5.4 -1.3 -23.5 -1.3 l-23.5 0 0 -22.5 0 -22.5 23.5 0 23.5 0 0.2 -47.2 0.3 -47.3 23 -0.5 23 -0.5 0.3 -23.7 0.2 -23.8 23.5 0 23.5 0 0 -23.5 0 -23.5 -23.5 0 -23.5 0 0 -23 0 -23 23.5 0 23.5 0 0 -24.5 0 -24.5 -118 0 -118 0 0 -23 0 -23 23.8 -0.2 23.7 -0.3 0.3 -46.7 0.2 -46.8 23.3 -0.2 23.2 -0.3 0.3 -23.7 0.2 -23.8 -24 0 -24 0 0 23.5 0 23.5 -23.5 0 -23.5 0 0 -23.5 0 -23.5 -22.7 0 c-12.6 0 -23.4 -0.4 -24.1 -0.8 -0.9 -0.7 -1.2 -6 -1 -23.3 l0.3 -22.4 23.8 -0.3 23.7 -0.2 0 -23 0 -23 23.8 -0.2 23.7 -0.3 0 -24 0 -24 -23.7 -0.3 -23.8 -0.2 0 -23 0 -23 47 0 47 0 0.2 70.2 0.3 70.3 46.7 0.3 46.8 0.2 0.2 47.3 0.3 47.2 23.8 0.3 23.7 0.2 0 -47.5 0 -47.5 23.8 -0.2 23.7 -0.3 0.3 -23.2 0.2 -23.3 -47.5 0 -47.5 0 0 -23.5 0 -23.5 70.5 0 70.5 0 0 70.5 0 70.5 70 0 c38.5 0 70.3 0.1 70.8 0.3 0.4 0.1 0.8 -10.5 1 -23.5 l0.2 -23.8 23.5 0 23.5 0 0 23.5 0 23.5 23.3 0.2 23.2 0.3 0 70 0 70 -22.7 0.3 -22.8 0.2 0 -23 0 -23 -24 0 -24 0 0 71 0 71 23.8 -0.2 23.7 -0.3 0.3 -23.8 0.2 -23.7 22.8 0.2 22.7 0.3 0.3 46.8 0.2 46.7 -47 0 -47 0 0 23.5 0 23.5 23.5 0 23.5 0 0 23.5 0 23.5 -71 0 -71 0 0 22.4 c0 12.3 -0.3 23.1 -0.6 24 -0.5 1.4 -5.6 1.6 -46.5 1.6 l-45.9 0 0 -23.5 0 -23.5 23.5 0 23.5 0 0 -24 0 -24 -24 0 -24 0 0 23.5 0 23.5 -23.5 0 -23.5 0 0 24 0 24 23.3 0.2 23.2 0.3 0.3 23.2 0.2 23.3 -47.2 0.2 -47.3 0.3 -0.3 23.2 -0.2 23.3 23.7 0.2 23.8 0.3 0.3 46.8 0.2 46.7 -23.5 0 -23.5 0 -0.2 -23.2z m236.2 -306.8 l0 -47 -71 0 -71 0 0 24 0 24 45.8 0 c34.3 0 46.1 0.3 47 1.2 0.9 0.9 1.2 7.4 1.2 23 l0 21.8 24 0 24 0 0 -47z m0 -165 l0 -71 -71 0 -71 0 0 71 0 71 71 0 71 0 0 -71z m-282.8 0.9 c0.2 -12.7 0.1 -23.3 -0.1 -23.5 -0.2 -0.2 -11.2 -0.4 -24.3 -0.4 l-23.8 0 0 22.8 c0 12.6 0.3 23.2 0.7 23.5 0.3 0.4 11.1 0.7 23.9 0.7 l23.3 0 0.3 -23.1z m93.8 -0.4 l0 -23.5 -24 0 -24 0 0 22.8 c0 12.6 0.3 23.2 0.7 23.5 0.3 0.4 11.1 0.7 24 0.7 l23.3 0 0 -23.5z"/>
  <path d="M1229.7 330.3 c-0.4 -0.3 -0.7 -10.4 -0.7 -22.4 0 -18.8 0.2 -21.8 1.6 -22.3 2 -0.8 40.8 -0.8 42.8 0 1.4 0.5 1.6 3.4 1.6 21.4 0 11.5 -0.3 21.5 -0.6 22.4 -0.5 1.4 -3.5 1.6 -22.3 1.6 -12 0 -22.1 -0.3 -22.4 -0.7z"/>
  <path d="M1182 733 l0 -70 70.8 -0.2 70.7 -0.3 0.3 -23.7 0.2 -23.8 46.5 0 46.5 0 0 23.5 0 23.5 -23.5 0 -23.5 0 0 23.5 0 23.5 46.8 0.2 46.7 0.3 0.3 23.3 0.2 23.2 -70.5 0 -70.5 0 -0.2 -23.7 -0.3 -23.8 -46.7 -0.3 -46.8 -0.2 -0.5 2.2 c-0.3 1.3 -0.4 12.2 -0.3 24.3 l0.3 22 23.3 0.3 23.2 0.2 0 23 0 23 -46.5 0 -46.5 0 0 -70z"/>
  <path d="M1464 780 l0 -23 23.5 0 23.5 0 0 23 0 23 -23.5 0 -23.5 0 0 -23z"/>
  <path d="M1842 780 l0 -23 23.5 0 23.5 0 0 23 0 23 -23.5 0 -23.5 0 0 -23z"/>
  <path d="M2314.4 801.4 c0.3 -0.9 0.6 -22 0.6 -47 l0 -45.4 22.8 0.2 22.7 0.3 0.3 46.8 0.2 46.7 -23.6 0 c-21.1 0 -23.5 -0.2 -23 -1.6z"/>
  <path d="M567.8 732.3 l-0.3 -23.8 -23.7 -0.3 -23.8 -0.2 0 -22.5 0 -22.5 24 0 24 0 0 -24 0 -24 46.3 0.2 46.2 0.3 0.3 23.3 0.2 23.2 -23 0 -23 0 0 23.5 0 23.5 22.8 0.2 22.7 0.3 0 23 0 23 -46.2 0.3 -46.3 0.2 -0.2 -23.7z"/>
  <path d="M1748.7 755.3 c-0.4 -0.3 -0.7 -21.3 -0.7 -46.4 l0 -45.9 23.8 -0.2 23.7 -0.3 0.3 -23.8 0.2 -23.7 22.3 0.2 22.2 0.3 0.3 70.3 0.2 70.2 -45.8 0 c-25.2 0 -46.2 -0.3 -46.5 -0.7z"/>
  <path d="M2219.7 755.3 c-0.4 -0.3 -0.7 -11.1 -0.7 -24 l0 -23.3 -23 0 -23 0 0 -22.5 0 -22.5 23 0 23 0 0.2 -23.7 0.3 -23.8 23 0 23 0 0.5 23.5 0.5 23.5 23.8 0.3 23.7 0.2 0 22.5 0 22.5 -23.7 0.2 -23.8 0.3 -0.3 23.8 -0.2 23.7 -22.9 0 c-12.5 0 -23.1 -0.3 -23.4 -0.7z"/>
  <path d="M143 638.5 l0 -23.5 23.3 0.2 23.2 0.3 0 23 0 23 -23.2 0.3 -23.3 0.2 0 -23.5z"/>
  <path d="M1464.5 660.8 c-0.3 -0.7 -0.4 -42.9 -0.3 -93.8 l0.3 -92.5 23.3 -0.3 23.2 -0.2 0 23 0 23 23 0 c12.7 0 23.3 0 23.8 0 0.7 0 2 -44 1.4 -46 -0.2 -0.6 -9.2 -1 -23.8 -1 l-23.4 0 -0.2 -47.2 -0.3 -47.3 -23.7 -0.3 -23.8 -0.2 0 -23 0 -23 23.8 -0.2 23.7 -0.3 0 -141.5 0 -141.5 -23.8 -0.3 -23.7 -0.2 0.2 -23.3 c0.3 -21.4 0.4 -23.2 2.1 -23.1 0.9 0 75.3 0.1 165.2 0.2 l163.5 0.2 0 23 0 23 -23.7 0.2 -23.8 0.3 -0.3 23.7 -0.2 23.8 -23 0 -23 0 -0.2 -23.8 -0.3 -23.7 -71 0 -71 0 0 47 0 47 23.8 0.3 23.7 0.2 0 71 0 71 -24 0 -24 0 0.2 23.3 0.3 23.2 24 0 24 0 0.3 -23.2 0.2 -23.3 22.5 0 22.5 0 0.2 23.3 0.3 23.2 23.8 0.3 23.7 0.2 0 23 0 23 -23.4 0 c-20.9 0 -23.5 0.2 -24 1.7 -0.4 0.9 -0.6 11.6 -0.6 23.7 l0.1 22.1 -23 0.3 -23.1 0.2 0 118 0 118 -23.2 -0.2 -23.3 -0.3 -0.2 -46 c-0.2 -25.3 -0.3 -46.6 -0.3 -47.3 0 -1 -5.1 -1.2 -23.7 -1 l-23.8 0.3 -0.5 47 -0.5 47 -22.8 0.3 c-17.7 0.2 -22.9 0 -23.2 -1z"/>
  <path d="M1889.4 660.7 c-0.2 -0.7 -0.3 -11.1 -0.2 -23.2 l0.3 -22 23 0 23 0 0.3 23.3 0.2 23.2 -23 0 c-17.8 0 -23.2 -0.3 -23.6 -1.3z"/>
  <path d="M96.8 591.3 l-0.3 -23.8 -23.7 -0.3 -23.8 -0.2 0 -23.5 0 -23.5 -23.6 -0.2 -23.5 -0.3 0.1 -69.5 c0 -38.2 0.4 -69.8 0.8 -70.2 0.5 -0.5 21.5 -0.7 46.8 -0.6 l45.9 0.3 0.3 70.3 0.2 70.2 23 0 23 0 0 47.5 0 47.5 -22.5 0 -22.5 0 -0.2 -23.7z"/>
  <path d="M1700.8 591.3 l-0.3 -23.8 -23.7 -0.3 -23.8 -0.2 0 -46 0 -45.9 23.5 -0.3 23.5 -0.3 0 22.8 0 22.7 23.5 0 23.5 0 0.2 23.8 0.3 23.7 23.8 0.3 23.7 0.2 -0.2 23.3 -0.3 23.2 -46.7 0.3 -46.8 0.2 -0.2 -23.7z"/>
  <path d="M1796 543.5 l0 -23.5 22.3 0.2 22.2 0.3 0.3 23.3 0.2 23.2 -22.5 0 -22.5 0 0 -23.5z"/>
  <path d="M1701 450 l0 -23 23 0 23 0 0 23 0 23 -23 0 -23 0 0 -23z"/>
  <path d="M1796 450 l0 -23 22.5 0 22.5 0 0 23 0 23 -22.5 0 -22.5 0 0 -23z"/>
  <path d="M191.2 425.2 c-0.9 -0.7 -1.2 -6 -1 -23.3 l0.3 -22.4 47 0 47 0 0 23 0 23 -46 0.2 c-25.3 0.2 -46.6 -0.1 -47.3 -0.5z"/>
  <path d="M332 402.5 l0 -23.5 23 0 23 0 0 23.5 0 23.5 -23 0 -23 0 0 -23.5z"/>
  <path d="M520 355 l0 -23 23.8 -0.2 23.7 -0.3 0.3 -23.3 0.2 -23.2 23.3 0.2 23.2 0.3 0.3 23.3 0.2 23.2 23 0 23 0 0 23 0 23 -70.5 0 -70.5 0 0 -23z"/>
  <path d="M2.5 330.4 c-0.7 -0.3 -0.9 -55.8 -0.7 -164.4 l0.2 -164 164.3 0.2 164.2 0.3 0.3 164.3 0.2 164.2 -163.7 -0.1 c-90.1 0 -164.2 -0.2 -164.8 -0.5z m282.5 -163.9 l0 -118.5 -118.2 0.2 -118.3 0.3 -0.3 118.3 -0.2 118.2 118.5 0 118.5 0 0 -118.5z"/>
  <path d="M97 167 l0 -70 70 0 70 0 0 70 0 70 -70 0 -70 0 0 -70z"/>
  <path d="M474 237 l0 -94 23 0 23 0 0 23.5 0 23.5 45.9 0 c25.3 0 46.6 0.3 47.5 0.6 1.4 0.5 1.6 3.6 1.6 23.5 l0 22.9 -23.7 0.2 -23.8 0.3 -0.3 23.8 -0.2 23.7 -23.5 0 -23.5 0 0 23 0 23 -23 0 -23 0 0 -94z"/>
  <path d="M662 308 l0 -23 22.8 0.2 22.7 0.3 0.3 22.8 0.2 22.7 -23 0 -23 0 0 -23z"/>
  <path d="M757.7 330.3 c-0.4 -0.3 -0.7 -10.7 -0.7 -23 l0 -22.3 23 0 23 0 0 23 0 23 -22.3 0 c-12.3 0 -22.7 -0.3 -23 -0.7z"/>
  <path d="M851.2 330.2 c-1 -0.7 -1.2 -10.6 -1 -46.3 l0.3 -45.4 23.3 -0.3 23.2 -0.2 0 46.5 0 46.5 -22.2 0 c-12.3 0 -22.9 -0.4 -23.6 -0.8z"/>
  <path d="M1701.7 330.4 c-0.4 -0.4 -0.7 -10.8 -0.7 -23.1 l0 -22.3 23 0 23 0 -0.2 22.8 -0.3 22.7 -22.1 0.3 c-12.1 0.1 -22.3 -0.1 -22.7 -0.4z"/>
  <path d="M1796 308 l0 -23 -24 0 -24 0 0 -24 0 -24 -23.5 0 -23.5 0 0 -23.5 0 -23.6 23.3 0.1 23.2 0.1 0.3 -23.5 0.2 -23.6 23.8 -0.2 23.7 -0.3 0.3 -22.7 0.2 -22.8 22.8 -0.2 22.7 -0.3 0.5 -23.5 0.5 -23.5 23.3 -0.3 23.2 -0.2 -0.2 70.2 -0.3 70.3 -46.8 0.3 -46.7 0.2 0.2 23.8 0.3 23.7 22.8 0.3 22.7 0.2 0 46.5 0 46.5 -22.5 0 -22.5 0 0 -23z"/>
  <path d="M1889.5 329.8 c-0.3 -0.7 -0.4 -32.3 -0.3 -70.3 l0.3 -69 23 0 23 0 0.3 70.3 0.2 70.2 -23 0 c-17.5 0 -23.2 -0.3 -23.5 -1.2z"/>
  <path d="M1984.7 330.3 c-0.4 -0.3 -0.7 -21.3 -0.7 -46.4 l0 -45.9 23.3 -0.2 23.2 -0.3 0.3 -23.7 0.2 -23.8 -23.2 -0.2 -23.3 -0.3 -0.3 -23.7 -0.2 -23.8 -23.5 0 -23.5 0 0 -69.8 c0 -38.4 0.2 -70.1 0.4 -70.3 0.2 -0.2 10.8 -0.3 23.5 -0.1 l23.1 0.3 0 47.4 0 47.5 46.5 0 46.5 0 0 46.5 0 46.5 23.8 0.2 23.7 0.3 0.3 70.3 0.2 70.2 -23.2 -0.2 -23.3 -0.3 -0.3 -22.7 -0.2 -22.8 -24 0 -24 0 0 23 0 23 -22.3 0 c-12.3 0 -22.7 -0.3 -23 -0.7z"/>
  <path d="M2173.7 330.3 c-0.7 -0.7 -1 -327.7 -0.3 -328.4 0.2 -0.2 73.8 -0.3 163.5 -0.1 l163.1 0.2 0 164.5 0 164.5 -162.8 0 c-89.6 0 -163.2 -0.3 -163.5 -0.7z m282.1 -163.5 l-0.3 -118.3 -118.2 -0.3 -118.3 -0.2 0 118.5 0 118.5 118.5 0 118.5 0 -0.2 -118.2z"/>
  <path d="M2267 167 l0 -70 70 0 70 0 0 70 0 70 -70 0 -70 0 0 -70z"/>
  <path d="M709.5 283.8 c-0.3 -0.7 -0.4 -42.9 -0.3 -93.8 l0.3 -92.5 23.3 -0.3 23.2 -0.2 0 94 0 94 -23 0 c-17.5 0 -23.2 -0.3 -23.5 -1.2z"/>
  <path d="M379.7 189.4 c-0.4 -0.4 -0.7 -11 -0.7 -23.6 l0 -22.8 23.5 0 23.5 0 -0.2 23.3 -0.3 23.2 -22.6 0.3 c-12.4 0.1 -22.8 -0.1 -23.2 -0.4z"/>
  <path d="M615.7 189.4 c-0.4 -0.4 -0.7 -21.6 -0.7 -47.1 l0 -46.3 -23.5 0 -23.5 0 0 -47 0 -47 46.5 0 46.5 0 0 23.5 0 23.5 23.5 0 23.5 0 0 23.5 0 23.5 -23.5 0 -23.5 0 -0.2 46.8 -0.3 46.7 -22.1 0.3 c-12.1 0.1 -22.3 -0.1 -22.7 -0.4z"/>
  <path d="M427 95.5 l0 -46.5 23.5 0 23.5 0 0 -23.3 c0 -12.9 0.2 -23.6 0.4 -23.8 0.2 -0.2 10.6 -0.3 23 -0.1 l22.6 0.3 0 45.4 c0 24.9 -0.3 46 -0.6 46.9 -0.5 1.4 -3.6 1.6 -23.5 1.6 l-22.9 0 0 23 0 23 -23 0 -23 0 0 -46.5z"/>
  <path d="M520 119.5 l0 -22.5 23.5 0 23.5 0 0 22.5 0 22.5 -23.5 0 -23.5 0 0 -22.5z"/>
  <path d="M804.8 119.5 l0.3 -22.5 22.5 0 22.4 0 -0.2 22.3 -0.3 22.2 -22.5 0.3 -22.5 0.2 0.3 -22.5z"/>
  <path d="M1322.8 95.3 l-0.3 -46.8 -46.8 -0.3 -46.7 -0.2 0.2 -23.3 c0.2 -12.7 0.6 -23.1 1.1 -22.9 0.4 0.1 42.6 0.2 93.7 0.2 l93 0 0 47 0 47 -23.5 0 -23.5 0 -0.2 22.8 -0.3 22.7 -23.2 0.3 -23.3 0.2 -0.2 -46.7z"/>
  <path d="M756.8 72.3 l-0.3 -23.8 -23.8 -0.3 -23.7 -0.2 0.2 -23 c0.2 -12.7 0.6 -23 1.1 -23 0.4 0 32 0 70.2 0 l69.5 0 -0.2 22.7 -0.3 22.8 -23 0.5 -23 0.5 -0.3 23.8 -0.2 23.7 -23 0 -23 0 -0.2 -23.7z"/>
  <path d="M2078.7 95.4 c-0.4 -0.4 -0.7 -11.2 -0.7 -24.1 l0 -23.3 -23.5 0 -23.5 0 0 -23 0 -23 47 0 47 0 -0.2 46.7 -0.3 46.8 -22.6 0.3 c-12.4 0.1 -22.8 -0.1 -23.2 -0.4z"/>
 </g>
</svg>
