<svg width="170" height="121" xmlns="http://www.w3.org/2000/svg">
  <defs
     id="defs1" />
  <g
     id="layer1">
    <path
       d="m 70.329368,103.48513 c 0.335757,0.28257 0.04498,0.45878 -0.118798,0.6432 -2.80961,3.16732 -5.623189,6.33465 -8.428831,9.50595 -2.043641,2.3069 -4.075112,4.62597 -6.167966,6.99849 -1.097492,-1.03267 -2.194984,-2.0365 -3.259932,-3.0771 C 41.467825,106.90222 31.904461,95.171387 23.660309,82.358677 18.958398,75.049027 14.797376,67.448347 11.287466,59.495237 8.916111,54.127627 6.851938,48.645197 5.201441,43.011167 c -0.507868,-1.73726 -1.040289,-3.47451 -1.429359,-5.24061 -0.8314,-3.75311 -1.580912,-7.52289 -2.350875,-11.28844 -0.08599,-0.42201 -0.06554,-0.8644 -0.09829,-1.36843 1.1099,-0.15584 2.199322,-0.30321 3.292845,-0.45482 0.208889,-0.0286 0.417751,-0.0614 0.626613,-0.0902 1.949503,-0.26617 3.899006,-0.52017 5.848509,-0.79904 1.453911,-0.20479 2.903749,-0.44662 4.361788,-0.65141 1.056746,-0.14737 2.121429,-0.24183 3.182144,-0.39343 1.490927,-0.21299 2.985823,-0.44239 4.468283,-0.70062 0.475192,-0.0817 0.471223,0.0781 0.536575,0.48763 0.311415,1.92987 0.671777,3.85154 1.068917,5.76924 0.376766,1.81107 0.745596,3.63035 1.245129,5.40861 1.470289,5.25701 3.231356,10.41559 5.414433,15.42256 0.02461,0.0534 0.05715,0.0984 0.08599,0.14764 1.195916,2.5609 2.326216,5.15461 3.595952,7.67847 4.189677,8.32591 9.198504,16.13985 14.776714,23.59713 4.6609,6.22803 9.681898,12.15284 15.116704,17.72126 1.748896,1.790703 3.591983,3.490923 5.39406,5.232403 z"
       fill="#ffffff" />
    <path
       d="m 102.1889,94.564957 c 0.87234,1.03664 1.74467,2.07328 2.6416,3.13876 -5.566039,4.994533 -11.131809,9.989343 -16.742829,15.025153 -0.7739,-0.87683 -1.53167,-1.72905 -2.28124,-2.59371 C 76.181952,99.039327 67.0488,87.554297 58.542181,75.573437 c -0.06535,-0.0902 -0.155575,-0.16405 -0.237596,-0.2458 -0.474927,-2.0365 -0.945885,-4.07697 -1.421077,-6.11346 -0.01217,-0.041 -0.02461,-0.086 -0.03281,-0.127 -0.335756,-1.80287 -0.675746,-3.60575 -1.011502,-5.40862 l -0.05742,-0.35639 c -0.188383,-1.22529 -0.401373,-2.45031 -0.556948,-3.67956 -0.29501,-2.29447 -0.638969,-4.581 -0.815181,-6.88367 -0.347927,-4.57676 -0.696119,-9.15775 -0.868098,-13.74272 -0.22516,-6.06425 -0.04921,-12.12426 0.417777,-18.17608 0.0082,-0.0902 0.09816,-0.17224 0.151606,-0.25823 1.027907,3.93753 2.547409,7.69487 4.316677,11.34586 1.539875,3.18373 3.235325,6.29364 4.865423,9.43636 0.07779,0.15161 0.151607,0.30719 0.241565,0.45059 1.851289,3.0525 3.673739,6.12987 5.574241,9.14956 1.466057,2.32727 2.993761,4.622 4.566444,6.87969 2.604823,3.73274 5.213879,7.46549 7.920829,11.12441 2.73606,3.69173 5.57821,7.30567 8.40026,10.93602 1.45388,1.86849 2.94454,3.71237 4.45187,5.53958 2.01904,2.45031 4.06691,4.88024 6.110559,7.30594 0.52414,0.62257 1.08929,1.21285 1.6383,1.81504 z"
       fill="#ffffff" />
    <path
       d="m 135.4039,92.278697 c 0.48736,0.54901 0.97896,1.10199 1.5031,1.69201 -5.529,5.07259 -11.04159,10.124813 -16.60763,15.230213 -0.8763,-0.97102 -1.75287,-1.92167 -2.60879,-2.89269 -6.11055,-6.916473 -12.02055,-14.000963 -17.709359,-21.265623 -1.81848,-2.31934 -3.59172,-4.67519 -5.38559,-7.01067 -0.0942,-0.11879 -0.20479,-0.22542 -0.30322,-0.34025 -0.0532,-0.12277 -0.11853,-0.24156 -0.15557,-0.36856 -1.12633,-3.92139 -2.31405,-7.83035 -3.35836,-11.77608 -0.70432,-2.65933 -1.20411,-5.3676 -1.79387,-8.0555 -0.045,-0.15161 -0.0942,-0.30322 -0.13917,-0.45482 -0.0902,-0.45085 -0.17621,-0.90144 -0.26617,-1.35229 -0.0288,-0.1516 -0.0614,-0.30321 -0.0902,-0.45878 -0.0286,-0.14764 -0.0574,-0.29925 -0.086,-0.44662 -0.045,-0.2294 -0.086,-0.45482 -0.13096,-0.68421 -0.18442,-0.97949 -0.3646,-1.95871 -0.54875,-2.93397 -0.10663,-0.60642 -0.21722,-1.20862 -0.32359,-1.81504 -0.0452,-0.2622 -0.0902,-0.5244 -0.1352,-0.78661 0.008,-0.0492 0.0164,-0.0984 0.0246,-0.14763 -0.41778,-2.53207 -0.89297,-5.05619 -1.24513,-7.60069 -0.49953,-3.59754 -0.92551,-7.21148 -1.35969,-10.81722 -0.25797,-2.12646 -0.4998,-4.25715 -0.69215,-6.38784 -0.26617,-2.89269 -0.4916,-5.78966 -0.71279,-8.68653 -0.1024,-1.36854 -0.14737,-2.74119 -0.22093,-4.113826 1.61343,7.850666 4.95141,15.025236 8.75215,21.994896 2.06005,3.77798 4.32912,7.4369 6.50796,11.14927 0.0164,0.0286 0.0614,0.0408 0.09,0.0614 0.10239,0.18441 0.18441,0.37703 0.30321,0.54901 3.329519,4.89241 6.573309,9.84197 10.017649,14.65236 6.94611,9.711 14.4452,18.99152 22.23479,28.03445 1.46236,1.69651 2.96122,3.35598 4.44395,5.03185 z"
       fill="#ffffff"  />
    <path
       d="m 151.45459,25.203907 c 0.17197,0.93001 0.34792,1.86002 0.52017,2.7903 0.24976,1.24963 0.4953,2.50349 0.74533,3.75311 0.0204,0.10663 0.041,0.21326 0.0614,0.31962 0.13917,0.72126 0.28258,1.44224 0.42175,2.15953 0.14763,0.7702 0.2868,1.54464 0.44661,2.31484 0.39714,1.92987 0.75354,3.86794 1.20809,5.78141 1.1467,4.81859 2.29764,9.63718 3.53034,14.43117 1.61766,6.30608 3.40756,12.56691 5.57821,18.70895 1.22449,3.46631 2.51883,6.90404 4.32488,10.12455 0.22542,0.39766 0.47095,0.78687 0.70855,1.18004 -0.09,-0.0696 -0.18838,-0.13097 -0.26617,-0.21299 -3.35836,-3.51552 -6.7945,-6.95748 -10.0465,-10.57143 -4.00552,-4.44976 -7.92479,-8.98948 -11.75834,-13.58688 -4.20212,-5.03979 -8.15023,-10.28462 -11.87318,-15.69323 -1.15067,-1.66767 -2.2442,-3.37609 -3.36656,-5.06439 -0.33575,-1.68804 -0.66754,-3.37212 -1.0033,-5.06016 -0.008,-0.0944 -0.008,-0.19262 -0.0246,-0.28681 -0.52414,-2.80273 -1.05252,-5.60943 -1.58089,-8.41216 -0.0246,-0.127 -0.086,-0.24977 -0.13097,-0.3728 -0.0534,-0.29501 -0.10663,-0.59002 -0.15584,-0.88106 -0.0246,-0.16378 -0.045,-0.32359 -0.0696,-0.48736 -0.0204,-0.0984 -0.0368,-0.19685 -0.0532,-0.29501 -0.008,-0.0534 -0.0122,-0.10663 -0.0204,-0.15981 -0.29898,-1.65947 -0.61039,-3.31893 -0.89297,-4.9784 -0.26617,-1.5612 -0.53234,-3.12642 -0.75353,-4.69572 -0.29898,-2.09788 -0.61039,-4.191661 -0.82312,-6.297745 -0.2704,-2.700205 -0.45058,-5.412687 -0.66781,-8.121094 0,-0.03278 0.0288,-0.06964 0.0738,-0.167984 7.44167,-0.29501 14.91192,-0.594122 22.43958,-0.893233 0.40137,6.478005 1.35176,12.853586 2.46962,19.208696 0.008,0.041 0.0124,0.086 0.0206,0.12703 0.041,0.22124 0.0817,0.44264 0.12276,0.66384 0.27041,1.55707 0.54478,3.11388 0.81519,4.67518 z"
       fill="none" stroke="#ffffff" />
    <path
       d="m 131.69339,41.634537 c 1.12209,1.68804 2.21562,3.39672 3.36655,5.06439 3.72269,5.40861 7.67107,10.65318 11.87292,15.69296 3.05057,3.65774 6.15011,7.27385 9.30502,10.83823 0.81414,0.91981 1.63197,1.83618 2.45359,2.74892 3.25173,3.60998 6.68787,7.05565 10.04623,10.57143 0.0781,0.0818 0.17621,0.13917 0.26643,0.21299 0.16775,0.18441 0.33153,0.36459 0.53631,0.59002 -5.19297,5.3758 -10.39045,10.75584 -15.63264,16.180863 -0.15557,-0.14341 -0.30718,-0.27887 -0.45058,-0.41804 -7.95761,-7.867123 -15.4567,-16.156263 -22.59542,-24.777173 -0.68395,-0.82762 -1.35546,-1.65947 -2.04364,-2.48312 -0.0818,-0.10239 -0.22119,-0.15557 -0.33576,-0.22939 -0.0696,-0.254 -0.13917,-0.51224 -0.20902,-0.76624 -0.97049,-3.55229 -1.96162,-7.10062 -2.90354,-10.66138 -0.35639,-1.34408 -0.60616,-2.72071 -0.89296,-4.08517 -0.43815,-2.07327 -0.8681,-4.15078 -1.29832,-6.22802 -0.0122,-0.041 -0.0204,-0.082 -0.0328,-0.12304 -0.60616,-3.23691 -1.21232,-6.47805 -1.81848,-9.71497 -0.004,-0.041 -0.0122,-0.082 -0.0161,-0.127 -0.0453,-0.30321 -0.0902,-0.60219 -0.13521,-0.9054 -0.0532,-0.30321 -0.10239,-0.60643 -0.15557,-0.90964 -0.0534,-0.29924 -0.10663,-0.60245 -0.15981,-0.90143 -0.0492,-0.30322 -0.10239,-0.60643 -0.15161,-0.90964 -0.0164,-0.11483 -0.0328,-0.22939 -0.0532,-0.34422 -0.0246,-0.19659 -0.0532,-0.39741 -0.0778,-0.59426 -0.44636,-2.82707 -0.90514,-5.65441 -1.33933,-8.48571 -0.28257,-1.84389 -0.54054,-3.6957 -0.79031,-5.54382 -0.29104,-2.12646 -0.56938,-4.25715 -0.83978,-6.38781 -0.24157,-1.90529 -0.47916,-3.80651 -0.70036,-5.7159 -0.18415,-1.610278 -0.33999,-3.22466 -0.50773,-4.834967 0.0574,0.131127 0.11456,0.262255 0.16801,0.393356 0.0982,0.442516 0.20055,0.880957 0.29898,1.323472 0.0243,0.114724 0.0489,0.229447 0.0778,0.348271 1.12606,4.728418 2.84215,9.247878 4.87362,13.652528 2.7686,6.00683 6.08595,11.71046 9.66549,17.26247 0.0614,0.0942 0.14341,0.17622 0.21723,0.26221 z"
       fill="#ffffff" />
    <path
       d="m 116.39227,8.392101 c 0.16801,1.610281 0.32358,3.224662 0.50773,4.834946 0.21723,1.90531 0.45482,3.81061 0.70035,5.71592 0.27041,2.13053 0.55298,4.26122 0.83979,6.38794 0.25374,1.84785 0.50774,3.69994 0.79031,5.54382 0.43418,2.8313 0.89297,5.65441 1.33932,8.48572 0.0246,0.19658 0.0532,0.3974 0.0778,0.59398 0.0164,0.11483 0.0328,0.22966 0.0532,0.34423 0.0492,0.30321 0.1024,0.60642 0.15161,0.90964 0.0532,0.29924 0.10636,0.60245 0.15981,0.90143 0.0532,0.30321 0.10239,0.60643 0.15557,0.90964 0.045,0.30321 0.09,0.60245 0.1352,0.90567 0.004,0.0407 0.0122,0.0817 0.0164,0.127 0.60616,3.23691 1.21232,6.47805 1.81821,9.71497 0.0124,0.041 0.0206,0.0817 0.0328,0.12276 0.43418,2.07751 0.86016,4.15476 1.29831,6.2283 0.28681,1.36419 0.53658,2.73685 0.89297,4.0849 0.94192,3.56076 1.93305,7.10909 2.9038,10.66165 0.0696,0.254 0.13917,0.51223 0.20876,0.76623 0.4998,1.52427 0.97472,3.0607 1.5031,4.57253 1.33509,3.82296 2.78077,7.60095 4.87786,11.08763 0.19235,0.31962 0.36036,0.65987 0.54054,0.98769 -1.48246,-1.67587 -2.98159,-3.33957 -4.44368,-5.03185 -7.78986,-9.04293 -15.28868,-18.32345 -22.23479,-28.03445 -3.44037,-4.81039 -6.68417,-9.76419 -10.017919,-14.65236 -0.11879,-0.17198 -0.20478,-0.3646 -0.30294,-0.54901 -0.27861,-1.71265 -0.56118,-3.42556 -0.83556,-5.14245 -0.19261,-1.20438 -0.381,-2.41326 -0.55695,-3.61791 -0.2868,-1.9177 -0.56938,-3.83937 -0.83978,-5.76104 -0.19659,-1.40943 -0.38497,-2.81887 -0.55695,-4.22857 -0.20055,-1.65523 -0.36857,-3.3147 -0.57732,-4.96993 -0.18018,-1.46701 -0.42201,-2.92978 -0.58579,-4.39666 -0.19235,-1.69222 -0.32755,-3.38854 -0.49953,-5.080794 -0.1188,-1.184142 -0.2622,-2.368311 -0.40138,-3.622119 7.507029,-0.700669 14.936529,-1.39311 22.382169,-2.089679 0.0942,0.503978 0.18018,0.954696 0.2622,1.401313 0.0656,0.631004 0.13097,1.26611 0.19658,1.897115 z"
       fill="none" stroke="#ffffff" />
    <path
       d="m 54.114908,20.577937 c -0.05318,0.086 -0.143404,0.16801 -0.151606,0.25797 -0.466725,6.05208 -0.646906,12.11606 -0.417777,18.17634 0.171979,4.58497 0.520171,9.1657 0.868362,13.74273 0.176213,2.30266 0.520171,4.59316 0.814917,6.88366 0.15584,1.22925 0.368829,2.45428 0.557212,3.6793 0.02037,0.11879 0.03678,0.23786 0.05715,0.35665 0.336021,1.80288 0.675746,3.60575 1.011767,5.40862 0.01217,0.0407 0.02461,0.086 0.03281,0.127 0.474928,2.03623 0.945886,4.07696 1.421078,6.1132 0.376766,1.38086 0.708554,2.77415 1.138502,4.13834 0.651139,2.07354 1.326885,4.14258 2.064279,6.19125 1.859227,5.19139 4.1529,10.18223 7.015691,14.906363 0.593725,0.97949 1.199886,1.95051 1.802077,2.92577 -1.802077,-1.74149 -3.645164,-3.44197 -5.39406,-5.232403 -5.434806,-5.56446 -10.455804,-11.49324 -15.116704,-17.72153 -5.57821,-7.45305 -10.587037,-15.27096 -14.776714,-23.59687 -1.269736,-2.52412 -2.400036,-5.11783 -3.595952,-7.67873 -0.05318,-1.06522 -0.118798,-2.12646 -0.163777,-3.19194 -0.102394,-2.45824 -0.254,-4.92098 -0.282575,-7.37923 -0.04101,-3.45413 -0.05741,-6.9125 0.03254,-10.3624 0.09022,-3.43376 0.319617,-6.86329 0.491596,-10.34606 0.262202,-0.0123 0.425979,-0.041 0.585523,-0.0246 3.915569,0.40974 7.826639,0.83177 11.742208,1.24151 3.231356,0.34009 6.462713,0.66789 9.6901,0.99557 0.266171,0.0288 0.56515,-0.0204 0.569383,0.38524 z"
       fill="none" stroke="#ffffff" />
    <path
       d="m 88.575031,55.676237 c 0.0902,0.45085 0.17622,0.90144 0.26617,1.35229 0.0452,0.1516 0.0942,0.30321 0.14341,0.45481 0.58976,2.68791 1.08955,5.39618 1.79387,8.05551 1.04431,3.94573 2.22806,7.85468 3.35836,11.77607 0.0368,0.127 0.10239,0.2458 0.15557,0.36857 1.95766,5.77347 4.23096,11.39904 7.662869,16.48804 0.086,0.127 0.15981,0.25823 0.24183,0.3892 -0.54478,-0.60616 -1.10993,-1.19221 -1.6383,-1.81504 -2.043649,-2.42967 -4.091519,-4.85537 -6.110559,-7.30568 -1.50733,-1.82747 -2.99799,-3.67136 -4.45187,-5.53984 -2.82205,-3.63009 -5.6642,-7.24006 -8.40026,-10.93603 -2.706953,-3.65892 -5.316009,-7.39166 -7.920832,-11.1244 -1.572683,-2.25769 -3.100387,-4.54819 -4.566444,-6.87943 -1.900502,-3.02393 -3.722952,-6.09706 -5.574241,-9.14956 -0.08996,-0.14764 -0.159544,-0.30321 -0.241565,-0.45085 -0.05741,-0.63923 -0.08996,-1.28243 -0.171979,-1.91743 -0.249767,-1.88913 -0.536575,-3.77799 -0.778139,-5.67082 -0.200555,-1.5613 -0.381,-3.12235 -0.52414,-4.68762 -0.204788,-2.18387 -0.356394,-4.36774 -0.54901,-6.55161 -0.122767,-1.39727 -0.302948,-2.79046 -0.405342,-4.19177 -0.118798,-1.64716 -0.180181,-3.29843 -0.274373,-4.94559 -0.03281,-0.56134 -0.08202,-1.12271 -0.131233,-1.749613 0.495829,-0.02458 0.929745,-0.04916 1.359958,-0.06556 2.28944,-0.106521 4.574646,-0.204867 6.864085,-0.311388 2.113227,-0.09834 4.222486,-0.196691 6.335977,-0.307313 1.711854,-0.09014 3.423709,-0.208968 5.135827,-0.295011 0.855931,-0.04098 1.711851,-0.04098 2.567781,-0.04098 0.1106,0 0.22119,0.11475 0.33179,0.176186 0.0696,1.372659 0.11456,2.745289 0.22119,4.113819 0.21696,2.89687 0.44635,5.79372 0.71252,8.68667 0.19659,2.13043 0.43842,4.26112 0.69215,6.38784 0.43418,3.60971 0.86016,7.21968 1.3597,10.81722 0.35242,2.54027 0.82735,5.06836 1.24513,7.60069 -0.008,0.0489 -0.0164,0.0982 -0.0246,0.14737 0.0452,0.2622 0.0902,0.5244 0.1352,0.78687 0.10663,0.60616 0.21722,1.20862 0.32359,1.81504 0.18441,0.97923 0.36459,1.95845 0.54874,2.9337 0.0452,0.2294 0.086,0.45482 0.13124,0.68422 0.0286,0.14763 0.0571,0.29924 0.086,0.44661 0.0286,0.15161 0.0614,0.30321 0.09,0.45905 z"
       fill="none" stroke="#ffffff" />
  </g>
</svg>
