<?xml version="1.0"?>
<svg version="1.1" xmlns="http://www.w3.org/2000/svg" xmlns:xlink="http://www.w3.org/1999/xlink" x="0px" y="0px"
	 width="1200px" height="1200px" viewBox="0 0 1200 1200" xml:space="preserve">
	<g>
		<path fill="#ebeff2" d="M173.099,315.394c67.758,0,122.814-55.008,122.814-122.978c0-67.927-55.056-122.983-122.814-122.983
			C105.148,69.433,50,124.49,50,192.416C50,260.386,105.148,315.394,173.099,315.394z"/>
		<path fill="#ebeff2" d="M281.983,392.659H64.113c-7.714,0-14.113,6.38-14.113,14.166v709.719c0,7.811,6.399,14.022,14.113,14.022
			h217.869c7.623,0,13.93-6.211,13.93-14.022V406.826C295.913,399.039,289.605,392.659,281.983,392.659z"/>
		<path fill="#ebeff2" d="M1149.224,568.366c-15.906-59.359-79.337-186.173-255.892-186.173
			c-105.872,0-179.095,51.288-217.961,93.147v-68.514c0-7.787-6.211-14.166-13.93-14.166H443.571c-7.714,0-13.926,6.38-13.926,14.166
			v709.719c0,7.811,6.211,14.022,13.926,14.022H661.44c7.719,0,13.93-6.211,13.93-14.022V683.163
			c0.752-44.374,40.562-107.689,116.227-107.689c105.309,0,112.276,63.171,112.276,140.484v400.587
			c0,7.811,6.211,14.022,14.113,14.022h217.869c7.811,0,14.118-6.211,14.118-14.022V615.964
			C1150.163,567.875,1149.224,568.366,1149.224,568.366z"/>
	</g>
</svg>
