<svg xmlns="http://www.w3.org/2000/svg" version="1.1" width="69" height="96" viewBox="0 0 430 594"><defs><style>.cls-1{clip-path:url(#clippath);}.cls-2{fill:none;}.cls-2,.cls-3{stroke-width:0px;}.cls-3{fill:#ebeff2;}</style><clipPath id="clippath"><rect class="cls-2" x="344.49" y="192.42" width="152.42" height="209.59"/></clipPath></defs><g class="cls-1" transform="translate(-964 -540) scale(2.8 2.8)"><path class="cls-3" d="M344.49,296.57l63.51,79.39c1.27,1.7,2.27,3.13,3.02,4.29.74,1.17,1.11,2.38,1.11,3.65,0,1.7-1.01,3.07-3.02,4.13-2.02,1.06-5.56,1.9-10.64,2.54-2.54,0-3.81,1.7-3.81,5.08,0,.64.05,1.64.16,3.02.1,1.38.26,2.49.48,3.33,7.41-.43,15.4-.79,23.98-1.11,8.57-.32,15.82-.48,21.75-.48,2.75,0,5.98.05,9.68.16,3.7.1,7.57.21,11.59.32,4.02.1,7.99.26,11.91.48,3.91.21,18.58.42,21.75.64.42-.85.69-2.06.79-3.65.1-1.59.16-2.7.16-3.33,0-3.38-1.48-5.29-4.45-5.72-5.72-1.06-21.59-2.59-25.4-4.6-3.81-2.01-7.62-5.45-11.43-10.32l-75.58-95.26,64.46-62.56c3.38-3.38,6.88-5.88,10.48-7.46,3.6-1.59,19.47-3.02,25.4-4.29,2.33-.42,3.49-2.75,3.49-6.99v-2.38c0-.95-.21-1.96-.64-3.02-2.12.21-10.16.43-13.02.63-2.86.21-11.38.37-14.45.48-3.07.11-6.09.21-9.05.32-2.97.11-5.61.16-7.94.16-5.08,0-10.85-.16-17.31-.48-6.46-.32-12.65-.68-18.58-1.11-.43,1.06-.64,2.06-.64,3.02v2.38c0,4.45,1.16,6.67,3.49,6.67,9.53,1.06,14.29,3.39,14.29,6.99,0,3.17-2.22,6.78-6.67,10.8l-68.91,68.91"/></g></svg>
