<?xml version="1.0"?>
<svg xmlns="http://www.w3.org/2000/svg" viewBox="0 0 54 54" width="54" height="54">
  <title>Lucom</title>
  <g fill="#fefefe">
    <path
      d="M0 27 l0 -27 27 0 27 0 0 27 0 27 -27 0 -27 0 0 -27z m47.8 16.8 c0.7 -0.7 1.2 -4.1 1.2 -8.2 0 -6.8 0 -6.9 -2 -5.1 -1.5 1.3 -2 3.1 -2 6.7 l0 4.8 -17.5 0 -17.5 0 0 -13 0 -13 14.5 0 c11.9 0 14.6 0.3 15.3 1.5 0.7 1.3 1.2 1.2 3.2 -0.9 l2.3 -2.5 -2.4 -2 c-2.2 -1.8 -2.5 -1.8 -3 -0.3 -0.5 1.5 -2.9 1.8 -17 2.2 l-16.4 0.5 -0.3 13.9 c-0.2 9.3 0.1 14.3 0.9 15.2 1.5 1.9 38.8 2.1 40.7 0.2z" />
  </g>
  <g fill="#68aa2a">
    <path
      d="M27.1 48.2 c-14 -0.1 -21.9 -0.6 -22.8 -1.4 -1.1 -0.8 -1.3 -4.8 -1.1 -18.2 l0.3 -17.1 16.4 -0.3 c15.3 -0.2 16.3 -0.4 16.8 -2.2 0.3 -1.1 1.2 -2 1.9 -2 1.1 0 1.4 1.9 1.4 8 0 6.1 -0.3 8 -1.4 8 -0.7 0 -1.6 -0.9 -1.9 -2 -0.5 -1.9 -1.4 -2 -12.1 -2 l-11.6 0 0 10 0 10 14.5 0 14.5 0 0 -4.9 c0 -4.6 0.3 -5.2 4.2 -8.5 2.3 -2 4.5 -3.6 5 -3.6 0.4 0 0.8 5.3 0.8 11.8 0 10.1 -0.3 12.1 -1.7 13.3 -1.5 1.1 -6 1.3 -23.2 1.1z" />
  </g>
  <g fill="#1a171b">
    <path
      d="M37 15 c0 -6.6 0.3 -12 0.8 -12 0.4 0 3.7 2.4 7.4 5.4 l6.6 5.3 -6.7 6.7 c-3.6 3.6 -7 6.6 -7.4 6.6 -0.4 0 -0.7 -5.4 -0.7 -12z" />
  </g>
  <g fill="#c7dfb0">
  </g>
</svg>
