<svg version="1.0" xmlns="http://www.w3.org/2000/svg" width="156px" height="94px" viewBox="0 0 156 94"
     preserveAspectRatio="xMidYMid meet">
  <g fill="#03dccc">
    <path
      d="M100.2 91.3c-5.1-2.5-8.6-6.5-14.3-16.3-2.8-5-5.5-9-5.8-9-.4 0-1.2.5-1.9 1.2-.9.9-1.2.6-1.2-1.6 0-1.7 3.7-9.1 9.6-19.2 5.3-9 10.2-18.2 11-20.3 1.6-4.6.6-8.6-3.2-13.8-1.3-1.7-2.4-4.4-2.4-5.8V3.9l2.8 1.9c2.4 1.8 10.7 15.2 29.9 48.6 5.8 10.1 6.3 11.5 6.3 16.9 0 3.2-.7 7.4-1.5 9.2-2.2 4.4-7.1 9.3-11.3 11.1-4.6 1.9-13.9 1.8-18-.3zM27.2 73.8C22.3 65.7 4.1 34.2 2.6 31.3c-2-4.1-2.1-13.5-.1-17.8C4.7 9.1 9.6 4.2 13.8 2.4 18.4.5 27.4.6 31.7 2.6c5 2.5 8.5 6.3 13.9 15.6 5.8 10.1 5.3 9.5 6.4 7.8.7-1.1 1-.8 1 1.5 0 1.9-3.3 8.5-9.6 19.2C32.4 65.5 31 68.6 31 73.5c0 4.4-1.3 4.5-3.8.3z"/>
  </g>
  <g fill="#099ae0">
    <path
      d="M44.2 92.5c-12.3-3.8-19.4-17.9-14.7-29.1 2.3-5.7 19.6-34.7 22.2-37.4 2-2 2.6-2.2 3.4-1 .5.8 5.4 9.2 10.9 18.5C78.6 65 78.8 66.1 73 77.6c-4.7 9.4-8.2 12.8-15.6 15-5.7 1.7-7.6 1.7-13.2-.1zM132.2 29c-13-7.9-7.4-28 7.8-28s20.8 20.1 7.8 28c-4.3 2.6-11.3 2.6-15.6 0zM87.8 6.6c-1-.7-1.8-2.3-1.8-3.4 0-1.9.3-2 2.9-1.1 1.6.6 3.9 2.1 5.2 3.5L96.3 8h-3.4c-1.9 0-4.2-.7-5.1-1.4z"/>
  </g>
  <path
    d="M73.7 69c-.5-4.4-2.5-8.5-11.2-23.3-5.8-9.9-10.5-18.4-10.5-19 0-.6 2.4-5.2 5.4-10.2C63.5 6.4 67.6 2.7 75.2 1.1c16.5-3.7 31 12.4 25.4 28.2-1.4 3.7-15.3 28.1-21 36.8-1.7 2.6-3.6 5.5-4.2 6.5-.9 1.5-1.2.9-1.7-3.6z"
    fill="#2563f4"/>
</svg>
