<?xml version="1.0"?>
<svg viewBox="0 0 512 512" width="512" height="512" xmlns="http://www.w3.org/2000/svg">
  <title>Teaching</title>
  <!-- icon licensed by flaticon.com -->
  <path fill="#ebeff2" stroke="#ebeff2" d="M496,24H280a24.02624,24.02624,0,0,0-24,24V203.88721l-19.66406-3.27783L207.49219,164.5625a15.95722,15.95722,0,0,0-6.1875-4.70312L157.20361,140.958A31.73528,31.73528,0,0,0,160,128V80a16.02085,16.02085,0,0,0-16-16H112A16.02085,16.02085,0,0,0,96,80v48a31.59259,31.59259,0,0,0,1.75049,9.97754l-52.89893,22.6709a7.95688,7.95688,0,0,0-4.00781,3.77344l-24,48A8.00528,8.00528,0,0,0,16,216v40a7.88889,7.88889,0,0,0,.07812,1.13281l8,56A8.00147,8.00147,0,0,0,32,320H56a8.00147,8.00147,0,0,0,7.92188-6.86719l7.74218-54.20312,2.59424-3.89209L80,280.86572v46.689l-7.91406,71.28906-14.25,78.29687A16.01644,16.01644,0,0,0,73.58594,496h9A15.91116,15.91116,0,0,0,97.4375,485.9375l29.79688-74.49219a14.65336,14.65336,0,0,0,.65624-2.03125l1.77344-7.09375,14.86719,24.77344L158.72656,483.875A15.97213,15.97213,0,0,0,174.25,496H184a16.02085,16.02085,0,0,0,16-16V401.29688a15.98507,15.98507,0,0,0-.82812-5.0625L175.6416,325.63574A15.86681,15.86681,0,0,0,176,323.05469V280.7749l7.97021-39.84472,26.272,13.13232a15.92588,15.92588,0,0,0,7.16406,1.70312,15.50078,15.50078,0,0,0,1.99219-.125l20.17187-2.52343-13.22656,13.22656,11.3125,11.3125L256,259.3125V328a24.02624,24.02624,0,0,0,24,24H496V336H280a8.00541,8.00541,0,0,1-8-8V312H496V296H408V272a7.99539,7.99539,0,0,0-8-8H336a7.99539,7.99539,0,0,0-8,8v24H272V249.06055l1.98438-.24805A16.02125,16.02125,0,0,0,288,232.9375v-5.625l61.65625-61.65625-11.3125-11.3125L282.2251,210.4624a16.0506,16.0506,0,0,0-7.6001-3.47021l-2.625-.4375V48a8.00541,8.00541,0,0,1,8-8H496ZM344,280h48v16H344ZM111.98438,80H144V96H111.99219ZM144,112v16a16,16,0,0,1-32,0V112ZM38.9375,304l-2.28516-16H51.34717L49.0625,304ZM82.58594,480H73.57812l14.25782-78.35938,8.07031-72.34374A16.054,16.054,0,0,0,96,327.55469V288h64v35.05469l-24.29688,12.14843a15.95122,15.95122,0,0,0-8.35156,10.42969l-14.98437,59.90625ZM184,480h-9.75781l-14.20313-56.82031a16.2782,16.2782,0,0,0-1.78906-4.32031l-23.09814-38.48926,7.71533-30.86231,20.46191-10.231L184,401.29688Zm33.41406-240.24219-29.83594-14.91406-.6499,1.2998,4.91553-24.57324-15.6875-3.14062L161.44531,272H94.41406L86.5498,236.59717l.10645-.15967-.1665-.11084-6.67725-30.061-15.625,3.46876,5.26172,23.66992L57.34375,251.5625a8.0243,8.0243,0,0,0-1.26563,3.30469L53.63184,272H34.3667L32,255.42969V217.89062l21.84375-43.69531,52.72656-22.59619a31.52511,31.52511,0,0,0,40.12451,2.25733L195,174.5625l28.84375,36.05469a15.99071,15.99071,0,0,0,9.85937,5.77343L240,217.43994v19.49561ZM272,232.9375l-13.38965,1.67285-.2666-.2666-.34277.34277-2.001.25V220.10693l16,2.66651Z"/>
  <path fill="#ebeff2" d="M328.60938,235.0625A7.99156,7.99156,0,0,0,336,240H448a7.99539,7.99539,0,0,0,8-8V120a7.9993,7.9993,0,0,0-13.65625-5.65625l-112,112A7.991,7.991,0,0,0,328.60938,235.0625ZM440,224H424V208h16Zm0-84.6875V192H416a7.99539,7.99539,0,0,0-8,8v24H355.3125Z"/>
  <path fill="#ebeff2" d="M352,80a8.00368,8.00368,0,0,0-7.42969,5.03125l-10.35156,25.875-7.5625-11.34375A8.00217,8.00217,0,0,0,320,96H304v16h11.71875l13.625,20.4375A7.99452,7.99452,0,0,0,336,136a7.35356,7.35356,0,0,0,.82812-.04688,7.99731,7.99731,0,0,0,6.60157-4.98437L357.41406,96H432V80Z"/>
</svg>
