<?xml version="1.0" encoding="UTF-8" standalone="no"?>
<!-- Created with Inkscape (http://www.inkscape.org/) -->

<svg
   width="23mm"
   height="23mm"
   viewBox="0 0 23 23"
   version="1.1"
   id="svg1"
   xmlns="http://www.w3.org/2000/svg"
   xmlns:svg="http://www.w3.org/2000/svg">
  <defs
     id="defs1">
    <linearGradient
       id="_称未設定グラデーション_72"
       x1="50"
       y1="31.219999"
       x2="50"
       y2="81.75"
       gradientUnits="userSpaceOnUse"
       gradientTransform="matrix(0.26458333,0,0,0.26458333,-1.7445734,-2.8754353)">
      <stop
         offset="0"
         stop-color="#e96950"
         id="stop1" />
      <stop
         offset=".85"
         stop-color="#e74238"
         id="stop2" />
    </linearGradient>
  </defs>
  <g
     id="layer1">
    <path
       class="cls-5"
       d="m 11.484588,19.614145 c 7.80521,0 10.74209,-6.12775 9.42711,-10.4430999 -1.39436,-4.5825804 -5.87375,-6.0827704 -9.05933,-5.0244404 -0.11907,0.0397 -0.24342,0.0582 -0.37042,0.0582 v 0 c -0.12436,0 -0.25136,-0.0185 -0.37042,-0.0582 -3.1855794,-1.05569 -7.6623304,0.44186 -9.0593304,5.0244404 -1.31233397,4.3127099 1.621896,10.4430999 9.4271004,10.4430999 z"
       id="path2"
       style="isolation:isolate;fill:url(#_%E7%A7%B0%E6%9C%AA%E8%A8%AD%E5%AE%9A%E3%82%B0%E3%83%A9%E3%83%87%E3%83%BC%E3%82%B7%E3%83%A7%E3%83%B3_72);stroke-width:0.264583" />
    <path
       class="cls-7"
       d="m 20.911698,9.1710451 c -0.56356,-1.85473 -1.63513,-3.20411 -2.91836,-4.08517 0.43921,0.64029 0.80434,1.37848 1.06098,2.22515 1.31234,4.3127099 -1.62189,10.4430999 -9.4270997,10.4430999 -2.6828797,0 -4.7916047,-0.72496 -6.3499997,-1.84944 1.531937,2.12461 4.23862,3.70946 8.2073694,3.70946 7.80521,0 10.74209,-6.12775 9.42711,-10.4430999 z"
       id="path3"
       style="opacity:0.3;isolation:isolate;mix-blend-mode:overlay;fill:#020202;stroke-width:0.264583" />
    <path
       class="cls-2"
       d="m 11.484588,19.614145 c 7.80521,0 10.74209,-6.12775 9.42711,-10.4430999 -1.39436,-4.5825804 -5.87375,-6.0827704 -9.05933,-5.0244404 -0.11907,0.0397 -0.37042,0.0582 -0.37042,0.0582 v 0 c 0,0 -0.25136,-0.0185 -0.37042,-0.0582 -3.1855794,-1.05569 -7.6623304,0.44186 -9.0593304,5.0244404 -1.31233397,4.3127099 1.621896,10.4430999 9.4271004,10.4430999 z"
       id="path4"
       style="isolation:isolate;fill:none;stroke:#752c28;stroke-width:1.05833px;stroke-linecap:round;stroke-linejoin:round" />
    <path
       class="cls-3"
       d="m 15.418948,6.5463751 c -0.15875,-0.71966 -0.58738,-1.34408 -1.15623,-1.8176904 -0.11377,-0.0952 -0.23283,-0.1852 -0.35719,-0.26722 0.21961,-0.18257 0.4154,-0.39423 0.57944,-0.635 0.37835,-0.5424 0.59002,-1.2409 0.4154,-1.89178 -0.70909,0.63765 -1.60603,1.03453 -2.52942,1.18269 -0.43392,-0.65616 -0.71967,-1.35996 -0.88636,-2.02671 -0.16668,0.66411 -0.44979,1.36525 -0.88106,2.01877 -0.7725797,-0.127 -1.5292894,-0.41539 -2.1616394,-0.89693 -0.12171,-0.0873 -0.23019,-0.18257 -0.3519,-0.27782 -0.0291,0.10584 -0.0476,0.21167 -0.0582,0.3228 -0.0397,0.889 0.39423,1.65364 1.04511,2.19604 -0.12965,0.0847 -0.254,0.17462 -0.37042,0.27516 -0.73819,0.6164804 -1.27794,1.5372304 -1.20385,2.5161904 0.71702,-0.89958 1.72772,-1.48696 2.8178094,-1.73037 0.56091,0.84931 0.92869,1.76477 1.14564,2.62466 0.21696,-0.86518 0.58738,-1.78329 1.15359,-2.63525 0.32808,0.0714 0.64823,0.17198 0.95779,0.30957 0.56092,0.24077 1.11919,0.61383 1.5531,1.06627 0.11642,0.11377 0.22225,0.24077 0.33338,0.36512 0.0185,-0.23283 0.003,-0.46831 -0.045,-0.6985 z"
       id="path5"
       style="isolation:isolate;fill:#53894c;stroke:#445641;stroke-width:0.997479px;stroke-linecap:round;stroke-linejoin:round" />
    <path
       class="cls-6"
       d="m 3.2428226,11.758665 c -0.03704,-0.67204 0.03175,-1.3626 0.232833,-2.0319999 0.198438,-0.66939 0.537104,-1.31498 1.018646,-1.86795 0.235479,-0.28311 0.658812,-0.3175 0.936625,-0.0767 0.304271,0.25929 0.296333,0.74348 -0.01058,0.99748 -0.407459,0.34131 -0.748771,0.7911 -0.992188,1.3043899 -0.246062,0.51594 -0.399521,1.09273 -0.457729,1.69069 -0.04762,0.43921 -0.6985,0.42333 -0.722313,-0.0159 v 0 z"
       id="path6"
       style="opacity:0.5;isolation:isolate;mix-blend-mode:overlay;fill:#ffffff;stroke-width:0.264583" />
  </g>
</svg>
