<?xml version="1.0"?>
<svg viewBox="0 0 512 512" width="512" height="512" xmlns="http://www.w3.org/2000/svg">
  <title>Shopware</title>
  <circle cx="257.28" cy="256" r="254.72" fill="none"/>
  <g fill="#ebeff2">
    <path fill="#ebeff2" d="m399.36 465.67c-40.366 27.925-89.159 44.466-141.82 45.037-138.46 1.502-254.02-109.78-257.46-248.21-3.577-143.66 111.8-261.22 254.64-261.22 64.094 0 122.64 23.671 167.39 62.72 4.04 3.525 1.095 10.145-4.23 9.52-89.5-10.505-177.07-0.72-232.49 42.309-63.979 49.674-70.064 125.04-33.159 191.42 52.075 93.667 167.38 94.588 247.13 149.31 3.201 2.198 3.188 6.905-6e-3 9.114z"/>
    <path fill="#ebeff2" d="m509.44 256c0 34.637-6.903 67.615-19.414 97.7-64.088-34.275-132.37-57.607-162.96-69.062-36.174-13.565-67.825-51.246-46.724-84.406s73.854-39.188 138.66-22.608c27.638 7.08 53.219 25.232 76.546 46.842 8.734 8.092 13.878 19.439 13.888 31.346 1e-3 0.062 1e-3 0.125 1e-3 0.188z"/>
  </g>
</svg>
